%TF.GenerationSoftware,Altium Limited,Altium Designer,23.9.2 (47)*%
G04 Layer_Color=128*
%FSLAX45Y45*%
%MOMM*%
%TF.SameCoordinates,C6D65D71-24B2-464F-8DE7-77A712877E08*%
%TF.FilePolarity,Positive*%
%TF.FileFunction,Paste,Bot*%
%TF.Part,Single*%
G01*
G75*
%TA.AperFunction,SMDPad,CuDef*%
%ADD15R,0.62000X0.62000*%
%ADD16R,0.55000X0.60000*%
%ADD20R,0.35000X0.65000*%
%ADD21R,1.70000X1.10000*%
%ADD22R,0.62000X0.62000*%
%ADD26R,0.60000X0.55000*%
%ADD33R,1.20000X0.65000*%
%ADD34R,0.32000X0.51000*%
%ADD36R,0.84000X0.46000*%
%ADD69R,0.90000X0.90000*%
%ADD70R,0.80000X1.20000*%
%TA.AperFunction,BGAPad,CuDef*%
%ADD71R,1.10000X1.10000*%
%TA.AperFunction,SMDPad,CuDef*%
%ADD72R,0.80000X1.50000*%
%ADD73R,1.50000X0.80000*%
%ADD74R,0.27500X0.25000*%
%ADD75R,4.00000X1.70000*%
%ADD76R,0.65000X0.70000*%
%ADD78R,0.42500X0.37000*%
%TA.AperFunction,ConnectorPad*%
%ADD79R,0.52000X1.00000*%
%TA.AperFunction,SMDPad,CuDef*%
%ADD80R,0.25000X0.20000*%
%TA.AperFunction,ConnectorPad*%
%ADD81R,1.00000X2.00000*%
%ADD82R,0.27000X1.00000*%
%ADD83R,2.60000X1.10000*%
%TA.AperFunction,SMDPad,CuDef*%
%ADD84R,0.25000X0.27500*%
%ADD85R,0.50000X0.75000*%
%ADD86R,0.66000X0.50000*%
%ADD87R,0.37500X0.50000*%
%ADD88R,0.30000X0.65000*%
%ADD89R,5.00000X2.00000*%
%ADD90R,1.25000X2.75000*%
G36*
X27500Y4147500D02*
Y4092500D01*
X477500D01*
Y3992500D01*
X777500D01*
Y4147500D01*
X27500D01*
D02*
G37*
G36*
X477500Y3842500D02*
Y3742500D01*
X27500D01*
Y3687500D01*
X777500D01*
Y3842500D01*
X477500D01*
D02*
G37*
D15*
X2691040Y4115100D02*
D03*
X1790740Y4021680D02*
D03*
X2307937Y1614901D02*
D03*
X2307545Y1513683D02*
D03*
X2015610Y1614901D02*
D03*
X1720951Y1616385D02*
D03*
X635200Y1575540D02*
D03*
Y1465540D02*
D03*
X635200Y1355540D02*
D03*
X634362Y935424D02*
D03*
X1698740Y4021680D02*
D03*
X542362Y935424D02*
D03*
X543200Y1355540D02*
D03*
X543200Y1465540D02*
D03*
Y1575540D02*
D03*
X2215937Y1614901D02*
D03*
X2107610D02*
D03*
X2215545Y1513683D02*
D03*
X1628951Y1616385D02*
D03*
X2599040Y4115100D02*
D03*
D16*
X733624Y2374172D02*
D03*
X731188Y2006233D02*
D03*
X1798320Y3916000D02*
D03*
Y3831000D02*
D03*
X1699260Y3916000D02*
D03*
Y3831000D02*
D03*
X622267Y2722492D02*
D03*
Y2637492D02*
D03*
X246508Y2420142D02*
D03*
Y2505143D02*
D03*
X731188Y2091233D02*
D03*
X733624Y2459172D02*
D03*
X730915Y2720460D02*
D03*
Y2635460D02*
D03*
X1456622Y1660149D02*
D03*
Y1575149D02*
D03*
X1346622D02*
D03*
Y1660149D02*
D03*
D20*
X649200Y1250540D02*
D03*
X519200Y1040540D02*
D03*
X584200D02*
D03*
X649200D02*
D03*
X584200Y1250540D02*
D03*
X519200D02*
D03*
D21*
X584200Y1145540D02*
D03*
D22*
X2815040Y4001100D02*
D03*
X982213Y4213511D02*
D03*
Y4121511D02*
D03*
X2815040Y3909100D02*
D03*
D26*
X1717993Y1506355D02*
D03*
X1368988Y4241701D02*
D03*
X1368848Y4142850D02*
D03*
X1283848D02*
D03*
X1283988Y4241701D02*
D03*
X1718703Y1401256D02*
D03*
X1633703D02*
D03*
X1632993Y1506355D02*
D03*
X382500Y1770000D02*
D03*
X297500D02*
D03*
X1993220Y1135380D02*
D03*
X1908220D02*
D03*
X1908707Y1400638D02*
D03*
X1823707D02*
D03*
X1822888Y1616310D02*
D03*
X1907888D02*
D03*
X1823237Y1504988D02*
D03*
X1908237D02*
D03*
X2380660Y3949700D02*
D03*
X2465660D02*
D03*
X2683385Y3787020D02*
D03*
X2598385D02*
D03*
D33*
X602190Y2322653D02*
D03*
X596885Y1966060D02*
D03*
X2007540Y924200D02*
D03*
X1797540Y1020200D02*
D03*
Y828200D02*
D03*
X386885Y2062060D02*
D03*
X596885Y2158060D02*
D03*
X392190Y2418653D02*
D03*
X602190Y2514653D02*
D03*
D34*
X1963882Y225058D02*
D03*
X2075369Y224251D02*
D03*
X241300Y1319060D02*
D03*
X2075369Y324251D02*
D03*
X1963882Y325058D02*
D03*
X241300Y1419060D02*
D03*
D36*
X1752540Y1271300D02*
D03*
X1982540D02*
D03*
D69*
X205000Y2050000D02*
D03*
Y2810000D02*
D03*
D70*
X150000Y2200000D02*
D03*
Y1900000D02*
D03*
Y2660000D02*
D03*
Y2960000D02*
D03*
D71*
X2055820Y2489120D02*
D03*
Y2279120D02*
D03*
Y2069120D02*
D03*
X1845820D02*
D03*
Y2279120D02*
D03*
Y2489120D02*
D03*
X1215820Y2069120D02*
D03*
X1425820D02*
D03*
X1635820D02*
D03*
X2265820D02*
D03*
X2475820D02*
D03*
X2685820D02*
D03*
Y2279120D02*
D03*
X2475820D02*
D03*
X2265820D02*
D03*
X1635820D02*
D03*
X1425820D02*
D03*
X1215820D02*
D03*
Y2489120D02*
D03*
X1425820D02*
D03*
X1635820D02*
D03*
X2265820D02*
D03*
X2475820D02*
D03*
X2685820D02*
D03*
Y2699120D02*
D03*
X2475820D02*
D03*
X2265820D02*
D03*
X2055820D02*
D03*
X1845820D02*
D03*
X1635820D02*
D03*
X1425820D02*
D03*
X1215820D02*
D03*
Y2909120D02*
D03*
X1425820Y3119120D02*
D03*
Y2909120D02*
D03*
X1635820D02*
D03*
Y3119120D02*
D03*
X1845820D02*
D03*
Y2909120D02*
D03*
X2055820D02*
D03*
Y3119120D02*
D03*
X2265820D02*
D03*
Y2909120D02*
D03*
X2475820D02*
D03*
Y3119120D02*
D03*
X2685820D02*
D03*
Y2909120D02*
D03*
X1215820Y3119120D02*
D03*
D72*
X1235820Y3339120D02*
D03*
X1345820D02*
D03*
X1455820D02*
D03*
X1565820D02*
D03*
X1675820D02*
D03*
X1785820D02*
D03*
X1895820D02*
D03*
X2005820D02*
D03*
X2115820D02*
D03*
X2225820D02*
D03*
X2335820D02*
D03*
X2445820D02*
D03*
X2555820D02*
D03*
X2665820D02*
D03*
Y1849120D02*
D03*
X2555820D02*
D03*
X2445820D02*
D03*
X2335820D02*
D03*
X2225820D02*
D03*
X2115820D02*
D03*
X2005820D02*
D03*
X1895820D02*
D03*
X1785820D02*
D03*
X1675820D02*
D03*
X1565820D02*
D03*
X1455820D02*
D03*
X1345820D02*
D03*
X1235820D02*
D03*
D73*
X2945820Y3254120D02*
D03*
Y3144120D02*
D03*
Y3034120D02*
D03*
Y2924120D02*
D03*
Y2814120D02*
D03*
Y2704120D02*
D03*
Y2594120D02*
D03*
Y2484120D02*
D03*
Y2374120D02*
D03*
Y2264120D02*
D03*
Y2154120D02*
D03*
Y2044120D02*
D03*
Y1934120D02*
D03*
X955820D02*
D03*
Y2044120D02*
D03*
Y2154120D02*
D03*
Y2264120D02*
D03*
Y2374120D02*
D03*
Y2484120D02*
D03*
Y2594120D02*
D03*
Y2704120D02*
D03*
Y2814120D02*
D03*
Y2924120D02*
D03*
Y3034120D02*
D03*
Y3144120D02*
D03*
Y3254120D02*
D03*
D74*
X2720740Y3999600D02*
D03*
Y3949600D02*
D03*
X2568340Y3999600D02*
D03*
Y3899600D02*
D03*
Y3949600D02*
D03*
X2720740Y3899600D02*
D03*
D75*
X2505000Y270000D02*
D03*
D76*
X864115Y4027500D02*
D03*
Y3917500D02*
D03*
D78*
X1164120Y1104900D02*
D03*
X1214120Y1172300D02*
D03*
X1164120D02*
D03*
X1114120D02*
D03*
Y1104900D02*
D03*
X1214120D02*
D03*
D79*
X1420000Y692500D02*
D03*
X800000D02*
D03*
X1345000D02*
D03*
X875000D02*
D03*
D80*
X1205702Y878967D02*
D03*
X1113702D02*
D03*
X1179702Y842967D02*
D03*
X1139702D02*
D03*
Y914967D02*
D03*
X1179702D02*
D03*
D81*
X1250000Y272500D02*
D03*
X970000D02*
D03*
D82*
X1285000Y692500D02*
D03*
X935000D02*
D03*
X1235000D02*
D03*
X1185000D02*
D03*
X1135000D02*
D03*
X1085000D02*
D03*
X1035000D02*
D03*
X985000D02*
D03*
D83*
X647500Y3917500D02*
D03*
D84*
X2669540Y3873300D02*
D03*
X2619540D02*
D03*
Y4025900D02*
D03*
X2669540D02*
D03*
D85*
X511245Y2646387D02*
D03*
X381245D02*
D03*
X446245Y2866387D02*
D03*
D86*
X982500Y3917500D02*
D03*
Y4007500D02*
D03*
D87*
X1190360Y4324660D02*
D03*
X1082860D02*
D03*
Y4154660D02*
D03*
X1190360D02*
D03*
D88*
X1136560Y4332160D02*
D03*
Y4147160D02*
D03*
D89*
X2505000Y1285000D02*
D03*
D90*
X1554109Y3926578D02*
D03*
X1264109D02*
D03*
%TF.MD5,a779f191cb95e899753c9fd85e35533a*%
M02*
