%TF.GenerationSoftware,Altium Limited,Altium Designer,23.9.2 (47)*%
G04 Layer_Color=0*
%FSLAX45Y45*%
%MOMM*%
%TF.SameCoordinates,C6D65D71-24B2-464F-8DE7-77A712877E08*%
%TF.FilePolarity,Positive*%
%TF.FileFunction,Plated,1,6,PTH,Drill*%
%TF.Part,Single*%
G01*
G75*
%TA.AperFunction,ComponentDrill*%
%ADD158C,2.30000*%
%ADD159O,0.65000X1.65000*%
%ADD160O,0.65000X1.95000*%
%TA.AperFunction,ViaDrill,NotFilled*%
%ADD161C,0.30000*%
%ADD162C,0.50000*%
%ADD163C,0.20000*%
%ADD164C,0.40000*%
%ADD165C,0.35000*%
D158*
X3125000Y4472500D02*
D03*
Y372500D02*
D03*
X325000Y4472500D02*
D03*
Y372500D02*
D03*
D159*
X1542000Y655000D02*
D03*
X678000D02*
D03*
D160*
X1542000Y272500D02*
D03*
X678000D02*
D03*
D161*
X263516Y2946484D02*
D03*
X2540000Y4030000D02*
D03*
X2521990Y3734104D02*
D03*
X2466340Y3662680D02*
D03*
X2599485Y3700000D02*
D03*
X814024Y2478705D02*
D03*
X770909Y2255858D02*
D03*
X637540Y2425500D02*
D03*
X1953421Y2681198D02*
D03*
X2000001Y4600002D02*
D03*
X2100001Y4400002D02*
D03*
X1800001Y4600002D02*
D03*
X1900001Y4400002D02*
D03*
X1600001Y4600002D02*
D03*
X1700001Y4400002D02*
D03*
X1400001Y4600002D02*
D03*
X1500001Y4400002D02*
D03*
Y3600002D02*
D03*
X1400001Y200000D02*
D03*
X1200001Y4600002D02*
D03*
X1000001D02*
D03*
X800000D02*
D03*
X900000Y4400002D02*
D03*
Y3600002D02*
D03*
X600000Y4600002D02*
D03*
X700000Y4400002D02*
D03*
X600000Y4200002D02*
D03*
X300000Y3600002D02*
D03*
X1117600Y3500120D02*
D03*
X977900Y3515360D02*
D03*
X1394460Y3606800D02*
D03*
X1285240Y3655060D02*
D03*
X1150620Y3657600D02*
D03*
X1049020Y3817620D02*
D03*
X1059180Y3710940D02*
D03*
X894080Y3708400D02*
D03*
Y3807460D02*
D03*
X2159000Y3624580D02*
D03*
X2997200Y4064000D02*
D03*
X2951480Y4213860D02*
D03*
X2933700Y3746500D02*
D03*
X2565400Y4429760D02*
D03*
X2678577Y3227703D02*
D03*
X2475000Y2387500D02*
D03*
X2159000Y2879044D02*
D03*
X2104685Y1497185D02*
D03*
X1104900Y3373120D02*
D03*
X1623078Y1974126D02*
D03*
X946314Y1754634D02*
D03*
X622527Y2828988D02*
D03*
X511567Y1862634D02*
D03*
X1308505Y1360560D02*
D03*
X1600200Y911860D02*
D03*
Y972820D02*
D03*
X1164120Y1029500D02*
D03*
X600000Y600000D02*
D03*
Y500000D02*
D03*
X500000Y600000D02*
D03*
Y700000D02*
D03*
X443026Y866237D02*
D03*
X714455Y2831718D02*
D03*
X2810137Y3452437D02*
D03*
X2897467Y3578289D02*
D03*
X1164380Y1251811D02*
D03*
X2161540Y759460D02*
D03*
X1647992Y1294604D02*
D03*
X3119867Y2675232D02*
D03*
X3276600Y2626360D02*
D03*
X2174383Y1975769D02*
D03*
X1950720Y2171700D02*
D03*
X1008380Y449580D02*
D03*
X1322340Y3195289D02*
D03*
X2137819Y3806370D02*
D03*
X2133600Y3919220D02*
D03*
X734060Y3223260D02*
D03*
X660400Y3530600D02*
D03*
X546100Y3512820D02*
D03*
X1742440Y3014980D02*
D03*
X469900Y2242820D02*
D03*
X1747624Y2186817D02*
D03*
X692491Y1894437D02*
D03*
X980440Y1559560D02*
D03*
X952500Y1841220D02*
D03*
X1320800Y1983740D02*
D03*
X2160820Y3046844D02*
D03*
X2173014Y3211122D02*
D03*
X2268513Y4037145D02*
D03*
X2579895Y3020805D02*
D03*
X2712693Y3466578D02*
D03*
X2641600Y3543300D02*
D03*
X2832100Y3644900D02*
D03*
X2367280Y3017520D02*
D03*
X2894580Y3645365D02*
D03*
X2971800Y3581400D02*
D03*
Y3644900D02*
D03*
X3098800Y3949700D02*
D03*
X3098378Y4098438D02*
D03*
X3101187Y3797307D02*
D03*
X332740Y952500D02*
D03*
X353920Y1040540D02*
D03*
X119380Y2400300D02*
D03*
X942340Y1671320D02*
D03*
X383540Y1239520D02*
D03*
X381000Y1338580D02*
D03*
X811588Y2118800D02*
D03*
X2788814Y1962462D02*
D03*
X1518920Y1391920D02*
D03*
X1384300Y457200D02*
D03*
X1130357Y1794161D02*
D03*
X1948180Y3208020D02*
D03*
X2189480Y375920D02*
D03*
X1965960Y409600D02*
D03*
X1950720Y2593340D02*
D03*
X820420Y2778321D02*
D03*
X734060Y2184400D02*
D03*
X2166620Y2171700D02*
D03*
D162*
X2654300Y4231640D02*
D03*
X1343660Y835660D02*
D03*
X2258060Y1074420D02*
D03*
X2100580Y1135380D02*
D03*
X1005840Y3360420D02*
D03*
X468000Y3396620D02*
D03*
X142240Y3314700D02*
D03*
X119380Y3159760D02*
D03*
X2600960Y4323080D02*
D03*
X2606040Y4518660D02*
D03*
X2494280Y4549140D02*
D03*
X2390075Y4533780D02*
D03*
X899119Y1054203D02*
D03*
X2118360Y985520D02*
D03*
X642620Y1778000D02*
D03*
X381000Y1635760D02*
D03*
X876300Y835660D02*
D03*
D163*
X3282500Y4472500D02*
D03*
X3236370Y4583870D02*
D03*
Y4361131D02*
D03*
X3125000Y4315000D02*
D03*
Y4630000D02*
D03*
X3013631Y4583870D02*
D03*
Y4361131D02*
D03*
X2967500Y4472500D02*
D03*
X3236370Y483869D02*
D03*
X3125000Y530000D02*
D03*
X3013631Y483869D02*
D03*
X2967500Y372500D02*
D03*
X3282500D02*
D03*
X3236370Y261131D02*
D03*
X3125000Y215000D02*
D03*
X3013631Y261131D02*
D03*
X482500Y4472500D02*
D03*
X436370Y4583870D02*
D03*
Y4361131D02*
D03*
X325000Y4315000D02*
D03*
Y4630000D02*
D03*
X213631Y4583870D02*
D03*
Y4361131D02*
D03*
X167500Y4472500D02*
D03*
X325000Y530000D02*
D03*
X436370Y483869D02*
D03*
X213631D02*
D03*
X482500Y372500D02*
D03*
X436370Y261131D02*
D03*
X213631D02*
D03*
X167500Y372500D02*
D03*
X325000Y215000D02*
D03*
D164*
X1130300Y271780D02*
D03*
X1397816Y1391496D02*
D03*
X3091220Y3044255D02*
D03*
X1482717Y1180228D02*
D03*
X3179360Y1747520D02*
D03*
X1767840Y642620D02*
D03*
X1087120Y536567D02*
D03*
X2370380Y2174120D02*
D03*
X1950720Y2402840D02*
D03*
X2052320Y1424940D02*
D03*
X842794Y433641D02*
D03*
X1061720Y1402080D02*
D03*
X2918509Y1433233D02*
D03*
D165*
X2359822Y3209858D02*
D03*
%TF.MD5,94878e4e5bc6c6012011c92b73981c5c*%
M02*
