%TF.GenerationSoftware,Altium Limited,Altium Designer,23.9.2 (47)*%
G04 Layer_Physical_Order=1*
G04 Layer_Color=255*
%FSLAX45Y45*%
%MOMM*%
%TF.SameCoordinates,C6D65D71-24B2-464F-8DE7-77A712877E08*%
%TF.FilePolarity,Positive*%
%TF.FileFunction,Copper,L1,Top,Signal*%
%TF.Part,Single*%
G01*
G75*
%TA.AperFunction,SMDPad,CuDef*%
%ADD10R,0.85000X0.30000*%
%ADD11R,0.30000X0.85000*%
%ADD12R,5.70000X5.70000*%
G04:AMPARAMS|DCode=13|XSize=1mm|YSize=1mm|CornerRadius=0.25mm|HoleSize=0mm|Usage=FLASHONLY|Rotation=90.000|XOffset=0mm|YOffset=0mm|HoleType=Round|Shape=RoundedRectangle|*
%AMROUNDEDRECTD13*
21,1,1.00000,0.50000,0,0,90.0*
21,1,0.50000,1.00000,0,0,90.0*
1,1,0.50000,0.25000,0.25000*
1,1,0.50000,0.25000,-0.25000*
1,1,0.50000,-0.25000,-0.25000*
1,1,0.50000,-0.25000,0.25000*
%
%ADD13ROUNDEDRECTD13*%
%TA.AperFunction,BGAPad,CuDef*%
%ADD14C,0.20000*%
%TA.AperFunction,SMDPad,CuDef*%
%ADD15R,0.62000X0.62000*%
%ADD16R,0.55000X0.60000*%
%TA.AperFunction,ConnectorPad*%
%ADD17R,2.70000X1.00000*%
%ADD18R,1.70000X0.60000*%
%TA.AperFunction,SMDPad,CuDef*%
%ADD19R,0.45000X0.95000*%
%ADD20R,0.35000X0.65000*%
%ADD21R,1.70000X1.10000*%
%ADD22R,0.62000X0.62000*%
%ADD23R,0.55000X0.60000*%
%ADD24R,1.65000X2.45000*%
%ADD25R,1.00000X2.70000*%
%ADD26R,0.60000X0.55000*%
%ADD27R,0.60000X1.70000*%
%ADD28R,0.85000X0.35000*%
%ADD29R,0.60000X0.30000*%
%ADD30R,1.10000X0.90000*%
%TA.AperFunction,ConnectorPad*%
%ADD31R,1.80000X1.20000*%
%TA.AperFunction,SMDPad,CuDef*%
%ADD32R,0.30000X0.60000*%
%ADD33R,1.20000X0.65000*%
%ADD34R,0.32000X0.51000*%
%TA.AperFunction,ConnectorPad*%
%ADD35R,1.55000X0.60000*%
%TA.AperFunction,SMDPad,CuDef*%
%ADD36R,0.84000X0.46000*%
%ADD37R,1.00000X0.90000*%
%ADD38R,2.50000X2.50000*%
%TA.AperFunction,Conductor*%
%ADD39C,0.25000*%
%ADD40C,0.20000*%
%ADD41C,0.30000*%
%ADD42C,0.62000*%
%ADD43C,0.35000*%
%ADD44C,0.50000*%
%ADD45C,0.45000*%
%ADD46C,0.10000*%
%ADD47C,0.40000*%
%ADD48C,0.55000*%
%ADD49C,0.15533*%
%ADD50C,0.70000*%
%ADD51C,0.80000*%
%ADD52C,0.25400*%
%ADD53C,0.60000*%
%ADD54C,0.46000*%
%ADD55C,1.00000*%
%TA.AperFunction,ComponentPad*%
%ADD56C,4.00000*%
%ADD57O,1.15800X2.31600*%
%ADD58O,1.20000X2.40000*%
%ADD59C,0.60000*%
%ADD60C,0.63000*%
%TA.AperFunction,ViaPad*%
%ADD61C,0.55000*%
%ADD62C,0.80000*%
%ADD63C,0.50000*%
%ADD64C,0.90000*%
%ADD65C,0.65000*%
%ADD66C,0.75000*%
G36*
X3195090Y4707739D02*
X3241315Y4688592D01*
X3282916Y4660795D01*
X3318295Y4625415D01*
X3346092Y4583814D01*
X3365239Y4537589D01*
X3375001Y4488517D01*
Y4463500D01*
Y376500D01*
Y351483D01*
X3365239Y302411D01*
X3346092Y256186D01*
X3318295Y214584D01*
X3282916Y179205D01*
X3241315Y151408D01*
X3195090Y132261D01*
X3146017Y122500D01*
X329000D01*
X303984Y122500D01*
X254911Y132261D01*
X208686Y151408D01*
X167085Y179205D01*
X131706Y214584D01*
X103909Y256186D01*
X84762Y302411D01*
X75001Y351483D01*
Y376500D01*
Y2353274D01*
X86734Y2358134D01*
X89415Y2355454D01*
X108858Y2347400D01*
X129902D01*
X149345Y2355454D01*
X164226Y2370335D01*
X172280Y2389778D01*
Y2410822D01*
X164226Y2430265D01*
X149345Y2445146D01*
X129902Y2453200D01*
X108858D01*
X89415Y2445146D01*
X86734Y2442466D01*
X75001Y2447326D01*
Y3095200D01*
X87701Y3102533D01*
X94136Y3098817D01*
X110770Y3094360D01*
X127990D01*
X144624Y3098817D01*
X159537Y3107427D01*
X171713Y3119603D01*
X180323Y3134516D01*
X184780Y3151150D01*
Y3168370D01*
X180323Y3185004D01*
X171713Y3199917D01*
X159537Y3212093D01*
X144624Y3220703D01*
X127990Y3225160D01*
X110770D01*
X94136Y3220703D01*
X87701Y3216987D01*
X75001Y3224320D01*
Y3274962D01*
X87701Y3278365D01*
X89907Y3274543D01*
X102083Y3262367D01*
X116996Y3253757D01*
X132495Y3249604D01*
X146292Y3240385D01*
X168298Y3236008D01*
X546905D01*
X553095Y3229818D01*
Y3211513D01*
X554200Y3205959D01*
Y3193028D01*
X553098Y3187485D01*
Y3127289D01*
X530203D01*
Y3005737D01*
X521002Y2997288D01*
X360202D01*
Y2962982D01*
X359696D01*
X345883Y2960234D01*
X334174Y2952410D01*
X329116Y2947352D01*
X316416Y2952613D01*
Y2957006D01*
X308362Y2976449D01*
X293482Y2991330D01*
X274039Y2999384D01*
X252994D01*
X233551Y2991330D01*
X218670Y2976449D01*
X210616Y2957006D01*
Y2935961D01*
X218670Y2916518D01*
X224127Y2911061D01*
X224556Y2910351D01*
X224655Y2910138D01*
X224703Y2910073D01*
X224715Y2910027D01*
X224771Y2909747D01*
X224874Y2908749D01*
Y2718984D01*
X227815Y2704196D01*
X236192Y2691660D01*
X246203Y2681648D01*
X244593Y2665298D01*
X238664Y2661336D01*
X227524Y2644665D01*
X223613Y2625000D01*
Y2575000D01*
X227524Y2555335D01*
X238664Y2538664D01*
X247683Y2532637D01*
Y2517363D01*
X238664Y2511336D01*
X227524Y2494665D01*
X223613Y2475000D01*
Y2425000D01*
X227524Y2405335D01*
X238664Y2388664D01*
X247683Y2382637D01*
Y2367363D01*
X238664Y2361336D01*
X227524Y2344665D01*
X223613Y2325000D01*
Y2275000D01*
X227524Y2255335D01*
X238664Y2238664D01*
X247683Y2232637D01*
Y2217363D01*
X238664Y2211336D01*
X227524Y2194665D01*
X223613Y2175000D01*
Y2125000D01*
X227524Y2105335D01*
X238664Y2088664D01*
X247683Y2082637D01*
Y2067363D01*
X238664Y2061336D01*
X227524Y2044665D01*
X223613Y2025000D01*
Y1975000D01*
X227524Y1955335D01*
X238664Y1938664D01*
X255335Y1927524D01*
X275000Y1923613D01*
X325000D01*
X344665Y1927524D01*
X361336Y1938664D01*
X372476Y1955335D01*
X374180Y1963907D01*
X397500D01*
X411312Y1966654D01*
X423022Y1974478D01*
X666435Y2217891D01*
X679494Y2216963D01*
X686008Y2206627D01*
X681160Y2194922D01*
Y2173878D01*
X689214Y2154435D01*
X704095Y2139554D01*
X723538Y2131500D01*
X744582D01*
X747368Y2132654D01*
X758688Y2123596D01*
Y2108277D01*
X766741Y2088835D01*
X781622Y2073954D01*
X801065Y2065900D01*
X822110D01*
X832577Y2070236D01*
X843895Y2062674D01*
X844644Y2049913D01*
X828374Y2033642D01*
X522500D01*
X507712Y2030701D01*
X495176Y2022324D01*
X257676Y1784824D01*
X249299Y1772288D01*
X246358Y1757500D01*
Y1600000D01*
X249299Y1585212D01*
X257676Y1572676D01*
X317915Y1512436D01*
X330451Y1504060D01*
X345239Y1501118D01*
X420757D01*
Y1391595D01*
X417283Y1388697D01*
X408057Y1384631D01*
X391522Y1391480D01*
X370478D01*
X351035Y1383426D01*
X336154Y1368545D01*
X328100Y1349102D01*
Y1328058D01*
X336154Y1308615D01*
X348692Y1296077D01*
X350773Y1291084D01*
X349734Y1280526D01*
X338694Y1269485D01*
X330640Y1250042D01*
Y1228998D01*
X338694Y1209555D01*
X353575Y1194674D01*
X373018Y1186620D01*
X394062D01*
X408057Y1192417D01*
X420302Y1185585D01*
X420757Y1184977D01*
Y1184361D01*
X626557D01*
Y1184360D01*
X629138Y1185684D01*
X711938D01*
Y1270777D01*
X724638Y1276037D01*
X767839Y1232836D01*
Y1185684D01*
X850639D01*
Y1287484D01*
X822488D01*
X742887Y1367085D01*
X730351Y1375461D01*
X715563Y1378403D01*
X626557D01*
Y1401118D01*
X784440D01*
X799228Y1404060D01*
X811765Y1412436D01*
X836563Y1437235D01*
X844940Y1449772D01*
X847881Y1464559D01*
Y1487627D01*
X850639D01*
Y1589427D01*
X787942D01*
Y1784854D01*
X904673Y1901585D01*
X916407Y1896724D01*
Y1881483D01*
X916406Y1881479D01*
X916314Y1881140D01*
X916218Y1880876D01*
X916113Y1880651D01*
X915978Y1880413D01*
X915789Y1880136D01*
X915506Y1879785D01*
X914440Y1878660D01*
X913274Y1876805D01*
X907654Y1871185D01*
X899600Y1851742D01*
Y1830697D01*
X907654Y1811254D01*
X922535Y1796374D01*
X941978Y1788320D01*
X963022D01*
X982465Y1796374D01*
X997346Y1811254D01*
X1001625Y1821585D01*
X1073028D01*
X1080084Y1811026D01*
X1077457Y1804683D01*
Y1783638D01*
X1085511Y1764195D01*
X1085588Y1764118D01*
X1080727Y1752385D01*
X992133D01*
Y1747982D01*
X978807Y1745331D01*
X967097Y1737507D01*
X953533Y1723942D01*
X952862Y1724220D01*
X931818D01*
X912375Y1716166D01*
X897494Y1701285D01*
X889440Y1681842D01*
Y1660798D01*
X897494Y1641355D01*
X912375Y1626474D01*
X931818Y1618420D01*
X952862D01*
X955981Y1606687D01*
X950475Y1604406D01*
X935594Y1589525D01*
X927540Y1570082D01*
Y1549038D01*
X935594Y1529595D01*
X950475Y1514714D01*
X969918Y1506660D01*
X990962D01*
X1010405Y1514714D01*
X1025286Y1529595D01*
X1033340Y1549038D01*
Y1570082D01*
X1025286Y1589525D01*
X1010405Y1604406D01*
X990962Y1612460D01*
X969918D01*
X966799Y1624193D01*
X972305Y1626474D01*
X987186Y1641355D01*
X995240Y1660798D01*
Y1661764D01*
X995292Y1661896D01*
X995733Y1662860D01*
X996220Y1663785D01*
X996761Y1664685D01*
X997356Y1665561D01*
X997730Y1666052D01*
X1003263Y1671585D01*
X1071341D01*
Y1654452D01*
X1069384Y1651523D01*
X1067110Y1640089D01*
X1056370D01*
Y1591005D01*
X1054887Y1583548D01*
Y1477383D01*
X1021058Y1443554D01*
X1020548Y1442791D01*
X1012635Y1434878D01*
X1003820Y1413597D01*
Y1390563D01*
X1012635Y1369282D01*
X1028922Y1352995D01*
X1050203Y1344180D01*
X1073237D01*
X1094518Y1352995D01*
X1110805Y1369282D01*
X1111775Y1371622D01*
X1153054Y1412902D01*
X1157698Y1419852D01*
X1168792D01*
Y1448008D01*
X1169897Y1453564D01*
X1169897Y1453565D01*
Y1583548D01*
X1169170Y1587200D01*
Y1640089D01*
X1154351D01*
X1153724Y1640853D01*
Y1696985D01*
X1152933Y1700964D01*
Y1746254D01*
X1160322Y1749315D01*
X1175203Y1764195D01*
X1183257Y1783638D01*
Y1793259D01*
X1183722Y1795710D01*
X1183709Y1797188D01*
X1183732Y1797506D01*
X1183763Y1797698D01*
X1183795Y1797826D01*
X1183831Y1797931D01*
X1183893Y1798068D01*
X1183974Y1798214D01*
X1188055Y1802294D01*
X1195878Y1814003D01*
X1197387Y1821585D01*
X1252932D01*
Y1932385D01*
X1248965D01*
Y1988339D01*
X1256601Y1994758D01*
X1267900Y1988434D01*
Y1973218D01*
X1275954Y1953775D01*
X1290835Y1938894D01*
X1310278Y1930840D01*
X1331322D01*
X1350765Y1938894D01*
X1365646Y1953775D01*
X1373700Y1973218D01*
Y1994262D01*
X1365646Y2013705D01*
X1360026Y2019326D01*
X1358860Y2021180D01*
X1357794Y2022305D01*
X1357511Y2022655D01*
X1357474Y2022710D01*
X1416933Y2082170D01*
X1428667Y2077309D01*
Y1913440D01*
X1431414Y1899628D01*
X1439238Y1887918D01*
X1549278Y1777878D01*
X1560988Y1770054D01*
X1574800Y1767307D01*
X1892300D01*
X1906112Y1770054D01*
X1917822Y1777878D01*
X2109750Y1969806D01*
X2121972Y1964067D01*
X2129537Y1945804D01*
X2144418Y1930923D01*
X2163861Y1922869D01*
X2184905D01*
X2204348Y1930923D01*
X2219229Y1945804D01*
X2227283Y1965247D01*
Y1966313D01*
X2227364Y1966522D01*
X2227798Y1967477D01*
X2228281Y1968399D01*
X2228810Y1969283D01*
X2229404Y1970160D01*
X2229770Y1970641D01*
X2258439Y1999310D01*
X2260635Y2002597D01*
X2273274Y2003842D01*
X2313818Y1963298D01*
X2325528Y1955474D01*
X2339340Y1952727D01*
X2443480D01*
X2457292Y1955474D01*
X2469002Y1963298D01*
X2532502Y2026798D01*
X2540326Y2038507D01*
X2543073Y2052320D01*
Y2116110D01*
X2563090Y2136127D01*
X2590080D01*
Y2114320D01*
X2613637D01*
X2623620Y2107760D01*
Y2001960D01*
X2734420D01*
Y2100253D01*
X2746885Y2108328D01*
X2752720Y2105683D01*
Y2002726D01*
X2752719Y2002722D01*
X2752627Y2002383D01*
X2752531Y2002118D01*
X2752427Y2001893D01*
X2752292Y2001655D01*
X2752103Y2001378D01*
X2751819Y2001027D01*
X2750754Y1999902D01*
X2749588Y1998048D01*
X2743967Y1992428D01*
X2735914Y1972985D01*
Y1951940D01*
X2743967Y1932497D01*
X2758848Y1917616D01*
X2778291Y1909562D01*
X2799336D01*
X2818779Y1917616D01*
X2825276Y1924113D01*
X2837976Y1918853D01*
Y1816844D01*
X3058776D01*
Y1883002D01*
X3066604D01*
X3079545Y1885576D01*
X3090516Y1892906D01*
X3141786Y1944176D01*
X3149116Y1955147D01*
X3151690Y1968088D01*
Y2190481D01*
X3149116Y2203422D01*
X3141786Y2214393D01*
X3141785Y2214393D01*
X3139426Y2216752D01*
Y2436282D01*
X3274130Y2570986D01*
X3274563Y2571220D01*
X3275311Y2571557D01*
X3276321Y2571933D01*
X3277273Y2572223D01*
X3281284Y2573094D01*
X3283601Y2573427D01*
X3283696Y2573460D01*
X3287122D01*
X3306565Y2581514D01*
X3321446Y2596395D01*
X3329500Y2615838D01*
Y2636882D01*
X3321446Y2656325D01*
X3306565Y2671206D01*
X3287122Y2679260D01*
X3266078D01*
X3246635Y2671206D01*
X3231754Y2656325D01*
X3231464Y2655625D01*
X3215253Y2649676D01*
X3214350Y2650104D01*
X3214350Y2650105D01*
Y2700361D01*
X3211776Y2713302D01*
X3204446Y2724273D01*
X3204445Y2724273D01*
X3082109Y2846609D01*
Y2866353D01*
X3112176Y2896419D01*
X3119431D01*
X3126508Y2897827D01*
X3195803D01*
X3208744Y2900401D01*
X3219715Y2907731D01*
X3283024Y2971041D01*
X3283025Y2971041D01*
X3290356Y2982012D01*
X3292930Y2994953D01*
X3292929Y2994954D01*
Y3245731D01*
X3290355Y3258672D01*
X3283025Y3269643D01*
X3283024Y3269643D01*
X3236964Y3315704D01*
X3226462Y3326205D01*
X3215492Y3333535D01*
X3202551Y3336109D01*
X3108707D01*
X3095766Y3333535D01*
X3084795Y3326205D01*
X3084795Y3326204D01*
X3069473Y3310882D01*
X3057740Y3315742D01*
Y3344276D01*
X2836940D01*
Y3233476D01*
X2982432D01*
X2986933Y3226376D01*
X2982432Y3219276D01*
X2836940D01*
Y3108476D01*
X3023095D01*
X3029883Y3095776D01*
X3029606Y3095362D01*
X2799257D01*
X2799256Y3095362D01*
X2794812Y3094478D01*
X2768264D01*
X2757841Y3107178D01*
X2758342Y3109697D01*
Y3157304D01*
X2772423Y3171386D01*
X2772424Y3171386D01*
X2780801Y3183923D01*
X2783742Y3198711D01*
Y3299680D01*
X2783742Y3299682D01*
X2780801Y3314469D01*
X2772424Y3327006D01*
X2751335Y3348095D01*
Y3422976D01*
X2763745Y3425445D01*
X2764139Y3425252D01*
X2765291Y3422472D01*
X2780171Y3407591D01*
X2799614Y3399538D01*
X2820659D01*
X2840102Y3407591D01*
X2854983Y3422472D01*
X2863037Y3441915D01*
Y3462960D01*
X2854983Y3482403D01*
X2840102Y3497284D01*
X2820659Y3505337D01*
X2799614D01*
X2780171Y3497284D01*
X2773672Y3490784D01*
X2758691Y3493763D01*
X2757539Y3496543D01*
X2742658Y3511424D01*
X2723216Y3519478D01*
X2702171D01*
X2693134Y3529481D01*
X2694500Y3532778D01*
Y3553822D01*
X2686446Y3573265D01*
X2671565Y3588146D01*
X2652122Y3596200D01*
X2631078D01*
X2611635Y3588146D01*
X2596754Y3573265D01*
X2588700Y3553822D01*
Y3532778D01*
X2590849Y3527591D01*
Y3513501D01*
X2587682Y3497580D01*
Y3489786D01*
X2572393D01*
Y3466806D01*
X2567674Y3465868D01*
X2554760D01*
X2543528Y3463633D01*
X2530920D01*
X2527434Y3462940D01*
X2523879D01*
X2520594Y3461579D01*
X2517108Y3460886D01*
X2514152Y3458911D01*
X2510867Y3457551D01*
X2508353Y3455037D01*
X2505398Y3453062D01*
X2503423Y3450107D01*
X2500909Y3447593D01*
X2499549Y3444308D01*
X2497574Y3441353D01*
X2488918Y3436713D01*
X2488190Y3436608D01*
X2477016Y3445588D01*
Y3449162D01*
X2479573Y3462020D01*
Y3528060D01*
X2476826Y3541873D01*
X2469002Y3553582D01*
X2362435Y3660149D01*
X2363272Y3666463D01*
X2376686Y3671010D01*
X2425678Y3622018D01*
X2444334Y3609552D01*
X2466340Y3605175D01*
X2488346Y3609552D01*
X2507002Y3622018D01*
X2519468Y3640674D01*
X2523845Y3662680D01*
X2519468Y3684686D01*
X2507002Y3703342D01*
X2449160Y3761185D01*
Y3899397D01*
Y4035584D01*
X2449211Y4035841D01*
X2448055Y4041652D01*
Y4056496D01*
X2478175D01*
Y4172296D01*
X2327375D01*
Y4118622D01*
X2326535Y4114396D01*
Y4081441D01*
X2324724Y4072339D01*
X2319564Y4069965D01*
X2312447Y4068482D01*
X2311992Y4068477D01*
X2298478Y4081991D01*
X2279035Y4090045D01*
X2257990D01*
X2238547Y4081991D01*
X2223666Y4067110D01*
X2215613Y4047667D01*
Y4026622D01*
X2223666Y4007179D01*
X2238547Y3992299D01*
X2257990Y3984245D01*
X2279035D01*
X2298478Y3992299D01*
X2313359Y4007179D01*
X2319877Y4022916D01*
X2330562Y4027469D01*
X2334112Y4027798D01*
X2334150Y4027768D01*
Y3899397D01*
Y3854560D01*
X2253420D01*
Y3750253D01*
X2173108D01*
X2170286Y3756229D01*
X2169215Y3762953D01*
X2182666Y3776404D01*
X2190719Y3795847D01*
Y3816892D01*
X2182666Y3836335D01*
X2167785Y3851216D01*
X2154314Y3856795D01*
Y3870542D01*
X2163565Y3874374D01*
X2178446Y3889255D01*
X2186500Y3908698D01*
Y3929742D01*
X2178446Y3949185D01*
X2163565Y3964066D01*
X2144122Y3972120D01*
X2123078D01*
X2103635Y3964066D01*
X2088754Y3949185D01*
X2080700Y3929742D01*
Y3921794D01*
X2080214Y3919658D01*
X2080171Y3918109D01*
X2080124Y3917662D01*
X2080062Y3917331D01*
X2079989Y3917069D01*
X2079902Y3916833D01*
X2079784Y3916579D01*
X2079610Y3916274D01*
X2079608Y3916272D01*
X1457618Y3294282D01*
X1296286D01*
X1282474Y3291535D01*
X1270764Y3283711D01*
X1194238Y3207185D01*
X1186414Y3195475D01*
X1183667Y3181663D01*
Y3048321D01*
X1179360D01*
Y2912520D01*
X1671860D01*
Y2870020D01*
X1807660D01*
Y2871778D01*
X1815680D01*
X1830468Y2874720D01*
X1843005Y2883096D01*
X1849395Y2889486D01*
X1856674Y2890934D01*
X1871692Y2900968D01*
X1886404Y2915680D01*
X1974100D01*
Y2928340D01*
X2185616D01*
X2202355Y2931669D01*
X2216545Y2941151D01*
X2262580Y2987186D01*
X2271686Y2983809D01*
X2274434Y2981681D01*
X2274407Y2981543D01*
Y2846514D01*
X1807660D01*
Y2850820D01*
X1671860D01*
Y2770020D01*
Y2670021D01*
Y2570021D01*
Y2470020D01*
Y2358320D01*
X1629360D01*
Y2222520D01*
X1656243D01*
X1658548Y2219712D01*
Y2178720D01*
X1656420D01*
Y2065920D01*
X1656545D01*
Y1978473D01*
X1664564D01*
X1669824Y1965773D01*
X1651420Y1947368D01*
X1611994D01*
X1595963Y1963400D01*
Y2151013D01*
X1603860Y2162834D01*
X1606802Y2177621D01*
X1605813Y2182589D01*
Y2222520D01*
X1610160D01*
Y2358320D01*
X1117660D01*
Y2470020D01*
Y2550820D01*
X981860D01*
Y2546563D01*
X970369D01*
X955581Y2543621D01*
X943044Y2535245D01*
X939087Y2531288D01*
X927820Y2526976D01*
Y2526976D01*
X927820Y2526976D01*
X875105D01*
X864248Y2529135D01*
X830508D01*
X824547Y2531605D01*
X817357D01*
Y2562698D01*
X842141Y2587483D01*
X899896D01*
X902080Y2585298D01*
X913789Y2577474D01*
X927602Y2574727D01*
X978464D01*
X980474Y2574327D01*
X981860D01*
Y2570021D01*
X1117660D01*
Y2620020D01*
Y2720020D01*
Y2820021D01*
Y2912520D01*
X1160160D01*
Y3048321D01*
X1154834D01*
X1152961Y3057732D01*
X1144585Y3070269D01*
X1144584Y3070269D01*
X1132513Y3082340D01*
X1124619Y3094155D01*
X1112760Y3106014D01*
Y3218700D01*
X1097551D01*
Y3309900D01*
X1094416Y3325663D01*
X1085487Y3339027D01*
X1075288Y3349225D01*
X1074376Y3350539D01*
X1073618Y3351837D01*
X1073021Y3353083D01*
X1072559Y3354299D01*
X1072207Y3355534D01*
X1071954Y3356825D01*
X1071799Y3358227D01*
X1071725Y3360776D01*
X1071240Y3362888D01*
Y3369030D01*
X1066783Y3385664D01*
X1058173Y3400577D01*
X1045997Y3412753D01*
X1031084Y3421363D01*
X1014450Y3425820D01*
X997230D01*
X980596Y3421363D01*
X965683Y3412753D01*
X953507Y3400577D01*
X944897Y3385664D01*
X940440Y3369030D01*
Y3351810D01*
X944897Y3335176D01*
X953507Y3320263D01*
X965683Y3308087D01*
X980596Y3299477D01*
X997230Y3295020D01*
X1003372D01*
X1005484Y3294535D01*
X1008033Y3294461D01*
X1009435Y3294306D01*
X1010726Y3294053D01*
X1011961Y3293701D01*
X1013177Y3293239D01*
X1014423Y3292642D01*
X1015168Y3292207D01*
Y3218700D01*
X999960D01*
Y3105900D01*
X1015168D01*
Y3104160D01*
X1018304Y3088397D01*
X1027233Y3075034D01*
X1059503Y3042764D01*
X1055323Y3028983D01*
X1046691Y3027266D01*
X1031673Y3017232D01*
X1031673Y3017231D01*
X1017028Y3002587D01*
X1006994Y2987569D01*
X1003470Y2969855D01*
X1003471Y2969854D01*
Y2950820D01*
X981861D01*
X981860Y2950821D01*
X979501Y2952368D01*
X978254Y2953187D01*
X970759Y2954677D01*
X970758Y2954678D01*
X970497Y2954729D01*
X960540Y2956710D01*
X927820D01*
Y2968040D01*
X880501D01*
X870545Y2970020D01*
X781097D01*
X780609Y2970347D01*
X758602Y2974724D01*
X691002D01*
Y3127289D01*
X668107D01*
Y3187485D01*
X667000Y3193051D01*
Y3205959D01*
X668105Y3211513D01*
Y3253638D01*
X667000Y3259192D01*
Y3267913D01*
X665266D01*
X663728Y3275644D01*
X651262Y3294300D01*
X611387Y3334175D01*
X592731Y3346641D01*
X570725Y3351018D01*
X531854D01*
X524521Y3363718D01*
X528943Y3371376D01*
X533400Y3388010D01*
Y3405230D01*
X528943Y3421863D01*
X520333Y3436776D01*
X508156Y3448953D01*
X493243Y3457563D01*
X476610Y3462020D01*
X459390D01*
X442756Y3457563D01*
X427843Y3448953D01*
X415667Y3436776D01*
X407057Y3421863D01*
X402600Y3405230D01*
Y3388010D01*
X407057Y3371376D01*
X411478Y3363718D01*
X404146Y3351018D01*
X196789D01*
X194573Y3354857D01*
X182397Y3367033D01*
X167484Y3375643D01*
X150850Y3380100D01*
X133630D01*
X116996Y3375643D01*
X102083Y3367033D01*
X89907Y3354857D01*
X87701Y3351035D01*
X75001Y3354438D01*
Y3690000D01*
X527501D01*
Y4145000D01*
X75001D01*
Y4463499D01*
X75000Y4488516D01*
X84761Y4537589D01*
X103908Y4583814D01*
X131705Y4625416D01*
X167084Y4660795D01*
X208685Y4688592D01*
X254911Y4707739D01*
X303983Y4717500D01*
X329000Y4717500D01*
X3121001Y4717500D01*
X3146017D01*
X3195090Y4707739D01*
D02*
G37*
G36*
X2133325Y3891721D02*
X2130769Y3891651D01*
X2128283Y3891389D01*
X2125866Y3890934D01*
X2123518Y3890287D01*
X2121240Y3889448D01*
X2119031Y3888416D01*
X2116892Y3887192D01*
X2114822Y3885776D01*
X2112821Y3884168D01*
X2110890Y3882368D01*
X2096748Y3896510D01*
X2098548Y3898441D01*
X2100156Y3900442D01*
X2101572Y3902512D01*
X2102796Y3904651D01*
X2103828Y3906860D01*
X2104667Y3909138D01*
X2105314Y3911486D01*
X2105769Y3913903D01*
X2106031Y3916389D01*
X2106101Y3918945D01*
X2133325Y3891721D01*
D02*
G37*
G36*
X2118181Y3787120D02*
X2116324Y3788877D01*
X2114380Y3790450D01*
X2112349Y3791837D01*
X2110232Y3793040D01*
X2108028Y3794057D01*
X2105736Y3794890D01*
X2103358Y3795537D01*
X2100893Y3796000D01*
X2098341Y3796277D01*
X2095702Y3796370D01*
Y3816370D01*
X2098341Y3816462D01*
X2100893Y3816740D01*
X2103358Y3817202D01*
X2105736Y3817850D01*
X2108028Y3818682D01*
X2110232Y3819699D01*
X2112349Y3820902D01*
X2114380Y3822290D01*
X2116324Y3823862D01*
X2118181Y3825619D01*
Y3787120D01*
D02*
G37*
G36*
X2730661Y3445534D02*
X2729513Y3443967D01*
X2728501Y3442238D01*
X2727623Y3440346D01*
X2726881Y3438292D01*
X2726273Y3436075D01*
X2725800Y3433696D01*
X2725463Y3431154D01*
X2725260Y3428450D01*
X2725193Y3425583D01*
X2700193D01*
X2700126Y3428450D01*
X2699586Y3433696D01*
X2699113Y3436075D01*
X2698506Y3438292D01*
X2697763Y3440346D01*
X2696886Y3442238D01*
X2695873Y3443967D01*
X2694726Y3445534D01*
X2693443Y3446939D01*
X2731943D01*
X2730661Y3445534D01*
D02*
G37*
G36*
X2253420Y3658760D02*
X2271512D01*
X2272974Y3651408D01*
X2280798Y3639698D01*
X2407387Y3513110D01*
Y3462020D01*
X2410134Y3448208D01*
X2415024Y3440889D01*
Y3416914D01*
X2410931Y3407033D01*
X2391533D01*
X2370554Y3428012D01*
X2363006Y3433056D01*
Y3477890D01*
X2257206D01*
Y3458584D01*
X1855249D01*
X1850389Y3470317D01*
X2058138Y3678067D01*
X2253420D01*
Y3658760D01*
D02*
G37*
G36*
X2554760Y3388583D02*
X2566198D01*
X2572393Y3387351D01*
Y3376986D01*
X2674051D01*
Y3332089D01*
X2676992Y3317301D01*
X2685369Y3304764D01*
X2706458Y3283675D01*
Y3214717D01*
X2692376Y3200635D01*
X2683999Y3188099D01*
X2681058Y3173311D01*
Y3126642D01*
X2554601D01*
X2554600Y3126642D01*
X2539812Y3123701D01*
X2527276Y3115324D01*
X2527275Y3115323D01*
X2485376Y3073424D01*
X2478973Y3063842D01*
X2466273Y3067108D01*
Y3091446D01*
X2510687Y3135859D01*
X2518511Y3147569D01*
X2521259Y3161381D01*
Y3171303D01*
X2541565D01*
Y3284103D01*
X2456487D01*
X2451227Y3296803D01*
X2471542Y3317118D01*
X2482567Y3312629D01*
X2495578Y3307240D01*
X2509661D01*
X2522672Y3312629D01*
X2532630Y3322587D01*
X2538020Y3335599D01*
Y3349681D01*
X2532630Y3362693D01*
X2524383Y3370940D01*
X2532630Y3379187D01*
X2537708Y3391447D01*
X2540364D01*
X2554760Y3388583D01*
D02*
G37*
G36*
X1045943Y3356422D02*
X1046332Y3352908D01*
X1047003Y3349478D01*
X1047959Y3346133D01*
X1049197Y3342872D01*
X1050718Y3339696D01*
X1052523Y3336604D01*
X1054611Y3333597D01*
X1056983Y3330674D01*
X1059637Y3327836D01*
X1038424Y3306623D01*
X1035586Y3309277D01*
X1032663Y3311649D01*
X1029656Y3313737D01*
X1026564Y3315542D01*
X1023388Y3317063D01*
X1020127Y3318301D01*
X1016782Y3319257D01*
X1013352Y3319928D01*
X1009838Y3320317D01*
X1006240Y3320422D01*
X1045838Y3360020D01*
X1045943Y3356422D01*
D02*
G37*
G36*
X1925684Y3192202D02*
X1924498Y3193678D01*
X1923124Y3194999D01*
X1921563Y3196164D01*
X1919815Y3197174D01*
X1917878Y3198029D01*
X1915755Y3198728D01*
X1913443Y3199272D01*
X1910944Y3199660D01*
X1908258Y3199893D01*
X1905385Y3199971D01*
X1910026Y3224971D01*
X1912903Y3225023D01*
X1918198Y3225441D01*
X1920616Y3225807D01*
X1922882Y3226277D01*
X1924995Y3226851D01*
X1926954Y3227531D01*
X1928761Y3228314D01*
X1930415Y3229202D01*
X1931916Y3230195D01*
X1925684Y3192202D01*
D02*
G37*
G36*
X2172739Y3183623D02*
X2170839Y3183537D01*
X2168919Y3183241D01*
X2166980Y3182734D01*
X2165022Y3182016D01*
X2163044Y3181089D01*
X2161047Y3179950D01*
X2159031Y3178602D01*
X2156995Y3177044D01*
X2154940Y3175275D01*
X2152865Y3173295D01*
X2135187Y3190973D01*
X2137166Y3193048D01*
X2140494Y3197139D01*
X2141842Y3199156D01*
X2142980Y3201153D01*
X2143908Y3203130D01*
X2144625Y3205089D01*
X2145132Y3207027D01*
X2145429Y3208947D01*
X2145515Y3210847D01*
X2172739Y3183623D01*
D02*
G37*
G36*
X2359547Y3182360D02*
X2358966Y3182249D01*
X2358203Y3181906D01*
X2357257Y3181331D01*
X2356128Y3180525D01*
X2353325Y3178216D01*
X2349792Y3174980D01*
X2345529Y3170817D01*
X2320781Y3195566D01*
X2322978Y3197788D01*
X2331295Y3207293D01*
X2331870Y3208239D01*
X2332213Y3209002D01*
X2332324Y3209583D01*
X2359547Y3182360D01*
D02*
G37*
G36*
X1323744Y3167825D02*
X1321176Y3167604D01*
X1318681Y3167209D01*
X1316259Y3166639D01*
X1313908Y3165895D01*
X1311631Y3164975D01*
X1309425Y3163882D01*
X1307292Y3162613D01*
X1305231Y3161170D01*
X1303242Y3159551D01*
X1301326Y3157759D01*
X1286255Y3170972D01*
X1288063Y3172917D01*
X1289662Y3174928D01*
X1291051Y3177003D01*
X1292231Y3179142D01*
X1293201Y3181346D01*
X1293962Y3183615D01*
X1294513Y3185948D01*
X1294855Y3188346D01*
X1294987Y3190809D01*
X1294910Y3193336D01*
X1323744Y3167825D01*
D02*
G37*
G36*
X2257206Y3342700D02*
X2256170Y3337490D01*
Y3277894D01*
X2260275Y3257254D01*
X2271967Y3239756D01*
X2299914Y3211809D01*
X2202791Y3114685D01*
X2194801Y3102728D01*
X2193309Y3100495D01*
X2179536Y3096350D01*
X2171342Y3099744D01*
X2163625D01*
X2162817Y3099944D01*
X2162597Y3100024D01*
X2162519Y3100036D01*
X2162480Y3100058D01*
X2162239Y3100219D01*
X2161461Y3100852D01*
X2153969Y3108344D01*
X2147301Y3112799D01*
X2144595Y3128055D01*
X2173945Y3157404D01*
X2174115Y3157535D01*
X2174673Y3157908D01*
X2174713Y3157931D01*
X2174791Y3157943D01*
X2175011Y3158023D01*
X2175819Y3158222D01*
X2183536D01*
X2202979Y3166276D01*
X2217860Y3181156D01*
X2225914Y3200599D01*
Y3221644D01*
X2217860Y3241087D01*
X2202979Y3255968D01*
X2183536Y3264022D01*
X2162491D01*
X2143048Y3255968D01*
X2128167Y3241087D01*
X2120114Y3221644D01*
Y3213927D01*
X2119914Y3213119D01*
X2119834Y3212899D01*
X2119822Y3212821D01*
X2119800Y3212782D01*
X2119639Y3212541D01*
X2119006Y3211763D01*
X2088506Y3181262D01*
X2005785D01*
X1998729Y3191822D01*
X2001080Y3197498D01*
Y3218542D01*
X1993026Y3237985D01*
X1978145Y3252866D01*
X1958702Y3260920D01*
X1937658D01*
X1918215Y3252866D01*
X1916816Y3251467D01*
X1916045Y3251307D01*
X1915241Y3251186D01*
X1914323Y3251113D01*
X1705851D01*
X1700990Y3262846D01*
X1824541Y3386397D01*
X2257206D01*
Y3342700D01*
D02*
G37*
G36*
X2142746Y3082692D02*
X2146837Y3079364D01*
X2148854Y3078016D01*
X2150851Y3076878D01*
X2152828Y3075950D01*
X2154787Y3075233D01*
X2156725Y3074726D01*
X2158645Y3074429D01*
X2160545Y3074343D01*
X2133321Y3047119D01*
X2133235Y3049019D01*
X2132939Y3050939D01*
X2132432Y3052878D01*
X2131714Y3054836D01*
X2130787Y3056814D01*
X2129649Y3058810D01*
X2128300Y3060827D01*
X2126742Y3062863D01*
X2124973Y3064918D01*
X2122993Y3066993D01*
X2140671Y3084671D01*
X2142746Y3082692D01*
D02*
G37*
G36*
X3063080Y3009140D02*
X3036412Y3008876D01*
X3026553Y3068876D01*
X3031673Y3068904D01*
X3052031Y3070254D01*
X3053697Y3070676D01*
X3054870Y3071154D01*
X3055549Y3071688D01*
X3063080Y3009140D01*
D02*
G37*
G36*
X3189444Y3216873D02*
Y3023811D01*
X3171636Y3006003D01*
X3165461Y3006643D01*
X3161723Y3011160D01*
X3157609Y3020015D01*
X3161620Y3034987D01*
Y3053524D01*
X3156823Y3071429D01*
X3147554Y3087482D01*
X3134447Y3100589D01*
X3118394Y3109858D01*
X3100489Y3114655D01*
X3081952D01*
X3070440Y3111571D01*
X3058702Y3119183D01*
X3057740Y3120862D01*
Y3174633D01*
X3065568D01*
X3078509Y3177208D01*
X3089479Y3184538D01*
X3137565Y3232624D01*
X3173693D01*
X3189444Y3216873D01*
D02*
G37*
G36*
X2600902Y3038811D02*
X2602438Y3037697D01*
X2604143Y3036715D01*
X2606016Y3035863D01*
X2608057Y3035143D01*
X2610266Y3034553D01*
X2612644Y3034095D01*
X2615190Y3033767D01*
X2617904Y3033571D01*
X2620786Y3033505D01*
Y3008105D01*
X2617904Y3008040D01*
X2612644Y3007516D01*
X2610266Y3007057D01*
X2608057Y3006468D01*
X2606016Y3005747D01*
X2604143Y3004896D01*
X2602438Y3003913D01*
X2600902Y3002800D01*
X2599533Y3001555D01*
Y3040055D01*
X2600902Y3038811D01*
D02*
G37*
G36*
X1726265Y2992740D02*
X1724764Y2993725D01*
X1723110Y2994605D01*
X1721303Y2995382D01*
X1719343Y2996056D01*
X1717230Y2996625D01*
X1714964Y2997092D01*
X1712545Y2997454D01*
X1707249Y2997869D01*
X1704371Y2997920D01*
X1699611Y3022921D01*
X1702486Y3022998D01*
X1705171Y3023232D01*
X1707669Y3023621D01*
X1709978Y3024166D01*
X1712099Y3024867D01*
X1714032Y3025724D01*
X1715777Y3026736D01*
X1717333Y3027904D01*
X1718701Y3029228D01*
X1719881Y3030707D01*
X1726265Y2992740D01*
D02*
G37*
G36*
X3040064Y2970658D02*
X2988528Y2919122D01*
X2981198Y2908152D01*
X2978624Y2895211D01*
Y2817751D01*
X2981198Y2804810D01*
X2988528Y2793839D01*
X3076095Y2706272D01*
X3075021Y2705198D01*
X3066967Y2685755D01*
Y2664710D01*
X3068791Y2660307D01*
X3068804Y2660147D01*
X3030880Y2622223D01*
X2718420D01*
Y2690880D01*
X2730192Y2693120D01*
X2744940D01*
Y2833919D01*
X2744940D01*
Y2843121D01*
X2744940D01*
Y2981678D01*
X2798027D01*
X2798457Y2981592D01*
X2798887Y2981678D01*
X2854857D01*
Y2982391D01*
X3035203D01*
X3040064Y2970658D01*
D02*
G37*
G36*
X2569372Y2967905D02*
X2590417D01*
X2594140Y2965417D01*
Y2843121D01*
X2594140D01*
Y2833919D01*
X2594140D01*
Y2693120D01*
X2600848D01*
X2612620Y2690880D01*
Y2650268D01*
X2600887Y2645408D01*
X2558284Y2688011D01*
X2547313Y2695342D01*
X2534372Y2697916D01*
X2478425D01*
X2473164Y2710616D01*
X2482824Y2720276D01*
X2491201Y2732812D01*
X2494142Y2747600D01*
Y2804600D01*
X2510900D01*
Y2910400D01*
X2510900D01*
X2506287Y2921538D01*
X2540024Y2955275D01*
X2540024Y2955276D01*
X2548401Y2967812D01*
X2557655Y2972759D01*
X2569372Y2967905D01*
D02*
G37*
G36*
X281484Y2925440D02*
X280336Y2923874D01*
X279324Y2922144D01*
X278446Y2920252D01*
X277704Y2918198D01*
X277096Y2915981D01*
X276624Y2913602D01*
X276286Y2911060D01*
X276084Y2908356D01*
X276016Y2905489D01*
X251016D01*
X250949Y2908356D01*
X250409Y2913602D01*
X249936Y2915981D01*
X249329Y2918198D01*
X248586Y2920252D01*
X247709Y2922144D01*
X246696Y2923874D01*
X245549Y2925440D01*
X244266Y2926845D01*
X282766D01*
X281484Y2925440D01*
D02*
G37*
G36*
X2276740Y2688580D02*
Y2623580D01*
Y2558580D01*
Y2493580D01*
X2302858D01*
X2303639Y2489652D01*
X2308685Y2482100D01*
X2303540Y2469400D01*
X2303540D01*
Y2356600D01*
X2326518D01*
Y2236767D01*
X2321711Y2233220D01*
X2309011Y2239631D01*
Y2249955D01*
X2306263Y2263768D01*
X2298439Y2275477D01*
X2263292Y2310625D01*
X2251582Y2318448D01*
X2237770Y2321196D01*
X1969108D01*
X1957097Y2333207D01*
X1961957Y2344940D01*
X1962237D01*
X1983518Y2353755D01*
X1993925Y2364162D01*
X2015680D01*
Y2356600D01*
X2128480D01*
Y2469400D01*
X2015680D01*
Y2461838D01*
X1966292D01*
X1960771Y2460740D01*
X1939203D01*
X1917922Y2451925D01*
X1901635Y2435638D01*
X1892820Y2414357D01*
Y2414077D01*
X1881087Y2409217D01*
X1854362Y2435942D01*
X1842652Y2443766D01*
X1828840Y2446514D01*
X1807660D01*
Y2491390D01*
X1820360Y2498178D01*
X1821983Y2497094D01*
X1835796Y2494347D01*
X1986740D01*
Y2493580D01*
X2122540D01*
Y2558580D01*
Y2644380D01*
X1986740D01*
Y2644380D01*
X1974040Y2640939D01*
X1961242Y2646240D01*
X1940198D01*
X1920755Y2638186D01*
X1905874Y2623305D01*
X1897820Y2603862D01*
Y2582818D01*
X1900191Y2577093D01*
X1893135Y2566533D01*
X1850746D01*
X1848353Y2568927D01*
Y2632989D01*
X1848354Y2632994D01*
Y2687847D01*
X1845606Y2701659D01*
X1838946Y2711627D01*
X1842501Y2724327D01*
X1946489D01*
X1946618Y2724199D01*
X1951782Y2720748D01*
X1966572Y2705958D01*
X1978282Y2698134D01*
X1986740Y2696452D01*
Y2688580D01*
X2122540D01*
Y2774327D01*
X2276740D01*
Y2688580D01*
D02*
G37*
G36*
X3127981Y2648957D02*
X3124730Y2647902D01*
X3116096Y2644470D01*
X3113592Y2643237D01*
X3109144Y2640639D01*
X3107200Y2639273D01*
X3105443Y2637862D01*
X3103872Y2636408D01*
X3089191Y2643693D01*
X3090879Y2645565D01*
X3092294Y2647530D01*
X3093435Y2649587D01*
X3094302Y2651738D01*
X3094896Y2653982D01*
X3095216Y2656318D01*
X3095262Y2658748D01*
X3095035Y2661270D01*
X3094534Y2663886D01*
X3093759Y2666594D01*
X3127981Y2648957D01*
D02*
G37*
G36*
X3279919Y2599061D02*
X3276690Y2598597D01*
X3270740Y2597305D01*
X3268020Y2596477D01*
X3265468Y2595526D01*
X3263087Y2594455D01*
X3260875Y2593262D01*
X3258832Y2591947D01*
X3256959Y2590510D01*
X3255255Y2588952D01*
X3242761Y2598425D01*
X3244408Y2600246D01*
X3245836Y2602198D01*
X3247044Y2604280D01*
X3248034Y2606491D01*
X3248805Y2608833D01*
X3249356Y2611306D01*
X3249689Y2613908D01*
X3249803Y2616640D01*
X3249697Y2619503D01*
X3249373Y2622496D01*
X3279919Y2599061D01*
D02*
G37*
G36*
X1969406Y2613788D02*
X1971572Y2612450D01*
X1973793Y2611268D01*
X1976067Y2610245D01*
X1978396Y2609379D01*
X1980778Y2608670D01*
X1983214Y2608118D01*
X1985705Y2607725D01*
X1988250Y2607489D01*
X1990848Y2607410D01*
X1994073Y2587410D01*
X1991397Y2587308D01*
X1988848Y2587002D01*
X1986425Y2586492D01*
X1984128Y2585778D01*
X1981956Y2584859D01*
X1979911Y2583737D01*
X1977992Y2582411D01*
X1976199Y2580881D01*
X1974532Y2579147D01*
X1972991Y2577208D01*
X1967294Y2615284D01*
X1969406Y2613788D01*
D02*
G37*
G36*
X482227Y2741551D02*
X503843D01*
X505281Y2734321D01*
X513105Y2722611D01*
X545818Y2689899D01*
X557527Y2682075D01*
X571339Y2679327D01*
X653350D01*
X658210Y2667594D01*
X477950Y2487333D01*
X373934D01*
X372476Y2494665D01*
X361336Y2511336D01*
X352317Y2517363D01*
Y2532637D01*
X361336Y2538664D01*
X372476Y2555335D01*
X376387Y2575000D01*
Y2625000D01*
X372476Y2644665D01*
X361336Y2661336D01*
X344665Y2672475D01*
X338642Y2673673D01*
Y2682500D01*
X335701Y2697288D01*
X327324Y2709824D01*
X327323Y2709825D01*
X304831Y2732317D01*
X308611Y2745017D01*
X482227D01*
Y2741551D01*
D02*
G37*
G36*
X661873Y2438713D02*
X663178Y2437359D01*
X664680Y2436164D01*
X666378Y2435128D01*
X668273Y2434252D01*
X670365Y2433535D01*
X672653Y2432977D01*
X675137Y2432579D01*
X677819Y2432340D01*
X680696Y2432260D01*
X674620Y2407260D01*
X671734Y2407213D01*
X666425Y2406838D01*
X664004Y2406510D01*
X659625Y2405573D01*
X657668Y2404964D01*
X655867Y2404262D01*
X654220Y2403465D01*
X652728Y2402575D01*
X660764Y2440227D01*
X661873Y2438713D01*
D02*
G37*
G36*
X2000286Y2390500D02*
X1996587Y2390480D01*
X1982132Y2389513D01*
X1981012Y2389211D01*
X1980261Y2388868D01*
X1979878Y2388486D01*
X1965654Y2431706D01*
X2001091Y2435500D01*
X2000286Y2390500D01*
D02*
G37*
G36*
X751270Y2236608D02*
X749413Y2238366D01*
X747469Y2239938D01*
X745439Y2241326D01*
X743321Y2242528D01*
X741117Y2243546D01*
X738826Y2244378D01*
X736447Y2245026D01*
X733982Y2245488D01*
X731430Y2245766D01*
X728792Y2245858D01*
Y2265858D01*
X731430Y2265951D01*
X733982Y2266228D01*
X736447Y2266691D01*
X738826Y2267338D01*
X741117Y2268171D01*
X743321Y2269188D01*
X745439Y2270391D01*
X747469Y2271778D01*
X749413Y2273351D01*
X751270Y2275108D01*
Y2236608D01*
D02*
G37*
G36*
X469625Y2215321D02*
X467725Y2215235D01*
X465806Y2214939D01*
X463867Y2214432D01*
X461908Y2213714D01*
X459931Y2212787D01*
X457934Y2211649D01*
X455917Y2210300D01*
X453881Y2208742D01*
X451826Y2206973D01*
X449751Y2204994D01*
X432074Y2222671D01*
X434053Y2224746D01*
X437380Y2228837D01*
X438729Y2230854D01*
X439867Y2232851D01*
X440794Y2234828D01*
X441512Y2236787D01*
X442019Y2238726D01*
X442315Y2240645D01*
X442401Y2242545D01*
X469625Y2215321D01*
D02*
G37*
G36*
X589536Y2403158D02*
X592694Y2395535D01*
X607575Y2380654D01*
X627018Y2372600D01*
X648062D01*
X667505Y2380654D01*
X667660Y2380809D01*
X668459Y2380979D01*
X669077Y2381063D01*
X669847Y2381118D01*
X698571D01*
X709252Y2370436D01*
X709253Y2370436D01*
X721790Y2362059D01*
X736577Y2359117D01*
X736578Y2359118D01*
X890876D01*
X895736Y2347384D01*
X856596Y2308244D01*
X848219Y2295708D01*
X845278Y2280920D01*
Y2175850D01*
X832577Y2167364D01*
X822110Y2171700D01*
X801065D01*
X798280Y2170546D01*
X786960Y2179604D01*
Y2194922D01*
X783309Y2203736D01*
X800874Y2211012D01*
X815755Y2225893D01*
X823809Y2245336D01*
Y2266381D01*
X815755Y2285824D01*
X800874Y2300705D01*
X781431Y2308758D01*
X760386D01*
X740943Y2300705D01*
X735323Y2295084D01*
X733469Y2293918D01*
X732343Y2292853D01*
X731993Y2292570D01*
X731716Y2292380D01*
X731477Y2292244D01*
X731253Y2292141D01*
X730990Y2292045D01*
X730648Y2291952D01*
X730645Y2291952D01*
X653358D01*
X639546Y2289204D01*
X627836Y2281380D01*
X386370Y2039913D01*
X372775Y2043157D01*
X372476Y2044665D01*
X361336Y2061336D01*
X352317Y2067363D01*
Y2082637D01*
X361336Y2088664D01*
X372476Y2105335D01*
X373673Y2111358D01*
X377080D01*
X391868Y2114299D01*
X404404Y2122676D01*
X470830Y2189102D01*
X471001Y2189233D01*
X471559Y2189606D01*
X471599Y2189629D01*
X471677Y2189641D01*
X471897Y2189721D01*
X472705Y2189920D01*
X480422D01*
X499865Y2197974D01*
X514746Y2212855D01*
X522800Y2232298D01*
Y2253342D01*
X514746Y2272785D01*
X499865Y2287666D01*
X483747Y2294343D01*
X478897Y2307453D01*
X577080Y2405636D01*
X589536Y2403158D01*
D02*
G37*
G36*
X1748242Y2159324D02*
X1747402Y2159144D01*
X1746650Y2158643D01*
X1745987Y2157820D01*
X1745412Y2156678D01*
X1744926Y2155214D01*
X1744528Y2153429D01*
X1744218Y2151323D01*
X1743997Y2148897D01*
X1743820Y2143082D01*
X1713820Y2150251D01*
X1720534Y2182085D01*
X1748242Y2159324D01*
D02*
G37*
G36*
X2184112Y2150204D02*
X2182540Y2148261D01*
X2181152Y2146230D01*
X2179950Y2144113D01*
X2178932Y2141908D01*
X2178100Y2139617D01*
X2177453Y2137239D01*
X2176990Y2134773D01*
X2176712Y2132222D01*
X2176620Y2129583D01*
X2156620D01*
X2156528Y2132222D01*
X2156250Y2134773D01*
X2155787Y2137239D01*
X2155140Y2139617D01*
X2154308Y2141908D01*
X2153290Y2144113D01*
X2152088Y2146230D01*
X2150700Y2148261D01*
X2149128Y2150204D01*
X2147370Y2152061D01*
X2185870D01*
X2184112Y2150204D01*
D02*
G37*
G36*
X1968212D02*
X1966640Y2148261D01*
X1965252Y2146230D01*
X1964050Y2144113D01*
X1963032Y2141908D01*
X1962200Y2139617D01*
X1961553Y2137239D01*
X1961090Y2134773D01*
X1960812Y2132222D01*
X1960720Y2129583D01*
X1940720D01*
X1940628Y2132222D01*
X1940350Y2134773D01*
X1939887Y2137239D01*
X1939240Y2139617D01*
X1938408Y2141908D01*
X1937390Y2144113D01*
X1936188Y2146230D01*
X1934800Y2148261D01*
X1933228Y2150204D01*
X1931470Y2152061D01*
X1969970D01*
X1968212Y2150204D01*
D02*
G37*
G36*
X2500958Y2209198D02*
X2510043Y2203128D01*
X2513021Y2192652D01*
X2513196Y2188320D01*
X2481458Y2156582D01*
X2473634Y2144872D01*
X2470887Y2131060D01*
Y2067270D01*
X2428530Y2024913D01*
X2354290D01*
X2309011Y2070193D01*
Y2117968D01*
X2321711Y2123229D01*
X2327153Y2117786D01*
X2343207Y2108518D01*
X2361112Y2103720D01*
X2379649D01*
X2397553Y2108518D01*
X2413607Y2117786D01*
X2426714Y2130893D01*
X2435982Y2146947D01*
X2440780Y2164852D01*
Y2183389D01*
X2436967Y2197620D01*
X2443846Y2210320D01*
X2499836D01*
X2500958Y2209198D01*
D02*
G37*
G36*
X1079360Y2236369D02*
X1016616Y2173624D01*
X1008239Y2161088D01*
X1005298Y2146300D01*
Y2111506D01*
X935262Y2041471D01*
X922562Y2046731D01*
Y2264914D01*
X971652Y2314004D01*
X981860Y2320021D01*
X1079360D01*
Y2236369D01*
D02*
G37*
G36*
X2571302Y2528642D02*
X2571302Y2528642D01*
X2582273Y2521311D01*
X2595214Y2518737D01*
X2612620D01*
Y2450080D01*
X2641664D01*
Y2422120D01*
X2590080D01*
Y2306320D01*
X2760880D01*
Y2422120D01*
X2709296D01*
Y2450080D01*
X2718420D01*
Y2518737D01*
X3058936D01*
X3063796Y2507004D01*
X3045845Y2489052D01*
X3038514Y2478081D01*
X3035940Y2465140D01*
Y2187895D01*
X3038514Y2174953D01*
X3045845Y2163983D01*
X3048204Y2161623D01*
Y2052644D01*
X2837976D01*
Y2020406D01*
X2825276Y2013134D01*
X2825263Y2013142D01*
X2824907Y2013835D01*
Y2193813D01*
X2822159Y2207625D01*
X2814335Y2219335D01*
X2773428Y2260242D01*
X2761719Y2268066D01*
X2747906Y2270813D01*
X2550880D01*
Y2326120D01*
X2403802D01*
Y2356600D01*
X2416340D01*
Y2469400D01*
X2393222D01*
Y2489199D01*
X2393223Y2489200D01*
X2396817Y2493580D01*
X2412540D01*
Y2582237D01*
X2429326D01*
X2442267Y2584811D01*
X2453238Y2592142D01*
X2455526Y2594430D01*
X2505514D01*
X2571302Y2528642D01*
D02*
G37*
G36*
X1330892Y2023218D02*
X1331170Y2020667D01*
X1331633Y2018201D01*
X1332280Y2015823D01*
X1333112Y2013532D01*
X1334130Y2011327D01*
X1335332Y2009210D01*
X1336720Y2007179D01*
X1338292Y2005236D01*
X1340050Y2003379D01*
X1301550D01*
X1303308Y2005236D01*
X1304880Y2007179D01*
X1306268Y2009210D01*
X1307470Y2011327D01*
X1308488Y2013532D01*
X1309320Y2015823D01*
X1309967Y2018201D01*
X1310430Y2020667D01*
X1310708Y2023218D01*
X1310800Y2025857D01*
X1330800D01*
X1330892Y2023218D01*
D02*
G37*
G36*
X2213308Y1991080D02*
X2211537Y1989214D01*
X2209888Y1987279D01*
X2208363Y1985276D01*
X2206960Y1983204D01*
X2205680Y1981064D01*
X2204523Y1978856D01*
X2203488Y1976579D01*
X2202576Y1974234D01*
X2201787Y1971821D01*
X2201121Y1969339D01*
X2181346Y2002373D01*
X2183699Y2001881D01*
X2186010Y2001647D01*
X2188280Y2001672D01*
X2190509Y2001955D01*
X2192697Y2002496D01*
X2194843Y2003295D01*
X2196949Y2004353D01*
X2199014Y2005669D01*
X2201037Y2007244D01*
X2203019Y2009076D01*
X2213308Y1991080D01*
D02*
G37*
G36*
X2798906Y2001941D02*
X2799184Y1999389D01*
X2799646Y1996924D01*
X2800294Y1994545D01*
X2801126Y1992254D01*
X2802143Y1990050D01*
X2803346Y1987932D01*
X2804734Y1985902D01*
X2806306Y1983958D01*
X2808063Y1982101D01*
X2769564D01*
X2771321Y1983958D01*
X2772894Y1985902D01*
X2774281Y1987932D01*
X2775484Y1990050D01*
X2776501Y1992254D01*
X2777334Y1994545D01*
X2777981Y1996924D01*
X2778444Y1999389D01*
X2778721Y2001941D01*
X2778814Y2004579D01*
X2798814D01*
X2798906Y2001941D01*
D02*
G37*
G36*
X2119555Y2196309D02*
X2113720Y2182222D01*
Y2161178D01*
X2121774Y2141735D01*
X2127394Y2136114D01*
X2128560Y2134260D01*
X2129626Y2133135D01*
X2129909Y2132785D01*
X2130098Y2132507D01*
X2130234Y2132268D01*
X2130337Y2132045D01*
X2130433Y2131781D01*
X2130526Y2131439D01*
X2130527Y2131436D01*
Y2092670D01*
X1995002Y1957146D01*
X1991059Y1959008D01*
X1984528Y1964633D01*
X1986814Y1976120D01*
X1986813Y1976121D01*
Y2131436D01*
X1986814Y2131440D01*
X1986906Y2131780D01*
X1987002Y2132044D01*
X1987107Y2132269D01*
X1987242Y2132507D01*
X1987431Y2132784D01*
X1987714Y2133135D01*
X1988780Y2134260D01*
X1989946Y2136114D01*
X1995566Y2141735D01*
X2003620Y2161178D01*
Y2182222D01*
X1997785Y2196309D01*
X2004816Y2209009D01*
X2112524D01*
X2119555Y2196309D01*
D02*
G37*
G36*
X1902596Y2219581D02*
X1904534Y2218286D01*
X1906144Y2201936D01*
X1905874Y2201665D01*
X1897820Y2182222D01*
Y2161178D01*
X1905874Y2141735D01*
X1911494Y2136114D01*
X1912660Y2134260D01*
X1913726Y2133135D01*
X1914009Y2132785D01*
X1914198Y2132507D01*
X1914334Y2132268D01*
X1914437Y2132045D01*
X1914533Y2131781D01*
X1914626Y2131439D01*
X1914627Y2131436D01*
Y1991070D01*
X1813850Y1890293D01*
X1720236D01*
X1715375Y1902027D01*
X1740269Y1926920D01*
X1748645Y1939457D01*
X1751587Y1954245D01*
Y1978473D01*
X1769344D01*
Y2091273D01*
X1769220D01*
Y2134341D01*
X1770012Y2138320D01*
Y2138832D01*
X1777590Y2141971D01*
X1792470Y2156852D01*
X1800524Y2176295D01*
Y2197340D01*
X1792470Y2216782D01*
X1777590Y2231663D01*
X1758147Y2239717D01*
X1738381D01*
Y2245776D01*
X1735440Y2260563D01*
X1727063Y2273100D01*
X1727063Y2273100D01*
X1712418Y2287745D01*
X1710160Y2289254D01*
Y2320021D01*
X1802156D01*
X1902596Y2219581D01*
D02*
G37*
G36*
X962592Y1880698D02*
X962870Y1878146D01*
X963333Y1875681D01*
X963980Y1873303D01*
X964812Y1871012D01*
X965830Y1868807D01*
X967032Y1866690D01*
X968420Y1864659D01*
X969992Y1862716D01*
X971750Y1860859D01*
X933250D01*
X935008Y1862716D01*
X936580Y1864659D01*
X937968Y1866690D01*
X939170Y1868807D01*
X940188Y1871012D01*
X941020Y1873303D01*
X941667Y1875681D01*
X942130Y1878146D01*
X942408Y1880698D01*
X942500Y1883337D01*
X962500D01*
X962592Y1880698D01*
D02*
G37*
G36*
X1166741Y1817882D02*
X1164936Y1815942D01*
X1163333Y1813935D01*
X1161934Y1811862D01*
X1160738Y1809722D01*
X1159745Y1807515D01*
X1158955Y1805241D01*
X1158368Y1802901D01*
X1157984Y1800495D01*
X1157803Y1798021D01*
X1157825Y1795482D01*
X1129586Y1821650D01*
X1132151Y1821813D01*
X1134644Y1822158D01*
X1137067Y1822685D01*
X1139417Y1823392D01*
X1141696Y1824281D01*
X1143904Y1825352D01*
X1146041Y1826603D01*
X1148106Y1828036D01*
X1150099Y1829651D01*
X1152021Y1831446D01*
X1166741Y1817882D01*
D02*
G37*
G36*
X981281Y1686505D02*
X979511Y1684640D01*
X977862Y1682706D01*
X976335Y1680704D01*
X974929Y1678635D01*
X973645Y1676497D01*
X972483Y1674292D01*
X971443Y1672018D01*
X970525Y1669676D01*
X969728Y1667266D01*
X969053Y1664789D01*
X949404Y1697897D01*
X951752Y1697397D01*
X954059Y1697157D01*
X956325Y1697176D01*
X958551Y1697454D01*
X960736Y1697991D01*
X962881Y1698787D01*
X964986Y1699842D01*
X967050Y1701157D01*
X969073Y1702731D01*
X971056Y1704564D01*
X981281Y1686505D01*
D02*
G37*
G36*
X407725Y1662329D02*
X409412Y1661370D01*
X411404Y1660524D01*
X413700Y1659791D01*
X416300Y1659170D01*
X419205Y1658663D01*
X425928Y1657986D01*
X429746Y1657817D01*
X433869Y1657760D01*
X436398Y1617760D01*
X432295Y1617692D01*
X425007Y1617150D01*
X421822Y1616675D01*
X418944Y1616064D01*
X416371Y1615318D01*
X414105Y1614436D01*
X412145Y1613418D01*
X410490Y1612265D01*
X409142Y1610976D01*
X406342Y1663401D01*
X407725Y1662329D01*
D02*
G37*
G36*
X673088Y1943658D02*
X662526Y1939283D01*
X647645Y1924402D01*
X639591Y1904959D01*
Y1883914D01*
X647645Y1864471D01*
X657156Y1854960D01*
X651815Y1844542D01*
X650756Y1843400D01*
X634010D01*
X617376Y1838943D01*
X602463Y1830333D01*
X590287Y1818157D01*
X581677Y1803244D01*
X577220Y1786610D01*
Y1769390D01*
X581677Y1752756D01*
X590287Y1737843D01*
X602463Y1725667D01*
X617376Y1717057D01*
X634010Y1712600D01*
X651230D01*
X667864Y1717057D01*
X682777Y1725667D01*
X694953Y1737843D01*
X697958Y1743048D01*
X710658Y1739645D01*
Y1601163D01*
X708332Y1589427D01*
X626557D01*
Y1695160D01*
X420757D01*
X420757Y1695161D01*
Y1695161D01*
X408057Y1692635D01*
X393512Y1698660D01*
X368488D01*
X345370Y1689084D01*
X336342Y1680057D01*
X323642Y1685317D01*
Y1741494D01*
X538506Y1956358D01*
X670561D01*
X673088Y1943658D01*
D02*
G37*
G36*
X401647Y1356998D02*
X403233Y1355879D01*
X404979Y1354893D01*
X406885Y1354038D01*
X408952Y1353315D01*
X411178Y1352722D01*
X413565Y1352262D01*
X416111Y1351933D01*
X418818Y1351736D01*
X421684Y1351670D01*
X422287Y1326670D01*
X419420Y1326601D01*
X416718Y1326394D01*
X414182Y1326048D01*
X411810Y1325564D01*
X409604Y1324942D01*
X407562Y1324181D01*
X405686Y1323282D01*
X403975Y1322245D01*
X402428Y1321070D01*
X401047Y1319756D01*
X400221Y1358247D01*
X401647Y1356998D01*
D02*
G37*
G36*
X404503Y1257580D02*
X406074Y1256438D01*
X407807Y1255431D01*
X409702Y1254558D01*
X411759Y1253819D01*
X413978Y1253215D01*
X416359Y1252745D01*
X418902Y1252409D01*
X421606Y1252208D01*
X424473Y1252140D01*
X424596Y1227141D01*
X421729Y1227072D01*
X416485Y1226530D01*
X414107Y1226055D01*
X411892Y1225444D01*
X409840Y1224698D01*
X407951Y1223816D01*
X406226Y1222798D01*
X404663Y1221645D01*
X403263Y1220356D01*
X403094Y1258856D01*
X404503Y1257580D01*
D02*
G37*
%LPC*%
G36*
X3275000Y4176387D02*
X3225000D01*
X3205335Y4172476D01*
X3188664Y4161336D01*
X3177525Y4144665D01*
X3176678Y4140410D01*
X3131469D01*
X3131190Y4140438D01*
X3128343Y4143284D01*
X3108900Y4151338D01*
X3087855D01*
X3068412Y4143284D01*
X3053532Y4128403D01*
X3045478Y4108960D01*
Y4087915D01*
X3053532Y4068472D01*
X3068412Y4053592D01*
X3087855Y4045538D01*
X3108900D01*
X3128343Y4053592D01*
X3132696Y4057945D01*
X3133648Y4058027D01*
X3176989D01*
X3177525Y4055335D01*
X3188664Y4038664D01*
X3197683Y4032637D01*
Y4017363D01*
X3188664Y4011336D01*
X3177525Y3994665D01*
X3176804Y3991041D01*
X3132270D01*
X3128765Y3994546D01*
X3109322Y4002600D01*
X3088278D01*
X3068835Y3994546D01*
X3053954Y3979665D01*
X3045900Y3960222D01*
Y3939178D01*
X3051099Y3926626D01*
X3042755Y3914340D01*
X3041010Y3914340D01*
X2960638D01*
X2953954Y3918806D01*
X2936240Y3922330D01*
X2928904Y3931540D01*
Y3949641D01*
X2833105D01*
Y3803841D01*
X2928904D01*
Y3803841D01*
X2941604Y3804265D01*
X2944300Y3803540D01*
Y3803540D01*
X3048287Y3803540D01*
X3048287Y3800257D01*
Y3786784D01*
X3056340Y3767341D01*
X3071221Y3752460D01*
X3090664Y3744407D01*
X3111709D01*
X3131152Y3752460D01*
X3138132Y3759440D01*
X3138515Y3759696D01*
X3138966Y3759788D01*
X3139101Y3759807D01*
X3176635D01*
X3177525Y3755335D01*
X3188664Y3738664D01*
X3205335Y3727524D01*
X3225000Y3723613D01*
X3275000D01*
X3294665Y3727524D01*
X3311336Y3738664D01*
X3322476Y3755335D01*
X3326387Y3775000D01*
Y3825000D01*
X3322476Y3844665D01*
X3311336Y3861336D01*
X3302317Y3867363D01*
Y3882637D01*
X3311336Y3888664D01*
X3322476Y3905335D01*
X3326387Y3925000D01*
Y3975000D01*
X3322476Y3994665D01*
X3311336Y4011336D01*
X3302317Y4017363D01*
Y4032637D01*
X3311336Y4038664D01*
X3322476Y4055335D01*
X3326387Y4075000D01*
Y4125000D01*
X3322476Y4144665D01*
X3311336Y4161336D01*
X3294665Y4172476D01*
X3275000Y4176387D01*
D02*
G37*
G36*
X2628900Y4633458D02*
X2362200D01*
X2352289Y4631486D01*
X2343888Y4625872D01*
X2300708Y4582692D01*
X2295094Y4574291D01*
X2293122Y4564380D01*
Y4312920D01*
X2295094Y4303009D01*
X2300708Y4294608D01*
X2313831Y4281484D01*
X2322233Y4275870D01*
X2327375Y4274847D01*
Y4266496D01*
X2531882D01*
Y4165600D01*
X2533854Y4155689D01*
X2539468Y4147288D01*
X2656308Y4030448D01*
X2664709Y4024834D01*
X2674620Y4022862D01*
X2768104D01*
X2773026Y4023841D01*
X2928904D01*
Y4169641D01*
X2838783D01*
X2837376Y4170479D01*
X2829346Y4182342D01*
X2830058Y4185920D01*
Y4244340D01*
X2828086Y4254251D01*
X2825872Y4257564D01*
Y4270699D01*
X2814426D01*
X2807232Y4277892D01*
X2798831Y4283506D01*
X2788920Y4285478D01*
X2720907D01*
X2715758Y4290627D01*
Y4546600D01*
X2713786Y4556511D01*
X2708172Y4564912D01*
X2647212Y4625872D01*
X2638811Y4631486D01*
X2628900Y4633458D01*
D02*
G37*
G36*
X2610007Y3752900D02*
X2588963D01*
X2569520Y3744846D01*
X2554639Y3729965D01*
X2546585Y3710522D01*
Y3689478D01*
X2554639Y3670035D01*
X2569520Y3655154D01*
X2588963Y3647100D01*
X2610007D01*
X2629450Y3655154D01*
X2644331Y3670035D01*
X2652385Y3689478D01*
Y3710522D01*
X2644331Y3729965D01*
X2629450Y3744846D01*
X2610007Y3752900D01*
D02*
G37*
G36*
X670922Y3583500D02*
X649878D01*
X630435Y3575446D01*
X615554Y3560565D01*
X607500Y3541122D01*
Y3536008D01*
X594800Y3533481D01*
X590946Y3542785D01*
X576065Y3557666D01*
X556622Y3565720D01*
X535578D01*
X516135Y3557666D01*
X501254Y3542785D01*
X493200Y3523342D01*
Y3502298D01*
X501254Y3482855D01*
X516135Y3467974D01*
X535578Y3459920D01*
X556622D01*
X576065Y3467974D01*
X590946Y3482855D01*
X599000Y3502298D01*
Y3507412D01*
X611700Y3509939D01*
X615554Y3500635D01*
X630435Y3485754D01*
X649878Y3477700D01*
X657826D01*
X659962Y3477214D01*
X661511Y3477171D01*
X661958Y3477124D01*
X662289Y3477062D01*
X662551Y3476989D01*
X662787Y3476902D01*
X663041Y3476784D01*
X663346Y3476610D01*
X663348Y3476608D01*
X809834Y3330123D01*
X807423Y3316694D01*
X804210Y3316055D01*
X787538Y3304916D01*
X776399Y3288244D01*
X773985Y3276107D01*
X771407Y3274036D01*
X760360Y3269663D01*
X760241Y3269674D01*
X744582Y3276160D01*
X723538D01*
X704095Y3268106D01*
X689214Y3253225D01*
X681160Y3233782D01*
Y3212738D01*
X689214Y3193295D01*
X704095Y3178414D01*
X723538Y3170360D01*
X744582D01*
X764025Y3178414D01*
X770498Y3184886D01*
X786848Y3183276D01*
X787538Y3182243D01*
X799038Y3174560D01*
X795185Y3161860D01*
X792280D01*
Y3056060D01*
X903080D01*
Y3161860D01*
X903080D01*
X901622Y3163636D01*
X903671Y3177874D01*
X910211Y3182243D01*
X921350Y3198915D01*
X925262Y3218580D01*
Y3268579D01*
X921350Y3288244D01*
X910211Y3304916D01*
X893539Y3316055D01*
X884968Y3317760D01*
Y3342125D01*
X882220Y3355938D01*
X874397Y3367647D01*
X714393Y3527651D01*
X714390Y3527655D01*
X714216Y3527959D01*
X714098Y3528213D01*
X714011Y3528449D01*
X713938Y3528711D01*
X713876Y3529042D01*
X713829Y3529489D01*
X713786Y3531038D01*
X713300Y3533174D01*
Y3541122D01*
X705246Y3560565D01*
X690365Y3575446D01*
X670922Y3583500D01*
D02*
G37*
G36*
X2798904Y3949641D02*
X2703104D01*
Y3803842D01*
X2691846Y3800360D01*
X2686520D01*
Y3749515D01*
X2685415Y3743960D01*
Y3701836D01*
X2686520Y3696281D01*
Y3687560D01*
X2688254D01*
X2689792Y3679829D01*
X2702258Y3661174D01*
X2759193Y3604238D01*
X2777849Y3591772D01*
X2799855Y3587395D01*
X2800030D01*
X2803113Y3586118D01*
X2806856Y3583957D01*
X2811032Y3582838D01*
X2815027Y3581183D01*
X2819314Y3580619D01*
X2823490Y3579500D01*
X2827813D01*
X2831503Y3579014D01*
Y3578289D01*
X2832067Y3574002D01*
Y3569679D01*
X2833186Y3565503D01*
X2833750Y3561216D01*
X2835405Y3557221D01*
X2836524Y3553045D01*
X2838685Y3549302D01*
X2840340Y3545307D01*
X2842972Y3541876D01*
X2845134Y3538132D01*
X2848191Y3535075D01*
X2850823Y3531645D01*
X2854253Y3529013D01*
X2857310Y3525956D01*
X2861054Y3523795D01*
X2864485Y3521162D01*
X2868480Y3519507D01*
X2872223Y3517346D01*
X2876399Y3516227D01*
X2880394Y3514572D01*
X2884681Y3514008D01*
X2888857Y3512889D01*
X2893180D01*
X2897467Y3512325D01*
X2901754Y3512889D01*
X2906077D01*
X2910252Y3514008D01*
X2914540Y3514572D01*
X2918535Y3516227D01*
X2922710Y3517346D01*
X2926454Y3519507D01*
X2930449Y3521162D01*
X2933880Y3523795D01*
X2937054Y3525627D01*
X2938818Y3524273D01*
X2942813Y3522618D01*
X2946556Y3520457D01*
X2950732Y3519338D01*
X2954727Y3517683D01*
X2959014Y3517119D01*
X2963190Y3516000D01*
X2967513D01*
X2971800Y3515436D01*
X2976087Y3516000D01*
X2980410D01*
X2984586Y3517119D01*
X2988873Y3517683D01*
X2992868Y3519338D01*
X2997044Y3520457D01*
X3000787Y3522618D01*
X3004782Y3524273D01*
X3008213Y3526906D01*
X3011957Y3529067D01*
X3015014Y3532124D01*
X3018444Y3534756D01*
X3021076Y3538186D01*
X3024133Y3541243D01*
X3026294Y3544987D01*
X3028927Y3548418D01*
X3030582Y3552413D01*
X3032743Y3556156D01*
X3033862Y3560332D01*
X3035517Y3564327D01*
X3036081Y3568614D01*
X3037200Y3572790D01*
Y3577113D01*
X3037764Y3581400D01*
Y3644900D01*
X3037200Y3649187D01*
Y3653510D01*
X3036081Y3657686D01*
X3035517Y3661973D01*
X3033862Y3665968D01*
X3032743Y3670144D01*
X3030582Y3673887D01*
X3028927Y3677882D01*
X3026294Y3681313D01*
X3024133Y3685057D01*
X3021076Y3688114D01*
X3018444Y3691544D01*
X3015014Y3694176D01*
X3011957Y3697233D01*
X3008213Y3699394D01*
X3004782Y3702027D01*
X3000787Y3703682D01*
X2997044Y3705843D01*
X2992868Y3706962D01*
X2988873Y3708617D01*
X2984586Y3709181D01*
X2980410Y3710300D01*
X2976087D01*
X2971800Y3710864D01*
X2832100D01*
X2827813Y3710300D01*
X2823490D01*
X2819314Y3709181D01*
X2817180Y3708900D01*
X2800425Y3725655D01*
Y3743960D01*
X2799320Y3749515D01*
Y3791313D01*
X2799320Y3800359D01*
X2799321D01*
X2798904Y3803842D01*
X2798904Y3803842D01*
Y3949641D01*
D02*
G37*
G36*
X3188629Y1817920D02*
X3170092D01*
X3152187Y1813122D01*
X3136712Y1804188D01*
X3128451Y1803730D01*
X2799255D01*
X2799253Y1803730D01*
X2796523Y1803187D01*
X2742396D01*
Y1747217D01*
X2742310Y1746787D01*
X2742396Y1746357D01*
Y1690387D01*
X2798366D01*
X2798796Y1690301D01*
X2799226Y1690387D01*
X2855196D01*
Y1690759D01*
X3136873D01*
X3152187Y1681918D01*
X3170092Y1677120D01*
X3188629D01*
X3206534Y1681918D01*
X3222587Y1691186D01*
X3235694Y1704293D01*
X3244963Y1720347D01*
X3249760Y1738252D01*
Y1756788D01*
X3244963Y1774693D01*
X3235694Y1790747D01*
X3222587Y1803854D01*
X3206534Y1813122D01*
X3188629Y1817920D01*
D02*
G37*
G36*
X2012260Y1718249D02*
X1711460D01*
Y1608652D01*
X1631200D01*
Y1623860D01*
X1518400D01*
Y1511060D01*
X1631200D01*
Y1526269D01*
X1711460D01*
Y1417449D01*
X1994420D01*
Y1413423D01*
X2003235Y1392142D01*
X2019522Y1375855D01*
X2040803Y1367040D01*
X2063837D01*
X2085118Y1375855D01*
X2101405Y1392142D01*
X2110220Y1413423D01*
Y1436457D01*
X2101405Y1457738D01*
X2085118Y1474025D01*
X2063837Y1482840D01*
X2040803D01*
X2024961Y1476278D01*
X2012260Y1483357D01*
Y1593417D01*
X2119492D01*
X2258060Y1454848D01*
Y1161512D01*
X2238651Y1142103D01*
X2230887Y1140022D01*
X2214833Y1130754D01*
X2201726Y1117647D01*
X2192458Y1101593D01*
X2187660Y1083688D01*
Y1065152D01*
X2192458Y1047247D01*
X2201726Y1031193D01*
X2214833Y1018086D01*
X2230887Y1008818D01*
X2248792Y1004020D01*
X2261306D01*
X2266567Y991320D01*
X2132413Y857167D01*
X2123484Y843803D01*
X2120349Y828040D01*
Y793080D01*
X2116694Y789425D01*
X2108640Y769982D01*
Y748938D01*
X2116694Y729495D01*
X2131575Y714614D01*
X2151018Y706560D01*
X2172062D01*
X2191505Y714614D01*
X2206386Y729495D01*
X2214440Y748938D01*
Y769982D01*
X2206386Y789425D01*
X2202815Y792997D01*
X2202731Y794003D01*
Y810978D01*
X2378410Y986657D01*
X2411461D01*
Y717449D01*
X2712261D01*
Y986657D01*
X2895252D01*
X2896784Y978955D01*
X2907924Y962284D01*
X2924595Y951144D01*
X2944260Y947233D01*
X2994260D01*
X3013925Y951144D01*
X3030596Y962284D01*
X3041736Y978955D01*
X3045647Y998620D01*
Y1048620D01*
X3041736Y1068285D01*
X3030596Y1084956D01*
X3013925Y1096096D01*
X2994260Y1100007D01*
X2944260D01*
X2924595Y1096096D01*
X2907924Y1084956D01*
X2897289Y1069040D01*
X2422363D01*
X2422362Y1069040D01*
X2361348D01*
X2356835Y1068142D01*
X2350578Y1079846D01*
X2363189Y1092457D01*
X2376539Y1112436D01*
X2381227Y1136003D01*
Y1480357D01*
X2376539Y1503924D01*
X2363189Y1523903D01*
X2188546Y1698546D01*
X2168567Y1711895D01*
X2145000Y1716583D01*
X2012260D01*
Y1718249D01*
D02*
G37*
G36*
X2712261D02*
X2411461D01*
Y1417449D01*
X2712261D01*
Y1718249D01*
D02*
G37*
G36*
X2930026Y1491133D02*
X2906992D01*
X2885711Y1482318D01*
X2869424Y1466030D01*
X2860609Y1444750D01*
Y1421715D01*
X2869424Y1400435D01*
X2885711Y1384147D01*
X2906992Y1375333D01*
X2930026D01*
X2951307Y1384147D01*
X2967594Y1400435D01*
X2976409Y1421715D01*
Y1444750D01*
X2967594Y1466030D01*
X2951307Y1482318D01*
X2930026Y1491133D01*
D02*
G37*
G36*
X1332933Y1802385D02*
X1222133D01*
Y1721585D01*
Y1671585D01*
X1273554D01*
X1277533Y1670794D01*
X1354373D01*
X1359314Y1665853D01*
Y1640991D01*
X1344106D01*
Y1528191D01*
X1347774D01*
Y1421982D01*
X1339916Y1403013D01*
Y1379979D01*
X1348731Y1358698D01*
X1365018Y1342411D01*
X1386299Y1333596D01*
X1409333D01*
X1430614Y1342411D01*
X1446901Y1358698D01*
X1454289Y1376533D01*
X1466972Y1377896D01*
X1467512Y1377796D01*
X1474074Y1361955D01*
X1488955Y1347074D01*
X1508398Y1339020D01*
X1529442D01*
X1548885Y1347074D01*
X1563766Y1361955D01*
X1571820Y1381398D01*
Y1402442D01*
X1563766Y1421885D01*
X1548885Y1436766D01*
X1529442Y1444820D01*
X1521494D01*
X1519358Y1445306D01*
X1517809Y1445349D01*
X1517362Y1445396D01*
X1517031Y1445458D01*
X1516769Y1445531D01*
X1516533Y1445618D01*
X1516279Y1445736D01*
X1515974Y1445910D01*
X1515972Y1445912D01*
X1497599Y1464285D01*
Y1685555D01*
X1494851Y1699367D01*
X1487027Y1711077D01*
X1410597Y1787507D01*
X1398887Y1795331D01*
X1385075Y1798079D01*
X1332933D01*
Y1802385D01*
D02*
G37*
G36*
X1658514Y1347504D02*
X1637469D01*
X1618026Y1339450D01*
X1603145Y1324570D01*
X1595092Y1305127D01*
Y1284082D01*
X1603145Y1264639D01*
X1618026Y1249758D01*
X1637469Y1241704D01*
X1658514D01*
X1677957Y1249758D01*
X1692838Y1264639D01*
X1700891Y1284082D01*
Y1305127D01*
X1692838Y1324570D01*
X1677957Y1339450D01*
X1658514Y1347504D01*
D02*
G37*
G36*
X1174902Y1304710D02*
X1153857D01*
X1134414Y1296657D01*
X1119533Y1281776D01*
X1111480Y1262333D01*
Y1241288D01*
X1119533Y1221845D01*
X1134414Y1206964D01*
X1153857Y1198911D01*
X1174902D01*
X1194345Y1206964D01*
X1209226Y1221845D01*
X1217280Y1241288D01*
Y1262333D01*
X1209226Y1281776D01*
X1194345Y1296657D01*
X1174902Y1304710D01*
D02*
G37*
G36*
X2109190Y1200780D02*
X2091970D01*
X2075336Y1196323D01*
X2060423Y1187713D01*
X2048247Y1175537D01*
X2039637Y1160624D01*
X2035180Y1143990D01*
Y1126770D01*
X2039637Y1110136D01*
X2048247Y1095223D01*
X2060423Y1083047D01*
X2075336Y1074437D01*
X2091970Y1069980D01*
X2109190D01*
X2125824Y1074437D01*
X2140737Y1083047D01*
X2152913Y1095223D01*
X2161523Y1110136D01*
X2165980Y1126770D01*
Y1143990D01*
X2161523Y1160624D01*
X2152913Y1175537D01*
X2140737Y1187713D01*
X2125824Y1196323D01*
X2109190Y1200780D01*
D02*
G37*
G36*
X907729Y1119603D02*
X890509D01*
X873875Y1115146D01*
X858962Y1106536D01*
X846786Y1094360D01*
X838176Y1079447D01*
X833719Y1062813D01*
Y1045593D01*
X838176Y1028960D01*
X846786Y1014046D01*
X858962Y1001870D01*
X873875Y993260D01*
X890509Y988803D01*
X907729D01*
X924362Y993260D01*
X939275Y1001870D01*
X951451Y1014046D01*
X960062Y1028960D01*
X964519Y1045593D01*
Y1062813D01*
X960062Y1079447D01*
X951451Y1094360D01*
X939275Y1106536D01*
X924362Y1115146D01*
X907729Y1119603D01*
D02*
G37*
G36*
X2126970Y1050920D02*
X2109750D01*
X2093116Y1046463D01*
X2078203Y1037853D01*
X2066027Y1025677D01*
X2057417Y1010764D01*
X2052960Y994130D01*
Y976910D01*
X2057417Y960276D01*
X2066027Y945363D01*
X2078203Y933187D01*
X2093116Y924577D01*
X2109750Y920120D01*
X2126970D01*
X2143604Y924577D01*
X2158517Y933187D01*
X2170693Y945363D01*
X2179303Y960276D01*
X2183760Y976910D01*
Y994130D01*
X2179303Y1010764D01*
X2170693Y1025677D01*
X2158517Y1037853D01*
X2143604Y1046463D01*
X2126970Y1050920D01*
D02*
G37*
G36*
X364443Y1093440D02*
X343398D01*
X323955Y1085386D01*
X309074Y1070505D01*
X301020Y1051062D01*
Y1030017D01*
X307968Y1013244D01*
X306384Y998841D01*
X302775Y997346D01*
X287894Y982465D01*
X279840Y963022D01*
Y941978D01*
X287894Y922535D01*
X302775Y907654D01*
X322218Y899600D01*
X343262D01*
X362705Y907654D01*
X377586Y922535D01*
X385640Y941978D01*
Y963022D01*
X378692Y979796D01*
X380276Y994199D01*
X383885Y995694D01*
X398766Y1010575D01*
X406820Y1030017D01*
Y1051062D01*
X398766Y1070505D01*
X383885Y1085386D01*
X364443Y1093440D01*
D02*
G37*
G36*
X1352270Y901060D02*
X1335050D01*
X1318416Y896603D01*
X1303503Y887993D01*
X1291327Y875817D01*
X1282717Y860904D01*
X1278260Y844270D01*
Y827050D01*
X1282717Y810416D01*
X1291327Y795503D01*
X1303503Y783327D01*
X1318416Y774717D01*
X1335050Y770260D01*
X1352270D01*
X1368904Y774717D01*
X1383817Y783327D01*
X1395993Y795503D01*
X1404603Y810416D01*
X1409060Y827050D01*
Y844270D01*
X1404603Y860904D01*
X1395993Y875817D01*
X1383817Y887993D01*
X1368904Y896603D01*
X1352270Y901060D01*
D02*
G37*
G36*
X884910D02*
X867690D01*
X851056Y896603D01*
X836143Y887993D01*
X823967Y875817D01*
X815357Y860904D01*
X810900Y844270D01*
Y827050D01*
X815357Y810416D01*
X823967Y795503D01*
X836143Y783327D01*
X851056Y774717D01*
X867690Y770260D01*
X884910D01*
X901544Y774717D01*
X916457Y783327D01*
X928633Y795503D01*
X937243Y810416D01*
X941700Y827050D01*
Y844270D01*
X937243Y860904D01*
X928633Y875817D01*
X916457Y887993D01*
X901544Y896603D01*
X884910Y901060D01*
D02*
G37*
G36*
X1421318Y639400D02*
X1398682D01*
X1377769Y630738D01*
X1361763Y614731D01*
X1353100Y593818D01*
Y571182D01*
X1361763Y550269D01*
X1369977Y542055D01*
X1369599Y539227D01*
X1369545Y539002D01*
X1355429Y529096D01*
X1353140Y529551D01*
X1345760D01*
Y543760D01*
X1247400D01*
Y595900D01*
X1125151D01*
X1114293Y602169D01*
X1096388Y606967D01*
X1077852D01*
X1059947Y602169D01*
X1043893Y592901D01*
X1030786Y579794D01*
X1030100Y578606D01*
X1017400Y582009D01*
Y595900D01*
X954767D01*
X950000Y596848D01*
X947420D01*
X942653Y595900D01*
X882600D01*
Y506226D01*
X871821Y498174D01*
X869967Y499244D01*
X852062Y504041D01*
X833525D01*
X815620Y499244D01*
X799567Y489975D01*
X786460Y476868D01*
X777191Y460815D01*
X772394Y442910D01*
Y424373D01*
X777191Y406468D01*
X786460Y390415D01*
X799567Y377307D01*
X815620Y368039D01*
X833525Y363241D01*
X852062D01*
X869967Y368039D01*
X886020Y377307D01*
X895436Y386723D01*
X902106Y388050D01*
X918116Y398747D01*
X948261Y428892D01*
X960717Y426414D01*
X963534Y419615D01*
X978415Y404734D01*
X997858Y396680D01*
X1009791D01*
X1012833Y393638D01*
X1016511Y391181D01*
X1016809Y390891D01*
X1017142Y390759D01*
X1026197Y384709D01*
X1041960Y381574D01*
X1047496D01*
Y357365D01*
X1158296D01*
Y463165D01*
X1126184D01*
X1122781Y475865D01*
X1130347Y480233D01*
X1143454Y493340D01*
X1144456Y495075D01*
X1144756Y495336D01*
X1145702Y496552D01*
X1145769Y496605D01*
X1146097Y496802D01*
X1146787Y497121D01*
X1147920Y497511D01*
X1149551Y497913D01*
X1151377Y498211D01*
X1176999D01*
X1177000Y498211D01*
X1181473Y499100D01*
X1239960D01*
Y432960D01*
X1337082D01*
X1339454Y427235D01*
X1354335Y412354D01*
X1373778Y404300D01*
X1394822D01*
X1414265Y412354D01*
X1429146Y427235D01*
X1437200Y446678D01*
Y467722D01*
X1429146Y487165D01*
X1414265Y502046D01*
X1394822Y510100D01*
X1389772D01*
X1388998Y510755D01*
X1382267Y517487D01*
X1377815Y520461D01*
X1377703Y520613D01*
X1383688Y531811D01*
X1385867Y530909D01*
X1398682Y525600D01*
X1421318D01*
X1442231Y534263D01*
X1458238Y550269D01*
X1466900Y571182D01*
Y593818D01*
X1458238Y614731D01*
X1442231Y630738D01*
X1421318Y639400D01*
D02*
G37*
G36*
X821318D02*
X798682D01*
X777769Y630738D01*
X761763Y614731D01*
X753101Y593818D01*
Y571182D01*
X761763Y550269D01*
X777769Y534263D01*
X798682Y525600D01*
X821318D01*
X842231Y534263D01*
X858238Y550269D01*
X866900Y571182D01*
Y593818D01*
X858238Y614731D01*
X842231Y630738D01*
X821318Y639400D01*
D02*
G37*
G36*
X2280400Y657900D02*
X2169600D01*
Y437101D01*
X2169600D01*
X2168944Y424672D01*
X2159515Y420766D01*
X2144634Y405885D01*
X2136580Y386442D01*
Y365398D01*
X2144634Y345955D01*
X2159515Y331074D01*
X2178958Y323020D01*
X2200002D01*
X2219445Y331074D01*
X2234326Y345955D01*
X2242380Y365398D01*
Y381893D01*
X2252469Y391982D01*
X2260890Y404584D01*
X2263847Y419450D01*
Y437100D01*
X2280400D01*
Y657900D01*
D02*
G37*
G36*
X2530400D02*
X2419600D01*
Y437100D01*
X2530400D01*
Y657900D01*
D02*
G37*
G36*
X2405400D02*
X2294600D01*
Y437100D01*
X2405400D01*
Y657900D01*
D02*
G37*
G36*
X1346400Y1333060D02*
X1235600D01*
Y1227260D01*
X1246580D01*
Y1213543D01*
X1249909Y1196804D01*
X1259391Y1182614D01*
X1272640Y1169364D01*
Y1120140D01*
X1443440D01*
Y1120140D01*
X1444716Y1120877D01*
X1455543Y1114626D01*
X1473448Y1109828D01*
X1482640D01*
Y1024140D01*
X1653440D01*
Y1024535D01*
X1701364D01*
X1711460Y1018248D01*
Y717449D01*
X1731247D01*
X1734650Y704749D01*
X1724613Y698954D01*
X1711506Y685847D01*
X1702238Y669793D01*
X1697440Y651888D01*
Y633352D01*
X1702238Y615447D01*
X1711506Y599393D01*
X1724613Y586286D01*
X1740667Y577018D01*
X1758572Y572220D01*
X1777108D01*
X1795013Y577018D01*
X1810087Y585720D01*
X1817935Y586135D01*
X1856483D01*
X1919600Y523018D01*
Y437100D01*
X1919600D01*
X1919904Y436646D01*
X1913060Y420123D01*
Y399078D01*
X1921114Y379635D01*
X1935995Y364754D01*
X1955438Y356700D01*
X1976482D01*
X1995925Y364754D01*
X2007589Y376417D01*
X2022764D01*
X2037630Y379374D01*
X2050232Y387795D01*
X2099538Y437100D01*
X2155400D01*
Y657900D01*
X2044600D01*
Y502296D01*
X2043100Y501293D01*
X2030400Y508082D01*
Y542043D01*
X2031486Y547500D01*
X2030400Y552957D01*
Y657900D01*
X1944483D01*
X1919822Y682561D01*
X1901497Y694806D01*
X1879881Y699106D01*
X1879879Y699105D01*
X1811489D01*
X1805518Y704749D01*
X1810435Y717449D01*
X2012260D01*
Y1018249D01*
X1911705D01*
Y1043940D01*
X1907328Y1065946D01*
X1894862Y1084602D01*
X1856762Y1122702D01*
X1838106Y1135168D01*
X1816100Y1139545D01*
X1653440D01*
Y1139940D01*
X1553448D01*
X1547098Y1150939D01*
X1548319Y1153055D01*
X1553117Y1170960D01*
Y1189496D01*
X1548319Y1207401D01*
X1539051Y1223455D01*
X1525944Y1236562D01*
X1509890Y1245830D01*
X1491985Y1250628D01*
X1473448D01*
X1455543Y1245830D01*
X1439490Y1236562D01*
X1438868Y1235940D01*
X1347264D01*
X1346400Y1236112D01*
Y1333060D01*
D02*
G37*
%LPD*%
G36*
X3118412Y4117474D02*
X3119594Y4116791D01*
X3121008Y4116188D01*
X3122653Y4115666D01*
X3124531Y4115224D01*
X3126641Y4114862D01*
X3131556Y4114380D01*
X3134362Y4114259D01*
X3137399Y4114219D01*
X3138416Y4084219D01*
X3135387Y4084174D01*
X3127690Y4083504D01*
X3125588Y4083103D01*
X3123718Y4082611D01*
X3122080Y4082031D01*
X3120673Y4081361D01*
X3119498Y4080602D01*
X3118556Y4079753D01*
X3117462Y4118238D01*
X3118412Y4117474D01*
D02*
G37*
G36*
X3119283Y3968257D02*
X3120464Y3967542D01*
X3121877Y3966911D01*
X3123521Y3966364D01*
X3125397Y3965902D01*
X3127505Y3965523D01*
X3129844Y3965229D01*
X3135217Y3964892D01*
X3138251Y3964850D01*
X3138446Y3934850D01*
X3135413Y3934807D01*
X3127706Y3934163D01*
X3125600Y3933777D01*
X3123726Y3933305D01*
X3122083Y3932747D01*
X3120671Y3932103D01*
X3119492Y3931373D01*
X3118543Y3930557D01*
X3118334Y3969057D01*
X3119283Y3968257D01*
D02*
G37*
G36*
X3121269Y3816328D02*
X3122843Y3815284D01*
X3124580Y3814363D01*
X3126482Y3813564D01*
X3128547Y3812889D01*
X3130776Y3812336D01*
X3133168Y3811906D01*
X3135724Y3811599D01*
X3141328Y3811353D01*
X3142734Y3785953D01*
X3139851Y3785884D01*
X3137143Y3785677D01*
X3134608Y3785331D01*
X3132248Y3784847D01*
X3130062Y3784225D01*
X3128050Y3783465D01*
X3126213Y3782566D01*
X3124549Y3781530D01*
X3123060Y3780355D01*
X3121745Y3779041D01*
X3119859Y3817495D01*
X3121269Y3816328D01*
D02*
G37*
G36*
X2689860Y4546600D02*
Y4279900D01*
X2710180Y4259580D01*
X2788920D01*
X2804160Y4244340D01*
Y4185920D01*
X2787881Y4169641D01*
X2768104D01*
Y4048760D01*
X2674620D01*
X2557780Y4165600D01*
Y4298435D01*
X2557577Y4298452D01*
X2545219Y4298738D01*
X2546273Y4348738D01*
X2550813Y4348766D01*
X2557780Y4349183D01*
Y4376860D01*
X2575922D01*
X2595365Y4384914D01*
X2610246Y4399795D01*
X2618300Y4419238D01*
Y4440282D01*
X2610246Y4459725D01*
X2595365Y4474606D01*
X2575922Y4482660D01*
X2554878D01*
X2550057Y4480663D01*
X2532380Y4498340D01*
X2443340D01*
X2439270Y4494270D01*
X2428375Y4488700D01*
X2428374D01*
Y4488700D01*
X2425459D01*
X2423159Y4478160D01*
X2423160Y4476953D01*
X2423160Y4391660D01*
X2413797Y4382297D01*
X2392375D01*
Y4360875D01*
X2387600Y4356100D01*
Y4299796D01*
X2332144D01*
X2319020Y4312920D01*
Y4564380D01*
X2362200Y4607560D01*
X2628900D01*
X2689860Y4546600D01*
D02*
G37*
G36*
X687969Y3527769D02*
X688231Y3525283D01*
X688686Y3522866D01*
X689333Y3520518D01*
X690172Y3518240D01*
X691204Y3516031D01*
X692428Y3513892D01*
X693844Y3511822D01*
X695452Y3509821D01*
X697252Y3507890D01*
X683110Y3493748D01*
X681179Y3495548D01*
X679178Y3497156D01*
X677108Y3498572D01*
X674969Y3499796D01*
X672760Y3500828D01*
X670482Y3501667D01*
X668134Y3502314D01*
X665717Y3502769D01*
X663231Y3503031D01*
X660675Y3503101D01*
X687899Y3530325D01*
X687969Y3527769D01*
D02*
G37*
G36*
X3147417Y1715824D02*
X3146880Y1716094D01*
X3145832Y1716335D01*
X3144274Y1716548D01*
X3139625Y1716889D01*
X3119068Y1717244D01*
X3118575Y1777244D01*
X3147031Y1778823D01*
X3147417Y1715824D01*
D02*
G37*
G36*
X2176582Y795976D02*
X2177220Y788266D01*
X2177602Y786159D01*
X2178070Y784284D01*
X2178623Y782641D01*
X2179260Y781228D01*
X2179982Y780048D01*
X2180790Y779099D01*
X2142290D01*
X2143098Y780048D01*
X2143820Y781228D01*
X2144457Y782641D01*
X2145010Y784284D01*
X2145478Y786159D01*
X2145860Y788266D01*
X2146158Y790604D01*
X2146498Y795976D01*
X2146540Y799009D01*
X2176540D01*
X2176582Y795976D01*
D02*
G37*
G36*
X1498141Y1426972D02*
X1500142Y1425364D01*
X1502212Y1423948D01*
X1504351Y1422724D01*
X1506560Y1421692D01*
X1508838Y1420853D01*
X1511186Y1420206D01*
X1513603Y1419751D01*
X1516089Y1419489D01*
X1518645Y1419419D01*
X1491421Y1392195D01*
X1491351Y1394751D01*
X1491089Y1397237D01*
X1490634Y1399654D01*
X1489987Y1402002D01*
X1489148Y1404280D01*
X1488116Y1406489D01*
X1486892Y1408628D01*
X1485476Y1410698D01*
X1483868Y1412699D01*
X1482068Y1414630D01*
X1496210Y1428772D01*
X1498141Y1426972D01*
D02*
G37*
G36*
X1115773Y571579D02*
X1118580Y570093D01*
X1121619Y568782D01*
X1124890Y567646D01*
X1128394Y566685D01*
X1132130Y565899D01*
X1136099Y565287D01*
X1144734Y564588D01*
X1149401Y564500D01*
X1157472Y524500D01*
X1152799Y524368D01*
X1148427Y523969D01*
X1144357Y523306D01*
X1140588Y522376D01*
X1137121Y521182D01*
X1133955Y519722D01*
X1131091Y517996D01*
X1128528Y516005D01*
X1126266Y513748D01*
X1124307Y511226D01*
X1113200Y573239D01*
X1115773Y571579D01*
D02*
G37*
G36*
X922937Y440830D02*
X880633Y409286D01*
X871726Y468107D01*
X873298Y467126D01*
X875091Y466635D01*
X877105Y466635D01*
X879341Y467124D01*
X881799Y468104D01*
X884478Y469574D01*
X887378Y471534D01*
X890501Y473985D01*
X893844Y476925D01*
X897409Y480356D01*
X922937Y440830D01*
D02*
G37*
G36*
X1369116Y493657D02*
X1375019Y488656D01*
X1376779Y487437D01*
X1378435Y486442D01*
X1379988Y485670D01*
X1381437Y485122D01*
X1382783Y484799D01*
X1384025Y484699D01*
X1356801Y457475D01*
X1356701Y458717D01*
X1356378Y460063D01*
X1355830Y461512D01*
X1355058Y463065D01*
X1354063Y464721D01*
X1352844Y466481D01*
X1351401Y468345D01*
X1347843Y472384D01*
X1345728Y474559D01*
X1366941Y495772D01*
X1369116Y493657D01*
D02*
G37*
G36*
X1035877Y452065D02*
X1036277Y451244D01*
X1036901Y450249D01*
X1037750Y449079D01*
X1040118Y446216D01*
X1045351Y440612D01*
X1047543Y438395D01*
X1030877Y412635D01*
X1028675Y414778D01*
X1022861Y419712D01*
X1021187Y420857D01*
X1019645Y421753D01*
X1018235Y422399D01*
X1016958Y422795D01*
X1015812Y422942D01*
X1014799Y422840D01*
X1035701Y452711D01*
X1035877Y452065D01*
D02*
G37*
G36*
X2224921Y401410D02*
X2222932Y399311D01*
X2221194Y397244D01*
X2219707Y395209D01*
X2218471Y393206D01*
X2217487Y391234D01*
X2216754Y389294D01*
X2216272Y387386D01*
X2216041Y385510D01*
X2216061Y383665D01*
X2216332Y381853D01*
X2184086Y402886D01*
X2185709Y403295D01*
X2187384Y403883D01*
X2189110Y404651D01*
X2190888Y405598D01*
X2192717Y406725D01*
X2194598Y408031D01*
X2198514Y411180D01*
X2200550Y413024D01*
X2202636Y415047D01*
X2224921Y401410D01*
D02*
G37*
G36*
X1451356Y1147956D02*
X1448456Y1150555D01*
X1445387Y1152880D01*
X1442149Y1154932D01*
X1438741Y1156710D01*
X1435164Y1158215D01*
X1431417Y1159445D01*
X1427501Y1160403D01*
X1423416Y1161087D01*
X1419162Y1161497D01*
X1414738Y1161634D01*
X1413814Y1196634D01*
X1418252Y1196777D01*
X1422504Y1197206D01*
X1426570Y1197921D01*
X1430451Y1198923D01*
X1434144Y1200210D01*
X1437652Y1201783D01*
X1440975Y1203643D01*
X1444110Y1205788D01*
X1447060Y1208220D01*
X1449824Y1210937D01*
X1451356Y1147956D01*
D02*
G37*
G36*
X1800525Y673835D02*
X1801583Y673580D01*
X1803150Y673355D01*
X1807813Y672995D01*
X1823249Y672635D01*
X1828381Y672620D01*
Y612620D01*
X1799976Y611120D01*
Y674120D01*
X1800525Y673835D01*
D02*
G37*
G36*
X1982651Y431623D02*
X1984251Y430855D01*
X1986015Y430178D01*
X1987942Y429590D01*
X1990032Y429093D01*
X1992285Y428686D01*
X1997281Y428144D01*
X2000024Y428009D01*
X2002930Y427964D01*
X2009044Y402564D01*
X2006154Y402486D01*
X2003463Y402253D01*
X2000973Y401866D01*
X1998683Y401323D01*
X1996592Y400625D01*
X1994702Y399771D01*
X1993012Y398763D01*
X1991522Y397600D01*
X1990232Y396281D01*
X1989142Y394807D01*
X1981213Y432482D01*
X1982651Y431623D01*
D02*
G37*
D10*
X1739760Y2560420D02*
D03*
Y2360420D02*
D03*
Y2410420D02*
D03*
Y2460421D02*
D03*
Y2510420D02*
D03*
Y2610420D02*
D03*
Y2660420D02*
D03*
Y2710421D02*
D03*
Y2760420D02*
D03*
Y2810420D02*
D03*
Y2910420D02*
D03*
X1049760D02*
D03*
Y2860420D02*
D03*
Y2810420D02*
D03*
Y2760420D02*
D03*
Y2710421D02*
D03*
Y2660420D02*
D03*
Y2610420D02*
D03*
Y2510420D02*
D03*
Y2460421D02*
D03*
Y2410420D02*
D03*
Y2360420D02*
D03*
Y2560420D02*
D03*
X1739760Y2860420D02*
D03*
D11*
X1669760Y2290420D02*
D03*
Y2980421D02*
D03*
X1619760D02*
D03*
X1569760D02*
D03*
X1519760D02*
D03*
X1469760D02*
D03*
X1419760D02*
D03*
X1369760D02*
D03*
X1319760D02*
D03*
X1269760D02*
D03*
X1219760D02*
D03*
X1119760D02*
D03*
Y2290420D02*
D03*
X1169760D02*
D03*
X1219760D02*
D03*
X1269760D02*
D03*
X1319760D02*
D03*
X1369760D02*
D03*
X1419760D02*
D03*
X1469760D02*
D03*
X1519760D02*
D03*
X1569760D02*
D03*
X1619760D02*
D03*
X1169760Y2980421D02*
D03*
D12*
X1394760Y2635420D02*
D03*
D13*
X3250000Y3950000D02*
D03*
X2969260Y1023620D02*
D03*
X3250000Y4100000D02*
D03*
Y3800000D02*
D03*
X300000Y2600000D02*
D03*
Y2450000D02*
D03*
Y2150000D02*
D03*
X848875Y3243579D02*
D03*
X300000Y2000000D02*
D03*
Y2300000D02*
D03*
D14*
X2417720Y3314340D02*
D03*
Y3370940D02*
D03*
Y3427540D02*
D03*
X2446020Y3342640D02*
D03*
Y3399240D02*
D03*
X2474320Y3314340D02*
D03*
Y3427540D02*
D03*
X2502620Y3342640D02*
D03*
Y3399240D02*
D03*
X2530920Y3314340D02*
D03*
Y3370940D02*
D03*
Y3427540D02*
D03*
D15*
X2861472Y4214299D02*
D03*
X2834920Y3743960D02*
D03*
X2481860Y4432300D02*
D03*
X2483655Y3899397D02*
D03*
Y4009397D02*
D03*
Y3789397D02*
D03*
X2577165Y3227703D02*
D03*
X2267940Y2413000D02*
D03*
X2164080D02*
D03*
X1148360Y3162300D02*
D03*
X1620820Y2122320D02*
D03*
X1620944Y2034873D02*
D03*
X518600Y3211513D02*
D03*
X630627Y2797950D02*
D03*
X1308505Y1584591D02*
D03*
X1204770Y1583689D02*
D03*
X1204392Y1476252D02*
D03*
X2485165Y3227703D02*
D03*
X2359940Y2413000D02*
D03*
X2072080D02*
D03*
X2742920Y3743960D02*
D03*
X2769472Y4214299D02*
D03*
X2389860Y4432300D02*
D03*
X2391655Y4009397D02*
D03*
Y3899397D02*
D03*
Y3789397D02*
D03*
X1712820Y2122320D02*
D03*
X1056360Y3162300D02*
D03*
X1712945Y2034873D02*
D03*
X610600Y3211513D02*
D03*
X538627Y2797950D02*
D03*
X1112392Y1476252D02*
D03*
X1400505Y1584591D02*
D03*
X1112770Y1583689D02*
D03*
D16*
X2997200Y3943940D02*
D03*
X1292860Y573360D02*
D03*
X2306320Y3714160D02*
D03*
Y3799160D02*
D03*
X2310106Y3422490D02*
D03*
Y3337490D02*
D03*
X2997200Y3858940D02*
D03*
X764457Y2473342D02*
D03*
Y2558342D02*
D03*
X1292860Y488360D02*
D03*
D17*
X3267340Y3598876D02*
D03*
Y2853876D02*
D03*
X3268376Y2307244D02*
D03*
Y1562245D02*
D03*
D18*
X2947340Y3413876D02*
D03*
X2948376Y2122244D02*
D03*
X2947340Y3288876D02*
D03*
Y3163876D02*
D03*
Y3038876D02*
D03*
X2948376Y1997244D02*
D03*
Y1872244D02*
D03*
Y1747244D02*
D03*
D19*
X2816004Y3876741D02*
D03*
X2751004D02*
D03*
X2881004D02*
D03*
Y4096741D02*
D03*
X2816004D02*
D03*
X2751004D02*
D03*
D20*
X2500275Y4114396D02*
D03*
X2370275Y4324396D02*
D03*
X2435275D02*
D03*
X2500275D02*
D03*
X2435275Y4114396D02*
D03*
X2370275D02*
D03*
D21*
X2435275Y4219396D02*
D03*
D22*
X2628793Y3341386D02*
D03*
X2798457Y3130078D02*
D03*
X2798796Y1654787D02*
D03*
X1917700Y2880080D02*
D03*
X871420Y3003640D02*
D03*
X763306Y3004516D02*
D03*
X871420Y2562576D02*
D03*
X1574800Y1475460D02*
D03*
X2628793Y3433386D02*
D03*
X2798457Y3038078D02*
D03*
X2798796Y1746787D02*
D03*
X1574800Y1567460D02*
D03*
X1917700Y2972080D02*
D03*
X871420Y2911640D02*
D03*
X763306Y2912516D02*
D03*
X871420Y2470576D02*
D03*
D23*
X2480520Y2570480D02*
D03*
X2665520Y2635480D02*
D03*
Y2505480D02*
D03*
D24*
X2199640Y2633980D02*
D03*
D25*
X2785000Y227500D02*
D03*
X1790000D02*
D03*
D26*
X2594020Y2054860D02*
D03*
X762680Y3108960D02*
D03*
X1376000Y1280160D02*
D03*
X1187896Y410265D02*
D03*
X2370500Y2857500D02*
D03*
X2455500D02*
D03*
X2679020Y2054860D02*
D03*
X1291000Y1280160D02*
D03*
X429433Y2797917D02*
D03*
X344433D02*
D03*
X847680Y3108960D02*
D03*
X1102896Y410265D02*
D03*
D27*
X2600000Y547500D02*
D03*
X2475000D02*
D03*
X2350000D02*
D03*
X2225000D02*
D03*
X2100000D02*
D03*
X1975000D02*
D03*
D28*
X2054640Y2666480D02*
D03*
Y2731480D02*
D03*
Y2601480D02*
D03*
Y2536480D02*
D03*
X2344640D02*
D03*
Y2601480D02*
D03*
Y2666480D02*
D03*
Y2731480D02*
D03*
D29*
X1277533Y1861985D02*
D03*
Y1811985D02*
D03*
X1047533D02*
D03*
Y1761985D02*
D03*
X1277533D02*
D03*
Y1711985D02*
D03*
X1047533D02*
D03*
Y1861985D02*
D03*
D30*
X440602Y3056889D02*
D03*
X610603Y2926888D02*
D03*
X440602D02*
D03*
X610603Y3056889D02*
D03*
D31*
X136257Y1769760D02*
D03*
Y1009760D02*
D03*
D32*
X1212533Y1696985D02*
D03*
X1162533D02*
D03*
X1112533Y1876985D02*
D03*
X1162533D02*
D03*
X1212533D02*
D03*
X1112533Y1696985D02*
D03*
D33*
X1358040Y986040D02*
D03*
X2465480Y2268220D02*
D03*
X2675480Y2364220D02*
D03*
Y2172220D02*
D03*
X1568040Y1082040D02*
D03*
X1358040Y1178040D02*
D03*
D34*
X666932Y1638527D02*
D03*
X809239D02*
D03*
X670538Y1136584D02*
D03*
X809239D02*
D03*
X670538Y1236584D02*
D03*
X809239D02*
D03*
Y1538527D02*
D03*
X666932D02*
D03*
D35*
X523657Y1139760D02*
D03*
Y1239761D02*
D03*
Y1339761D02*
D03*
Y1439760D02*
D03*
Y1539760D02*
D03*
Y1639760D02*
D03*
D36*
X1180000Y547500D02*
D03*
X950000D02*
D03*
D37*
X2669540Y2913520D02*
D03*
Y2763520D02*
D03*
D38*
X2561861Y867849D02*
D03*
X1861860D02*
D03*
Y1567849D02*
D03*
X2561861D02*
D03*
D39*
X714577Y2419760D02*
X736577Y2397760D01*
X643280Y2419760D02*
X714577D01*
X736577Y2397760D02*
X927383D01*
X637540Y2425500D02*
X643280Y2419760D01*
X927383Y2397760D02*
X987544Y2457921D01*
X763945Y1544320D02*
X805739D01*
X749300Y1558965D02*
Y1800860D01*
X805739Y1544320D02*
X809239Y1540820D01*
X749300Y1558965D02*
X763945Y1544320D01*
X809239Y1464559D02*
Y1540820D01*
X263516Y2718984D02*
Y2946484D01*
Y2718984D02*
X300000Y2682500D01*
X2951261Y4214079D02*
X2951480Y4213860D01*
X2861472Y4214299D02*
X2861692Y4214079D01*
X2564130Y4431030D02*
X2565400Y4429760D01*
X2481860Y4432300D02*
X2483130Y4431030D01*
X2556607Y3345360D02*
X2575587D01*
X2547635Y3354332D02*
X2556607Y3345360D01*
X2547074Y3298032D02*
X2559427Y3285679D01*
Y3285194D02*
Y3285679D01*
X2156554Y2881490D02*
X2159000Y2879044D01*
X1919110Y2881490D02*
X2156554D01*
X1917700Y2880080D02*
X1919110Y2881490D01*
X1905431Y2867811D02*
X1917700Y2880080D01*
X1849200Y2867811D02*
X1905431D01*
X1839310Y2857920D02*
X1849200Y2867811D01*
X1739900Y2857920D02*
X1839310D01*
X1620882Y2034935D02*
X1622626Y2033191D01*
X1620820Y2122320D02*
X1620882Y2122258D01*
X1620214Y2122926D02*
X1620820Y2122320D01*
X1169360Y3059520D02*
X1169760Y3059120D01*
Y2980421D02*
Y3059120D01*
X1620214Y2122926D02*
Y2216362D01*
X1229360Y1811020D02*
X1276567D01*
X1277533Y1811985D01*
X1212533Y1794193D02*
X1229360Y1811020D01*
X1045033Y1759485D02*
X1047533Y1761985D01*
X951165Y1759485D02*
X1045033D01*
X946314Y1754634D02*
X951165Y1759485D01*
X1212533Y1696985D02*
Y1794193D01*
X1210033Y1659613D02*
Y1694485D01*
X1162533Y1696985D02*
X1212533D01*
X1210033Y1694485D02*
X1212533Y1696985D01*
X1201420Y1651000D02*
X1210033Y1659613D01*
X1201420Y1587039D02*
Y1651000D01*
Y1587039D02*
X1204770Y1583689D01*
X2554760Y3427225D02*
X2579604D01*
X2407388Y3259154D02*
Y3284554D01*
X749300Y1800860D02*
X1043940Y2095500D01*
Y2146300D01*
X285000Y1600000D02*
Y1757500D01*
Y1600000D02*
X345239Y1539760D01*
X285000Y1757500D02*
X522500Y1995000D01*
X345239Y1539760D02*
X523657D01*
X522500Y1995000D02*
X844380D01*
X883920Y2034540D01*
X300000Y2150000D02*
X377080D01*
X300000Y2600000D02*
Y2682500D01*
X2698003Y3088000D02*
X2719700Y3109697D01*
X2554600Y3088000D02*
X2698003D01*
X2343740Y2732380D02*
X2344640Y2731480D01*
X2455500Y2747600D02*
Y2925400D01*
X2719700Y3109697D02*
Y3173311D01*
X2359940Y2413000D02*
X2365160Y2407780D01*
Y2179340D02*
X2370380Y2174120D01*
X2365160Y2179340D02*
Y2407780D01*
X2354580Y2418360D02*
Y2489200D01*
Y2418360D02*
X2359940Y2413000D01*
X2339340Y2504440D02*
X2354580Y2489200D01*
X2339340Y2504440D02*
Y2531480D01*
X2344340Y2536480D02*
X2344640D01*
X2339340Y2531480D02*
X2344340Y2536480D01*
X1622260Y3036382D02*
X1666898Y3081020D01*
X1672260Y3010420D02*
X1737880D01*
X2104512Y3142620D02*
X2173014Y3211122D01*
X1737880Y3010420D02*
X1742440Y3014980D01*
X1569760Y3058917D02*
X1653464Y3142620D01*
X2104512D01*
X1669760Y3007921D02*
X1672260Y3010420D01*
X2126644Y3081020D02*
X2160820Y3046844D01*
X1666898Y3081020D02*
X2126644D01*
X377080Y2150000D02*
X469900Y2242820D01*
X1117260Y2983906D02*
Y3042944D01*
X1667426Y1908726D02*
X1712945Y1954245D01*
X1557320Y1947394D02*
X1595988Y1908726D01*
X1667426D01*
X1557320Y1947394D02*
Y2166782D01*
X1712945Y1954245D02*
Y2034873D01*
X2455500Y2925400D02*
X2512700Y2982600D01*
Y3046100D01*
X2344640Y2731480D02*
X2345620Y2730500D01*
X2438400D01*
X2455500Y2747600D01*
X2719700Y3173311D02*
X2745100Y3198711D01*
Y3299682D01*
X2712693Y3332089D02*
X2745100Y3299682D01*
X2712693Y3332089D02*
Y3466578D01*
X2512700Y3046100D02*
X2554600Y3088000D01*
X784440Y1439760D02*
X809239Y1464559D01*
X523657Y1439760D02*
X784440D01*
X523657Y1339761D02*
X715563D01*
X809239Y1246084D01*
X523537Y1239640D02*
X523657Y1239761D01*
X383660Y1239640D02*
X523537D01*
X383540Y1239520D02*
X383660Y1239640D01*
X523657Y1239761D02*
X525245Y1238173D01*
X381000Y1338580D02*
X381590Y1339170D01*
X523067D01*
X523657Y1339761D01*
X883920Y2280920D02*
X963420Y2360420D01*
X883920Y2034540D02*
Y2280920D01*
X987544Y2457921D02*
X1047260D01*
X1049760Y2460421D01*
X970369Y2507921D02*
X1047260D01*
X933024Y2470576D02*
X970369Y2507921D01*
X809239Y1236584D02*
Y1246084D01*
X525245Y1238173D02*
X668949D01*
X670538Y1236584D01*
X1569760Y2980421D02*
Y3058917D01*
X1659675Y3212471D02*
X1943729D01*
X1522260Y3075056D02*
X1659675Y3212471D01*
X1522260Y2982920D02*
Y3075056D01*
X1519760Y2980421D02*
X1522260Y2982920D01*
X1622260D02*
Y3036382D01*
X1943729Y3212471D02*
X1948180Y3208020D01*
X1669760Y2980421D02*
Y3007921D01*
X1619760Y2980421D02*
X1622260Y2982920D01*
X1043940Y2146300D02*
X1119760Y2222120D01*
Y2290420D01*
X963420Y2360420D02*
X1049760D01*
X524274Y1539144D02*
X666315D01*
X828538Y2778321D02*
X846438Y2760420D01*
X820420Y2778321D02*
X828538D01*
X846438Y2760420D02*
X1049760D01*
X1557320Y2166782D02*
X1568159Y2177621D01*
X1095492Y3064712D02*
Y3065028D01*
Y3064712D02*
X1117260Y3042944D01*
X1669760Y2262920D02*
Y2290420D01*
X1672260Y2260420D02*
X1685094D01*
X1699739Y2219712D02*
Y2245776D01*
X1669760Y2262920D02*
X1672260Y2260420D01*
X1685094D02*
X1699739Y2245776D01*
X1047260Y2507921D02*
X1049760Y2510420D01*
X1739760Y2910420D02*
X1815680D01*
X1838960Y2933700D01*
X960540Y2910420D02*
X1049760D01*
D40*
X848875Y3243579D02*
Y3342125D01*
X660400Y3530600D02*
X848875Y3342125D01*
X397500Y2000000D02*
X653358Y2255858D01*
X770909D01*
X300000Y2300000D02*
X420400D01*
X678742Y2558342D01*
X764457D01*
X1972140Y2749720D02*
X1973853D01*
X1992094Y2731480D01*
X1953421Y2681198D02*
X1962892D01*
X1977611Y2666480D01*
X1992094Y2731480D02*
X2054640D01*
X1961440Y2760420D02*
X1972140Y2749720D01*
X1977611Y2666480D02*
X2054640D01*
X2306320Y3665220D02*
X2443480Y3528060D01*
Y3462020D02*
Y3528060D01*
X2518960Y3472180D02*
X2542540D01*
X2474320Y3427540D02*
X2518960Y3472180D01*
X2321560Y3482490D02*
X2360043D01*
X2406559Y3435974D01*
X2409286D01*
X2417720Y3427540D01*
X2327606Y3402491D02*
X2345032D01*
X2376582Y3370940D01*
X2310413Y3419683D02*
X2327606Y3402491D01*
X2310413Y3419683D02*
Y3422490D01*
X1809590D02*
X2310106D01*
X2376582Y3370940D02*
X2417720D01*
X2306320Y3665220D02*
Y3714160D01*
X2043188D02*
X2306320D01*
X1374760Y3045732D02*
X2043188Y3714160D01*
X2547074Y3298032D02*
Y3298186D01*
X2531027Y3370940D02*
X2547635Y3354332D01*
X2474320Y3314340D02*
X2474352D01*
X2530920D02*
X2547074Y3298186D01*
X2519220Y3302640D02*
X2530920Y3314340D01*
X2474352D02*
X2486051Y3302640D01*
X2519220D01*
X1619760Y2860420D02*
X1739760D01*
X1619760Y2290420D02*
Y2410420D01*
X1620120Y2216456D02*
Y2290061D01*
X1619760Y2290420D02*
X1620120Y2290061D01*
X959198Y2560420D02*
X1049760D01*
X622527Y2806051D02*
X630627Y2797950D01*
X622527Y2806051D02*
Y2828988D01*
X1307603Y1583689D02*
X1308505Y1584591D01*
X1204392Y1583310D02*
X1204770Y1583689D01*
X2485165Y3161381D02*
Y3227703D01*
X2530920Y3427540D02*
X2554409D01*
X2407388Y3284554D02*
Y3304008D01*
X2417720Y3314340D01*
X2446020Y3342640D01*
X1424760Y3037660D02*
X1809590Y3422490D01*
X2526480Y2234720D02*
X2747906D01*
X2788814Y2193813D01*
Y1962462D02*
Y2193813D01*
X2492980Y2268220D02*
X2526480Y2234720D01*
X2465480Y2268220D02*
X2492980D01*
X1296286Y3258189D02*
X1472569D01*
X2133600Y3919220D01*
X300000Y2000000D02*
X397500D01*
X300000Y2451240D02*
X492900D01*
X300000Y2450000D02*
Y2451240D01*
X2183854Y1975769D02*
X2232917Y2024832D01*
Y2233387D01*
X2339340Y1988820D02*
X2443480D01*
X2272917Y2055243D02*
Y2249955D01*
Y2055243D02*
X2339340Y1988820D01*
X2506980Y2052320D02*
Y2131060D01*
X2548140Y2172220D02*
X2675480D01*
X2506980Y2131060D02*
X2548140Y2172220D01*
X2443480Y1988820D02*
X2506980Y2052320D01*
X1954157Y2285103D02*
X2237770D01*
X2272917Y2249955D01*
X2174383Y1975769D02*
X2183854D01*
X2221202Y2245103D02*
X2232917Y2233387D01*
X1928118Y2245103D02*
X2221202D01*
X2675480Y2172220D02*
X2679020Y2168680D01*
X1828840Y2410420D02*
X1954157Y2285103D01*
X1739760Y2410420D02*
X1828840D01*
X1950720Y1976120D02*
Y2171700D01*
X1812800Y2360420D02*
X1928118Y2245103D01*
X1828800Y1854200D02*
X1950720Y1976120D01*
X1269760Y3140335D02*
X1322340Y3192915D01*
X1219760Y2980421D02*
Y3181663D01*
X1296286Y3258189D01*
X1322340Y3192915D02*
Y3195289D01*
X1319760Y3047300D02*
X2078829Y3806370D01*
X2137819D01*
X1385075Y1761985D02*
X1461505Y1685555D01*
X1277533Y1761985D02*
X1385075D01*
X1461505Y1449335D02*
Y1685555D01*
X949037Y1678017D02*
X958651D01*
X992619Y1711985D02*
X1047533D01*
X942340Y1671320D02*
X949037Y1678017D01*
X958651D02*
X992619Y1711985D01*
X952500Y1841220D02*
Y1920675D01*
X1219760Y2187936D01*
X1269760Y2175377D02*
Y2290420D01*
X1319760Y2168808D02*
Y2290420D01*
X1112533Y1961581D02*
X1319760Y2168808D01*
X1112533Y1876985D02*
Y1961581D01*
X1047533Y1861985D02*
Y1953149D01*
X1269760Y2175377D01*
X1219760Y2187936D02*
Y2290420D01*
X1574800Y1803400D02*
X1892300D01*
X2166620Y2077720D02*
Y2171700D01*
X1892300Y1803400D02*
X2166620Y2077720D01*
X1464760Y1913440D02*
X1574800Y1803400D01*
X1590410Y1854200D02*
X1828800D01*
X1514820Y1929790D02*
X1590410Y1854200D01*
X1464760Y1913440D02*
Y2246205D01*
X1514820Y1929790D02*
Y2184386D01*
X1320800Y1983740D02*
Y2037080D01*
X1417260Y2133540D01*
X1464760Y2246205D02*
X1464760Y2246205D01*
Y2285420D01*
X1469760Y2290420D01*
X2310500Y2981543D02*
X2339780Y3010823D01*
X1739760Y2810420D02*
X2289720D01*
X2310500Y2831200D01*
Y2981543D01*
X2370500Y2857500D02*
Y2916600D01*
X2430180Y2976280D02*
Y3106396D01*
X2370500Y2916600D02*
X2430180Y2976280D01*
X2339780Y3010823D02*
X2360583D01*
X2367280Y3017520D01*
X2430180Y3106396D02*
X2485165Y3161381D01*
X1130357Y1795640D02*
X1162533Y1827816D01*
Y1876985D01*
X1130357Y1794161D02*
Y1795640D01*
X845820Y3110820D02*
X847680Y3108960D01*
X863600Y3172460D02*
Y3235434D01*
X855455Y3243579D02*
X863600Y3235434D01*
X845820Y3154680D02*
X863600Y3172460D01*
X845820Y3110820D02*
Y3154680D01*
X702080Y2660420D02*
X800633D01*
X492900Y2451240D02*
X702080Y2660420D01*
X2679020Y2054860D02*
Y2168680D01*
X1461505Y1449335D02*
X1518920Y1391920D01*
X1212872Y1877325D02*
Y2005352D01*
X1739760Y2360420D02*
X1812800D01*
X1319760Y2980421D02*
Y3047300D01*
X1424760Y2985420D02*
Y3037660D01*
X1374760Y2985420D02*
Y3045732D01*
X1369760Y2980421D02*
X1374760Y2985420D01*
X1419760Y2980421D02*
X1424760Y2985420D01*
X1269760Y2980421D02*
Y3140335D01*
X1212872Y2005352D02*
X1365160Y2157640D01*
X1417260Y2133540D02*
Y2287920D01*
X1950720Y2593340D02*
X1954790Y2597410D01*
X2050570D01*
X1739760Y2760420D02*
X1961440D01*
X764457Y2558342D02*
Y2560842D01*
X1365160Y2157640D02*
Y2285820D01*
X538627Y2748133D02*
X571339Y2715421D01*
X1044760D01*
X1049760Y2710421D01*
X809189Y2668976D02*
X933651D01*
X800633Y2660420D02*
X809189Y2668976D01*
X764457Y2560842D02*
X827190Y2623576D01*
X914846D01*
X2050570Y2597410D02*
X2054640Y2601480D01*
X1514820Y2184386D02*
X1519760Y2189326D01*
Y2290420D01*
X1417260Y2287920D02*
X1419760Y2290420D01*
X1861472Y1567460D02*
X1861860Y1567849D01*
X1212533Y1876985D02*
X1212872Y1877325D01*
X933651Y2668976D02*
X942207Y2660420D01*
X914846Y2623576D02*
X927602Y2610820D01*
X980074D02*
X980474Y2610420D01*
X942207Y2660420D02*
X1049760D01*
X927602Y2610820D02*
X980074D01*
X980474Y2610420D02*
X1049760D01*
X1569720Y2179182D02*
Y2290380D01*
X1568159Y2177621D02*
X1569720Y2179182D01*
X1365160Y2285820D02*
X1369760Y2290420D01*
X538627Y2748133D02*
Y2797950D01*
X538594Y2797917D02*
X538627Y2797950D01*
X429433Y2797917D02*
X538594D01*
X1835796Y2530440D02*
X2048600D01*
X2054640Y2536480D01*
X1812259Y2553976D02*
X1835796Y2530440D01*
X1812259Y2553976D02*
Y2632993D01*
X1783976Y2705420D02*
X1794687D01*
X1783976Y2705421D02*
X1783976Y2705420D01*
X1744760Y2705421D02*
X1783976D01*
X1739760Y2710421D02*
X1744760Y2705421D01*
X1794687Y2705420D02*
X1812260Y2687847D01*
X1812259Y2632993D02*
X1812260Y2632994D01*
Y2687847D01*
X347980Y2801464D02*
Y2915173D01*
X359696Y2926888D01*
X440602D01*
X344433Y2797917D02*
X347980Y2801464D01*
D41*
X2161540Y828040D02*
X2361348Y1027848D01*
X2422363D02*
X2422363Y1027849D01*
X2361348Y1027848D02*
X2422363D01*
X2422363Y1027849D02*
X2965031D01*
X2969260Y1023620D01*
X2641600Y3536535D02*
Y3543300D01*
X2624819Y3345360D02*
X2628793Y3341386D01*
X2575587Y3345360D02*
X2624819D01*
X2572488Y3232381D02*
X2577165Y3227703D01*
X2559427Y3285194D02*
X2572488Y3272134D01*
Y3232381D02*
Y3272134D01*
X1169360Y3059520D02*
Y3083569D01*
X1169760Y2860420D02*
Y2938780D01*
X1148360Y3104569D02*
X1169360Y3083569D01*
X1104900Y3366355D02*
Y3373120D01*
X1148360Y3104569D02*
Y3322895D01*
X1104900Y3366355D02*
X1148360Y3322895D01*
X1074572Y2560421D02*
X1319760D01*
X874631Y2560420D02*
X959198D01*
X871420Y2563631D02*
X874631Y2560420D01*
X1049182Y1763635D02*
Y1810336D01*
X2622485Y3427078D02*
X2628793Y3433386D01*
X2579751Y3427078D02*
X2622485D01*
X2407388Y3259154D02*
X2422839Y3243703D01*
X2161540Y759460D02*
Y828040D01*
X3098800Y3949700D02*
X3098950Y3949850D01*
X3249850D02*
X3250000Y3950000D01*
X3098950Y3949850D02*
X3249850D01*
X3099159Y4099219D02*
X3249219D01*
X3098378Y4098438D02*
X3099159Y4099219D01*
X3249219D02*
X3250000Y4100000D01*
X1005840Y3360420D02*
X1056360Y3309900D01*
Y3162300D02*
Y3309900D01*
Y3104160D02*
Y3162300D01*
X1008380Y449580D02*
X1015145D01*
X1090396Y422765D02*
X1102896Y410265D01*
X1015145Y449580D02*
X1041960Y422765D01*
X1090396D01*
X1400505Y1584591D02*
X1401293Y1583804D01*
X1400505Y1584591D02*
Y1682915D01*
X1381626Y1701794D02*
X1400505Y1682915D01*
X1371435Y1711985D02*
X1381626Y1701794D01*
X1277533Y1711985D02*
X1371435D01*
X1728820Y2168013D02*
X1747624Y2186817D01*
X1712820Y2122320D02*
X1728820Y2138320D01*
Y2168013D01*
X1699739Y2135402D02*
X1712820Y2122320D01*
X1699739Y2135402D02*
Y2219712D01*
X1107440Y1588499D02*
Y1635760D01*
Y1588499D02*
X1112392Y1583548D01*
X1112533Y1640853D02*
Y1696985D01*
X1107440Y1635760D02*
X1112533Y1640853D01*
X1353140Y488360D02*
X1384300Y457200D01*
X1292860Y488360D02*
X1353140D01*
X1574800Y1567460D02*
X1861472D01*
X1056360Y3104160D02*
X1095492Y3065028D01*
X871420Y2470576D02*
X933024D01*
D42*
X2483655Y4009397D02*
Y4039005D01*
Y3776345D02*
X2521990Y3738010D01*
Y3734104D02*
Y3738010D01*
X2391655Y3737365D02*
Y3789397D01*
Y3737365D02*
X2466340Y3662680D01*
X2483655Y3776345D02*
Y3899397D01*
X2628793Y3251307D02*
Y3341386D01*
X2577165Y3227703D02*
X2678577D01*
X2483655Y3899397D02*
Y4009397D01*
X1622626Y1974577D02*
X1623078Y1974126D01*
X1622626Y1974577D02*
Y2033191D01*
X1620882Y2034935D02*
Y2122258D01*
X762680Y3005142D02*
Y3105529D01*
X476921Y3211513D02*
X518600D01*
X440602Y3056889D02*
Y3175195D01*
X476921Y3211513D01*
X870545Y3004516D02*
X871420Y3003640D01*
X763306Y3004516D02*
X870545D01*
X762680Y3005142D02*
X763306Y3004516D01*
X1308505Y1360560D02*
Y1584591D01*
X1204770Y1583689D02*
X1307603D01*
X1204392Y1476252D02*
Y1583310D01*
X2391655Y3789397D02*
Y3899397D01*
X758602Y2917219D02*
X763306Y2912516D01*
X620272Y2917219D02*
X758602D01*
X142240Y3314700D02*
X147111D01*
X168298Y3293513D01*
X570725D01*
X610600Y3253638D01*
Y3211513D02*
Y3253638D01*
X1112392Y1476252D02*
Y1583548D01*
Y1453564D02*
Y1476252D01*
X1061720Y1402892D02*
X1112392Y1453564D01*
X1061720Y1402080D02*
Y1402892D01*
X2742920Y3701836D02*
X2799855Y3644900D01*
X2832100D01*
X2742920Y3701836D02*
Y3743960D01*
X2389860Y4533564D02*
X2390075Y4533780D01*
X2389860Y4432300D02*
Y4533564D01*
X1854200Y875509D02*
X1861860Y867849D01*
X1816100Y1082040D02*
X1854200Y1043940D01*
X1568040Y1082040D02*
X1816100D01*
X1854200Y875509D02*
Y1043940D01*
X763306Y2912516D02*
X870545D01*
X2391655Y4035789D02*
X2391706Y4035841D01*
X2391655Y4009397D02*
Y4035789D01*
Y3899397D02*
Y4009397D01*
X610603Y3056889D02*
Y3187485D01*
D43*
X2500275Y4076363D02*
Y4114396D01*
X2478396Y4054484D02*
X2500275Y4076363D01*
X2997200Y3943940D02*
Y4064000D01*
X2903139Y3977640D02*
X2936839Y3943940D01*
X2997200D01*
X2932430Y3745230D02*
X2933700Y3746500D01*
X2834823Y3977640D02*
X2903139D01*
X2821004Y3805856D02*
Y3871741D01*
X2836190Y3745230D02*
X2932430D01*
X2821004Y3805856D02*
X2834640Y3792220D01*
X2834920Y3743960D02*
X2836190Y3745230D01*
X2834640Y3744240D02*
Y3792220D01*
Y3744240D02*
X2834920Y3743960D01*
X2821004Y3963822D02*
X2834823Y3977640D01*
X2816004Y3876741D02*
X2821004Y3881741D01*
X2816004Y3876741D02*
X2821004Y3871741D01*
Y3881741D02*
Y3963822D01*
X1359134Y1179134D02*
X1481623D01*
X1358040Y1178040D02*
X1359134Y1179134D01*
X1481623D02*
X1482717Y1180228D01*
X1343040Y1193040D02*
X1358040Y1178040D01*
X1290320Y1213543D02*
X1310823Y1193040D01*
X1290320Y1213543D02*
Y1279480D01*
X1310823Y1193040D02*
X1343040D01*
X1290320Y1279480D02*
X1291000Y1280160D01*
X2185616Y2972080D02*
X2233720Y3020184D01*
Y3083756D02*
X2359822Y3209858D01*
X1917700Y2972080D02*
X2185616D01*
X2233720Y3020184D02*
Y3083756D01*
X2390140Y4386580D02*
Y4432020D01*
X2389860Y4432300D02*
X2390140Y4432020D01*
X2370275Y4324396D02*
Y4366715D01*
X2390140Y4386580D01*
X2370275Y4068625D02*
Y4114396D01*
D44*
X764457Y2475248D02*
X766957Y2477748D01*
X813068D02*
X814024Y2478705D01*
X764457Y2473342D02*
Y2475248D01*
X766957Y2477748D02*
X813068D01*
X680385Y1136584D02*
X799253D01*
X1399161Y1581671D02*
X1401293Y1583804D01*
X1399161Y1392840D02*
Y1581671D01*
X1397816Y1391496D02*
X1399161Y1392840D01*
X814024Y2478705D02*
X814981Y2477748D01*
X864248D02*
X871420Y2470576D01*
X814981Y2477748D02*
X864248D01*
X2507775Y4323738D02*
X2600302D01*
X2600960Y4323080D01*
D45*
X2639687Y3500747D02*
Y3541387D01*
X2636520Y3497580D02*
X2639687Y3500747D01*
Y3541387D02*
X2641600Y3543300D01*
X2636520Y3441113D02*
Y3497580D01*
X2628793Y3433386D02*
X2636520Y3441113D01*
X2311202Y3794278D02*
X2386773D01*
X2391655Y3789397D01*
X2306320Y3799160D02*
X2311202Y3794278D01*
X2861692Y4214079D02*
X2951261D01*
X2483130Y4431030D02*
X2564130D01*
X1187896Y329376D02*
Y410265D01*
X1130300Y271780D02*
X1187896Y329376D01*
X1950720Y2402840D02*
X1956132D01*
X1966292Y2413000D01*
X2072080D01*
D46*
X2446020Y3395980D02*
Y3477260D01*
D47*
X1277533Y1819714D02*
Y1854257D01*
X1177000Y544500D02*
X1180000Y547500D01*
X1095053Y544500D02*
X1177000D01*
X1087120Y536567D02*
X1095053Y544500D01*
X1064405Y2984500D02*
X1106316D01*
X1049760Y2924390D02*
Y2969855D01*
X1064405Y2984500D01*
X2742920Y3743960D02*
X2750820Y3751860D01*
X2758472Y4165778D02*
Y4203299D01*
X2753504Y4160810D02*
X2758472Y4165778D01*
X2753504Y4099241D02*
Y4160810D01*
X381000Y1635760D02*
X383000Y1637760D01*
X521657D01*
X523657Y1639760D01*
X2881004Y3876741D02*
X2881706Y3876040D01*
X2936240D02*
X2956560Y3855720D01*
X2881706Y3876040D02*
X2936240D01*
X2956560Y3855720D02*
X2993980D01*
X2997200Y3858940D01*
X2750820Y3751860D02*
Y3876557D01*
X2751004Y3876741D01*
X2758472Y4203299D02*
X2769472Y4214299D01*
X2751004Y4096741D02*
X2753504Y4099241D01*
X2391706Y4035841D02*
Y4047194D01*
X2370275Y4068625D02*
X2391706Y4047194D01*
X1877060Y2971800D02*
X1917420D01*
X1838960Y2933700D02*
X1877060Y2971800D01*
X1917420D02*
X1917700Y2972080D01*
X872640Y2910420D02*
X960540D01*
D48*
X2310106Y3277894D02*
X2360297Y3227703D01*
X2485165D01*
X2360297Y3211197D02*
Y3227703D01*
X2310106Y3277894D02*
Y3337490D01*
X2359822Y3209858D02*
Y3210722D01*
X2360297Y3211197D01*
D49*
X2645786Y2525213D02*
X2665520Y2505480D01*
X2636687Y2552553D02*
X2645786Y2543454D01*
X2369640Y2666480D02*
X2384213Y2651907D01*
X2645786Y2597506D02*
Y2615747D01*
X2344640Y2666480D02*
X2369640D01*
X2645786Y2615747D02*
X2665520Y2635480D01*
X2384213Y2651907D02*
X2414475D01*
X2636687Y2588407D02*
X2645786Y2597506D01*
X2384213Y2616053D02*
X2429326D01*
X2426668Y2664100D02*
X2534372D01*
X2369640Y2601480D02*
X2384213Y2616053D01*
X2595214Y2552553D02*
X2636687D01*
X2429326Y2616053D02*
X2441519Y2628246D01*
X2610065Y2588407D02*
X2636687D01*
X2534372Y2664100D02*
X2610065Y2588407D01*
X2414475Y2651907D02*
X2426668Y2664100D01*
X2519521Y2628246D02*
X2595214Y2552553D01*
X2645786Y2525213D02*
Y2543454D01*
X2441519Y2628246D02*
X2519521D01*
X3180534Y2650104D02*
Y2700361D01*
X3180206Y2649776D02*
X3180534Y2650104D01*
X3180373Y2575757D02*
Y2649609D01*
X3069756Y2465140D02*
X3180373Y2575757D01*
X3180039Y2649609D02*
X3180373D01*
X3082984Y2552553D02*
X3180039Y2649609D01*
X3069756Y2187895D02*
X3082021Y2175630D01*
Y1982938D02*
Y2175630D01*
X3069756Y2187895D02*
Y2465140D01*
X3051753Y1952671D02*
X3082021Y1982938D01*
X3034336Y1952671D02*
X3051753D01*
X2948376Y1997244D02*
X3003003D01*
X3025237Y1975011D01*
Y1961770D02*
X3034336Y1952671D01*
X3025237Y1961770D02*
Y1975011D01*
X2691480Y2552553D02*
X3082984D01*
X2344640Y2601480D02*
X2369640D01*
X2682380Y2543454D02*
X2691480Y2552553D01*
X2682380Y2522340D02*
Y2543454D01*
X2665520Y2505480D02*
X2682380Y2522340D01*
X2675480Y2364220D02*
Y2495520D01*
X2665520Y2505480D02*
X2675480Y2495520D01*
X3117026Y2675571D02*
X3117364Y2675232D01*
X3112316Y2667681D02*
X3119867Y2675232D01*
X3276600Y2621280D02*
Y2626360D01*
X3012440Y2817751D02*
X3117026Y2713166D01*
Y2675571D02*
Y2713166D01*
X3112316Y2655835D02*
Y2667681D01*
X3105609Y2450290D02*
X3276600Y2621280D01*
X3044887Y2588407D02*
X3112316Y2655835D01*
X3105609Y2202745D02*
X3117874Y2190481D01*
Y1968088D02*
Y2190481D01*
X3066604Y1916818D02*
X3117874Y1968088D01*
X3105609Y2202745D02*
Y2450290D01*
X3034336Y1916818D02*
X3066604D01*
X3025237Y1907719D02*
X3034336Y1916818D01*
X3025237Y1894478D02*
Y1907719D01*
X3003003Y1872244D02*
X3025237Y1894478D01*
X2669540Y2639500D02*
Y2763520D01*
X2665520Y2635480D02*
X2669540Y2639500D01*
X2665520Y2635480D02*
X2682380Y2618620D01*
Y2597506D02*
Y2618620D01*
Y2597506D02*
X2691480Y2588407D01*
X2948376Y1872244D02*
X3003003D01*
X2691480Y2588407D02*
X3044887D01*
X2947340Y3288876D02*
X3001967D01*
X3024200Y3266643D01*
Y3253402D02*
Y3266643D01*
Y3253402D02*
X3033299Y3244303D01*
X3108707Y3302293D02*
X3202551D01*
X3033299Y3208450D02*
X3065568D01*
X2947340Y3163876D02*
X3001967D01*
X3024200Y3199350D02*
X3033299Y3208450D01*
X3202551Y3302293D02*
X3213052Y3291792D01*
X3259113Y3245731D01*
X3123558Y3266440D02*
X3187700D01*
X3065568Y3208450D02*
X3123558Y3266440D01*
X3024200Y3186110D02*
Y3199350D01*
X3050717Y3244303D02*
X3108707Y3302293D01*
X3001967Y3163876D02*
X3024200Y3186110D01*
X3033299Y3244303D02*
X3050717D01*
X3187700Y3266440D02*
X3223260Y3230880D01*
Y3009804D02*
Y3230880D01*
X3259113Y2994953D02*
Y3245731D01*
X3180952Y2967496D02*
X3223260Y3009804D01*
X3195803Y2931643D02*
X3259113Y2994953D01*
X3120839Y2931643D02*
X3195803D01*
X3098169Y2930235D02*
X3119431D01*
X3120839Y2931643D01*
X3104580Y2966089D02*
X3105988Y2967496D01*
X3083318Y2966089D02*
X3104580D01*
X3012440Y2895211D02*
X3083318Y2966089D01*
X3105988Y2967496D02*
X3180952D01*
X3048293Y2880360D02*
X3098169Y2930235D01*
X3012440Y2817751D02*
Y2895211D01*
X3048293Y2832602D02*
Y2880360D01*
Y2832602D02*
X3180534Y2700361D01*
D50*
X1949012Y1655000D02*
X2145000D01*
X1861860Y1567849D02*
X1949012Y1655000D01*
X2145000D02*
X2319643Y1480357D01*
X2258060Y1074420D02*
X2319643Y1136003D01*
Y1480357D01*
D51*
X2897467Y3578289D02*
Y3640417D01*
X2832100Y3644900D02*
X2971800D01*
Y3581400D02*
Y3644900D01*
D52*
X3101187Y3797307D02*
X3102533Y3798653D01*
X3248653D02*
X3250000Y3800000D01*
X3102533Y3798653D02*
X3248653D01*
X2645935Y3020805D02*
X2669540Y2997200D01*
Y2913520D02*
Y2997200D01*
X2579895Y3020805D02*
X2645935D01*
X2189480Y383930D02*
X2225000Y419450D01*
Y547500D01*
X2189480Y375920D02*
Y383930D01*
X2022764Y415264D02*
X2100000Y492500D01*
X1971623Y415264D02*
X2022764D01*
X1965960Y409600D02*
X1971623Y415264D01*
X2100000Y492500D02*
Y547500D01*
D53*
X2798796Y1746787D02*
X2799253Y1747244D01*
X2948376D01*
X2798457Y3038078D02*
X2799256Y3038876D01*
X2947340D01*
X3085841D01*
X3091220Y3044255D01*
X3179085Y1747244D02*
X3179360Y1747520D01*
X2948376Y1747244D02*
X3179085D01*
X1767840Y642620D02*
X1879881D01*
X1975000Y547500D01*
D54*
X842794Y433641D02*
X883221D01*
X947420Y497840D01*
Y547500D02*
X950000D01*
X947420Y497840D02*
Y547500D01*
D55*
X610603Y2935186D02*
Y3056889D01*
D56*
X3125000Y4472500D02*
D03*
Y372500D02*
D03*
X325000Y4472500D02*
D03*
Y372500D02*
D03*
D57*
X1542000Y655000D02*
D03*
X678000D02*
D03*
D58*
X1542000Y272500D02*
D03*
X678000D02*
D03*
D59*
X810000Y582500D02*
D03*
D60*
D03*
X1410000D02*
D03*
D61*
X263516Y2946484D02*
D03*
X2540000Y4030000D02*
D03*
X2521990Y3734104D02*
D03*
X2466340Y3662680D02*
D03*
X2599485Y3700000D02*
D03*
X814024Y2478705D02*
D03*
X770909Y2255858D02*
D03*
X637540Y2425500D02*
D03*
X1953421Y2681198D02*
D03*
X2000001Y4600002D02*
D03*
X2100001Y4400002D02*
D03*
X1800001Y4600002D02*
D03*
X1900001Y4400002D02*
D03*
X1600001Y4600002D02*
D03*
X1700001Y4400002D02*
D03*
X1400001Y4600002D02*
D03*
X1500001Y4400002D02*
D03*
Y3600002D02*
D03*
X1400001Y200000D02*
D03*
X1200001Y4600002D02*
D03*
X1000001D02*
D03*
X800000D02*
D03*
X900000Y4400002D02*
D03*
Y3600002D02*
D03*
X600000Y4600002D02*
D03*
X700000Y4400002D02*
D03*
X600000Y4200002D02*
D03*
X300000Y3600002D02*
D03*
X1117600Y3500120D02*
D03*
X977900Y3515360D02*
D03*
X1394460Y3606800D02*
D03*
X1285240Y3655060D02*
D03*
X1150620Y3657600D02*
D03*
X1049020Y3817620D02*
D03*
X1059180Y3710940D02*
D03*
X894080Y3708400D02*
D03*
Y3807460D02*
D03*
X2159000Y3624580D02*
D03*
X2997200Y4064000D02*
D03*
X2951480Y4213860D02*
D03*
X2933700Y3746500D02*
D03*
X2565400Y4429760D02*
D03*
X2678577Y3227703D02*
D03*
X2475000Y2387500D02*
D03*
X2159000Y2879044D02*
D03*
X2104685Y1497185D02*
D03*
X1104900Y3373120D02*
D03*
X1623078Y1974126D02*
D03*
X946314Y1754634D02*
D03*
X622527Y2828988D02*
D03*
X511567Y1862634D02*
D03*
X1308505Y1360560D02*
D03*
X1600200Y911860D02*
D03*
Y972820D02*
D03*
X1164120Y1029500D02*
D03*
X600000Y600000D02*
D03*
Y500000D02*
D03*
X500000Y600000D02*
D03*
Y700000D02*
D03*
X443026Y866237D02*
D03*
X714455Y2831718D02*
D03*
X2810137Y3452437D02*
D03*
X1164380Y1251811D02*
D03*
X2161540Y759460D02*
D03*
X1647992Y1294604D02*
D03*
X3119867Y2675232D02*
D03*
X3276600Y2626360D02*
D03*
X2174383Y1975769D02*
D03*
X1950720Y2171700D02*
D03*
X1008380Y449580D02*
D03*
X1322340Y3195289D02*
D03*
X2137819Y3806370D02*
D03*
X2133600Y3919220D02*
D03*
X734060Y3223260D02*
D03*
X660400Y3530600D02*
D03*
X546100Y3512820D02*
D03*
X1742440Y3014980D02*
D03*
X469900Y2242820D02*
D03*
X1747624Y2186817D02*
D03*
X692491Y1894437D02*
D03*
X980440Y1559560D02*
D03*
X952500Y1841220D02*
D03*
X1320800Y1983740D02*
D03*
X2160820Y3046844D02*
D03*
X2173014Y3211122D02*
D03*
X2268513Y4037145D02*
D03*
X2579895Y3020805D02*
D03*
X2712693Y3466578D02*
D03*
X2641600Y3543300D02*
D03*
X2359822Y3209858D02*
D03*
X2367280Y3017520D02*
D03*
X3098800Y3949700D02*
D03*
X3098378Y4098438D02*
D03*
X3101187Y3797307D02*
D03*
X332740Y952500D02*
D03*
X353920Y1040540D02*
D03*
X119380Y2400300D02*
D03*
X942340Y1671320D02*
D03*
X383540Y1239520D02*
D03*
X381000Y1338580D02*
D03*
X811588Y2118800D02*
D03*
X2788814Y1962462D02*
D03*
X1518920Y1391920D02*
D03*
X1384300Y457200D02*
D03*
X1130357Y1794161D02*
D03*
X1948180Y3208020D02*
D03*
X2189480Y375920D02*
D03*
X1965960Y409600D02*
D03*
X1950720Y2593340D02*
D03*
X820420Y2778321D02*
D03*
X734060Y2184400D02*
D03*
X2166620Y2171700D02*
D03*
D62*
X2654300Y4231640D02*
D03*
X1343660Y835660D02*
D03*
X2897467Y3578289D02*
D03*
X2100580Y1135380D02*
D03*
X1005840Y3360420D02*
D03*
X468000Y3396620D02*
D03*
X142240Y3314700D02*
D03*
X119380Y3159760D02*
D03*
X2832100Y3644900D02*
D03*
X2894580Y3645365D02*
D03*
X2971800Y3581400D02*
D03*
Y3644900D02*
D03*
X2600960Y4323080D02*
D03*
X2606040Y4518660D02*
D03*
X2494280Y4549140D02*
D03*
X2390075Y4533780D02*
D03*
X899119Y1054203D02*
D03*
X2118360Y985520D02*
D03*
X642620Y1778000D02*
D03*
X876300Y835660D02*
D03*
D63*
X3282500Y4472500D02*
D03*
X3236370Y4583870D02*
D03*
Y4361131D02*
D03*
X3125000Y4315000D02*
D03*
Y4630000D02*
D03*
X3013631Y4583870D02*
D03*
Y4361131D02*
D03*
X2967500Y4472500D02*
D03*
X3236370Y483869D02*
D03*
X3125000Y530000D02*
D03*
X3013631Y483869D02*
D03*
X2967500Y372500D02*
D03*
X3282500D02*
D03*
X3236370Y261131D02*
D03*
X3125000Y215000D02*
D03*
X3013631Y261131D02*
D03*
X482500Y4472500D02*
D03*
X436370Y4583870D02*
D03*
Y4361131D02*
D03*
X325000Y4315000D02*
D03*
Y4630000D02*
D03*
X213631Y4583870D02*
D03*
Y4361131D02*
D03*
X167500Y4472500D02*
D03*
X325000Y530000D02*
D03*
X436370Y483869D02*
D03*
X213631D02*
D03*
X482500Y372500D02*
D03*
X436370Y261131D02*
D03*
X213631D02*
D03*
X167500Y372500D02*
D03*
X325000Y215000D02*
D03*
D64*
X1130300Y271780D02*
D03*
X3091220Y3044255D02*
D03*
X1482717Y1180228D02*
D03*
X3179360Y1747520D02*
D03*
X1767840Y642620D02*
D03*
X1087120Y536567D02*
D03*
X2370380Y2174120D02*
D03*
X2258060Y1074420D02*
D03*
X842794Y433641D02*
D03*
D65*
X1397816Y1391496D02*
D03*
X1950720Y2402840D02*
D03*
X2052320Y1424940D02*
D03*
X1061720Y1402080D02*
D03*
X2918509Y1433233D02*
D03*
D66*
X381000Y1635760D02*
D03*
%TF.MD5,52d501594f0e683cdc91deece3f55f28*%
M02*
