%TF.GenerationSoftware,Altium Limited,Altium Designer,23.9.2 (47)*%
G04 Layer_Physical_Order=5*
G04 Layer_Color=16737945*
%FSLAX45Y45*%
%MOMM*%
%TF.SameCoordinates,C6D65D71-24B2-464F-8DE7-77A712877E08*%
%TF.FilePolarity,Positive*%
%TF.FileFunction,Copper,L5,Inr,Signal*%
%TF.Part,Single*%
G01*
G75*
%TA.AperFunction,Conductor*%
%ADD42C,0.62000*%
%ADD43C,0.35000*%
%TA.AperFunction,ComponentPad*%
%ADD56C,4.00000*%
%ADD57O,1.15800X2.31600*%
%ADD58O,1.20000X2.40000*%
%ADD59C,0.60000*%
%ADD60C,0.63000*%
%TA.AperFunction,ViaPad*%
%ADD61C,0.55000*%
%ADD62C,0.80000*%
%ADD63C,0.50000*%
%ADD64C,0.90000*%
%ADD65C,0.65000*%
%ADD66C,0.75000*%
G36*
X3195089Y4707739D02*
X3241314Y4688592D01*
X3282916Y4660795D01*
X3318295Y4625416D01*
X3346092Y4583814D01*
X3365239Y4537589D01*
X3375000Y4488517D01*
Y4463500D01*
Y376500D01*
Y351483D01*
X3365239Y302411D01*
X3346092Y256186D01*
X3318295Y214585D01*
X3282916Y179205D01*
X3241314Y151408D01*
X3195089Y132261D01*
X3146017Y122500D01*
X329000D01*
X303983Y122500D01*
X254911Y132261D01*
X208686Y151408D01*
X167085Y179205D01*
X131706Y214585D01*
X103908Y256186D01*
X84761Y302411D01*
X75000Y351483D01*
Y376500D01*
Y2353274D01*
X86734Y2358135D01*
X89415Y2355454D01*
X108858Y2347400D01*
X129902D01*
X149345Y2355454D01*
X164226Y2370335D01*
X172280Y2389778D01*
Y2410822D01*
X164226Y2430265D01*
X149345Y2445146D01*
X129902Y2453200D01*
X108858D01*
X89415Y2445146D01*
X86734Y2442465D01*
X75000Y2447326D01*
Y3095200D01*
X87700Y3102533D01*
X94136Y3098817D01*
X110770Y3094360D01*
X127990D01*
X144624Y3098817D01*
X159537Y3107427D01*
X171713Y3119603D01*
X180323Y3134516D01*
X184780Y3151150D01*
Y3168370D01*
X180323Y3185004D01*
X171713Y3199917D01*
X159537Y3212093D01*
X144624Y3220703D01*
X127990Y3225160D01*
X110770D01*
X94136Y3220703D01*
X87700Y3216987D01*
X75000Y3224320D01*
Y3274962D01*
X87700Y3278365D01*
X89907Y3274543D01*
X102083Y3262367D01*
X116996Y3253757D01*
X133630Y3249300D01*
X150850D01*
X167484Y3253757D01*
X182397Y3262367D01*
X194573Y3274543D01*
X203183Y3289456D01*
X207640Y3306090D01*
Y3323310D01*
X203183Y3339944D01*
X194573Y3354857D01*
X182397Y3367033D01*
X167484Y3375643D01*
X150850Y3380100D01*
X133630D01*
X116996Y3375643D01*
X102083Y3367033D01*
X89907Y3354857D01*
X87700Y3351035D01*
X75000Y3354438D01*
Y3690000D01*
X527500D01*
Y4145000D01*
X75000D01*
Y4463500D01*
X75000Y4488517D01*
X84761Y4537589D01*
X103907Y4583814D01*
X131704Y4625416D01*
X167083Y4660795D01*
X208685Y4688592D01*
X254910Y4707739D01*
X303983Y4717500D01*
X329000Y4717500D01*
X3121000Y4717500D01*
X3146017D01*
X3195089Y4707739D01*
D02*
G37*
%LPC*%
G36*
X2502890Y4614540D02*
X2485670D01*
X2469036Y4610083D01*
X2454123Y4601473D01*
X2441947Y4589297D01*
X2440921Y4587520D01*
X2430232Y4586112D01*
X2415319Y4594723D01*
X2398685Y4599180D01*
X2381465D01*
X2364832Y4594723D01*
X2349919Y4586112D01*
X2337742Y4573936D01*
X2329132Y4559023D01*
X2324675Y4542390D01*
Y4525170D01*
X2329132Y4508536D01*
X2337742Y4493623D01*
X2349919Y4481447D01*
X2364832Y4472837D01*
X2381465Y4468380D01*
X2398685D01*
X2415319Y4472837D01*
X2430232Y4481447D01*
X2442408Y4493623D01*
X2443434Y4495400D01*
X2454124Y4496807D01*
X2469036Y4488197D01*
X2485670Y4483740D01*
X2502890D01*
X2519524Y4488197D01*
X2531495Y4495109D01*
X2540155Y4494031D01*
X2546528Y4490938D01*
X2553707Y4478503D01*
X2565883Y4466327D01*
X2580796Y4457717D01*
X2597430Y4453260D01*
X2614650D01*
X2631284Y4457717D01*
X2646197Y4466327D01*
X2658373Y4478503D01*
X2666983Y4493416D01*
X2671440Y4510050D01*
Y4527270D01*
X2666983Y4543904D01*
X2658373Y4558817D01*
X2646197Y4570993D01*
X2631284Y4579603D01*
X2614650Y4584060D01*
X2597430D01*
X2580796Y4579603D01*
X2568825Y4572691D01*
X2560165Y4573769D01*
X2553792Y4576862D01*
X2546613Y4589297D01*
X2534437Y4601473D01*
X2519524Y4610083D01*
X2502890Y4614540D01*
D02*
G37*
G36*
X2609570Y4388480D02*
X2592350D01*
X2575716Y4384023D01*
X2560803Y4375413D01*
X2548627Y4363237D01*
X2540017Y4348324D01*
X2535560Y4331690D01*
Y4314470D01*
X2540017Y4297836D01*
X2548627Y4282923D01*
X2560803Y4270747D01*
X2575716Y4262137D01*
X2581993Y4260455D01*
X2592274Y4257224D01*
X2590385Y4245794D01*
X2588900Y4240250D01*
Y4223030D01*
X2593357Y4206396D01*
X2601967Y4191483D01*
X2614143Y4179307D01*
X2629056Y4170697D01*
X2645690Y4166240D01*
X2662910D01*
X2679544Y4170697D01*
X2694457Y4179307D01*
X2706633Y4191483D01*
X2715243Y4206396D01*
X2719700Y4223030D01*
Y4240250D01*
X2715243Y4256884D01*
X2706633Y4271797D01*
X2694457Y4283973D01*
X2679544Y4292583D01*
X2673267Y4294265D01*
X2662986Y4297496D01*
X2664875Y4308926D01*
X2666360Y4314470D01*
Y4331690D01*
X2661903Y4348324D01*
X2653293Y4363237D01*
X2641117Y4375413D01*
X2626204Y4384023D01*
X2609570Y4388480D01*
D02*
G37*
G36*
X3108900Y4151338D02*
X3087855D01*
X3068412Y4143284D01*
X3053532Y4128403D01*
X3045478Y4108960D01*
Y4087915D01*
X3053532Y4068472D01*
X3068412Y4053592D01*
X3087855Y4045538D01*
X3108900D01*
X3128343Y4053592D01*
X3143224Y4068472D01*
X3151278Y4087915D01*
Y4108960D01*
X3143224Y4128403D01*
X3128343Y4143284D01*
X3108900Y4151338D01*
D02*
G37*
G36*
X2279035Y4090045D02*
X2257990D01*
X2238547Y4081991D01*
X2223666Y4067110D01*
X2215613Y4047667D01*
Y4026622D01*
X2223666Y4007179D01*
X2238547Y3992299D01*
X2257990Y3984245D01*
X2279035D01*
X2298478Y3992299D01*
X2313359Y4007179D01*
X2321412Y4026622D01*
Y4047667D01*
X2313359Y4067110D01*
X2298478Y4081991D01*
X2279035Y4090045D01*
D02*
G37*
G36*
X3109322Y4002600D02*
X3088278D01*
X3068835Y3994546D01*
X3053954Y3979665D01*
X3045900Y3960222D01*
Y3939178D01*
X3053954Y3919735D01*
X3068835Y3904854D01*
X3088278Y3896800D01*
X3109322D01*
X3128765Y3904854D01*
X3143646Y3919735D01*
X3151700Y3939178D01*
Y3960222D01*
X3143646Y3979665D01*
X3128765Y3994546D01*
X3109322Y4002600D01*
D02*
G37*
G36*
X2144122Y3972120D02*
X2123078D01*
X2103635Y3964066D01*
X2088754Y3949185D01*
X2080700Y3929742D01*
Y3908698D01*
X2088754Y3889255D01*
X2103635Y3874374D01*
X2117105Y3868794D01*
Y3855048D01*
X2107854Y3851216D01*
X2092973Y3836335D01*
X2084920Y3816892D01*
Y3795847D01*
X2092973Y3776404D01*
X2107854Y3761523D01*
X2127297Y3753470D01*
X2148342D01*
X2167785Y3761523D01*
X2182666Y3776404D01*
X2190719Y3795847D01*
Y3816892D01*
X2182666Y3836335D01*
X2167785Y3851216D01*
X2154314Y3856795D01*
Y3870542D01*
X2163565Y3874374D01*
X2178446Y3889255D01*
X2186500Y3908698D01*
Y3929742D01*
X2178446Y3949185D01*
X2163565Y3964066D01*
X2144122Y3972120D01*
D02*
G37*
G36*
X3111709Y3850206D02*
X3090664D01*
X3071221Y3842153D01*
X3056340Y3827272D01*
X3048287Y3807829D01*
Y3786784D01*
X3056340Y3767341D01*
X3071221Y3752460D01*
X3090664Y3744407D01*
X3111709D01*
X3131152Y3752460D01*
X3146033Y3767341D01*
X3154086Y3786784D01*
Y3807829D01*
X3146033Y3827272D01*
X3131152Y3842153D01*
X3111709Y3850206D01*
D02*
G37*
G36*
X2903191Y3710765D02*
X2885970D01*
X2869337Y3706308D01*
X2862937Y3702613D01*
X2857344Y3705843D01*
X2840710Y3710300D01*
X2823490D01*
X2806856Y3705843D01*
X2791943Y3697233D01*
X2779767Y3685057D01*
X2771157Y3670144D01*
X2766700Y3653510D01*
Y3636290D01*
X2771157Y3619656D01*
X2779767Y3604743D01*
X2791943Y3592567D01*
X2806856Y3583957D01*
X2823490Y3579500D01*
X2832067D01*
Y3569679D01*
X2836524Y3553045D01*
X2845134Y3538132D01*
X2857310Y3525956D01*
X2872223Y3517346D01*
X2888857Y3512889D01*
X2906077D01*
X2922710Y3517346D01*
X2937328Y3525785D01*
X2946556Y3520457D01*
X2963190Y3516000D01*
X2980410D01*
X2997044Y3520457D01*
X3011957Y3529067D01*
X3024133Y3541243D01*
X3032743Y3556156D01*
X3037200Y3572790D01*
Y3590010D01*
X3032743Y3606644D01*
X3028987Y3613150D01*
X3032743Y3619656D01*
X3037200Y3636290D01*
Y3653510D01*
X3032743Y3670144D01*
X3024133Y3685057D01*
X3011957Y3697233D01*
X2997044Y3705843D01*
X2980410Y3710300D01*
X2963190D01*
X2946556Y3705843D01*
X2933593Y3698359D01*
X2919824Y3706308D01*
X2903191Y3710765D01*
D02*
G37*
G36*
X2610007Y3752900D02*
X2588963D01*
X2569520Y3744846D01*
X2554639Y3729965D01*
X2546585Y3710522D01*
Y3689478D01*
X2554639Y3670035D01*
X2569520Y3655154D01*
X2588963Y3647100D01*
X2610007D01*
X2629450Y3655154D01*
X2644331Y3670035D01*
X2652385Y3689478D01*
Y3710522D01*
X2644331Y3729965D01*
X2629450Y3744846D01*
X2610007Y3752900D01*
D02*
G37*
G36*
X2476862Y3715580D02*
X2455818D01*
X2436375Y3707526D01*
X2421494Y3692645D01*
X2413440Y3673202D01*
Y3652158D01*
X2421494Y3632715D01*
X2436375Y3617834D01*
X2455818Y3609780D01*
X2476862D01*
X2496305Y3617834D01*
X2511186Y3632715D01*
X2519240Y3652158D01*
Y3673202D01*
X2511186Y3692645D01*
X2496305Y3707526D01*
X2476862Y3715580D01*
D02*
G37*
G36*
X670922Y3583500D02*
X649878D01*
X630435Y3575446D01*
X615554Y3560565D01*
X607500Y3541122D01*
Y3536008D01*
X594800Y3533481D01*
X590946Y3542785D01*
X576065Y3557666D01*
X556622Y3565720D01*
X535578D01*
X516135Y3557666D01*
X501254Y3542785D01*
X493200Y3523342D01*
Y3502298D01*
X501254Y3482855D01*
X516135Y3467974D01*
X535578Y3459920D01*
X556622D01*
X576065Y3467974D01*
X590946Y3482855D01*
X599000Y3502298D01*
Y3507412D01*
X611700Y3509939D01*
X615554Y3500635D01*
X630435Y3485754D01*
X649878Y3477700D01*
X670922D01*
X690365Y3485754D01*
X705246Y3500635D01*
X713300Y3520078D01*
Y3541122D01*
X705246Y3560565D01*
X690365Y3575446D01*
X670922Y3583500D01*
D02*
G37*
G36*
X2652122Y3596200D02*
X2631078D01*
X2611635Y3588146D01*
X2596754Y3573265D01*
X2588700Y3553822D01*
Y3532778D01*
X2596754Y3513335D01*
X2611635Y3498454D01*
X2631078Y3490400D01*
X2652122D01*
X2661159Y3480397D01*
X2659793Y3477100D01*
Y3456055D01*
X2667847Y3436612D01*
X2682728Y3421732D01*
X2702171Y3413678D01*
X2723216D01*
X2742658Y3421732D01*
X2749158Y3428231D01*
X2764139Y3425252D01*
X2765291Y3422472D01*
X2780171Y3407591D01*
X2799614Y3399538D01*
X2820659D01*
X2840102Y3407591D01*
X2854983Y3422472D01*
X2863037Y3441915D01*
Y3462960D01*
X2854983Y3482403D01*
X2840102Y3497284D01*
X2820659Y3505337D01*
X2799614D01*
X2780171Y3497284D01*
X2773672Y3490784D01*
X2758691Y3493763D01*
X2757539Y3496543D01*
X2742658Y3511424D01*
X2723216Y3519478D01*
X2702171D01*
X2693134Y3529481D01*
X2694500Y3532778D01*
Y3553822D01*
X2686446Y3573265D01*
X2671565Y3588146D01*
X2652122Y3596200D01*
D02*
G37*
G36*
X476610Y3462020D02*
X459390D01*
X442756Y3457563D01*
X427843Y3448953D01*
X415667Y3436776D01*
X407057Y3421863D01*
X402600Y3405230D01*
Y3388010D01*
X407057Y3371376D01*
X415667Y3356463D01*
X427843Y3344287D01*
X442756Y3335677D01*
X459390Y3331220D01*
X476610D01*
X493243Y3335677D01*
X508156Y3344287D01*
X520333Y3356463D01*
X528943Y3371376D01*
X533400Y3388010D01*
Y3405230D01*
X528943Y3421863D01*
X520333Y3436776D01*
X508156Y3448953D01*
X493243Y3457563D01*
X476610Y3462020D01*
D02*
G37*
G36*
X744582Y3276160D02*
X723538D01*
X704095Y3268106D01*
X689214Y3253225D01*
X681160Y3233782D01*
Y3212738D01*
X689214Y3193295D01*
X704095Y3178414D01*
X723538Y3170360D01*
X744582D01*
X764025Y3178414D01*
X778906Y3193295D01*
X786960Y3212738D01*
Y3233782D01*
X778906Y3253225D01*
X764025Y3268106D01*
X744582Y3276160D01*
D02*
G37*
G36*
X2183536Y3264022D02*
X2162491D01*
X2143048Y3255968D01*
X2128167Y3241087D01*
X2120114Y3221644D01*
Y3200599D01*
X2128167Y3181156D01*
X2143048Y3166276D01*
X2162491Y3158222D01*
X2183536D01*
X2202979Y3166276D01*
X2217860Y3181156D01*
X2225914Y3200599D01*
Y3221644D01*
X2217860Y3241087D01*
X2202979Y3255968D01*
X2183536Y3264022D01*
D02*
G37*
G36*
X1958702Y3260920D02*
X1937658D01*
X1918215Y3252866D01*
X1903334Y3237985D01*
X1895280Y3218542D01*
Y3197498D01*
X1903334Y3178055D01*
X1918215Y3163174D01*
X1937658Y3155120D01*
X1958702D01*
X1978145Y3163174D01*
X1993026Y3178055D01*
X2001080Y3197498D01*
Y3218542D01*
X1993026Y3237985D01*
X1978145Y3252866D01*
X1958702Y3260920D01*
D02*
G37*
G36*
X1332862Y3248189D02*
X1311818D01*
X1292375Y3240135D01*
X1277494Y3225254D01*
X1269440Y3205811D01*
Y3184766D01*
X1277494Y3165323D01*
X1292375Y3150443D01*
X1311818Y3142389D01*
X1332862D01*
X1352305Y3150443D01*
X1367186Y3165323D01*
X1375240Y3184766D01*
Y3205811D01*
X1367186Y3225254D01*
X1352305Y3240135D01*
X1332862Y3248189D01*
D02*
G37*
G36*
X3100489Y3114655D02*
X3081952D01*
X3064047Y3109858D01*
X3047994Y3100589D01*
X3034886Y3087482D01*
X3025618Y3071429D01*
X3020820Y3053524D01*
Y3034987D01*
X3025618Y3017082D01*
X3034886Y3001029D01*
X3047994Y2987921D01*
X3064047Y2978653D01*
X3081952Y2973855D01*
X3100489D01*
X3118394Y2978653D01*
X3134447Y2987921D01*
X3147554Y3001029D01*
X3156823Y3017082D01*
X3161620Y3034987D01*
Y3053524D01*
X3156823Y3071429D01*
X3147554Y3087482D01*
X3134447Y3100589D01*
X3118394Y3109858D01*
X3100489Y3114655D01*
D02*
G37*
G36*
X2590417Y3073705D02*
X2569372D01*
X2549929Y3065651D01*
X2535048Y3050771D01*
X2526995Y3031328D01*
Y3010283D01*
X2535048Y2990840D01*
X2549929Y2975959D01*
X2569372Y2967905D01*
X2590417D01*
X2609860Y2975959D01*
X2624741Y2990840D01*
X2632794Y3010283D01*
Y3031328D01*
X2624741Y3050771D01*
X2609860Y3065651D01*
X2590417Y3073705D01*
D02*
G37*
G36*
X1014450Y3425820D02*
X997230D01*
X980596Y3421363D01*
X965683Y3412753D01*
X953507Y3400577D01*
X944897Y3385664D01*
X940440Y3369030D01*
Y3351810D01*
X944897Y3335176D01*
X948335Y3329221D01*
Y3124200D01*
X952712Y3102194D01*
X965178Y3083538D01*
X1216638Y2832078D01*
X1235294Y2819612D01*
X1257300Y2815235D01*
X1836032D01*
X1858038Y2819612D01*
X1876694Y2832078D01*
X1950056Y2905439D01*
X2195572D01*
X2217578Y2909817D01*
X2236234Y2922282D01*
X2308222Y2994270D01*
X2320678Y2991793D01*
X2322434Y2987555D01*
X2337315Y2972674D01*
X2356758Y2964620D01*
X2377802D01*
X2397245Y2972674D01*
X2412126Y2987555D01*
X2420180Y3006998D01*
Y3028042D01*
X2412126Y3047485D01*
X2397245Y3062366D01*
X2377802Y3070420D01*
X2356758D01*
X2347902Y3066752D01*
X2335202Y3075238D01*
Y3103914D01*
X2400484Y3169196D01*
X2412950Y3187852D01*
X2417327Y3209858D01*
X2412950Y3231865D01*
X2400484Y3250521D01*
X2381829Y3262986D01*
X2359822Y3267363D01*
X2337816Y3262986D01*
X2319160Y3250521D01*
X2237035Y3168395D01*
X2224569Y3149739D01*
X2220192Y3127733D01*
Y3074928D01*
X2207492Y3072402D01*
X2205666Y3076810D01*
X2190785Y3091691D01*
X2171342Y3099744D01*
X2150297D01*
X2130855Y3091691D01*
X2115974Y3076810D01*
X2107920Y3057367D01*
Y3036322D01*
X2110121Y3031009D01*
X2103065Y3020449D01*
X1926236D01*
X1904230Y3016072D01*
X1885574Y3003606D01*
X1812213Y2930245D01*
X1281120D01*
X1063345Y3148020D01*
Y3329221D01*
X1066783Y3335176D01*
X1071240Y3351810D01*
Y3369030D01*
X1066783Y3385664D01*
X1058173Y3400577D01*
X1045997Y3412753D01*
X1031084Y3421363D01*
X1014450Y3425820D01*
D02*
G37*
G36*
X1752962Y3067880D02*
X1731918D01*
X1712475Y3059826D01*
X1697594Y3044945D01*
X1689540Y3025502D01*
Y3004458D01*
X1697594Y2985015D01*
X1712475Y2970134D01*
X1731918Y2962080D01*
X1752962D01*
X1772405Y2970134D01*
X1787286Y2985015D01*
X1795340Y3004458D01*
Y3025502D01*
X1787286Y3044945D01*
X1772405Y3059826D01*
X1752962Y3067880D01*
D02*
G37*
G36*
X274039Y2999384D02*
X252994D01*
X233551Y2991330D01*
X218670Y2976449D01*
X210616Y2957006D01*
Y2935961D01*
X218670Y2916518D01*
X233551Y2901638D01*
X252994Y2893584D01*
X274039D01*
X293482Y2901638D01*
X308362Y2916518D01*
X316416Y2935961D01*
Y2957006D01*
X308362Y2976449D01*
X293482Y2991330D01*
X274039Y2999384D01*
D02*
G37*
G36*
X724977Y2884618D02*
X703932D01*
X684489Y2876565D01*
X669608Y2861684D01*
X661555Y2842241D01*
Y2821196D01*
X669608Y2801753D01*
X684489Y2786872D01*
X703932Y2778819D01*
X724977D01*
X744420Y2786872D01*
X759300Y2801753D01*
X770454Y2796710D01*
X767520Y2788843D01*
X767520Y2785043D01*
Y2767798D01*
X775574Y2748355D01*
X790455Y2733474D01*
X809898Y2725421D01*
X830942D01*
X850385Y2733474D01*
X865266Y2748355D01*
X873320Y2767798D01*
Y2788843D01*
X865266Y2808286D01*
X850385Y2823167D01*
X830942Y2831220D01*
X809898D01*
X790455Y2823167D01*
X775574Y2808286D01*
X764421Y2813329D01*
X767355Y2821196D01*
X767354Y2824996D01*
Y2842241D01*
X759301Y2861684D01*
X744420Y2876565D01*
X724977Y2884618D01*
D02*
G37*
G36*
X3130390Y2728132D02*
X3109345D01*
X3089902Y2720079D01*
X3075021Y2705198D01*
X3066967Y2685755D01*
Y2664710D01*
X3075021Y2645267D01*
X3089902Y2630386D01*
X3109345Y2622333D01*
X3130390D01*
X3149833Y2630386D01*
X3164714Y2645267D01*
X3172767Y2664710D01*
Y2685755D01*
X3164714Y2705198D01*
X3149833Y2720079D01*
X3130390Y2728132D01*
D02*
G37*
G36*
X3287122Y2679260D02*
X3266078D01*
X3246635Y2671206D01*
X3231754Y2656325D01*
X3223700Y2636882D01*
Y2615838D01*
X3231754Y2596395D01*
X3246635Y2581514D01*
X3266078Y2573460D01*
X3287122D01*
X3306565Y2581514D01*
X3321446Y2596395D01*
X3329500Y2615838D01*
Y2636882D01*
X3321446Y2656325D01*
X3306565Y2671206D01*
X3287122Y2679260D01*
D02*
G37*
G36*
X1961242Y2646240D02*
X1940198D01*
X1920755Y2638186D01*
X1905874Y2623305D01*
X1897820Y2603862D01*
Y2582818D01*
X1905874Y2563375D01*
X1920755Y2548494D01*
X1940198Y2540440D01*
X1961242D01*
X1980685Y2548494D01*
X1995566Y2563375D01*
X2003620Y2582818D01*
Y2603862D01*
X1995566Y2623305D01*
X1980685Y2638186D01*
X1961242Y2646240D01*
D02*
G37*
G36*
X824547Y2531605D02*
X803502D01*
X784059Y2523551D01*
X769178Y2508670D01*
X761124Y2489227D01*
Y2468183D01*
X758570Y2464360D01*
X673491D01*
X667505Y2470346D01*
X648062Y2478400D01*
X627018D01*
X607575Y2470346D01*
X592694Y2455465D01*
X584640Y2436023D01*
Y2414978D01*
X592694Y2395535D01*
X607575Y2380654D01*
X627018Y2372600D01*
X648062D01*
X658394Y2376880D01*
X754431D01*
X901640Y2229671D01*
X915830Y2220189D01*
X932569Y2216860D01*
X982162D01*
X1157016Y2042005D01*
Y1851806D01*
X1146457Y1844750D01*
X1140879Y1847061D01*
X1119834D01*
X1100391Y1839007D01*
X1085511Y1824126D01*
X1077457Y1804683D01*
Y1783638D01*
X1085511Y1764195D01*
X1100391Y1749315D01*
X1119834Y1741261D01*
X1140879D01*
X1146457Y1743571D01*
X1157016Y1736515D01*
Y1700337D01*
X1117151Y1660471D01*
X1107669Y1646281D01*
X1104340Y1629542D01*
Y1457937D01*
X1091639Y1452358D01*
X1073237Y1459980D01*
X1050203D01*
X1028922Y1451165D01*
X1012635Y1434878D01*
X1003820Y1413597D01*
Y1390563D01*
X1012635Y1369282D01*
X1028922Y1352995D01*
X1050203Y1344180D01*
X1073237D01*
X1094518Y1352995D01*
X1110805Y1369282D01*
X1114503Y1378210D01*
X1126959Y1380688D01*
X1201080Y1306567D01*
X1194345Y1296657D01*
X1174902Y1304710D01*
X1153857D01*
X1134414Y1296657D01*
X1119533Y1281776D01*
X1111480Y1262333D01*
Y1241288D01*
X1119533Y1221845D01*
X1134414Y1206964D01*
X1153857Y1198911D01*
X1174902D01*
X1194345Y1206964D01*
X1209226Y1221845D01*
X1217280Y1241288D01*
Y1262333D01*
X1209226Y1281776D01*
X1219136Y1288511D01*
X1354288Y1153359D01*
X1368478Y1143877D01*
X1385217Y1140548D01*
X1417670D01*
X1417734Y1140541D01*
X1419698Y1140175D01*
X1421350Y1139721D01*
X1422736Y1139202D01*
X1423914Y1138630D01*
X1424950Y1137996D01*
X1425911Y1137270D01*
X1426851Y1136403D01*
X1428591Y1134463D01*
X1429908Y1133476D01*
X1439490Y1123894D01*
X1455543Y1114626D01*
X1473448Y1109828D01*
X1491985D01*
X1509890Y1114626D01*
X1525944Y1123894D01*
X1539051Y1137001D01*
X1548319Y1153055D01*
X1553117Y1170960D01*
Y1189496D01*
X1548319Y1207401D01*
X1539051Y1223455D01*
X1525944Y1236562D01*
X1509890Y1245830D01*
X1491985Y1250628D01*
X1473448D01*
X1455543Y1245830D01*
X1439490Y1236562D01*
X1438016Y1235088D01*
X1437515Y1234832D01*
X1435223Y1233025D01*
X1433643Y1231962D01*
X1431997Y1231028D01*
X1430257Y1230208D01*
X1428394Y1229496D01*
X1426368Y1228888D01*
X1424160Y1228391D01*
X1421816Y1228029D01*
X1403335D01*
X1191820Y1439543D01*
Y1611425D01*
X1231686Y1651290D01*
X1241168Y1665481D01*
X1244497Y1682219D01*
Y2060123D01*
X1241168Y2076862D01*
X1231686Y2091052D01*
X1031209Y2291529D01*
X1017019Y2301011D01*
X1000280Y2304340D01*
X950686D01*
X835935Y2419092D01*
X838412Y2431548D01*
X843990Y2433858D01*
X858871Y2448739D01*
X866924Y2468182D01*
Y2489227D01*
X858871Y2508670D01*
X843990Y2523551D01*
X824547Y2531605D01*
D02*
G37*
G36*
X1962237Y2460740D02*
X1939203D01*
X1917922Y2451925D01*
X1901635Y2435638D01*
X1892820Y2414357D01*
Y2391323D01*
X1901635Y2370042D01*
X1917922Y2353755D01*
X1939203Y2344940D01*
X1962237D01*
X1983518Y2353755D01*
X1999805Y2370042D01*
X2008620Y2391323D01*
Y2414357D01*
X1999805Y2435638D01*
X1983518Y2451925D01*
X1962237Y2460740D01*
D02*
G37*
G36*
X480422Y2295720D02*
X459378D01*
X439935Y2287666D01*
X425054Y2272785D01*
X417000Y2253342D01*
Y2232298D01*
X425054Y2212855D01*
X439935Y2197974D01*
X459378Y2189920D01*
X480422D01*
X499865Y2197974D01*
X514746Y2212855D01*
X522800Y2232298D01*
Y2253342D01*
X514746Y2272785D01*
X499865Y2287666D01*
X480422Y2295720D01*
D02*
G37*
G36*
X2280920Y2321085D02*
X1824388D01*
X1802381Y2316708D01*
X1783725Y2304242D01*
X1706962Y2227479D01*
X1694497Y2208823D01*
X1690120Y2186817D01*
X1694497Y2164811D01*
X1706962Y2146155D01*
X1725618Y2133689D01*
X1747624Y2129312D01*
X1769631Y2133689D01*
X1788286Y2146155D01*
X1848207Y2206075D01*
X1893954D01*
X1902440Y2193375D01*
X1897820Y2182222D01*
Y2161178D01*
X1905874Y2141735D01*
X1920755Y2126854D01*
X1940198Y2118800D01*
X1961242D01*
X1980685Y2126854D01*
X1995566Y2141735D01*
X2003620Y2161178D01*
Y2182222D01*
X1999000Y2193375D01*
X2007486Y2206075D01*
X2109854D01*
X2118340Y2193375D01*
X2113720Y2182222D01*
Y2161178D01*
X2121774Y2141735D01*
X2136655Y2126854D01*
X2156098Y2118800D01*
X2177142D01*
X2196585Y2126854D01*
X2211466Y2141735D01*
X2219520Y2161178D01*
Y2182222D01*
X2214900Y2193375D01*
X2223386Y2206075D01*
X2257101D01*
X2300586Y2162590D01*
X2304778Y2146947D01*
X2314046Y2130893D01*
X2327153Y2117786D01*
X2343207Y2108518D01*
X2361112Y2103720D01*
X2379649D01*
X2397553Y2108518D01*
X2413607Y2117786D01*
X2426714Y2130893D01*
X2435982Y2146947D01*
X2440780Y2164852D01*
Y2183389D01*
X2435982Y2201294D01*
X2426714Y2217347D01*
X2413607Y2230454D01*
X2397553Y2239722D01*
X2381910Y2243914D01*
X2321582Y2304242D01*
X2302926Y2316708D01*
X2280920Y2321085D01*
D02*
G37*
G36*
X781431Y2308758D02*
X760386D01*
X740943Y2300705D01*
X726063Y2285824D01*
X718009Y2266381D01*
Y2245336D01*
X721660Y2236522D01*
X704095Y2229246D01*
X689214Y2214365D01*
X681160Y2194922D01*
Y2173878D01*
X689214Y2154435D01*
X704095Y2139554D01*
X723538Y2131500D01*
X744582D01*
X747368Y2132654D01*
X758688Y2123596D01*
Y2108277D01*
X766741Y2088835D01*
X781622Y2073954D01*
X801065Y2065900D01*
X822110D01*
X841553Y2073954D01*
X856434Y2088835D01*
X864487Y2108277D01*
Y2129322D01*
X856434Y2148765D01*
X841553Y2163646D01*
X822110Y2171700D01*
X801065D01*
X798280Y2170546D01*
X786960Y2179604D01*
Y2194922D01*
X783309Y2203736D01*
X800874Y2211012D01*
X815755Y2225893D01*
X823809Y2245336D01*
Y2266381D01*
X815755Y2285824D01*
X800874Y2300705D01*
X781431Y2308758D01*
D02*
G37*
G36*
X1331322Y2036640D02*
X1310278D01*
X1290835Y2028586D01*
X1275954Y2013705D01*
X1267900Y1994262D01*
Y1973218D01*
X1275954Y1953775D01*
X1290835Y1938894D01*
X1310278Y1930840D01*
X1331322D01*
X1350765Y1938894D01*
X1365646Y1953775D01*
X1373700Y1973218D01*
Y1994262D01*
X1365646Y2013705D01*
X1350765Y2028586D01*
X1331322Y2036640D01*
D02*
G37*
G36*
X2184905Y2028669D02*
X2163861D01*
X2144418Y2020615D01*
X2129537Y2005734D01*
X2121483Y1986291D01*
Y1965247D01*
X2129537Y1945804D01*
X2144418Y1930923D01*
X2163861Y1922869D01*
X2184905D01*
X2204348Y1930923D01*
X2219229Y1945804D01*
X2227283Y1965247D01*
Y1986291D01*
X2219229Y2005734D01*
X2204348Y2020615D01*
X2184905Y2028669D01*
D02*
G37*
G36*
X2799336Y2015362D02*
X2778291D01*
X2758848Y2007308D01*
X2743967Y1992428D01*
X2735914Y1972985D01*
Y1951940D01*
X2743967Y1932497D01*
X2758848Y1917616D01*
X2778291Y1909562D01*
X2799336D01*
X2818779Y1917616D01*
X2833660Y1932497D01*
X2841713Y1951940D01*
Y1972985D01*
X2833660Y1992428D01*
X2818779Y2007308D01*
X2799336Y2015362D01*
D02*
G37*
G36*
X963022Y1894120D02*
X941978D01*
X922535Y1886066D01*
X907654Y1871185D01*
X899600Y1851742D01*
Y1830697D01*
X907654Y1811254D01*
X922535Y1796374D01*
X941978Y1788320D01*
X963022D01*
X982465Y1796374D01*
X997346Y1811254D01*
X1005400Y1830697D01*
Y1851742D01*
X997346Y1871185D01*
X982465Y1886066D01*
X963022Y1894120D01*
D02*
G37*
G36*
X703014Y1947336D02*
X681969D01*
X662526Y1939283D01*
X647645Y1924402D01*
X639591Y1904959D01*
Y1883914D01*
X647645Y1864471D01*
X657156Y1854960D01*
X651815Y1844542D01*
X650756Y1843400D01*
X634010D01*
X617376Y1838943D01*
X602463Y1830333D01*
X590287Y1818157D01*
X581677Y1803244D01*
X577220Y1786610D01*
Y1769390D01*
X581677Y1752756D01*
X590287Y1737843D01*
X602463Y1725667D01*
X617376Y1717057D01*
X634010Y1712600D01*
X651230D01*
X667864Y1717057D01*
X682777Y1725667D01*
X694953Y1737843D01*
X703563Y1752756D01*
X708020Y1769390D01*
Y1786610D01*
X703563Y1803244D01*
X694953Y1818157D01*
X684273Y1828837D01*
X685311Y1835070D01*
X688771Y1841537D01*
X703014D01*
X722457Y1849590D01*
X737337Y1864471D01*
X745391Y1883914D01*
Y1904959D01*
X737337Y1924402D01*
X722457Y1939283D01*
X703014Y1947336D01*
D02*
G37*
G36*
X3188629Y1817920D02*
X3170092D01*
X3152187Y1813122D01*
X3136133Y1803854D01*
X3123026Y1790747D01*
X3113758Y1774693D01*
X3108960Y1756788D01*
Y1738252D01*
X3113758Y1720347D01*
X3123026Y1704293D01*
X3136133Y1691186D01*
X3152187Y1681918D01*
X3170092Y1677120D01*
X3188629D01*
X3206534Y1681918D01*
X3222587Y1691186D01*
X3235694Y1704293D01*
X3244963Y1720347D01*
X3249760Y1738252D01*
Y1756788D01*
X3244963Y1774693D01*
X3235694Y1790747D01*
X3222587Y1803854D01*
X3206534Y1813122D01*
X3188629Y1817920D01*
D02*
G37*
G36*
X393512Y1698660D02*
X368488D01*
X345370Y1689084D01*
X327676Y1671390D01*
X318100Y1648272D01*
Y1623248D01*
X327676Y1600130D01*
X345370Y1582436D01*
X368488Y1572860D01*
X393512D01*
X416630Y1582436D01*
X434324Y1600130D01*
X443900Y1623248D01*
Y1648272D01*
X434324Y1671390D01*
X416630Y1689084D01*
X393512Y1698660D01*
D02*
G37*
G36*
X952862Y1724220D02*
X931818D01*
X912375Y1716166D01*
X897494Y1701285D01*
X889440Y1681842D01*
Y1660798D01*
X897494Y1641355D01*
X912375Y1626474D01*
X931818Y1618420D01*
X952862D01*
X955981Y1606687D01*
X950475Y1604406D01*
X935594Y1589525D01*
X927540Y1570082D01*
Y1549038D01*
X935594Y1529595D01*
X950475Y1514714D01*
X969918Y1506660D01*
X990962D01*
X1010405Y1514714D01*
X1025286Y1529595D01*
X1033340Y1549038D01*
Y1570082D01*
X1025286Y1589525D01*
X1010405Y1604406D01*
X990962Y1612460D01*
X969918D01*
X966799Y1624193D01*
X972305Y1626474D01*
X987186Y1641355D01*
X995240Y1660798D01*
Y1681842D01*
X987186Y1701285D01*
X972305Y1716166D01*
X952862Y1724220D01*
D02*
G37*
G36*
X2930026Y1491133D02*
X2906992D01*
X2885711Y1482318D01*
X2869424Y1466030D01*
X2860609Y1444750D01*
Y1421715D01*
X2869424Y1400435D01*
X2885711Y1384147D01*
X2906992Y1375333D01*
X2930026D01*
X2951307Y1384147D01*
X2967594Y1400435D01*
X2976409Y1421715D01*
Y1444750D01*
X2967594Y1466030D01*
X2951307Y1482318D01*
X2930026Y1491133D01*
D02*
G37*
G36*
X2063837Y1482840D02*
X2040803D01*
X2019522Y1474025D01*
X2003235Y1457738D01*
X1994420Y1436457D01*
Y1413423D01*
X2003235Y1392142D01*
X2019522Y1375855D01*
X2040803Y1367040D01*
X2063837D01*
X2085118Y1375855D01*
X2101405Y1392142D01*
X2110220Y1413423D01*
Y1436457D01*
X2101405Y1457738D01*
X2085118Y1474025D01*
X2063837Y1482840D01*
D02*
G37*
G36*
X1409333Y1449396D02*
X1386299D01*
X1365018Y1440581D01*
X1348731Y1424294D01*
X1339916Y1403013D01*
Y1379979D01*
X1348731Y1358698D01*
X1365018Y1342411D01*
X1386299Y1333596D01*
X1409333D01*
X1430614Y1342411D01*
X1446901Y1358698D01*
X1454289Y1376533D01*
X1466972Y1377896D01*
X1467512Y1377796D01*
X1474074Y1361955D01*
X1488955Y1347074D01*
X1508398Y1339020D01*
X1529442D01*
X1548885Y1347074D01*
X1563766Y1361955D01*
X1571820Y1381398D01*
Y1402442D01*
X1563766Y1421885D01*
X1548885Y1436766D01*
X1529442Y1444820D01*
X1508398D01*
X1488955Y1436766D01*
X1474074Y1421885D01*
X1467449Y1405893D01*
X1454287Y1406464D01*
X1446901Y1424294D01*
X1430614Y1440581D01*
X1409333Y1449396D01*
D02*
G37*
G36*
X1658514Y1347504D02*
X1637469D01*
X1618026Y1339450D01*
X1603145Y1324570D01*
X1595092Y1305127D01*
Y1284082D01*
X1603145Y1264639D01*
X1618026Y1249758D01*
X1637469Y1241704D01*
X1658514D01*
X1677957Y1249758D01*
X1692838Y1264639D01*
X1700891Y1284082D01*
Y1305127D01*
X1692838Y1324570D01*
X1677957Y1339450D01*
X1658514Y1347504D01*
D02*
G37*
G36*
X391522Y1391480D02*
X370478D01*
X351035Y1383426D01*
X336154Y1368545D01*
X328100Y1349102D01*
Y1328058D01*
X336154Y1308615D01*
X348692Y1296077D01*
X350773Y1291084D01*
X349734Y1280526D01*
X338694Y1269485D01*
X330640Y1250042D01*
Y1228998D01*
X338694Y1209555D01*
X353575Y1194674D01*
X373018Y1186620D01*
X394062D01*
X413505Y1194674D01*
X428386Y1209555D01*
X436440Y1228998D01*
Y1250042D01*
X428386Y1269485D01*
X415848Y1282023D01*
X413767Y1287016D01*
X414806Y1297574D01*
X425846Y1308615D01*
X433900Y1328058D01*
Y1349102D01*
X425846Y1368545D01*
X410965Y1383426D01*
X391522Y1391480D01*
D02*
G37*
G36*
X2109190Y1200780D02*
X2091970D01*
X2075336Y1196323D01*
X2060423Y1187713D01*
X2048247Y1175537D01*
X2039637Y1160624D01*
X2035180Y1143990D01*
Y1126770D01*
X2039637Y1110136D01*
X2048247Y1095223D01*
X2060423Y1083047D01*
X2075336Y1074437D01*
X2091970Y1069980D01*
X2109190D01*
X2125824Y1074437D01*
X2140737Y1083047D01*
X2152913Y1095223D01*
X2161523Y1110136D01*
X2165980Y1126770D01*
Y1143990D01*
X2161523Y1160624D01*
X2152913Y1175537D01*
X2140737Y1187713D01*
X2125824Y1196323D01*
X2109190Y1200780D01*
D02*
G37*
G36*
X2267328Y1144820D02*
X2248792D01*
X2230887Y1140022D01*
X2214833Y1130754D01*
X2201726Y1117647D01*
X2192458Y1101593D01*
X2187660Y1083688D01*
Y1065152D01*
X2192458Y1047247D01*
X2201726Y1031193D01*
X2214833Y1018086D01*
X2230887Y1008818D01*
X2248792Y1004020D01*
X2267328D01*
X2285233Y1008818D01*
X2301287Y1018086D01*
X2314394Y1031193D01*
X2323662Y1047247D01*
X2328460Y1065152D01*
Y1083688D01*
X2323662Y1101593D01*
X2314394Y1117647D01*
X2301287Y1130754D01*
X2285233Y1140022D01*
X2267328Y1144820D01*
D02*
G37*
G36*
X907729Y1119603D02*
X890509D01*
X873875Y1115146D01*
X858962Y1106536D01*
X846786Y1094360D01*
X838176Y1079447D01*
X833719Y1062813D01*
Y1045593D01*
X838176Y1028960D01*
X846786Y1014046D01*
X858962Y1001870D01*
X873875Y993260D01*
X890509Y988803D01*
X907729D01*
X924362Y993260D01*
X939275Y1001870D01*
X951451Y1014046D01*
X960062Y1028960D01*
X964519Y1045593D01*
Y1062813D01*
X960062Y1079447D01*
X951451Y1094360D01*
X939275Y1106536D01*
X924362Y1115146D01*
X907729Y1119603D01*
D02*
G37*
G36*
X2126970Y1050920D02*
X2109750D01*
X2093116Y1046463D01*
X2078203Y1037853D01*
X2066027Y1025677D01*
X2057417Y1010764D01*
X2052960Y994130D01*
Y976910D01*
X2057417Y960276D01*
X2066027Y945363D01*
X2078203Y933187D01*
X2093116Y924577D01*
X2109750Y920120D01*
X2126970D01*
X2143604Y924577D01*
X2158517Y933187D01*
X2170693Y945363D01*
X2179303Y960276D01*
X2183760Y976910D01*
Y994130D01*
X2179303Y1010764D01*
X2170693Y1025677D01*
X2158517Y1037853D01*
X2143604Y1046463D01*
X2126970Y1050920D01*
D02*
G37*
G36*
X364443Y1093440D02*
X343398D01*
X323955Y1085386D01*
X309074Y1070505D01*
X301020Y1051062D01*
Y1030017D01*
X307968Y1013244D01*
X306384Y998841D01*
X302775Y997346D01*
X287894Y982465D01*
X279840Y963022D01*
Y941978D01*
X287894Y922535D01*
X302775Y907654D01*
X322218Y899600D01*
X343262D01*
X362705Y907654D01*
X377586Y922535D01*
X385640Y941978D01*
Y963022D01*
X378692Y979796D01*
X380276Y994199D01*
X383885Y995694D01*
X398766Y1010575D01*
X406820Y1030017D01*
Y1051062D01*
X398766Y1070505D01*
X383885Y1085386D01*
X364443Y1093440D01*
D02*
G37*
G36*
X1352270Y901060D02*
X1335050D01*
X1318416Y896603D01*
X1303503Y887993D01*
X1291327Y875817D01*
X1282717Y860904D01*
X1278260Y844270D01*
Y827050D01*
X1282717Y810416D01*
X1291327Y795503D01*
X1303503Y783327D01*
X1318416Y774717D01*
X1335050Y770260D01*
X1352270D01*
X1368904Y774717D01*
X1383817Y783327D01*
X1395993Y795503D01*
X1404603Y810416D01*
X1409060Y827050D01*
Y844270D01*
X1404603Y860904D01*
X1395993Y875817D01*
X1383817Y887993D01*
X1368904Y896603D01*
X1352270Y901060D01*
D02*
G37*
G36*
X884910D02*
X867690D01*
X851056Y896603D01*
X836143Y887993D01*
X823967Y875817D01*
X815357Y860904D01*
X810900Y844270D01*
Y827050D01*
X815357Y810416D01*
X823967Y795503D01*
X836143Y783327D01*
X851056Y774717D01*
X867690Y770260D01*
X884910D01*
X901544Y774717D01*
X916457Y783327D01*
X928633Y795503D01*
X937243Y810416D01*
X941700Y827050D01*
Y844270D01*
X937243Y860904D01*
X928633Y875817D01*
X916457Y887993D01*
X901544Y896603D01*
X884910Y901060D01*
D02*
G37*
G36*
X2172062Y812360D02*
X2151018D01*
X2131575Y804306D01*
X2116694Y789425D01*
X2108640Y769982D01*
Y748938D01*
X2116694Y729495D01*
X2131575Y714614D01*
X2151018Y706560D01*
X2172062D01*
X2191505Y714614D01*
X2206386Y729495D01*
X2214440Y748938D01*
Y769982D01*
X2206386Y789425D01*
X2191505Y804306D01*
X2172062Y812360D01*
D02*
G37*
G36*
X1777108Y713020D02*
X1758572D01*
X1740667Y708222D01*
X1724613Y698954D01*
X1711506Y685847D01*
X1702238Y669793D01*
X1697440Y651888D01*
Y633352D01*
X1702238Y615447D01*
X1711506Y599393D01*
X1724613Y586286D01*
X1740667Y577018D01*
X1758572Y572220D01*
X1777108D01*
X1795013Y577018D01*
X1811067Y586286D01*
X1824174Y599393D01*
X1833442Y615447D01*
X1838240Y633352D01*
Y651888D01*
X1833442Y669793D01*
X1824174Y685847D01*
X1811067Y698954D01*
X1795013Y708222D01*
X1777108Y713020D01*
D02*
G37*
G36*
X1421318Y639400D02*
X1398682D01*
X1377769Y630738D01*
X1361763Y614731D01*
X1353100Y593818D01*
Y571182D01*
X1361763Y550269D01*
X1377769Y534263D01*
X1398682Y525600D01*
X1421318D01*
X1442231Y534263D01*
X1458238Y550269D01*
X1466900Y571182D01*
Y593818D01*
X1458238Y614731D01*
X1442231Y630738D01*
X1421318Y639400D01*
D02*
G37*
G36*
X821318D02*
X798682D01*
X777769Y630738D01*
X761763Y614731D01*
X753101Y593818D01*
Y571182D01*
X761763Y550269D01*
X777769Y534263D01*
X798682Y525600D01*
X821318D01*
X842231Y534263D01*
X858238Y550269D01*
X866900Y571182D01*
Y593818D01*
X858238Y614731D01*
X842231Y630738D01*
X821318Y639400D01*
D02*
G37*
G36*
X1096388Y606967D02*
X1077852D01*
X1059947Y602169D01*
X1043893Y592901D01*
X1030786Y579794D01*
X1021518Y563740D01*
X1016720Y545835D01*
Y527298D01*
X1020100Y514684D01*
X1012923Y503826D01*
X1010844Y502480D01*
X997858D01*
X978415Y494426D01*
X963534Y479545D01*
X955480Y460102D01*
Y439058D01*
X963534Y419615D01*
X978415Y404734D01*
X997858Y396680D01*
X1018902D01*
X1038345Y404734D01*
X1053226Y419615D01*
X1061280Y439058D01*
Y457459D01*
X1067790Y464829D01*
X1071848Y467776D01*
X1077852Y466167D01*
X1096388D01*
X1114293Y470965D01*
X1130347Y480233D01*
X1143454Y493340D01*
X1152722Y509393D01*
X1157520Y527298D01*
Y545835D01*
X1152722Y563740D01*
X1143454Y579794D01*
X1130347Y592901D01*
X1114293Y602169D01*
X1096388Y606967D01*
D02*
G37*
G36*
X1394822Y510100D02*
X1373778D01*
X1354335Y502046D01*
X1339454Y487165D01*
X1331400Y467722D01*
Y446678D01*
X1339454Y427235D01*
X1354335Y412354D01*
X1373778Y404300D01*
X1394822D01*
X1414265Y412354D01*
X1429146Y427235D01*
X1437200Y446678D01*
Y467722D01*
X1429146Y487165D01*
X1414265Y502046D01*
X1394822Y510100D01*
D02*
G37*
G36*
X852062Y504041D02*
X833525D01*
X815620Y499244D01*
X799567Y489975D01*
X786460Y476868D01*
X777191Y460815D01*
X772394Y442910D01*
Y424373D01*
X777191Y406468D01*
X786460Y390415D01*
X799567Y377307D01*
X815620Y368039D01*
X833525Y363241D01*
X852062D01*
X869967Y368039D01*
X886020Y377307D01*
X899127Y390415D01*
X908396Y406468D01*
X913193Y424373D01*
Y442910D01*
X908396Y460815D01*
X899127Y476868D01*
X886020Y489975D01*
X869967Y499244D01*
X852062Y504041D01*
D02*
G37*
G36*
X1976482Y462500D02*
X1955438D01*
X1935995Y454446D01*
X1921114Y439566D01*
X1913060Y420123D01*
Y399078D01*
X1921114Y379635D01*
X1935995Y364754D01*
X1955438Y356700D01*
X1976482D01*
X1995925Y364754D01*
X2010806Y379635D01*
X2018860Y399078D01*
Y420123D01*
X2010806Y439566D01*
X1995925Y454446D01*
X1976482Y462500D01*
D02*
G37*
G36*
X2200002Y428820D02*
X2178958D01*
X2159515Y420766D01*
X2144634Y405885D01*
X2136580Y386442D01*
Y365398D01*
X2144634Y345955D01*
X2159515Y331074D01*
X2178958Y323020D01*
X2200002D01*
X2219445Y331074D01*
X2234326Y345955D01*
X2242380Y365398D01*
Y386442D01*
X2234326Y405885D01*
X2219445Y420766D01*
X2200002Y428820D01*
D02*
G37*
%LPD*%
G36*
X660812Y2440420D02*
X661629Y2439937D01*
X662731Y2439511D01*
X664120Y2439142D01*
X665796Y2438830D01*
X667758Y2438574D01*
X672542Y2438234D01*
X678473Y2438120D01*
X670021Y2403120D01*
X653451Y2403071D01*
X660283Y2440960D01*
X660812Y2440420D01*
D02*
G37*
G36*
X1447869Y1151756D02*
X1445307Y1154612D01*
X1442535Y1157168D01*
X1439552Y1159422D01*
X1436358Y1161377D01*
X1432954Y1163030D01*
X1429339Y1164383D01*
X1425513Y1165435D01*
X1421476Y1166187D01*
X1417229Y1166638D01*
X1412771Y1166788D01*
X1416218Y1201788D01*
X1420623Y1201915D01*
X1424879Y1202297D01*
X1428985Y1202932D01*
X1432943Y1203822D01*
X1436751Y1204966D01*
X1440410Y1206364D01*
X1443920Y1208017D01*
X1447280Y1209923D01*
X1450492Y1212084D01*
X1453554Y1214499D01*
X1447869Y1151756D01*
D02*
G37*
G36*
X2369930Y2219118D02*
X2325382Y2174570D01*
X2325193Y2174894D01*
X2324621Y2175586D01*
X2322333Y2178072D01*
X2306303Y2194357D01*
X2350143Y2238197D01*
X2369930Y2219118D01*
D02*
G37*
D42*
X1747624Y2186817D02*
X1824388Y2263580D01*
X2280920D01*
X2370380Y2174120D01*
X1005840Y3124200D02*
Y3360420D01*
Y3124200D02*
X1257300Y2872740D01*
X1836032D01*
X1926236Y2962944D01*
X2195572D01*
X2277697Y3045069D02*
Y3127733D01*
X2359822Y3209858D01*
X2195572Y2962944D02*
X2277697Y3045069D01*
D43*
X1000280Y2260600D02*
X1200757Y2060123D01*
Y1682219D02*
Y2060123D01*
X772549Y2420620D02*
X932569Y2260600D01*
X1000280D01*
X642952Y2425500D02*
X647832Y2420620D01*
X637540Y2425500D02*
X642952D01*
X647832Y2420620D02*
X772549D01*
X1148080Y1629542D02*
X1200757Y1682219D01*
X1148080Y1421425D02*
Y1629542D01*
Y1421425D02*
X1385217Y1184288D01*
X1478657D02*
X1482717Y1180228D01*
X1385217Y1184288D02*
X1478657D01*
D56*
X3125000Y4472500D02*
D03*
Y372500D02*
D03*
X325000Y4472500D02*
D03*
Y372500D02*
D03*
D57*
X1542000Y655000D02*
D03*
X678000D02*
D03*
D58*
X1542000Y272500D02*
D03*
X678000D02*
D03*
D59*
X810000Y582500D02*
D03*
D60*
D03*
X1410000D02*
D03*
D61*
X263516Y2946484D02*
D03*
X2540000Y4030000D02*
D03*
X2521990Y3734104D02*
D03*
X2466340Y3662680D02*
D03*
X2599485Y3700000D02*
D03*
X814024Y2478705D02*
D03*
X770909Y2255858D02*
D03*
X637540Y2425500D02*
D03*
X1953421Y2681198D02*
D03*
X2000001Y4600002D02*
D03*
X2100001Y4400002D02*
D03*
X1800001Y4600002D02*
D03*
X1900001Y4400002D02*
D03*
X1600001Y4600002D02*
D03*
X1700001Y4400002D02*
D03*
X1400001Y4600002D02*
D03*
X1500001Y4400002D02*
D03*
Y3600002D02*
D03*
X1400001Y200000D02*
D03*
X1200001Y4600002D02*
D03*
X1000001D02*
D03*
X800000D02*
D03*
X900000Y4400002D02*
D03*
Y3600002D02*
D03*
X600000Y4600002D02*
D03*
X700000Y4400002D02*
D03*
X600000Y4200002D02*
D03*
X300000Y3600002D02*
D03*
X1117600Y3500120D02*
D03*
X977900Y3515360D02*
D03*
X1394460Y3606800D02*
D03*
X1285240Y3655060D02*
D03*
X1150620Y3657600D02*
D03*
X1049020Y3817620D02*
D03*
X1059180Y3710940D02*
D03*
X894080Y3708400D02*
D03*
Y3807460D02*
D03*
X2159000Y3624580D02*
D03*
X2997200Y4064000D02*
D03*
X2951480Y4213860D02*
D03*
X2933700Y3746500D02*
D03*
X2565400Y4429760D02*
D03*
X2678577Y3227703D02*
D03*
X2475000Y2387500D02*
D03*
X2159000Y2879044D02*
D03*
X2104685Y1497185D02*
D03*
X1104900Y3373120D02*
D03*
X1623078Y1974126D02*
D03*
X946314Y1754634D02*
D03*
X622527Y2828988D02*
D03*
X511567Y1862634D02*
D03*
X1308505Y1360560D02*
D03*
X1600200Y911860D02*
D03*
Y972820D02*
D03*
X1164120Y1029500D02*
D03*
X600000Y600000D02*
D03*
Y500000D02*
D03*
X500000Y600000D02*
D03*
Y700000D02*
D03*
X443026Y866237D02*
D03*
X714455Y2831718D02*
D03*
X2810137Y3452437D02*
D03*
X1164380Y1251811D02*
D03*
X2161540Y759460D02*
D03*
X1647992Y1294604D02*
D03*
X3119867Y2675232D02*
D03*
X3276600Y2626360D02*
D03*
X2174383Y1975769D02*
D03*
X1950720Y2171700D02*
D03*
X1008380Y449580D02*
D03*
X1322340Y3195289D02*
D03*
X2137819Y3806370D02*
D03*
X2133600Y3919220D02*
D03*
X734060Y3223260D02*
D03*
X660400Y3530600D02*
D03*
X546100Y3512820D02*
D03*
X1742440Y3014980D02*
D03*
X469900Y2242820D02*
D03*
X1747624Y2186817D02*
D03*
X692491Y1894437D02*
D03*
X980440Y1559560D02*
D03*
X952500Y1841220D02*
D03*
X1320800Y1983740D02*
D03*
X2160820Y3046844D02*
D03*
X2173014Y3211122D02*
D03*
X2268513Y4037145D02*
D03*
X2579895Y3020805D02*
D03*
X2712693Y3466578D02*
D03*
X2641600Y3543300D02*
D03*
X2359822Y3209858D02*
D03*
X2367280Y3017520D02*
D03*
X3098800Y3949700D02*
D03*
X3098378Y4098438D02*
D03*
X3101187Y3797307D02*
D03*
X332740Y952500D02*
D03*
X353920Y1040540D02*
D03*
X119380Y2400300D02*
D03*
X942340Y1671320D02*
D03*
X383540Y1239520D02*
D03*
X381000Y1338580D02*
D03*
X811588Y2118800D02*
D03*
X2788814Y1962462D02*
D03*
X1518920Y1391920D02*
D03*
X1384300Y457200D02*
D03*
X1130357Y1794161D02*
D03*
X1948180Y3208020D02*
D03*
X2189480Y375920D02*
D03*
X1965960Y409600D02*
D03*
X1950720Y2593340D02*
D03*
X820420Y2778321D02*
D03*
X734060Y2184400D02*
D03*
X2166620Y2171700D02*
D03*
D62*
X2654300Y4231640D02*
D03*
X1343660Y835660D02*
D03*
X2897467Y3578289D02*
D03*
X2100580Y1135380D02*
D03*
X1005840Y3360420D02*
D03*
X468000Y3396620D02*
D03*
X142240Y3314700D02*
D03*
X119380Y3159760D02*
D03*
X2832100Y3644900D02*
D03*
X2894580Y3645365D02*
D03*
X2971800Y3581400D02*
D03*
Y3644900D02*
D03*
X2600960Y4323080D02*
D03*
X2606040Y4518660D02*
D03*
X2494280Y4549140D02*
D03*
X2390075Y4533780D02*
D03*
X899119Y1054203D02*
D03*
X2118360Y985520D02*
D03*
X642620Y1778000D02*
D03*
X876300Y835660D02*
D03*
D63*
X3282500Y4472500D02*
D03*
X3236370Y4583870D02*
D03*
Y4361131D02*
D03*
X3125000Y4315000D02*
D03*
Y4630000D02*
D03*
X3013631Y4583870D02*
D03*
Y4361131D02*
D03*
X2967500Y4472500D02*
D03*
X3236370Y483869D02*
D03*
X3125000Y530000D02*
D03*
X3013631Y483869D02*
D03*
X2967500Y372500D02*
D03*
X3282500D02*
D03*
X3236370Y261131D02*
D03*
X3125000Y215000D02*
D03*
X3013631Y261131D02*
D03*
X482500Y4472500D02*
D03*
X436370Y4583870D02*
D03*
Y4361131D02*
D03*
X325000Y4315000D02*
D03*
Y4630000D02*
D03*
X213631Y4583870D02*
D03*
Y4361131D02*
D03*
X167500Y4472500D02*
D03*
X325000Y530000D02*
D03*
X436370Y483869D02*
D03*
X213631D02*
D03*
X482500Y372500D02*
D03*
X436370Y261131D02*
D03*
X213631D02*
D03*
X167500Y372500D02*
D03*
X325000Y215000D02*
D03*
D64*
X1130300Y271780D02*
D03*
X3091220Y3044255D02*
D03*
X1482717Y1180228D02*
D03*
X3179360Y1747520D02*
D03*
X1767840Y642620D02*
D03*
X1087120Y536567D02*
D03*
X2370380Y2174120D02*
D03*
X2258060Y1074420D02*
D03*
X842794Y433641D02*
D03*
D65*
X1397816Y1391496D02*
D03*
X1950720Y2402840D02*
D03*
X2052320Y1424940D02*
D03*
X1061720Y1402080D02*
D03*
X2918509Y1433233D02*
D03*
D66*
X381000Y1635760D02*
D03*
%TF.MD5,6d829249152b96ab141346e33492b7ae*%
M02*
