%TF.GenerationSoftware,Altium Limited,Altium Designer,23.9.2 (47)*%
G04 Layer_Color=8421504*
%FSLAX45Y45*%
%MOMM*%
%TF.SameCoordinates,C6D65D71-24B2-464F-8DE7-77A712877E08*%
%TF.FilePolarity,Positive*%
%TF.FileFunction,Paste,Top*%
%TF.Part,Single*%
G01*
G75*
%TA.AperFunction,SMDPad,CuDef*%
%ADD10R,0.85000X0.30000*%
%ADD11R,0.30000X0.85000*%
%ADD12R,5.70000X5.70000*%
%TA.AperFunction,BGAPad,CuDef*%
%ADD14C,0.20000*%
%TA.AperFunction,SMDPad,CuDef*%
%ADD15R,0.62000X0.62000*%
%ADD16R,0.55000X0.60000*%
%TA.AperFunction,ConnectorPad*%
%ADD17R,2.70000X1.00000*%
%ADD18R,1.70000X0.60000*%
%TA.AperFunction,SMDPad,CuDef*%
%ADD19R,0.45000X0.95000*%
%ADD20R,0.35000X0.65000*%
%ADD21R,1.70000X1.10000*%
%ADD22R,0.62000X0.62000*%
%ADD23R,0.55000X0.60000*%
%ADD24R,1.65000X2.45000*%
%ADD25R,1.00000X2.70000*%
%ADD26R,0.60000X0.55000*%
%ADD27R,0.60000X1.70000*%
%ADD28R,0.85000X0.35000*%
%ADD29R,0.60000X0.30000*%
%ADD30R,1.10000X0.90000*%
%TA.AperFunction,ConnectorPad*%
%ADD31R,1.80000X1.20000*%
%TA.AperFunction,SMDPad,CuDef*%
%ADD32R,0.30000X0.60000*%
%ADD33R,1.20000X0.65000*%
%ADD34R,0.32000X0.51000*%
%TA.AperFunction,ConnectorPad*%
%ADD35R,1.55000X0.60000*%
%TA.AperFunction,SMDPad,CuDef*%
%ADD36R,0.84000X0.46000*%
%ADD37R,1.00000X0.90000*%
%ADD38R,2.50000X2.50000*%
D10*
X1739760Y2560420D02*
D03*
Y2360420D02*
D03*
Y2410420D02*
D03*
Y2460421D02*
D03*
Y2510420D02*
D03*
Y2610420D02*
D03*
Y2660420D02*
D03*
Y2710421D02*
D03*
Y2760420D02*
D03*
Y2810420D02*
D03*
Y2910420D02*
D03*
X1049760D02*
D03*
Y2860420D02*
D03*
Y2810420D02*
D03*
Y2760420D02*
D03*
Y2710421D02*
D03*
Y2660420D02*
D03*
Y2610420D02*
D03*
Y2510420D02*
D03*
Y2460421D02*
D03*
Y2410420D02*
D03*
Y2360420D02*
D03*
Y2560420D02*
D03*
X1739760Y2860420D02*
D03*
D11*
X1669760Y2290420D02*
D03*
Y2980421D02*
D03*
X1619760D02*
D03*
X1569760D02*
D03*
X1519760D02*
D03*
X1469760D02*
D03*
X1419760D02*
D03*
X1369760D02*
D03*
X1319760D02*
D03*
X1269760D02*
D03*
X1219760D02*
D03*
X1119760D02*
D03*
Y2290420D02*
D03*
X1169760D02*
D03*
X1219760D02*
D03*
X1269760D02*
D03*
X1319760D02*
D03*
X1369760D02*
D03*
X1419760D02*
D03*
X1469760D02*
D03*
X1519760D02*
D03*
X1569760D02*
D03*
X1619760D02*
D03*
X1169760Y2980421D02*
D03*
D12*
X1394760Y2635420D02*
D03*
D14*
X2417720Y3314340D02*
D03*
Y3370940D02*
D03*
Y3427540D02*
D03*
X2446020Y3342640D02*
D03*
Y3399240D02*
D03*
X2474320Y3314340D02*
D03*
Y3427540D02*
D03*
X2502620Y3342640D02*
D03*
Y3399240D02*
D03*
X2530920Y3314340D02*
D03*
Y3370940D02*
D03*
Y3427540D02*
D03*
D15*
X2861472Y4214299D02*
D03*
X2834920Y3743960D02*
D03*
X2481860Y4432300D02*
D03*
X2483655Y3899397D02*
D03*
Y4009397D02*
D03*
Y3789397D02*
D03*
X2577165Y3227703D02*
D03*
X2267940Y2413000D02*
D03*
X2164080D02*
D03*
X1148360Y3162300D02*
D03*
X1620820Y2122320D02*
D03*
X1620944Y2034873D02*
D03*
X518600Y3211513D02*
D03*
X630627Y2797950D02*
D03*
X1308505Y1584591D02*
D03*
X1204770Y1583689D02*
D03*
X1204392Y1476252D02*
D03*
X2485165Y3227703D02*
D03*
X2359940Y2413000D02*
D03*
X2072080D02*
D03*
X2742920Y3743960D02*
D03*
X2769472Y4214299D02*
D03*
X2389860Y4432300D02*
D03*
X2391655Y4009397D02*
D03*
Y3899397D02*
D03*
Y3789397D02*
D03*
X1712820Y2122320D02*
D03*
X1056360Y3162300D02*
D03*
X1712945Y2034873D02*
D03*
X610600Y3211513D02*
D03*
X538627Y2797950D02*
D03*
X1112392Y1476252D02*
D03*
X1400505Y1584591D02*
D03*
X1112770Y1583689D02*
D03*
D16*
X2997200Y3943940D02*
D03*
X1292860Y573360D02*
D03*
X2306320Y3714160D02*
D03*
Y3799160D02*
D03*
X2310106Y3422490D02*
D03*
Y3337490D02*
D03*
X2997200Y3858940D02*
D03*
X764457Y2473342D02*
D03*
Y2558342D02*
D03*
X1292860Y488360D02*
D03*
D17*
X3267340Y3598876D02*
D03*
Y2853876D02*
D03*
X3268376Y2307244D02*
D03*
Y1562245D02*
D03*
D18*
X2947340Y3413876D02*
D03*
X2948376Y2122244D02*
D03*
X2947340Y3288876D02*
D03*
Y3163876D02*
D03*
Y3038876D02*
D03*
X2948376Y1997244D02*
D03*
Y1872244D02*
D03*
Y1747244D02*
D03*
D19*
X2816004Y3876741D02*
D03*
X2751004D02*
D03*
X2881004D02*
D03*
Y4096741D02*
D03*
X2816004D02*
D03*
X2751004D02*
D03*
D20*
X2500275Y4114396D02*
D03*
X2370275Y4324396D02*
D03*
X2435275D02*
D03*
X2500275D02*
D03*
X2435275Y4114396D02*
D03*
X2370275D02*
D03*
D21*
X2435275Y4219396D02*
D03*
D22*
X2628793Y3341386D02*
D03*
X2798457Y3130078D02*
D03*
X2798796Y1654787D02*
D03*
X1917700Y2880080D02*
D03*
X871420Y3003640D02*
D03*
X763306Y3004516D02*
D03*
X871420Y2562576D02*
D03*
X1574800Y1475460D02*
D03*
X2628793Y3433386D02*
D03*
X2798457Y3038078D02*
D03*
X2798796Y1746787D02*
D03*
X1574800Y1567460D02*
D03*
X1917700Y2972080D02*
D03*
X871420Y2911640D02*
D03*
X763306Y2912516D02*
D03*
X871420Y2470576D02*
D03*
D23*
X2480520Y2570480D02*
D03*
X2665520Y2635480D02*
D03*
Y2505480D02*
D03*
D24*
X2199640Y2633980D02*
D03*
D25*
X2785000Y227500D02*
D03*
X1790000D02*
D03*
D26*
X2594020Y2054860D02*
D03*
X762680Y3108960D02*
D03*
X1376000Y1280160D02*
D03*
X1187896Y410265D02*
D03*
X2370500Y2857500D02*
D03*
X2455500D02*
D03*
X2679020Y2054860D02*
D03*
X1291000Y1280160D02*
D03*
X429433Y2797917D02*
D03*
X344433D02*
D03*
X847680Y3108960D02*
D03*
X1102896Y410265D02*
D03*
D27*
X2600000Y547500D02*
D03*
X2475000D02*
D03*
X2350000D02*
D03*
X2225000D02*
D03*
X2100000D02*
D03*
X1975000D02*
D03*
D28*
X2054640Y2666480D02*
D03*
Y2731480D02*
D03*
Y2601480D02*
D03*
Y2536480D02*
D03*
X2344640D02*
D03*
Y2601480D02*
D03*
Y2666480D02*
D03*
Y2731480D02*
D03*
D29*
X1277533Y1861985D02*
D03*
Y1811985D02*
D03*
X1047533D02*
D03*
Y1761985D02*
D03*
X1277533D02*
D03*
Y1711985D02*
D03*
X1047533D02*
D03*
Y1861985D02*
D03*
D30*
X440602Y3056889D02*
D03*
X610603Y2926888D02*
D03*
X440602D02*
D03*
X610603Y3056889D02*
D03*
D31*
X136257Y1769760D02*
D03*
Y1009760D02*
D03*
D32*
X1212533Y1696985D02*
D03*
X1162533D02*
D03*
X1112533Y1876985D02*
D03*
X1162533D02*
D03*
X1212533D02*
D03*
X1112533Y1696985D02*
D03*
D33*
X1358040Y986040D02*
D03*
X2465480Y2268220D02*
D03*
X2675480Y2364220D02*
D03*
Y2172220D02*
D03*
X1568040Y1082040D02*
D03*
X1358040Y1178040D02*
D03*
D34*
X666932Y1638527D02*
D03*
X809239D02*
D03*
X670538Y1136584D02*
D03*
X809239D02*
D03*
X670538Y1236584D02*
D03*
X809239D02*
D03*
Y1538527D02*
D03*
X666932D02*
D03*
D35*
X523657Y1139760D02*
D03*
Y1239761D02*
D03*
Y1339761D02*
D03*
Y1439760D02*
D03*
Y1539760D02*
D03*
Y1639760D02*
D03*
D36*
X1180000Y547500D02*
D03*
X950000D02*
D03*
D37*
X2669540Y2913520D02*
D03*
Y2763520D02*
D03*
D38*
X2561861Y867849D02*
D03*
X1861860D02*
D03*
Y1567849D02*
D03*
X2561861D02*
D03*
%TF.MD5,ed04c13663351e66f550bb693fa6057e*%
M02*
