%TF.GenerationSoftware,Altium Limited,Altium Designer,23.9.2 (47)*%
G04 Layer_Physical_Order=6*
G04 Layer_Color=16711680*
%FSLAX45Y45*%
%MOMM*%
%TF.SameCoordinates,C6D65D71-24B2-464F-8DE7-77A712877E08*%
%TF.FilePolarity,Positive*%
%TF.FileFunction,Copper,L6,Bot,Signal*%
%TF.Part,Single*%
G01*
G75*
%TA.AperFunction,SMDPad,CuDef*%
%ADD15R,0.62000X0.62000*%
%ADD16R,0.55000X0.60000*%
%ADD20R,0.35000X0.65000*%
%ADD21R,1.70000X1.10000*%
%ADD22R,0.62000X0.62000*%
%ADD26R,0.60000X0.55000*%
%ADD33R,1.20000X0.65000*%
%ADD34R,0.32000X0.51000*%
%ADD36R,0.84000X0.46000*%
%TA.AperFunction,Conductor*%
%ADD39C,0.25000*%
%ADD40C,0.20000*%
%ADD41C,0.30000*%
%ADD42C,0.62000*%
%ADD43C,0.35000*%
%ADD44C,0.50000*%
%ADD45C,0.45000*%
%ADD47C,0.40000*%
%ADD48C,0.55000*%
%ADD49C,0.15533*%
%ADD51C,0.80000*%
%ADD52C,0.25400*%
%ADD53C,0.60000*%
%ADD54C,0.46000*%
%ADD55C,1.00000*%
%TA.AperFunction,ComponentPad*%
%ADD56C,4.00000*%
%ADD57O,1.15800X2.31600*%
%ADD58O,1.20000X2.40000*%
%ADD59C,0.60000*%
%ADD60C,0.63000*%
%TA.AperFunction,ViaPad*%
%ADD61C,0.55000*%
%ADD62C,0.80000*%
%ADD63C,0.50000*%
%ADD64C,0.90000*%
%ADD65C,0.65000*%
%ADD66C,0.75000*%
%TA.AperFunction,Conductor*%
%ADD68C,0.15500*%
%TA.AperFunction,SMDPad,CuDef*%
%ADD69R,0.90000X0.90000*%
%ADD70R,0.80000X1.20000*%
%TA.AperFunction,BGAPad,CuDef*%
%ADD71R,1.10000X1.10000*%
%TA.AperFunction,SMDPad,CuDef*%
%ADD72R,0.80000X1.50000*%
%ADD73R,1.50000X0.80000*%
%ADD74R,0.27500X0.25000*%
%ADD75R,4.00000X1.70000*%
%ADD76R,0.65000X0.70000*%
%ADD77R,0.80000X0.80000*%
%ADD78R,0.42500X0.37000*%
%TA.AperFunction,ConnectorPad*%
%ADD79R,0.52000X1.00000*%
%TA.AperFunction,SMDPad,CuDef*%
%ADD80R,0.25000X0.20000*%
%TA.AperFunction,ConnectorPad*%
%ADD81R,1.00000X2.00000*%
%ADD82R,0.27000X1.00000*%
%ADD83R,2.60000X1.10000*%
%TA.AperFunction,SMDPad,CuDef*%
%ADD84R,0.25000X0.27500*%
%ADD85R,0.50000X0.75000*%
%ADD86R,0.66000X0.50000*%
%ADD87R,0.37500X0.50000*%
%ADD88R,0.30000X0.65000*%
%ADD89R,5.00000X2.00000*%
%ADD90R,1.25000X2.75000*%
%TA.AperFunction,Conductor*%
%ADD91C,0.24000*%
%ADD92C,0.27500*%
G36*
X3195090Y4707739D02*
X3241315Y4688592D01*
X3282916Y4660795D01*
X3318295Y4625415D01*
X3346092Y4583814D01*
X3365239Y4537589D01*
X3375001Y4488517D01*
Y4463500D01*
Y376500D01*
Y351483D01*
X3365239Y302411D01*
X3346092Y256186D01*
X3318295Y214584D01*
X3282916Y179205D01*
X3241315Y151408D01*
X3195090Y132261D01*
X3146017Y122500D01*
X329000D01*
X303984Y122500D01*
X254911Y132261D01*
X208686Y151408D01*
X167085Y179205D01*
X131706Y214584D01*
X103909Y256186D01*
X84762Y302411D01*
X75001Y351483D01*
Y376500D01*
Y1807114D01*
X84600Y1814600D01*
X111358D01*
Y1790000D01*
X114299Y1775212D01*
X122676Y1762676D01*
X142676Y1742676D01*
X155212Y1734299D01*
X170000Y1731358D01*
X242100D01*
Y1717100D01*
X437900D01*
Y1822900D01*
X418642D01*
Y2004160D01*
X472285D01*
Y2119960D01*
X301485D01*
Y2004160D01*
X341358D01*
Y1822900D01*
X242100D01*
Y1808642D01*
X225632D01*
X215400Y1814600D01*
Y1979600D01*
X275400D01*
Y2120400D01*
X215400D01*
Y2285400D01*
X196289D01*
Y2364743D01*
X299407D01*
X306790Y2360753D01*
Y2360753D01*
X477590D01*
Y2476011D01*
X516790D01*
Y2456753D01*
X579480D01*
X587967Y2444053D01*
X584640Y2436023D01*
Y2414978D01*
X592694Y2395535D01*
X607575Y2380654D01*
X627018Y2372600D01*
X648062D01*
X667505Y2380654D01*
X682386Y2395535D01*
X685798Y2403772D01*
X786524D01*
Y2421408D01*
X797084Y2428463D01*
X803502Y2425805D01*
X814727D01*
Y2304910D01*
X814602Y2304761D01*
X802027Y2299552D01*
X800874Y2300705D01*
X781431Y2308758D01*
X760386D01*
X740943Y2300705D01*
X726063Y2285824D01*
X718009Y2266381D01*
Y2245336D01*
X721660Y2236522D01*
X704095Y2229246D01*
X693762Y2218914D01*
X682285Y2215961D01*
X682285Y2215961D01*
Y2215961D01*
X682285Y2215960D01*
X527462D01*
X520407Y2226520D01*
X522800Y2232298D01*
Y2253342D01*
X514746Y2272785D01*
X499865Y2287666D01*
X480422Y2295720D01*
X459378D01*
X439935Y2287666D01*
X425054Y2272785D01*
X417000Y2253342D01*
Y2232298D01*
X425054Y2212855D01*
X439935Y2197974D01*
X459378Y2189920D01*
X480422D01*
X498785Y2197526D01*
X511485Y2193000D01*
Y2100160D01*
X592712D01*
X594044Y2093464D01*
X601868Y2081754D01*
X617911Y2065711D01*
X629621Y2057887D01*
X643433Y2055139D01*
X678288D01*
Y2035833D01*
X784087D01*
Y2061503D01*
X794647Y2068558D01*
X801065Y2065900D01*
X809620D01*
X810529Y2065694D01*
X810668Y2065646D01*
X811145Y2065330D01*
X811293Y2065218D01*
X832215Y2044296D01*
X844752Y2035919D01*
X855420Y2033797D01*
Y1972762D01*
X790399D01*
X775611Y1969821D01*
X763075Y1961444D01*
X763074Y1961444D01*
X740449Y1938819D01*
X724896D01*
X722776Y1939058D01*
X722660Y1939079D01*
X722457Y1939283D01*
X703014Y1947336D01*
X681969D01*
X662526Y1939283D01*
X647645Y1924402D01*
X639591Y1904959D01*
Y1883914D01*
X647645Y1864471D01*
X657156Y1854960D01*
X651815Y1844542D01*
X650756Y1843400D01*
X634010D01*
X617376Y1838943D01*
X602463Y1830333D01*
X590287Y1818157D01*
X581677Y1803244D01*
X579897Y1796601D01*
X502538Y1719242D01*
X490072Y1700586D01*
X485695Y1678580D01*
Y1575540D01*
Y1465541D01*
X485695Y1465540D01*
Y1355540D01*
X486800Y1349985D01*
Y1348528D01*
X478789Y1336539D01*
X475460Y1319800D01*
Y1250540D01*
X476300Y1246314D01*
Y1192640D01*
X627100D01*
Y1308440D01*
X599600D01*
Y1349985D01*
X600705Y1355540D01*
Y1465539D01*
X600705Y1465540D01*
Y1575540D01*
Y1654761D01*
X640185Y1694240D01*
X666395Y1668030D01*
Y1193800D01*
X670772Y1171794D01*
X683238Y1153138D01*
X822835Y1013541D01*
X841491Y1001075D01*
X863497Y996698D01*
X867920D01*
X873875Y993260D01*
X890509Y988803D01*
X907729D01*
X924362Y993260D01*
X939275Y1001870D01*
X951451Y1014046D01*
X960062Y1028960D01*
X964519Y1045593D01*
Y1062813D01*
X960062Y1079447D01*
X951451Y1094360D01*
X939275Y1106536D01*
X924362Y1115146D01*
X907729Y1119603D01*
X890509D01*
X881764Y1117260D01*
X781405Y1217619D01*
Y1691849D01*
X777028Y1713855D01*
X764562Y1732511D01*
X707126Y1789948D01*
X703563Y1803244D01*
X694953Y1818157D01*
X684273Y1828837D01*
X685311Y1835070D01*
X688771Y1841537D01*
X703014D01*
X722457Y1849590D01*
X734401Y1861535D01*
X756456D01*
X771244Y1864476D01*
X783780Y1872852D01*
X806405Y1895478D01*
X855420D01*
Y1868720D01*
X895203D01*
X902259Y1858160D01*
X899600Y1851742D01*
Y1830697D01*
X907654Y1811254D01*
X922535Y1796374D01*
X941978Y1788320D01*
X963022D01*
X982465Y1796374D01*
X983111Y1797019D01*
X995811Y1791758D01*
Y1710621D01*
X983111Y1705361D01*
X972305Y1716166D01*
X952862Y1724220D01*
X931818D01*
X912375Y1716166D01*
X897494Y1701285D01*
X889440Y1681842D01*
Y1660798D01*
X897494Y1641355D01*
X912375Y1626474D01*
X931818Y1618420D01*
X952862D01*
X955981Y1606687D01*
X950475Y1604406D01*
X935594Y1589525D01*
X927540Y1570082D01*
Y1549038D01*
X935594Y1529595D01*
X950475Y1514714D01*
X969918Y1506660D01*
X990962D01*
X1010405Y1514714D01*
X1025286Y1529595D01*
X1033340Y1549038D01*
Y1556986D01*
X1033826Y1559122D01*
X1033869Y1560671D01*
X1033916Y1561118D01*
X1033978Y1561449D01*
X1034051Y1561711D01*
X1034138Y1561947D01*
X1034256Y1562201D01*
X1034430Y1562506D01*
X1034432Y1562508D01*
X1057426Y1585502D01*
X1065250Y1597212D01*
X1067998Y1611024D01*
Y1773289D01*
X1080698Y1775815D01*
X1085511Y1764195D01*
X1100391Y1749315D01*
X1119834Y1741261D01*
X1140879D01*
X1160322Y1749315D01*
X1175203Y1764195D01*
X1183257Y1783638D01*
Y1804683D01*
X1175203Y1824126D01*
X1160322Y1839007D01*
X1140879Y1847061D01*
X1139013D01*
X1131448Y1859761D01*
X1133373Y1869440D01*
Y2329180D01*
X1130626Y2342993D01*
X1122802Y2354702D01*
X1094862Y2382642D01*
X1083153Y2390466D01*
X1069340Y2393213D01*
X1056220D01*
Y2549520D01*
X855420D01*
Y2528714D01*
X842720Y2524077D01*
X824547Y2531605D01*
X803502D01*
X784059Y2523551D01*
X780385Y2519877D01*
X765096Y2521129D01*
X761384Y2526684D01*
X761384Y2526685D01*
X746091Y2541977D01*
X733555Y2550354D01*
X718767Y2553295D01*
X696570D01*
X689078Y2560788D01*
X689614Y2574138D01*
X697180Y2580060D01*
X783815D01*
Y2596818D01*
X783862D01*
X798650Y2599760D01*
X811187Y2608136D01*
X845768Y2642718D01*
X855420Y2638720D01*
Y2638720D01*
X1056220D01*
Y2748720D01*
Y2858720D01*
Y2968720D01*
Y3078720D01*
Y3188720D01*
Y3318310D01*
X1058173Y3320263D01*
X1066783Y3335176D01*
X1071240Y3351810D01*
Y3369030D01*
X1066783Y3385664D01*
X1058173Y3400577D01*
X1045997Y3412753D01*
X1031084Y3421363D01*
X1014450Y3425820D01*
X997230D01*
X980596Y3421363D01*
X965683Y3412753D01*
X953507Y3400577D01*
X944897Y3385664D01*
X940440Y3369030D01*
Y3351810D01*
X944897Y3335176D01*
X946604Y3332220D01*
X939271Y3319520D01*
X855420D01*
Y3190782D01*
X821186D01*
X787777Y3224191D01*
X787647Y3224361D01*
X787274Y3224919D01*
X787251Y3224959D01*
X787239Y3225037D01*
X787159Y3225257D01*
X786960Y3226065D01*
Y3233782D01*
X778906Y3253225D01*
X764025Y3268106D01*
X744582Y3276160D01*
X723538D01*
X704095Y3268106D01*
X689214Y3253225D01*
X681160Y3233782D01*
Y3212738D01*
X689214Y3193295D01*
X704095Y3178414D01*
X723538Y3170360D01*
X731255D01*
X732063Y3170161D01*
X732283Y3170081D01*
X732361Y3170069D01*
X732400Y3170046D01*
X732641Y3169885D01*
X733419Y3169252D01*
X777856Y3124816D01*
X790392Y3116439D01*
X805180Y3113497D01*
X805181Y3113498D01*
X855420D01*
Y2968720D01*
Y2888855D01*
X847509Y2882363D01*
X793331D01*
X778543Y2879421D01*
X766006Y2871045D01*
X766006Y2871044D01*
X765323Y2870361D01*
X751781D01*
X751564Y2870389D01*
X750911Y2870519D01*
X750864Y2870532D01*
X750800Y2870579D01*
X750588Y2870678D01*
X749877Y2871108D01*
X744420Y2876565D01*
X724977Y2884618D01*
X703932D01*
X684489Y2876565D01*
X669608Y2861684D01*
X661555Y2842241D01*
Y2821196D01*
X669608Y2801753D01*
X682801Y2788560D01*
X682716Y2788107D01*
X675167Y2777893D01*
D01*
X675166Y2777892D01*
X569367D01*
Y2777892D01*
X563724Y2773261D01*
X553849Y2775225D01*
X500647D01*
X495083Y2780788D01*
Y2803487D01*
X496645D01*
Y2929287D01*
X495083D01*
Y3133656D01*
X502534Y3141106D01*
X513121Y3156950D01*
X516838Y3175640D01*
Y3349268D01*
X517084Y3351917D01*
X517307Y3353280D01*
X517353Y3353483D01*
X520333Y3356463D01*
X528943Y3371376D01*
X533400Y3388010D01*
Y3405230D01*
X528943Y3421863D01*
X520333Y3436776D01*
X508156Y3448953D01*
X493243Y3457563D01*
X476610Y3462020D01*
X464783D01*
X457420Y3473057D01*
X457227Y3474139D01*
X458772Y3476727D01*
X505836D01*
X505840Y3476726D01*
X506180Y3476634D01*
X506444Y3476538D01*
X506669Y3476433D01*
X506907Y3476298D01*
X507184Y3476109D01*
X507535Y3475826D01*
X508660Y3474760D01*
X510514Y3473594D01*
X516135Y3467974D01*
X535578Y3459920D01*
X556622D01*
X576065Y3467974D01*
X590946Y3482855D01*
X599000Y3502298D01*
Y3507412D01*
X611700Y3509939D01*
X615554Y3500635D01*
X630435Y3485754D01*
X649878Y3477700D01*
X670922D01*
X690365Y3485754D01*
X705246Y3500635D01*
X713300Y3520078D01*
Y3541122D01*
X705246Y3560565D01*
X690365Y3575446D01*
X670922Y3583500D01*
X649878D01*
X630435Y3575446D01*
X615554Y3560565D01*
X607500Y3541122D01*
Y3536008D01*
X594800Y3533481D01*
X590946Y3542785D01*
X576065Y3557666D01*
X556622Y3565720D01*
X535578D01*
X516135Y3557666D01*
X510514Y3552046D01*
X508660Y3550880D01*
X507535Y3549814D01*
X507185Y3549531D01*
X506907Y3549342D01*
X506668Y3549206D01*
X506445Y3549103D01*
X506181Y3549007D01*
X505839Y3548914D01*
X505836Y3548913D01*
X436880D01*
X423068Y3546166D01*
X411358Y3538342D01*
X314838Y3441822D01*
X307014Y3430112D01*
X304267Y3416300D01*
Y2997139D01*
X291567Y2992123D01*
X274039Y2999384D01*
X252994D01*
X233551Y2991330D01*
X228100Y2985879D01*
X215400Y2991140D01*
Y3045400D01*
X196289D01*
Y3118315D01*
X196290Y3118316D01*
X192766Y3136030D01*
X184174Y3148889D01*
X184780Y3151150D01*
Y3168370D01*
X180323Y3185004D01*
X171713Y3199917D01*
X159537Y3212093D01*
X144624Y3220703D01*
X127990Y3225160D01*
X110770D01*
X94136Y3220703D01*
X87701Y3216987D01*
X75001Y3224320D01*
Y3274962D01*
X87701Y3278365D01*
X89907Y3274543D01*
X102083Y3262367D01*
X116996Y3253757D01*
X133630Y3249300D01*
X150850D01*
X167484Y3253757D01*
X182397Y3262367D01*
X194573Y3274543D01*
X203183Y3289456D01*
X207640Y3306090D01*
Y3323310D01*
X203183Y3339944D01*
X194573Y3354857D01*
X182397Y3367033D01*
X167484Y3375643D01*
X150850Y3380100D01*
X133630D01*
X116996Y3375643D01*
X102083Y3367033D01*
X89907Y3354857D01*
X87701Y3351035D01*
X75001Y3354438D01*
Y3687500D01*
X27500D01*
Y3742500D01*
X477500D01*
Y3842500D01*
X777500D01*
Y3837100D01*
X802900D01*
Y3845773D01*
X806215Y3857100D01*
X922015D01*
X924101Y3867100D01*
X948701D01*
Y3666208D01*
X948354D01*
X952321Y3636078D01*
X963951Y3608001D01*
X982451Y3583891D01*
X1006561Y3565390D01*
X1034638Y3553761D01*
X1064768Y3549794D01*
Y3550140D01*
X1263498D01*
X1264297Y3550299D01*
X1282188Y3546741D01*
X1298033Y3536153D01*
X1308621Y3520308D01*
X1312179Y3502417D01*
X1312020Y3501618D01*
Y3484597D01*
X1311873Y3477810D01*
X1311023Y3466121D01*
X1309683Y3456367D01*
X1307976Y3448678D01*
X1306130Y3443203D01*
X1304532Y3440032D01*
X1304267Y3439686D01*
X1302968Y3439520D01*
X1280420D01*
Y3414784D01*
X1280227Y3413815D01*
X1280420Y3412846D01*
Y3238720D01*
X1280420D01*
X1283507Y3231267D01*
X1277494Y3225254D01*
X1269440Y3205811D01*
Y3184766D01*
X1277494Y3165323D01*
X1292375Y3150443D01*
X1311818Y3142389D01*
X1332862D01*
X1352305Y3150443D01*
X1367186Y3165323D01*
X1375240Y3184766D01*
Y3205811D01*
X1367186Y3225254D01*
X1365453Y3226987D01*
X1370314Y3238720D01*
X1411220D01*
Y3412846D01*
X1411413Y3413815D01*
X1411220Y3414784D01*
Y3439520D01*
X1388672D01*
X1387373Y3439686D01*
X1387108Y3440032D01*
X1385510Y3443203D01*
X1383664Y3448678D01*
X1382052Y3455938D01*
X1379758Y3478201D01*
X1379620Y3484597D01*
Y3501618D01*
X1379967D01*
X1375998Y3531762D01*
X1364363Y3559852D01*
X1345854Y3583974D01*
X1321732Y3602483D01*
X1293642Y3614118D01*
X1263498Y3618086D01*
Y3617740D01*
X1064768D01*
X1063971Y3617581D01*
X1046098Y3621136D01*
X1030271Y3631711D01*
X1019696Y3647538D01*
X1016141Y3665411D01*
X1016300Y3666208D01*
Y3867100D01*
X1040900D01*
Y3957100D01*
Y4053358D01*
X1040901Y4057900D01*
X1040901D01*
X1038613Y4065112D01*
X1038613Y4065112D01*
Y4089847D01*
X1038806Y4090816D01*
X1038622Y4091740D01*
X1038739Y4092676D01*
X1044195Y4104260D01*
X1096160D01*
Y4089260D01*
X1100467D01*
Y4054127D01*
X1103214Y4040315D01*
X1111038Y4028605D01*
X1157803Y3981840D01*
X1169513Y3974016D01*
X1176209Y3972684D01*
Y3763678D01*
X1352009D01*
Y4089477D01*
X1364513Y4089951D01*
X1373204D01*
X1388847Y4074308D01*
Y4023360D01*
X1391594Y4009548D01*
X1399418Y3997838D01*
X1435694Y3961562D01*
X1447404Y3953738D01*
X1461216Y3950991D01*
X1466209D01*
Y3763678D01*
X1642009D01*
Y3764702D01*
X1646360Y3775600D01*
X1697762D01*
X1703218Y3774515D01*
X1794848D01*
X1800305Y3775600D01*
X1851220D01*
X1854629Y3764312D01*
Y3439520D01*
X1500420D01*
Y3238720D01*
X1889892D01*
X1898377Y3226020D01*
X1895280Y3218542D01*
Y3197498D01*
X1903334Y3178055D01*
X1918215Y3163174D01*
X1937658Y3155120D01*
X1958702D01*
X1978145Y3163174D01*
X1993026Y3178055D01*
X2001080Y3197498D01*
Y3218542D01*
X1997983Y3226020D01*
X2006468Y3238720D01*
X2115757D01*
X2122813Y3228160D01*
X2120114Y3221644D01*
Y3200599D01*
X2128167Y3181156D01*
X2143048Y3166276D01*
X2162491Y3158222D01*
X2183536D01*
X2202979Y3166276D01*
X2217860Y3181156D01*
X2225914Y3200599D01*
Y3221644D01*
X2223215Y3228160D01*
X2230270Y3238720D01*
X2303089D01*
X2310145Y3228160D01*
X2306922Y3220381D01*
Y3199336D01*
X2314976Y3179893D01*
X2329857Y3165012D01*
X2349300Y3156959D01*
X2370345D01*
X2389788Y3165012D01*
X2404669Y3179893D01*
X2412722Y3199336D01*
Y3220381D01*
X2404669Y3239824D01*
X2401220Y3243272D01*
Y3439520D01*
X1937012D01*
Y3871435D01*
X1933876Y3887198D01*
X1924947Y3900562D01*
X1882373Y3943136D01*
X1869009Y3952065D01*
X1853246Y3955201D01*
X1851220D01*
Y3971400D01*
X1755140D01*
Y4016125D01*
X1756245Y4021680D01*
X1755140Y4027235D01*
Y4078080D01*
X1704295D01*
X1698740Y4079185D01*
X1642009D01*
Y4089478D01*
X1466209D01*
X1459053Y4099214D01*
X1458286Y4103071D01*
X1450462Y4114780D01*
X1424248Y4140994D01*
Y4195750D01*
X1339387D01*
Y4294601D01*
X1317413D01*
X1316081Y4301297D01*
X1308257Y4313007D01*
X1271082Y4350182D01*
X1259372Y4358006D01*
X1245560Y4360754D01*
X1234510D01*
Y4375060D01*
X1176960D01*
Y4390060D01*
X1096160D01*
Y4375060D01*
X1038710D01*
Y4274260D01*
X1047967D01*
Y4269660D01*
X1050714Y4255848D01*
X1058538Y4244138D01*
X1084917Y4217760D01*
X1079656Y4205060D01*
X1038710D01*
Y4187759D01*
X1029295Y4185887D01*
X1018330Y4178560D01*
X1017681Y4177911D01*
X1014109D01*
X1013202Y4178102D01*
X1012180Y4177911D01*
X925813D01*
Y4093103D01*
X925684Y4092630D01*
X925800Y4091717D01*
X925620Y4090816D01*
X925813Y4089847D01*
Y4065112D01*
X925812D01*
X924099Y4057900D01*
X924100Y4057899D01*
X924100Y4053121D01*
Y3989736D01*
X922014Y3977900D01*
X806215D01*
X802900Y3989227D01*
Y3997900D01*
X777500D01*
Y3992500D01*
X477500D01*
Y4092500D01*
X27500D01*
Y4147500D01*
X75001D01*
Y4463499D01*
X75000Y4488516D01*
X84761Y4537589D01*
X103908Y4583814D01*
X131705Y4625416D01*
X167084Y4660795D01*
X208685Y4688592D01*
X254911Y4707739D01*
X303983Y4717500D01*
X329000Y4717500D01*
X3121001Y4717500D01*
X3146017D01*
X3195090Y4707739D01*
D02*
G37*
G36*
X1064720Y4132475D02*
X1064495Y4135218D01*
X1063820Y4137671D01*
X1062696Y4139837D01*
X1061122Y4141713D01*
X1059097Y4143301D01*
X1056624Y4144600D01*
X1053700Y4145611D01*
X1050326Y4146333D01*
X1046503Y4146766D01*
X1042230Y4146910D01*
Y4162410D01*
X1046503Y4162554D01*
X1050326Y4162987D01*
X1053700Y4163709D01*
X1056624Y4164720D01*
X1059097Y4166019D01*
X1061122Y4167607D01*
X1062696Y4169483D01*
X1063820Y4171649D01*
X1064495Y4174102D01*
X1064720Y4176845D01*
Y4132475D01*
D02*
G37*
G36*
X1013053Y4151324D02*
X1013487Y4150535D01*
X1014211Y4149838D01*
X1015224Y4149235D01*
X1016527Y4148724D01*
X1018119Y4148306D01*
X1020001Y4147981D01*
X1022172Y4147749D01*
X1027383Y4147563D01*
Y4132063D01*
X1024589Y4131996D01*
X1022087Y4131794D01*
X1019877Y4131458D01*
X1017961Y4130987D01*
X1016336Y4130382D01*
X1015005Y4129642D01*
X1013965Y4128768D01*
X1013219Y4127759D01*
X1012765Y4126616D01*
X1012603Y4125338D01*
X1012908Y4152206D01*
X1013053Y4151324D01*
D02*
G37*
G36*
X1008603Y4090506D02*
X1004751Y4089576D01*
X1001353Y4088026D01*
X998407Y4085856D01*
X995915Y4083066D01*
X993876Y4079656D01*
X992289Y4075626D01*
X991157Y4070976D01*
X990477Y4065706D01*
X990316Y4061519D01*
X990483Y4057247D01*
X991180Y4051926D01*
X992343Y4047230D01*
X993970Y4043160D01*
X996063Y4039717D01*
X998620Y4036899D01*
X1001643Y4034708D01*
X1005130Y4033143D01*
X1009083Y4032203D01*
X1013500Y4031890D01*
X951500D01*
X955918Y4032203D01*
X959870Y4033143D01*
X963357Y4034708D01*
X966380Y4036899D01*
X968938Y4039717D01*
X971030Y4043160D01*
X972658Y4047230D01*
X973820Y4051926D01*
X974518Y4057247D01*
X974684Y4061497D01*
X974518Y4065706D01*
X973821Y4070976D01*
X972659Y4075626D01*
X971033Y4079656D01*
X968942Y4083066D01*
X966386Y4085856D01*
X963366Y4088026D01*
X959881Y4089576D01*
X955932Y4090506D01*
X951518Y4090816D01*
X1012908D01*
X1008603Y4090506D01*
D02*
G37*
G36*
X950110Y3894250D02*
X949874Y3897195D01*
X949168Y3899830D01*
X947990Y3902155D01*
X946341Y3904170D01*
X944221Y3905875D01*
X941630Y3907270D01*
X938568Y3908355D01*
X935035Y3909130D01*
X931030Y3909595D01*
X926555Y3909750D01*
Y3925250D01*
X931030Y3925405D01*
X935035Y3925870D01*
X938568Y3926645D01*
X941630Y3927730D01*
X944221Y3929125D01*
X946341Y3930830D01*
X947990Y3932845D01*
X949168Y3935170D01*
X949874Y3937805D01*
X950110Y3940750D01*
Y3894250D01*
D02*
G37*
G36*
X896241Y3937805D02*
X896947Y3935170D01*
X898125Y3932845D01*
X899774Y3930830D01*
X901894Y3929125D01*
X904485Y3927730D01*
X907547Y3926645D01*
X911080Y3925870D01*
X915085Y3925405D01*
X919560Y3925250D01*
Y3909750D01*
X915085Y3909595D01*
X911080Y3909130D01*
X907547Y3908355D01*
X904485Y3907270D01*
X901894Y3905875D01*
X899774Y3904170D01*
X898125Y3902155D01*
X896947Y3899830D01*
X896241Y3897195D01*
X896005Y3894250D01*
Y3940750D01*
X896241Y3937805D01*
D02*
G37*
G36*
X831919Y3894250D02*
X831687Y3897195D01*
X830989Y3899830D01*
X829827Y3902155D01*
X828199Y3904170D01*
X826107Y3905875D01*
X823549Y3907270D01*
X820527Y3908355D01*
X817039Y3909130D01*
X813087Y3909595D01*
X808669Y3909750D01*
Y3925250D01*
X813087Y3925405D01*
X817039Y3925870D01*
X820527Y3926645D01*
X823549Y3927730D01*
X826107Y3929125D01*
X828199Y3930830D01*
X829827Y3932845D01*
X830989Y3935170D01*
X831687Y3937805D01*
X831919Y3940750D01*
Y3894250D01*
D02*
G37*
G36*
X777428Y3937805D02*
X778125Y3935170D01*
X779288Y3932845D01*
X780915Y3930830D01*
X783008Y3929125D01*
X785565Y3927730D01*
X788588Y3926645D01*
X792075Y3925870D01*
X796028Y3925405D01*
X800445Y3925250D01*
Y3909750D01*
X796028Y3909595D01*
X792075Y3909130D01*
X788588Y3908355D01*
X785565Y3907270D01*
X783008Y3905875D01*
X780915Y3904170D01*
X779288Y3902155D01*
X778125Y3899830D01*
X777428Y3897195D01*
X777195Y3894250D01*
Y3940750D01*
X777428Y3937805D01*
D02*
G37*
G36*
X1002805Y3892573D02*
X1000170Y3891875D01*
X997845Y3890713D01*
X995830Y3889085D01*
X994125Y3886992D01*
X992730Y3884435D01*
X991645Y3881412D01*
X990870Y3877925D01*
X990405Y3873972D01*
X990250Y3869555D01*
X974750D01*
X974595Y3873972D01*
X974130Y3877925D01*
X973355Y3881412D01*
X972270Y3884435D01*
X970875Y3886992D01*
X969170Y3889085D01*
X967155Y3890713D01*
X964830Y3891875D01*
X962195Y3892573D01*
X959250Y3892805D01*
X1005750D01*
X1002805Y3892573D01*
D02*
G37*
G36*
X526461Y3493570D02*
X524604Y3495328D01*
X522661Y3496900D01*
X520630Y3498288D01*
X518513Y3499490D01*
X516308Y3500508D01*
X514017Y3501340D01*
X511639Y3501987D01*
X509173Y3502450D01*
X506622Y3502728D01*
X503983Y3502820D01*
Y3522820D01*
X506622Y3522912D01*
X509173Y3523190D01*
X511639Y3523653D01*
X514017Y3524300D01*
X516308Y3525132D01*
X518513Y3526150D01*
X520630Y3527352D01*
X522661Y3528740D01*
X524604Y3530312D01*
X526461Y3532070D01*
Y3493570D01*
D02*
G37*
G36*
X1353890Y3476590D02*
X1356445Y3451790D01*
X1358681Y3441715D01*
X1361556Y3433190D01*
X1365070Y3426215D01*
X1369223Y3420790D01*
X1374015Y3416915D01*
X1379446Y3414590D01*
X1385515Y3413815D01*
X1306125D01*
X1312194Y3414590D01*
X1317625Y3416915D01*
X1322417Y3420790D01*
X1326570Y3426215D01*
X1330084Y3433190D01*
X1332959Y3441715D01*
X1335195Y3451790D01*
X1336792Y3463415D01*
X1337750Y3476590D01*
X1338070Y3491316D01*
X1353570D01*
X1353890Y3476590D01*
D02*
G37*
G36*
X494955Y3366799D02*
X494020Y3365189D01*
X493195Y3363224D01*
X492480Y3360905D01*
X491875Y3358232D01*
X491380Y3355204D01*
X490720Y3348085D01*
X490500Y3339548D01*
X445500D01*
X445445Y3343994D01*
X444620Y3355204D01*
X444125Y3358232D01*
X443520Y3360905D01*
X442805Y3363224D01*
X441980Y3365189D01*
X441045Y3366799D01*
X440000Y3368054D01*
X496000D01*
X494955Y3366799D01*
D02*
G37*
G36*
X761645Y3221085D02*
X761941Y3219166D01*
X762448Y3217227D01*
X763166Y3215268D01*
X764093Y3213291D01*
X765231Y3211294D01*
X766580Y3209277D01*
X768138Y3207241D01*
X769907Y3205186D01*
X771886Y3203111D01*
X754209Y3185434D01*
X752134Y3187413D01*
X748043Y3190740D01*
X746026Y3192089D01*
X744029Y3193227D01*
X742052Y3194154D01*
X740093Y3194872D01*
X738154Y3195379D01*
X736235Y3195675D01*
X734335Y3195761D01*
X761559Y3222985D01*
X761645Y3221085D01*
D02*
G37*
G36*
X735498Y2849686D02*
X737065Y2848538D01*
X738794Y2847526D01*
X740686Y2846648D01*
X742740Y2845906D01*
X744957Y2845298D01*
X747337Y2844826D01*
X749878Y2844488D01*
X752583Y2844286D01*
X755449Y2844218D01*
Y2819219D01*
X752583Y2819151D01*
X747337Y2818611D01*
X744957Y2818139D01*
X742740Y2817531D01*
X740686Y2816789D01*
X738794Y2815911D01*
X737065Y2814899D01*
X735498Y2813751D01*
X734093Y2812469D01*
Y2850968D01*
X735498Y2849686D01*
D02*
G37*
G36*
X404176Y3411111D02*
X402600Y3405230D01*
Y3388010D01*
X407057Y3371376D01*
X415667Y3356463D01*
X418647Y3353483D01*
X418693Y3353280D01*
X418876Y3352159D01*
X419161Y3348285D01*
Y3195869D01*
X411711Y3188419D01*
X401124Y3172575D01*
X397407Y3153885D01*
Y2929287D01*
X395845D01*
Y2804980D01*
X386321Y2797459D01*
X385673Y2797191D01*
X376453Y2806411D01*
Y3401350D01*
X392789Y3417685D01*
X404176Y3411111D01*
D02*
G37*
G36*
X233551Y2901638D02*
X252994Y2893584D01*
X274039D01*
X291567Y2900844D01*
X304267Y2895829D01*
Y2791460D01*
X307014Y2777648D01*
X314838Y2765938D01*
X359756Y2721020D01*
X354896Y2709287D01*
X330845D01*
Y2583487D01*
X342603D01*
Y2565155D01*
X345544Y2550367D01*
X353921Y2537831D01*
X402498Y2489253D01*
X400866Y2481637D01*
X397690Y2476553D01*
X306790D01*
X299408Y2486195D01*
Y2560543D01*
X207167D01*
X200199Y2573243D01*
X201064Y2574600D01*
X215400D01*
Y2739600D01*
X275400D01*
Y2880400D01*
X215400D01*
Y2901828D01*
X228100Y2907088D01*
X233551Y2901638D01*
D02*
G37*
G36*
X792405Y2273351D02*
X794348Y2271778D01*
X796379Y2270391D01*
X798496Y2269188D01*
X800701Y2268171D01*
X802992Y2267338D01*
X805370Y2266691D01*
X807835Y2266228D01*
X810387Y2265951D01*
X813026Y2265858D01*
Y2245858D01*
X810387Y2245766D01*
X807835Y2245488D01*
X805370Y2245026D01*
X802992Y2244378D01*
X800701Y2243546D01*
X798496Y2242528D01*
X796379Y2241326D01*
X794348Y2239938D01*
X792405Y2238366D01*
X790548Y2236608D01*
Y2275108D01*
X792405Y2273351D01*
D02*
G37*
G36*
X752258Y2163783D02*
X750428Y2162032D01*
X748790Y2160181D01*
X747345Y2158230D01*
X746092Y2156178D01*
X745033Y2154027D01*
X744165Y2151775D01*
X743491Y2149424D01*
X743009Y2146972D01*
X742720Y2144420D01*
X742624Y2141768D01*
X722624Y2142891D01*
X722536Y2145516D01*
X722271Y2148067D01*
X721831Y2150543D01*
X721214Y2152945D01*
X720421Y2155272D01*
X719451Y2157525D01*
X718305Y2159704D01*
X716984Y2161808D01*
X715485Y2163838D01*
X713811Y2165793D01*
X752258Y2163783D01*
D02*
G37*
G36*
X839208Y2117178D02*
X839536Y2115266D01*
X840071Y2113333D01*
X840813Y2111380D01*
X841761Y2109407D01*
X842915Y2107414D01*
X844276Y2105400D01*
X845843Y2103367D01*
X847617Y2101313D01*
X849598Y2099240D01*
X832314Y2081168D01*
X830238Y2083146D01*
X828181Y2084910D01*
X826143Y2086460D01*
X824124Y2087796D01*
X822124Y2088918D01*
X820143Y2089825D01*
X818181Y2090518D01*
X816238Y2090997D01*
X814314Y2091262D01*
X812409Y2091312D01*
X839086Y2119071D01*
X839208Y2117178D01*
D02*
G37*
G36*
X709171Y1916472D02*
X710818Y1915675D01*
X712620Y1914973D01*
X714576Y1914363D01*
X716688Y1913848D01*
X718955Y1913426D01*
X723953Y1912864D01*
X726685Y1912724D01*
X729571Y1912677D01*
X735647Y1887677D01*
X732770Y1887597D01*
X730088Y1887358D01*
X727604Y1886960D01*
X725316Y1886402D01*
X723224Y1885685D01*
X721330Y1884809D01*
X719631Y1883773D01*
X718129Y1882578D01*
X716824Y1881224D01*
X715716Y1879710D01*
X707679Y1917362D01*
X709171Y1916472D01*
D02*
G37*
G36*
X1017292Y1582270D02*
X1015492Y1580339D01*
X1013884Y1578338D01*
X1012468Y1576268D01*
X1011244Y1574129D01*
X1010212Y1571920D01*
X1009373Y1569642D01*
X1008726Y1567294D01*
X1008271Y1564877D01*
X1008009Y1562391D01*
X1007939Y1559835D01*
X980715Y1587059D01*
X983271Y1587129D01*
X985757Y1587391D01*
X988174Y1587846D01*
X990522Y1588493D01*
X992800Y1589332D01*
X995009Y1590364D01*
X997148Y1591588D01*
X999218Y1593004D01*
X1001219Y1594612D01*
X1003150Y1596412D01*
X1017292Y1582270D01*
D02*
G37*
%LPC*%
G36*
X2502890Y4614540D02*
X2485670D01*
X2469036Y4610083D01*
X2454123Y4601473D01*
X2441947Y4589297D01*
X2440921Y4587520D01*
X2430232Y4586112D01*
X2415319Y4594723D01*
X2398685Y4599180D01*
X2381465D01*
X2364832Y4594723D01*
X2349919Y4586112D01*
X2337742Y4573936D01*
X2329132Y4559023D01*
X2324675Y4542390D01*
Y4525170D01*
X2329132Y4508536D01*
X2337742Y4493623D01*
X2349919Y4481447D01*
X2364832Y4472837D01*
X2381465Y4468380D01*
X2398685D01*
X2415319Y4472837D01*
X2430232Y4481447D01*
X2442408Y4493623D01*
X2443434Y4495400D01*
X2454124Y4496807D01*
X2469036Y4488197D01*
X2485670Y4483740D01*
X2502890D01*
X2519524Y4488197D01*
X2531495Y4495109D01*
X2540155Y4494031D01*
X2546528Y4490938D01*
X2553707Y4478503D01*
X2565883Y4466327D01*
X2580796Y4457717D01*
X2597430Y4453260D01*
X2614650D01*
X2631284Y4457717D01*
X2646197Y4466327D01*
X2658373Y4478503D01*
X2666983Y4493416D01*
X2671440Y4510050D01*
Y4527270D01*
X2666983Y4543904D01*
X2658373Y4558817D01*
X2646197Y4570993D01*
X2631284Y4579603D01*
X2614650Y4584060D01*
X2597430D01*
X2580796Y4579603D01*
X2568825Y4572691D01*
X2560165Y4573769D01*
X2553792Y4576862D01*
X2546613Y4589297D01*
X2534437Y4601473D01*
X2519524Y4610083D01*
X2502890Y4614540D01*
D02*
G37*
G36*
X3108900Y4151338D02*
X3087855D01*
X3068412Y4143284D01*
X3053532Y4128403D01*
X3045478Y4108960D01*
Y4087915D01*
X3053532Y4068472D01*
X3068412Y4053592D01*
X3087855Y4045538D01*
X3108900D01*
X3128343Y4053592D01*
X3143224Y4068472D01*
X3151278Y4087915D01*
Y4108960D01*
X3143224Y4128403D01*
X3128343Y4143284D01*
X3108900Y4151338D01*
D02*
G37*
G36*
X2609570Y4388480D02*
X2592350D01*
X2575716Y4384023D01*
X2560803Y4375413D01*
X2548627Y4363237D01*
X2540017Y4348324D01*
X2535560Y4331690D01*
Y4314470D01*
X2540017Y4297836D01*
X2548627Y4282923D01*
X2560803Y4270747D01*
X2575716Y4262137D01*
X2581993Y4260455D01*
X2592274Y4257224D01*
X2590385Y4245794D01*
X2588900Y4240250D01*
Y4223030D01*
X2592767Y4208598D01*
X2586623Y4195898D01*
X2280000D01*
X2270089Y4193926D01*
X2261687Y4188312D01*
X2201687Y4128312D01*
X2196074Y4119910D01*
X2194102Y4110000D01*
Y3980000D01*
X2196074Y3970089D01*
X2201687Y3961688D01*
X2239508Y3923867D01*
X2234648Y3912133D01*
X2191730D01*
X2187593Y3916271D01*
X2187590Y3916275D01*
X2187416Y3916579D01*
X2187298Y3916833D01*
X2187211Y3917069D01*
X2187138Y3917331D01*
X2187076Y3917662D01*
X2187029Y3918109D01*
X2186986Y3919658D01*
X2186500Y3921794D01*
Y3929742D01*
X2178446Y3949185D01*
X2163565Y3964066D01*
X2144122Y3972120D01*
X2123078D01*
X2103635Y3964066D01*
X2088754Y3949185D01*
X2080700Y3929742D01*
Y3908698D01*
X2088754Y3889255D01*
X2103635Y3874374D01*
X2117105Y3868794D01*
Y3855048D01*
X2107854Y3851216D01*
X2092973Y3836335D01*
X2084920Y3816892D01*
Y3795847D01*
X2092973Y3776404D01*
X2107854Y3761523D01*
X2127297Y3753470D01*
X2148342D01*
X2167785Y3761523D01*
X2182666Y3776404D01*
X2190719Y3795847D01*
Y3816892D01*
X2186430Y3827246D01*
X2194916Y3839947D01*
X2438400D01*
X2452212Y3842694D01*
X2463922Y3850518D01*
X2491182Y3877778D01*
X2499006Y3889488D01*
X2500461Y3896800D01*
X2521060D01*
Y3902368D01*
X2529190Y3911700D01*
X2581640D01*
Y3857616D01*
X2574291Y3846617D01*
X2572959Y3839920D01*
X2542985D01*
Y3734120D01*
X2542985D01*
X2551099Y3721420D01*
X2546585Y3710522D01*
Y3689478D01*
X2554639Y3670035D01*
X2569520Y3655154D01*
X2588963Y3647100D01*
X2610007D01*
X2615320Y3649301D01*
X2625880Y3642245D01*
Y3608904D01*
X2600938Y3583962D01*
X2588472Y3565306D01*
X2584095Y3543300D01*
X2588472Y3521294D01*
X2600938Y3502638D01*
X2619594Y3490172D01*
X2641600Y3485795D01*
X2650371Y3487540D01*
X2659686Y3477219D01*
X2659793Y3476465D01*
Y3456055D01*
X2667847Y3436612D01*
X2682728Y3421732D01*
X2702171Y3413678D01*
X2723216D01*
X2742658Y3421732D01*
X2749158Y3428231D01*
X2764139Y3425252D01*
X2765291Y3422472D01*
X2765446Y3422317D01*
X2765616Y3421519D01*
X2765700Y3420901D01*
X2765754Y3420131D01*
Y2747753D01*
X2768696Y2732965D01*
X2777072Y2720429D01*
X2819725Y2677776D01*
X2832262Y2669399D01*
X2845420Y2666782D01*
Y2528720D01*
Y2418720D01*
Y2308720D01*
Y2198720D01*
Y2088720D01*
Y1997222D01*
X2837084Y1993824D01*
X2832720Y1993367D01*
X2818779Y2007308D01*
X2799336Y2015362D01*
X2778291D01*
X2758848Y2007308D01*
X2743967Y1992428D01*
X2735914Y1972985D01*
Y1960276D01*
X2731916Y1951115D01*
X2724180Y1949520D01*
X2270420D01*
Y1748720D01*
X2731220D01*
Y1930085D01*
X2743920Y1932611D01*
X2743967Y1932497D01*
X2758848Y1917616D01*
X2778291Y1909562D01*
X2799336D01*
X2818779Y1917616D01*
X2832720Y1931557D01*
X2837084Y1931101D01*
X2845420Y1927702D01*
Y1868720D01*
X3046220D01*
Y1868720D01*
X3057413Y1865083D01*
Y1402931D01*
X2724569Y1070087D01*
X2551995D01*
X2537129Y1067129D01*
X2524526Y1058709D01*
X2227140Y761322D01*
X2214440Y766583D01*
Y769982D01*
X2206386Y789425D01*
X2191505Y804306D01*
X2172062Y812360D01*
X2151018D01*
X2131575Y804306D01*
X2128003Y800735D01*
X2126997Y800651D01*
X2029817D01*
X1975902Y854567D01*
X1980762Y866300D01*
X2092940D01*
Y905823D01*
X2107768Y920651D01*
X2109750Y920120D01*
X2126970D01*
X2143604Y924577D01*
X2158517Y933187D01*
X2170693Y945363D01*
X2179303Y960276D01*
X2183760Y976910D01*
Y994130D01*
X2179303Y1010764D01*
X2170693Y1025677D01*
X2158517Y1037853D01*
X2143604Y1046463D01*
X2126970Y1050920D01*
X2109750D01*
X2093116Y1046463D01*
X2078203Y1037853D01*
X2075664Y1035313D01*
X2059856Y1024751D01*
X2047329Y1028171D01*
X2047156Y1028242D01*
Y1081444D01*
X2063200D01*
X2075336Y1074437D01*
X2091970Y1069980D01*
X2109190D01*
X2125824Y1074437D01*
X2140737Y1083047D01*
X2152913Y1095223D01*
X2161523Y1110136D01*
X2165980Y1126770D01*
Y1143990D01*
X2161523Y1160624D01*
X2152913Y1175537D01*
X2140737Y1187713D01*
X2125824Y1196323D01*
X2109190Y1200780D01*
X2091970D01*
X2075336Y1196323D01*
X2063200Y1189316D01*
X1993220D01*
X1988010Y1188280D01*
X1941102D01*
Y1222900D01*
X2049940D01*
Y1225011D01*
X2099339D01*
X2099340Y1225011D01*
X2117054Y1228534D01*
X2132072Y1238569D01*
X2184111Y1290608D01*
X2184112Y1290608D01*
X2194146Y1305626D01*
X2197669Y1323340D01*
Y1380366D01*
X2216900Y1399597D01*
X2229600Y1394336D01*
Y1159600D01*
X2780400D01*
Y1238176D01*
X2788966Y1239879D01*
X2804810Y1250466D01*
X2929677Y1375333D01*
X2930026D01*
X2951307Y1384147D01*
X2967594Y1400435D01*
X2976409Y1421715D01*
Y1444750D01*
X2967594Y1466030D01*
X2951307Y1482318D01*
X2930026Y1491133D01*
X2906992D01*
X2885711Y1482318D01*
X2869424Y1466030D01*
X2860609Y1444750D01*
Y1444400D01*
X2792134Y1375925D01*
X2780400Y1380785D01*
Y1410400D01*
X2245664D01*
X2240693Y1420756D01*
X2240217Y1423100D01*
X2249874Y1437553D01*
X2253397Y1455268D01*
Y1457283D01*
X2271945D01*
Y1507340D01*
X2273246Y1513878D01*
Y1613916D01*
X2273441Y1614901D01*
X2272337Y1620455D01*
Y1671300D01*
X2221491D01*
X2215937Y1672405D01*
X2181784D01*
Y1849120D01*
X2181220Y1853407D01*
Y1922869D01*
X2184905D01*
X2204348Y1930923D01*
X2219229Y1945804D01*
X2227283Y1965247D01*
Y1986291D01*
X2219229Y2005734D01*
X2204348Y2020615D01*
X2184905Y2028669D01*
X2163861D01*
X2144418Y2020615D01*
X2129537Y2005734D01*
X2121483Y1986291D01*
Y1965247D01*
X2123623Y1960080D01*
X2116568Y1949520D01*
X1720420D01*
Y1748720D01*
X1747194D01*
X1749509Y1745900D01*
Y1717040D01*
X1752644Y1701277D01*
X1761573Y1687913D01*
X1771234Y1678253D01*
X1767488Y1669210D01*
X1767488D01*
Y1570443D01*
X1767488Y1563411D01*
X1767488D01*
X1767836Y1557887D01*
X1767837D01*
Y1454155D01*
X1688393D01*
Y1559255D01*
X1685350Y1559985D01*
Y1672785D01*
X1659171D01*
Y1673860D01*
X1656036Y1689623D01*
X1647107Y1702987D01*
X1623611Y1726482D01*
Y1745900D01*
X1625926Y1748720D01*
X1631220D01*
Y1949520D01*
X1377630D01*
X1369144Y1962220D01*
X1373700Y1973218D01*
Y1994262D01*
X1365646Y2013705D01*
X1350765Y2028586D01*
X1331322Y2036640D01*
X1310278D01*
X1290835Y2028586D01*
X1275954Y2013705D01*
X1267900Y1994262D01*
Y1973218D01*
X1275954Y1953775D01*
X1280420Y1949308D01*
Y1748720D01*
X1349077D01*
Y1735970D01*
X1349879Y1731937D01*
Y1715549D01*
X1293722D01*
Y1604749D01*
Y1520009D01*
X1243396D01*
X1230455Y1517435D01*
X1219484Y1510105D01*
X1130323Y1420944D01*
X1115342Y1423924D01*
X1110805Y1434878D01*
X1094518Y1451165D01*
X1073237Y1459980D01*
X1050203D01*
X1028922Y1451165D01*
X1012635Y1434878D01*
X1003820Y1413597D01*
Y1390563D01*
X1012635Y1369282D01*
X1028922Y1352995D01*
X1050203Y1344180D01*
X1073237D01*
X1094518Y1352995D01*
X1099677Y1358154D01*
X1112377Y1352894D01*
Y1343967D01*
X1112801Y1341837D01*
Y1333851D01*
X1076675Y1297724D01*
X1069344Y1286754D01*
X1066770Y1273813D01*
Y1192133D01*
X1066820Y1191880D01*
Y1183033D01*
X1067470Y1179766D01*
Y1061000D01*
X1069637D01*
Y1004371D01*
X1072211Y991430D01*
X1079542Y980460D01*
X1098360Y961641D01*
X1101802Y950366D01*
X1101802D01*
Y879567D01*
X1101802D01*
Y878366D01*
X1101802D01*
Y807567D01*
X1108258D01*
Y767900D01*
X927038D01*
Y793680D01*
X927058Y793929D01*
X928633Y795503D01*
X937243Y810416D01*
X941700Y827050D01*
Y844270D01*
X937243Y860904D01*
X928633Y875817D01*
X916457Y887993D01*
X901544Y896603D01*
X884910Y901060D01*
X867690D01*
X851056Y896603D01*
X836143Y887993D01*
X823967Y875817D01*
X815357Y860904D01*
X810900Y844270D01*
Y827050D01*
X815357Y810416D01*
X823967Y795503D01*
X824086Y795384D01*
X824263Y792436D01*
Y767900D01*
X823600D01*
Y640925D01*
X821318Y639400D01*
X798682D01*
X777769Y630738D01*
X761763Y614731D01*
X753101Y593818D01*
Y571182D01*
X761763Y550269D01*
X777769Y534263D01*
X798682Y525600D01*
X821318D01*
X826260Y527647D01*
X839981Y519584D01*
X840715Y513258D01*
X835462Y508005D01*
X831207Y504659D01*
X829931Y503793D01*
X828918Y503192D01*
X828750Y503108D01*
X828431Y503026D01*
X827715Y502685D01*
X827501Y502602D01*
X827374Y502522D01*
X826759Y502228D01*
X815620Y499244D01*
X799567Y489975D01*
X786460Y476868D01*
X777191Y460815D01*
X772394Y442910D01*
Y424373D01*
X777191Y406468D01*
X786460Y390415D01*
X799567Y377307D01*
X815620Y368039D01*
X833525Y363241D01*
X852062D01*
X869967Y368039D01*
X886020Y377307D01*
X899127Y390415D01*
X908396Y406468D01*
X913193Y424373D01*
Y442910D01*
X912755Y444545D01*
X913286Y445477D01*
X914182Y446801D01*
X915814Y448779D01*
X932394Y465359D01*
X932395Y465360D01*
X943092Y481370D01*
X943603Y483941D01*
X957520Y488803D01*
X962405Y484670D01*
Y477263D01*
X962352Y476692D01*
X955480Y460102D01*
Y439058D01*
X963534Y419615D01*
X978415Y404734D01*
X997858Y396680D01*
X1018902D01*
X1038345Y404734D01*
X1053226Y419615D01*
X1061280Y439058D01*
Y457459D01*
X1067790Y464829D01*
X1071848Y467776D01*
X1077852Y466167D01*
X1096388D01*
X1114293Y470965D01*
X1130347Y480233D01*
X1143454Y493340D01*
X1152722Y509393D01*
X1157520Y527298D01*
Y545835D01*
X1152722Y563740D01*
X1150138Y568217D01*
X1157470Y580917D01*
X1160001D01*
X1172943Y583491D01*
X1183913Y590822D01*
X1203178Y610087D01*
X1203179Y610087D01*
X1207865Y617100D01*
X1237850D01*
X1243809Y609840D01*
X1244049Y608634D01*
Y556260D01*
X1247184Y540497D01*
X1256113Y527133D01*
X1331400Y451846D01*
Y446678D01*
X1339454Y427235D01*
X1354335Y412354D01*
X1373778Y404300D01*
X1394822D01*
X1414265Y412354D01*
X1429146Y427235D01*
X1437200Y446678D01*
Y467722D01*
X1429146Y487165D01*
X1414265Y502046D01*
X1394822Y510100D01*
X1389772D01*
X1388998Y510756D01*
X1380275Y519479D01*
X1387469Y530245D01*
X1398682Y525600D01*
X1421318D01*
X1442231Y534263D01*
X1458238Y550269D01*
X1466900Y571182D01*
Y593818D01*
X1458238Y614731D01*
X1442231Y630738D01*
X1421318Y639400D01*
X1398682D01*
X1396400Y640925D01*
Y767900D01*
X1395718D01*
Y790190D01*
X1396826Y790450D01*
X1398598Y790739D01*
X1712140D01*
Y770300D01*
X1882940D01*
Y814429D01*
X1894673Y819289D01*
X1983629Y730333D01*
X1996992Y721404D01*
X2012755Y718269D01*
X2127920D01*
X2131575Y714614D01*
X2151018Y706560D01*
X2154417D01*
X2159678Y693860D01*
X2102931Y637114D01*
X2094510Y624511D01*
X2091553Y609645D01*
Y590131D01*
X1964694Y463271D01*
X1964536Y463149D01*
X1963955Y462756D01*
X1963894Y462721D01*
X1963637Y462626D01*
X1963131Y462500D01*
X1955438D01*
X1935995Y454446D01*
X1921114Y439566D01*
X1913060Y420123D01*
Y399078D01*
X1917970Y387225D01*
X1922481Y375957D01*
X1922482Y375957D01*
X1922482Y375957D01*
Y274158D01*
X2005282D01*
Y374110D01*
X2010806Y379635D01*
X2018860Y399078D01*
Y406771D01*
X2018986Y407278D01*
X2019080Y407534D01*
X2019116Y407595D01*
X2019300Y407867D01*
X2019914Y408617D01*
X2138900Y527603D01*
X2150633Y522743D01*
Y412976D01*
X2150608Y412778D01*
X2150475Y412088D01*
X2150457Y412020D01*
X2150346Y411778D01*
X2150243Y411608D01*
X2123880D01*
X2109014Y408651D01*
X2096411Y400230D01*
X2071332Y375151D01*
X2033970D01*
Y273351D01*
X2116769D01*
Y310714D01*
X2139971Y333915D01*
X2154650D01*
X2155566Y333838D01*
X2156255Y333728D01*
X2156935Y333577D01*
X2157042Y333546D01*
X2159515Y331074D01*
X2178958Y323020D01*
X2200002D01*
X2219445Y331074D01*
X2234326Y345955D01*
X2242380Y365398D01*
Y386442D01*
X2234326Y405885D01*
X2228887Y411324D01*
X2228614Y411778D01*
X2228503Y412020D01*
X2228485Y412088D01*
X2228423Y412412D01*
X2228327Y413376D01*
Y588429D01*
X2581491Y941593D01*
X2755900D01*
X2770766Y944551D01*
X2783369Y952971D01*
X3289929Y1459532D01*
X3298350Y1472134D01*
X3301307Y1487000D01*
Y1863260D01*
X3298350Y1878126D01*
X3289929Y1890729D01*
X3109069Y2071589D01*
X3096466Y2080010D01*
X3081600Y2082967D01*
X3046220D01*
Y2198720D01*
Y2308720D01*
Y2418720D01*
Y2528720D01*
Y2638720D01*
Y2775274D01*
X3101140D01*
X3116006Y2778231D01*
X3128609Y2786652D01*
X3222789Y2880831D01*
X3231209Y2893434D01*
X3234167Y2908300D01*
Y3703173D01*
X3231209Y3718039D01*
X3222789Y3730642D01*
X3154858Y3798573D01*
X3154736Y3798731D01*
X3154343Y3799311D01*
X3154307Y3799373D01*
X3154212Y3799629D01*
X3154086Y3800135D01*
Y3807829D01*
X3146033Y3827272D01*
X3131152Y3842153D01*
X3111709Y3850206D01*
X3090664D01*
X3071221Y3842153D01*
X3056340Y3827272D01*
X3048287Y3807829D01*
Y3786784D01*
X3056340Y3767341D01*
X3071221Y3752460D01*
X3090664Y3744407D01*
X3098358D01*
X3098865Y3744281D01*
X3099120Y3744186D01*
X3099182Y3744150D01*
X3099453Y3743967D01*
X3100204Y3743352D01*
X3156473Y3687083D01*
Y3096523D01*
X3143773Y3091263D01*
X3134447Y3100589D01*
X3118394Y3109858D01*
X3100489Y3114655D01*
X3081952D01*
X3064047Y3109858D01*
X3058920Y3106898D01*
X3046220Y3114230D01*
Y3188720D01*
Y3319520D01*
X2845421D01*
X2843039Y3331234D01*
Y3410528D01*
X2854983Y3422472D01*
X2863037Y3441915D01*
Y3462960D01*
X2854983Y3482403D01*
X2840102Y3497284D01*
X2820659Y3505337D01*
X2799614D01*
X2780171Y3497284D01*
X2773672Y3490784D01*
X2758691Y3493763D01*
X2757539Y3496543D01*
X2742658Y3511424D01*
X2723216Y3519478D01*
X2717062D01*
X2711802Y3532178D01*
X2724047Y3544423D01*
X2736513Y3563079D01*
X2740890Y3585085D01*
Y3729515D01*
X2771020D01*
X2793026Y3733892D01*
X2811682Y3746358D01*
X2855702Y3790378D01*
X2868168Y3809034D01*
X2872545Y3831040D01*
Y3909100D01*
X2871440Y3914654D01*
Y3965500D01*
X2820595D01*
X2815040Y3966604D01*
X2809485Y3965500D01*
X2758640D01*
Y3957719D01*
X2752451Y3947742D01*
X2737664Y3944801D01*
X2727849Y3938242D01*
X2720740D01*
X2717008Y3937500D01*
X2681590D01*
Y3912450D01*
X2607490D01*
Y3986750D01*
X2707440D01*
Y4065050D01*
X2656529D01*
X2655440Y4070527D01*
Y4077698D01*
X2655898Y4080000D01*
Y4150000D01*
X2655440Y4152302D01*
Y4166240D01*
X2662910D01*
X2679544Y4170697D01*
X2694457Y4179307D01*
X2706633Y4191483D01*
X2715243Y4206396D01*
X2719700Y4223030D01*
Y4240250D01*
X2715243Y4256884D01*
X2706633Y4271797D01*
X2694457Y4283973D01*
X2679544Y4292583D01*
X2673267Y4294265D01*
X2662986Y4297496D01*
X2664875Y4308926D01*
X2666360Y4314470D01*
Y4331690D01*
X2661903Y4348324D01*
X2653293Y4363237D01*
X2641117Y4375413D01*
X2626204Y4384023D01*
X2609570Y4388480D01*
D02*
G37*
G36*
X3109322Y4002600D02*
X3088278D01*
X3068835Y3994546D01*
X3053954Y3979665D01*
X3045900Y3960222D01*
Y3939178D01*
X3053954Y3919735D01*
X3068835Y3904854D01*
X3088278Y3896800D01*
X3109322D01*
X3128765Y3904854D01*
X3143646Y3919735D01*
X3151700Y3939178D01*
Y3960222D01*
X3143646Y3979665D01*
X3128765Y3994546D01*
X3109322Y4002600D01*
D02*
G37*
G36*
X2903191Y3710765D02*
X2885970D01*
X2869337Y3706308D01*
X2862937Y3702613D01*
X2857344Y3705843D01*
X2840710Y3710300D01*
X2823490D01*
X2806856Y3705843D01*
X2791943Y3697233D01*
X2779767Y3685057D01*
X2771157Y3670144D01*
X2766700Y3653510D01*
Y3636290D01*
X2771157Y3619656D01*
X2779767Y3604743D01*
X2791943Y3592567D01*
X2806856Y3583957D01*
X2823490Y3579500D01*
X2832067D01*
Y3569679D01*
X2836524Y3553045D01*
X2845134Y3538132D01*
X2857310Y3525956D01*
X2872223Y3517346D01*
X2888857Y3512889D01*
X2906077D01*
X2922710Y3517346D01*
X2937328Y3525785D01*
X2946556Y3520457D01*
X2963190Y3516000D01*
X2980410D01*
X2997044Y3520457D01*
X3011957Y3529067D01*
X3024133Y3541243D01*
X3032743Y3556156D01*
X3037200Y3572790D01*
Y3590010D01*
X3032743Y3606644D01*
X3028987Y3613150D01*
X3032743Y3619656D01*
X3037200Y3636290D01*
Y3653510D01*
X3032743Y3670144D01*
X3024133Y3685057D01*
X3011957Y3697233D01*
X2997044Y3705843D01*
X2980410Y3710300D01*
X2963190D01*
X2946556Y3705843D01*
X2933593Y3698359D01*
X2919824Y3706308D01*
X2903191Y3710765D01*
D02*
G37*
G36*
X2476862Y3715580D02*
X2455818D01*
X2436375Y3707526D01*
X2421494Y3692645D01*
X2413440Y3673202D01*
Y3652158D01*
X2421494Y3632715D01*
X2436375Y3617834D01*
X2455818Y3609780D01*
X2476862D01*
X2496305Y3617834D01*
X2511186Y3632715D01*
X2519240Y3652158D01*
Y3673202D01*
X2511186Y3692645D01*
X2496305Y3707526D01*
X2476862Y3715580D01*
D02*
G37*
G36*
X2621220Y3439520D02*
X2490420D01*
Y3238720D01*
X2621220D01*
Y3439520D01*
D02*
G37*
G36*
X2171342Y3099744D02*
X2150297D01*
X2130855Y3091691D01*
X2115974Y3076810D01*
X2107920Y3057367D01*
Y3036322D01*
X2115974Y3016879D01*
X2130855Y3001998D01*
X2150297Y2993944D01*
X2171342D01*
X2190785Y3001998D01*
X2205666Y3016879D01*
X2213720Y3036322D01*
Y3057367D01*
X2205666Y3076810D01*
X2190785Y3091691D01*
X2171342Y3099744D01*
D02*
G37*
G36*
X2590417Y3073705D02*
X2569372D01*
X2549929Y3065651D01*
X2535048Y3050771D01*
X2526995Y3031328D01*
Y3010283D01*
X2535048Y2990840D01*
X2549929Y2975959D01*
X2569372Y2967905D01*
X2590417D01*
X2609860Y2975959D01*
X2624741Y2990840D01*
X2632794Y3010283D01*
Y3031328D01*
X2624741Y3050771D01*
X2609860Y3065651D01*
X2590417Y3073705D01*
D02*
G37*
G36*
X2377802Y3070420D02*
X2356758D01*
X2337315Y3062366D01*
X2322434Y3047485D01*
X2314380Y3028042D01*
Y3006998D01*
X2322434Y2987555D01*
X2337315Y2972674D01*
X2356758Y2964620D01*
X2377802D01*
X2397245Y2972674D01*
X2412126Y2987555D01*
X2420180Y3006998D01*
Y3028042D01*
X2412126Y3047485D01*
X2397245Y3062366D01*
X2377802Y3070420D01*
D02*
G37*
G36*
X1752962Y3067880D02*
X1731918D01*
X1712475Y3059826D01*
X1697594Y3044945D01*
X1689540Y3025502D01*
Y3004458D01*
X1697594Y2985015D01*
X1712475Y2970134D01*
X1731918Y2962080D01*
X1752962D01*
X1772405Y2970134D01*
X1787286Y2985015D01*
X1795340Y3004458D01*
Y3025502D01*
X1787286Y3044945D01*
X1772405Y3059826D01*
X1752962Y3067880D01*
D02*
G37*
G36*
X3130390Y2728132D02*
X3109345D01*
X3089902Y2720079D01*
X3075021Y2705198D01*
X3066967Y2685755D01*
Y2664710D01*
X3075021Y2645267D01*
X3089902Y2630386D01*
X3109345Y2622333D01*
X3130390D01*
X3149833Y2630386D01*
X3164714Y2645267D01*
X3172767Y2664710D01*
Y2685755D01*
X3164714Y2705198D01*
X3149833Y2720079D01*
X3130390Y2728132D01*
D02*
G37*
G36*
X3287122Y2679260D02*
X3266078D01*
X3246635Y2671206D01*
X3231754Y2656325D01*
X3223700Y2636882D01*
Y2615838D01*
X3231754Y2596395D01*
X3246635Y2581514D01*
X3266078Y2573460D01*
X3287122D01*
X3306565Y2581514D01*
X3321446Y2596395D01*
X3329500Y2615838D01*
Y2636882D01*
X3321446Y2656325D01*
X3306565Y2671206D01*
X3287122Y2679260D01*
D02*
G37*
G36*
X1961242Y2646240D02*
X1940198D01*
X1920755Y2638186D01*
X1905874Y2623305D01*
X1897820Y2603862D01*
Y2582818D01*
X1905874Y2563375D01*
X1920755Y2548494D01*
X1940198Y2540440D01*
X1961242D01*
X1980685Y2548494D01*
X1995566Y2563375D01*
X2003620Y2582818D01*
Y2603862D01*
X1995566Y2623305D01*
X1980685Y2638186D01*
X1961242Y2646240D01*
D02*
G37*
G36*
X1962237Y2460740D02*
X1939203D01*
X1917922Y2451925D01*
X1901635Y2435638D01*
X1892820Y2414357D01*
Y2391323D01*
X1901635Y2370042D01*
X1917922Y2353755D01*
X1939203Y2344940D01*
X1962237D01*
X1983518Y2353755D01*
X1999805Y2370042D01*
X2008620Y2391323D01*
Y2414357D01*
X1999805Y2435638D01*
X1983518Y2451925D01*
X1962237Y2460740D01*
D02*
G37*
G36*
X1758147Y2239717D02*
X1737102D01*
X1717659Y2231663D01*
X1702778Y2216782D01*
X1694724Y2197340D01*
Y2176295D01*
X1702778Y2156852D01*
X1717659Y2141971D01*
X1737102Y2133917D01*
X1758147D01*
X1777590Y2141971D01*
X1792470Y2156852D01*
X1800524Y2176295D01*
Y2197340D01*
X1792470Y2216782D01*
X1777590Y2231663D01*
X1758147Y2239717D01*
D02*
G37*
G36*
X2177142Y2224600D02*
X2156098D01*
X2136655Y2216546D01*
X2121774Y2201665D01*
X2113720Y2182222D01*
Y2161178D01*
X2121774Y2141735D01*
X2136655Y2126854D01*
X2156098Y2118800D01*
X2177142D01*
X2196585Y2126854D01*
X2211466Y2141735D01*
X2219520Y2161178D01*
Y2182222D01*
X2211466Y2201665D01*
X2196585Y2216546D01*
X2177142Y2224600D01*
D02*
G37*
G36*
X1961242D02*
X1940198D01*
X1920755Y2216546D01*
X1905874Y2201665D01*
X1897820Y2182222D01*
Y2161178D01*
X1905874Y2141735D01*
X1920755Y2126854D01*
X1940198Y2118800D01*
X1961242D01*
X1980685Y2126854D01*
X1995566Y2141735D01*
X2003620Y2161178D01*
Y2182222D01*
X1995566Y2201665D01*
X1980685Y2216546D01*
X1961242Y2224600D01*
D02*
G37*
G36*
X2379649Y2244520D02*
X2361112D01*
X2343207Y2239722D01*
X2327153Y2230454D01*
X2314046Y2217347D01*
X2304778Y2201294D01*
X2299980Y2183389D01*
Y2164852D01*
X2304778Y2146947D01*
X2314046Y2130893D01*
X2327153Y2117786D01*
X2343207Y2108518D01*
X2361112Y2103720D01*
X2379649D01*
X2397553Y2108518D01*
X2413607Y2117786D01*
X2426714Y2130893D01*
X2435982Y2146947D01*
X2440780Y2164852D01*
Y2183389D01*
X2435982Y2201294D01*
X2426714Y2217347D01*
X2413607Y2230454D01*
X2397553Y2239722D01*
X2379649Y2244520D01*
D02*
G37*
G36*
X393512Y1698660D02*
X368488D01*
X345370Y1689084D01*
X338335Y1682049D01*
X332300D01*
X314586Y1678526D01*
X299568Y1668492D01*
X299568Y1668491D01*
X208568Y1577492D01*
X198534Y1562474D01*
X195010Y1544760D01*
X195011Y1544759D01*
Y1419060D01*
X198534Y1401346D01*
X199900Y1399301D01*
Y1368160D01*
X282700D01*
Y1399301D01*
X284066Y1401346D01*
X287589Y1419060D01*
Y1525586D01*
X344905Y1582901D01*
X345370Y1582436D01*
X368488Y1572860D01*
X393512D01*
X416630Y1582436D01*
X434324Y1600130D01*
X443900Y1623248D01*
Y1648272D01*
X434324Y1671390D01*
X416630Y1689084D01*
X393512Y1698660D01*
D02*
G37*
G36*
X391522Y1391480D02*
X370478D01*
X351035Y1383426D01*
X336154Y1368545D01*
X328100Y1349102D01*
Y1328058D01*
X336154Y1308615D01*
X348692Y1296077D01*
X350773Y1291084D01*
X349734Y1280526D01*
X338694Y1269485D01*
X330640Y1250042D01*
Y1228998D01*
X338694Y1209555D01*
X353575Y1194674D01*
X373018Y1186620D01*
X394062D01*
X413505Y1194674D01*
X428386Y1209555D01*
X436440Y1228998D01*
Y1250042D01*
X428386Y1269485D01*
X415848Y1282023D01*
X413767Y1287016D01*
X414806Y1297574D01*
X425846Y1308615D01*
X433900Y1328058D01*
Y1349102D01*
X425846Y1368545D01*
X410965Y1383426D01*
X391522Y1391480D01*
D02*
G37*
G36*
X2267328Y1144820D02*
X2248792D01*
X2230887Y1140022D01*
X2214833Y1130754D01*
X2201726Y1117647D01*
X2192458Y1101593D01*
X2187660Y1083688D01*
Y1065152D01*
X2192458Y1047247D01*
X2201726Y1031193D01*
X2214833Y1018086D01*
X2230887Y1008818D01*
X2248792Y1004020D01*
X2267328D01*
X2285233Y1008818D01*
X2301287Y1018086D01*
X2314394Y1031193D01*
X2323662Y1047247D01*
X2328460Y1065152D01*
Y1083688D01*
X2323662Y1101593D01*
X2314394Y1117647D01*
X2301287Y1130754D01*
X2285233Y1140022D01*
X2267328Y1144820D01*
D02*
G37*
G36*
X692100Y1098440D02*
X476300D01*
Y1097025D01*
X353920D01*
X332304Y1092726D01*
X313979Y1080481D01*
X301734Y1062156D01*
X297435Y1040540D01*
X301734Y1018924D01*
X307691Y1010009D01*
X304004Y997856D01*
X302775Y997346D01*
X287894Y982465D01*
X279840Y963022D01*
Y941978D01*
X287894Y922535D01*
X293351Y917078D01*
X293780Y916367D01*
X293879Y916155D01*
X293927Y916090D01*
X293939Y916044D01*
X293995Y915763D01*
X294098Y914765D01*
Y843280D01*
X297039Y828492D01*
X305416Y815956D01*
X356216Y765156D01*
X368752Y756779D01*
X383540Y753838D01*
X589280D01*
X604068Y756779D01*
X616604Y765156D01*
X658809Y807360D01*
X714335D01*
X729123Y810302D01*
X741659Y818678D01*
X756304Y833323D01*
X756304Y833323D01*
X764681Y845860D01*
X767622Y860648D01*
Y1025895D01*
X764681Y1040683D01*
X756304Y1053219D01*
X756304Y1053220D01*
X741659Y1067864D01*
X729123Y1076241D01*
X714335Y1079182D01*
X692100D01*
Y1098440D01*
D02*
G37*
G36*
X1777108Y713020D02*
X1758572D01*
X1740667Y708222D01*
X1724613Y698954D01*
X1711506Y685847D01*
X1702238Y669793D01*
X1697440Y651888D01*
Y633352D01*
X1702238Y615447D01*
X1711506Y599393D01*
X1724613Y586286D01*
X1740667Y577018D01*
X1758572Y572220D01*
X1777108D01*
X1795013Y577018D01*
X1811067Y586286D01*
X1824174Y599393D01*
X1833442Y615447D01*
X1838240Y633352D01*
Y651888D01*
X1833442Y669793D01*
X1824174Y685847D01*
X1811067Y698954D01*
X1795013Y708222D01*
X1777108Y713020D01*
D02*
G37*
%LPD*%
G36*
X2630000Y4150000D02*
Y4080000D01*
X2557523D01*
X2550522Y4082900D01*
X2529478D01*
X2522477Y4080000D01*
X2510000D01*
X2432600Y4002600D01*
X2410260D01*
Y3980260D01*
X2410000Y3980000D01*
Y3920000D01*
X2280000D01*
X2220000Y3980000D01*
Y4110000D01*
X2280000Y4170000D01*
X2610000D01*
X2630000Y4150000D01*
D02*
G37*
G36*
X2161169Y3916389D02*
X2161431Y3913903D01*
X2161886Y3911486D01*
X2162533Y3909138D01*
X2163372Y3906860D01*
X2164404Y3904651D01*
X2165628Y3902512D01*
X2167044Y3900442D01*
X2168652Y3898441D01*
X2170452Y3896510D01*
X2156310Y3882368D01*
X2154379Y3884168D01*
X2152378Y3885776D01*
X2150308Y3887192D01*
X2148169Y3888416D01*
X2145960Y3889448D01*
X2143682Y3890287D01*
X2141334Y3890934D01*
X2138917Y3891389D01*
X2136431Y3891651D01*
X2133875Y3891721D01*
X2161099Y3918945D01*
X2161169Y3916389D01*
D02*
G37*
G36*
X3128773Y3795184D02*
X3129072Y3793310D01*
X3129582Y3791410D01*
X3130305Y3789484D01*
X3131238Y3787531D01*
X3132384Y3785552D01*
X3133741Y3783546D01*
X3135309Y3781515D01*
X3137090Y3779456D01*
X3139082Y3777372D01*
X3121121Y3759412D01*
X3119037Y3761403D01*
X3114947Y3764752D01*
X3112941Y3766109D01*
X3110962Y3767255D01*
X3109009Y3768189D01*
X3107083Y3768911D01*
X3105183Y3769421D01*
X3103309Y3769721D01*
X3101462Y3769808D01*
X3128685Y3797032D01*
X3128773Y3795184D01*
D02*
G37*
G36*
X2609577Y3739478D02*
X2609855Y3736926D01*
X2610318Y3734461D01*
X2610965Y3732083D01*
X2611797Y3729792D01*
X2612815Y3727587D01*
X2614017Y3725470D01*
X2615405Y3723439D01*
X2616977Y3721496D01*
X2618735Y3719639D01*
X2580235D01*
X2581993Y3721496D01*
X2583565Y3723439D01*
X2584953Y3725470D01*
X2586155Y3727587D01*
X2587173Y3729792D01*
X2588005Y3732083D01*
X2588652Y3734461D01*
X2589115Y3736926D01*
X2589393Y3739478D01*
X2589485Y3742117D01*
X2609485D01*
X2609577Y3739478D01*
D02*
G37*
G36*
X2824864Y3429213D02*
X2823350Y3428104D01*
X2821995Y3426799D01*
X2820801Y3425297D01*
X2819765Y3423599D01*
X2818888Y3421704D01*
X2818171Y3419613D01*
X2817614Y3417325D01*
X2817215Y3414840D01*
X2816976Y3412159D01*
X2816897Y3409281D01*
X2791897Y3415357D01*
X2791850Y3418244D01*
X2791475Y3423552D01*
X2791147Y3425974D01*
X2790210Y3430352D01*
X2789601Y3432309D01*
X2788898Y3434110D01*
X2788102Y3435757D01*
X2787212Y3437249D01*
X2824864Y3429213D01*
D02*
G37*
G36*
X2049856Y1640840D02*
X2051210Y1630551D01*
Y1620455D01*
X2050105Y1614901D01*
X2051210Y1609346D01*
Y1558501D01*
X2102055D01*
X2107610Y1557396D01*
X2158236D01*
Y1513878D01*
X2159145Y1509307D01*
Y1472768D01*
X2122895Y1436518D01*
X2118913Y1436499D01*
X2109390Y1439388D01*
X2108827Y1439821D01*
X2101405Y1457738D01*
X2085118Y1474025D01*
X2063837Y1482840D01*
X2063488D01*
X2006806Y1539521D01*
X1990962Y1550108D01*
X1972272Y1553826D01*
X1970811D01*
X1963288Y1563410D01*
Y1669210D01*
X1948406D01*
Y1672043D01*
X1945270Y1687806D01*
X1936341Y1701169D01*
X1915473Y1722037D01*
X1902110Y1730966D01*
X1886347Y1734101D01*
X1834709D01*
X1834395Y1736020D01*
X1845187Y1748720D01*
X2049856D01*
Y1640840D01*
D02*
G37*
G36*
X3152187Y1681918D02*
X3170092Y1677120D01*
X3188629D01*
X3206534Y1681918D01*
X3210914Y1684446D01*
X3223614Y1677114D01*
Y1503091D01*
X3146840Y1426317D01*
X3135107Y1431177D01*
Y1677114D01*
X3147807Y1684446D01*
X3152187Y1681918D01*
D02*
G37*
G36*
X2051995Y1457439D02*
X2019821Y1425265D01*
X2019684Y1425469D01*
X2019271Y1425943D01*
X2011001Y1434425D01*
X2006038Y1439402D01*
X2037858Y1471222D01*
X2051995Y1457439D01*
D02*
G37*
G36*
X1541229Y1745900D02*
Y1709420D01*
X1544364Y1693657D01*
X1553293Y1680293D01*
X1572551Y1661036D01*
Y1559985D01*
X1577593Y1559255D01*
Y1453456D01*
X1578303D01*
Y1419976D01*
X1565603Y1417450D01*
X1563766Y1421885D01*
X1548885Y1436766D01*
X1529442Y1444820D01*
X1508398D01*
X1488955Y1436766D01*
X1474074Y1421885D01*
X1467449Y1405893D01*
X1454287Y1406464D01*
X1446901Y1424294D01*
X1430614Y1440581D01*
X1424723Y1443021D01*
X1422246Y1455477D01*
X1443460Y1476692D01*
X1443461Y1476692D01*
X1450791Y1487663D01*
X1453365Y1500604D01*
Y1519749D01*
X1509522D01*
Y1604749D01*
Y1715549D01*
X1453365D01*
Y1748720D01*
X1538914D01*
X1541229Y1745900D01*
D02*
G37*
G36*
X2918184Y1400734D02*
X2917980Y1400597D01*
X2917506Y1400184D01*
X2909024Y1391914D01*
X2904047Y1386951D01*
X2872227Y1418771D01*
X2886010Y1432907D01*
X2918184Y1400734D01*
D02*
G37*
G36*
X1686563Y1311963D02*
X1684449Y1309788D01*
X1679448Y1303886D01*
X1678229Y1302126D01*
X1677233Y1300469D01*
X1676462Y1298916D01*
X1675914Y1297467D01*
X1675590Y1296121D01*
X1675490Y1294879D01*
X1648267Y1322103D01*
X1649509Y1322203D01*
X1650854Y1322527D01*
X1652304Y1323074D01*
X1653856Y1323846D01*
X1655513Y1324841D01*
X1657273Y1326061D01*
X1659137Y1327504D01*
X1663175Y1331061D01*
X1665350Y1333176D01*
X1686563Y1311963D01*
D02*
G37*
G36*
X1685140Y1240348D02*
Y1222900D01*
X1819940D01*
Y1230109D01*
X1824094D01*
X1839857Y1233244D01*
X1851118Y1240769D01*
X1858441Y1238546D01*
X1863818Y1234810D01*
Y1188280D01*
X1852820D01*
Y1082480D01*
X1841934Y1078100D01*
X1712140D01*
Y1078100D01*
X1702108Y1073945D01*
X1621071Y1154982D01*
Y1237067D01*
X1631631Y1244122D01*
X1637469Y1241704D01*
X1658514D01*
X1672440Y1247473D01*
X1685140Y1240348D01*
D02*
G37*
G36*
X1341138Y1405964D02*
X1339916Y1403013D01*
Y1379979D01*
X1348731Y1358698D01*
X1365018Y1342411D01*
X1386299Y1333596D01*
X1409333D01*
X1430614Y1342411D01*
X1446901Y1358698D01*
X1454289Y1376533D01*
X1466972Y1377896D01*
X1467512Y1377796D01*
X1474074Y1361955D01*
X1488955Y1347074D01*
X1508398Y1339020D01*
X1529442D01*
X1538689Y1332842D01*
Y1240411D01*
X1526955Y1235550D01*
X1525944Y1236562D01*
X1509890Y1245830D01*
X1491985Y1250628D01*
X1473448D01*
X1455543Y1245830D01*
X1439490Y1236562D01*
X1426383Y1223455D01*
X1417115Y1207401D01*
X1412317Y1189496D01*
Y1170960D01*
X1417115Y1153055D01*
X1426383Y1137001D01*
X1439490Y1123894D01*
X1455543Y1114626D01*
X1473448Y1109828D01*
X1491985D01*
X1509890Y1114626D01*
X1525944Y1123894D01*
X1529376Y1127326D01*
X1541529Y1123640D01*
X1541824Y1122157D01*
X1550753Y1108793D01*
X1668473Y991073D01*
X1681837Y982144D01*
X1697600Y979009D01*
X1712140D01*
Y962300D01*
X1783849D01*
Y947175D01*
X1786984Y931412D01*
X1795913Y918049D01*
X1816129Y897833D01*
X1811268Y886100D01*
X1712140D01*
Y873121D01*
X1402242D01*
X1400894Y873385D01*
X1399725Y873721D01*
X1398757Y874099D01*
X1397924Y874518D01*
X1397165Y874997D01*
X1396421Y875573D01*
X1395650Y876297D01*
X1394082Y878064D01*
X1392690Y879120D01*
X1383817Y887993D01*
X1368904Y896603D01*
X1352270Y901060D01*
X1335050D01*
X1318416Y896603D01*
X1303503Y887993D01*
X1291327Y875817D01*
X1282717Y860904D01*
X1278260Y844270D01*
Y827050D01*
X1282717Y810416D01*
X1291327Y795503D01*
X1292684Y794147D01*
X1292943Y790319D01*
Y767900D01*
X1211743D01*
Y807567D01*
X1217602D01*
Y878366D01*
X1217603D01*
Y879567D01*
X1217602D01*
Y949363D01*
X1248699Y980460D01*
X1256029Y991430D01*
X1258603Y1004371D01*
X1258603Y1004373D01*
Y1061000D01*
X1260770D01*
Y1180456D01*
X1261282Y1183033D01*
Y1274518D01*
X1261283Y1274519D01*
X1258709Y1287460D01*
X1251378Y1298431D01*
X1251377Y1298432D01*
X1216287Y1333523D01*
Y1358393D01*
X1216287Y1358394D01*
X1215928Y1360198D01*
X1272254Y1416524D01*
X1334083D01*
X1341138Y1405964D01*
D02*
G37*
G36*
X1183443Y1231991D02*
X1181672Y1230153D01*
X1180087Y1228225D01*
X1178689Y1226209D01*
X1177476Y1224103D01*
X1176451Y1221908D01*
X1175612Y1219623D01*
X1174959Y1217250D01*
X1174493Y1214787D01*
X1174213Y1212235D01*
X1174120Y1209593D01*
X1154120Y1209796D01*
X1154028Y1212432D01*
X1153753Y1214984D01*
X1153294Y1217452D01*
X1152652Y1219834D01*
X1151826Y1222132D01*
X1150817Y1224346D01*
X1149624Y1226475D01*
X1148248Y1228519D01*
X1146688Y1230479D01*
X1144945Y1232354D01*
X1183443Y1231991D01*
D02*
G37*
G36*
X2072014Y1107380D02*
X2071681Y1107475D01*
X2070878Y1107560D01*
X2067862Y1107700D01*
X2047532Y1107880D01*
Y1162880D01*
X2072014Y1163380D01*
Y1107380D01*
D02*
G37*
G36*
X2102436Y948826D02*
X2101753Y948881D01*
X2100787Y948573D01*
X2099536Y947905D01*
X2098002Y946875D01*
X2096185Y945484D01*
X2091698Y941618D01*
X2082841Y933110D01*
X2044886Y972937D01*
X2081355Y1000707D01*
X2102436Y948826D01*
D02*
G37*
G36*
X903832Y806643D02*
X903228Y805833D01*
X902687Y804608D01*
X902210Y802970D01*
X901796Y800919D01*
X901446Y798454D01*
X900937Y792283D01*
X900650Y779926D01*
X850650Y780966D01*
X850622Y785505D01*
X849638Y801933D01*
X849273Y803965D01*
X848851Y805579D01*
X848374Y806775D01*
X847840Y807553D01*
X903832Y806643D01*
D02*
G37*
G36*
X1377064Y858225D02*
X1379589Y855854D01*
X1382287Y853763D01*
X1385160Y851950D01*
X1388206Y850416D01*
X1391425Y849161D01*
X1394818Y848185D01*
X1398385Y847488D01*
X1402125Y847069D01*
X1406040Y846930D01*
X1403004Y816930D01*
X1399150Y816812D01*
X1395408Y816458D01*
X1391778Y815867D01*
X1388259Y815040D01*
X1384852Y813977D01*
X1381556Y812678D01*
X1378372Y811142D01*
X1375300Y809370D01*
X1372339Y807362D01*
X1371597Y806778D01*
X1371125Y805595D01*
X1370704Y803981D01*
X1370340Y801950D01*
X1369779Y796633D01*
X1369443Y789644D01*
X1369330Y780983D01*
X1319330Y779910D01*
X1319298Y784443D01*
X1318183Y800904D01*
X1317768Y802955D01*
X1317290Y804593D01*
X1316748Y805818D01*
X1316143Y806629D01*
X1369716Y807527D01*
X1374712Y860874D01*
X1377064Y858225D01*
D02*
G37*
G36*
X2141901Y740210D02*
X2140952Y741018D01*
X2139772Y741740D01*
X2138359Y742377D01*
X2136716Y742930D01*
X2134841Y743398D01*
X2132734Y743780D01*
X2130396Y744078D01*
X2125024Y744418D01*
X2121991Y744460D01*
Y774460D01*
X2125024Y774502D01*
X2132734Y775140D01*
X2134841Y775522D01*
X2136716Y775990D01*
X2138359Y776543D01*
X2139772Y777180D01*
X2140952Y777902D01*
X2141901Y778710D01*
Y740210D01*
D02*
G37*
G36*
X1018650Y488593D02*
X1019076Y483278D01*
X1019449Y480982D01*
X1019928Y478927D01*
X1020513Y477113D01*
X1021205Y475540D01*
X1022004Y474209D01*
X1022909Y473118D01*
X1023920Y472268D01*
X986007Y465571D01*
X986499Y466419D01*
X986940Y467515D01*
X987328Y468858D01*
X987665Y470448D01*
X987950Y472285D01*
X988364Y476702D01*
X988571Y482107D01*
X988597Y485181D01*
X1018597Y491612D01*
X1018650Y488593D01*
D02*
G37*
G36*
X1369116Y493657D02*
X1375019Y488656D01*
X1376779Y487437D01*
X1378435Y486442D01*
X1379988Y485670D01*
X1381437Y485122D01*
X1382783Y484799D01*
X1384025Y484699D01*
X1356801Y457475D01*
X1356701Y458717D01*
X1356378Y460063D01*
X1355830Y461512D01*
X1355058Y463065D01*
X1354063Y464721D01*
X1352844Y466481D01*
X1351401Y468345D01*
X1347843Y472384D01*
X1345728Y474559D01*
X1366941Y495772D01*
X1369116Y493657D01*
D02*
G37*
G36*
X902299Y472526D02*
X898935Y469016D01*
X893424Y462334D01*
X891277Y459162D01*
X889535Y456103D01*
X888199Y453157D01*
X887269Y450324D01*
X886745Y447604D01*
X886626Y444997D01*
X886913Y442502D01*
X834817Y477929D01*
X836812Y478436D01*
X838979Y479271D01*
X841315Y480433D01*
X843823Y481923D01*
X846500Y483739D01*
X852368Y488354D01*
X855558Y491152D01*
X862449Y497730D01*
X902299Y472526D01*
D02*
G37*
G36*
X2003855Y429535D02*
X2001863Y427450D01*
X1998514Y423360D01*
X1997157Y421355D01*
X1996012Y419376D01*
X1995078Y417423D01*
X1994356Y415497D01*
X1993845Y413596D01*
X1993546Y411723D01*
X1993459Y409875D01*
X1966235Y437099D01*
X1968082Y437186D01*
X1969956Y437485D01*
X1971856Y437996D01*
X1973783Y438718D01*
X1975735Y439652D01*
X1977715Y440797D01*
X1979720Y442155D01*
X1981752Y443723D01*
X1983810Y445503D01*
X1985894Y447495D01*
X2003855Y429535D01*
D02*
G37*
G36*
X2202246Y413929D02*
X2202770Y408669D01*
X2203228Y406292D01*
X2203818Y404082D01*
X2204538Y402041D01*
X2205390Y400168D01*
X2206372Y398464D01*
X2207486Y396927D01*
X2208730Y395559D01*
X2170230D01*
X2171474Y396927D01*
X2172588Y398464D01*
X2173570Y400168D01*
X2174422Y402041D01*
X2175142Y404082D01*
X2175732Y406292D01*
X2176190Y408669D01*
X2176518Y411215D01*
X2176714Y413929D01*
X2176780Y416812D01*
X2202180D01*
X2202246Y413929D01*
D02*
G37*
G36*
X1984454Y389248D02*
X1983156Y387920D01*
X1981994Y386419D01*
X1980969Y384745D01*
X1980081Y382899D01*
X1979329Y380880D01*
X1978714Y378688D01*
X1978236Y376324D01*
X1977894Y373787D01*
X1977689Y371077D01*
X1977621Y368195D01*
X1952221Y369278D01*
X1952158Y372162D01*
X1951659Y377434D01*
X1951223Y379824D01*
X1950661Y382049D01*
X1949975Y384109D01*
X1949164Y386004D01*
X1948228Y387735D01*
X1947167Y389301D01*
X1945982Y390703D01*
X1984454Y389248D01*
D02*
G37*
G36*
X2172182Y354542D02*
X2170738Y355590D01*
X2169133Y356529D01*
X2167367Y357357D01*
X2165441Y358074D01*
X2163354Y358681D01*
X2161107Y359178D01*
X2158700Y359564D01*
X2153403Y360006D01*
X2150513Y360061D01*
X2147188Y385461D01*
X2150073Y385534D01*
X2152774Y385754D01*
X2155291Y386121D01*
X2157624Y386633D01*
X2159773Y387293D01*
X2161738Y388099D01*
X2163519Y389051D01*
X2165117Y390150D01*
X2166530Y391395D01*
X2167760Y392787D01*
X2172182Y354542D01*
D02*
G37*
G36*
X350707Y931457D02*
X349560Y929890D01*
X348547Y928160D01*
X347670Y926268D01*
X346927Y924214D01*
X346320Y921997D01*
X345847Y919618D01*
X345510Y917076D01*
X345307Y914372D01*
X345240Y911505D01*
X320240D01*
X320173Y914372D01*
X319633Y919618D01*
X319160Y921997D01*
X318553Y924214D01*
X317810Y926268D01*
X316933Y928160D01*
X315920Y929890D01*
X314773Y931457D01*
X313490Y932861D01*
X351990D01*
X350707Y931457D01*
D02*
G37*
G36*
X476300Y982640D02*
X478195D01*
X478789Y979652D01*
X485122Y970174D01*
Y948924D01*
X485962Y944700D01*
Y879024D01*
X598762D01*
Y982640D01*
X690338D01*
Y884645D01*
X642804D01*
X642803Y884645D01*
X628015Y881704D01*
X615478Y873327D01*
X615478Y873326D01*
X573274Y831122D01*
X399547D01*
X371382Y859287D01*
Y915174D01*
X371411Y915390D01*
X371541Y916044D01*
X371553Y916090D01*
X371601Y916155D01*
X371700Y916367D01*
X372129Y917078D01*
X377586Y922535D01*
X385640Y941978D01*
Y963022D01*
X382188Y971354D01*
X390674Y984055D01*
X476300D01*
Y982640D01*
D02*
G37*
D15*
X2691040Y4115100D02*
D03*
X1790740Y4021680D02*
D03*
X2307937Y1614901D02*
D03*
X2307545Y1513683D02*
D03*
X2015610Y1614901D02*
D03*
X1720951Y1616385D02*
D03*
X635200Y1575540D02*
D03*
Y1465540D02*
D03*
X635200Y1355540D02*
D03*
X634362Y935424D02*
D03*
X1698740Y4021680D02*
D03*
X542362Y935424D02*
D03*
X543200Y1355540D02*
D03*
X543200Y1465540D02*
D03*
Y1575540D02*
D03*
X2215937Y1614901D02*
D03*
X2107610D02*
D03*
X2215545Y1513683D02*
D03*
X1628951Y1616385D02*
D03*
X2599040Y4115100D02*
D03*
D16*
X733624Y2374172D02*
D03*
X731188Y2006233D02*
D03*
X1798320Y3916000D02*
D03*
Y3831000D02*
D03*
X1699260Y3916000D02*
D03*
Y3831000D02*
D03*
X622267Y2722492D02*
D03*
Y2637492D02*
D03*
X246508Y2420142D02*
D03*
Y2505143D02*
D03*
X731188Y2091233D02*
D03*
X733624Y2459172D02*
D03*
X730915Y2720460D02*
D03*
Y2635460D02*
D03*
X1456622Y1660149D02*
D03*
Y1575149D02*
D03*
X1346622D02*
D03*
Y1660149D02*
D03*
D20*
X649200Y1250540D02*
D03*
X519200Y1040540D02*
D03*
X584200D02*
D03*
X649200D02*
D03*
X584200Y1250540D02*
D03*
X519200D02*
D03*
D21*
X584200Y1145540D02*
D03*
D22*
X2815040Y4001100D02*
D03*
X982213Y4213511D02*
D03*
Y4121511D02*
D03*
X2815040Y3909100D02*
D03*
D26*
X1717993Y1506355D02*
D03*
X1368988Y4241701D02*
D03*
X1368848Y4142850D02*
D03*
X1283848D02*
D03*
X1283988Y4241701D02*
D03*
X1718703Y1401256D02*
D03*
X1633703D02*
D03*
X1632993Y1506355D02*
D03*
X382500Y1770000D02*
D03*
X297500D02*
D03*
X1993220Y1135380D02*
D03*
X1908220D02*
D03*
X1908707Y1400638D02*
D03*
X1823707D02*
D03*
X1822888Y1616310D02*
D03*
X1907888D02*
D03*
X1823237Y1504988D02*
D03*
X1908237D02*
D03*
X2380660Y3949700D02*
D03*
X2465660D02*
D03*
X2683385Y3787020D02*
D03*
X2598385D02*
D03*
D33*
X602190Y2322653D02*
D03*
X596885Y1966060D02*
D03*
X2007540Y924200D02*
D03*
X1797540Y1020200D02*
D03*
Y828200D02*
D03*
X386885Y2062060D02*
D03*
X596885Y2158060D02*
D03*
X392190Y2418653D02*
D03*
X602190Y2514653D02*
D03*
D34*
X1963882Y225058D02*
D03*
X2075369Y224251D02*
D03*
X241300Y1319060D02*
D03*
X2075369Y324251D02*
D03*
X1963882Y325058D02*
D03*
X241300Y1419060D02*
D03*
D36*
X1752540Y1271300D02*
D03*
X1982540D02*
D03*
D39*
X150000Y2540000D02*
Y2660000D01*
X184857Y2505143D02*
X246508D01*
X150000Y2540000D02*
X184857Y2505143D01*
X380000Y1772500D02*
X382500Y1770000D01*
X380000Y1772500D02*
Y2055175D01*
X386885Y2062060D01*
X150000Y1790000D02*
Y1900000D01*
X170000Y1770000D02*
X297500D01*
X150000Y1790000D02*
X170000Y1770000D01*
X2607487Y4068792D02*
Y4106653D01*
X2599040Y4115100D02*
X2607487Y4106653D01*
X1675000Y1745900D02*
Y1849120D01*
X615862Y890862D02*
Y916925D01*
X634362Y935424D01*
X591237Y866237D02*
X615862Y890862D01*
X443026Y866237D02*
X591237D01*
X781329Y2831718D02*
X793331Y2843720D01*
X847509D01*
X714455Y2831718D02*
X781329D01*
X2804397Y2747753D02*
X2847050Y2705100D01*
X2804397Y2747753D02*
Y3446697D01*
X2810137Y3452437D01*
X734060Y3223260D02*
X805180Y3152140D01*
X977900D01*
X602190Y2514653D02*
X718767D01*
X381245Y2565155D02*
X431747Y2514653D01*
X602190D01*
X698231Y1900177D02*
X756456D01*
X692491Y1894437D02*
X698231Y1900177D01*
X756456D02*
X790399Y1934120D01*
X955820D01*
X589280Y792480D02*
X642803Y846003D01*
X383540Y792480D02*
X589280D01*
X332740Y843280D02*
X383540Y792480D01*
X642803Y846003D02*
X714335D01*
X649200Y1040540D02*
X714335D01*
X728980Y1025895D01*
Y860648D02*
Y1025895D01*
X714335Y846003D02*
X728980Y860648D01*
X332740Y843280D02*
Y952500D01*
X1925320Y1272540D02*
X1981301D01*
X1982540Y1271300D01*
X1902460Y1249680D02*
X1925320Y1272540D01*
X1902460Y1141140D02*
X1908220Y1135380D01*
X1902460Y1141140D02*
Y1249680D01*
X859540Y2071620D02*
X928320D01*
X955820Y2044120D01*
X812360Y2118800D02*
X859540Y2071620D01*
X811588Y2118800D02*
X812360D01*
X730915Y2635460D02*
X783862D01*
X852522Y2704120D01*
X955820D01*
X2847050Y2705100D02*
X2946800D01*
X381245Y2565155D02*
Y2646387D01*
X847509Y2843720D02*
X849610Y2841620D01*
X928320D02*
X955820Y2814120D01*
X849610Y2841620D02*
X928320D01*
X718767Y2514653D02*
X734060Y2499360D01*
X733624Y2459172D02*
X734060Y2459608D01*
Y2499360D01*
X246508Y2420142D02*
X247252Y2419398D01*
X391445D01*
X392190Y2418653D01*
X2752452Y3909100D02*
X2815040D01*
X2742952Y3899600D02*
X2752452Y3909100D01*
X2720740Y3899600D02*
X2742952D01*
X2619540Y4025900D02*
Y4056739D01*
X2607487Y4068792D02*
X2619540Y4056739D01*
X2678884Y3791521D02*
Y3837375D01*
Y3791521D02*
X2683385Y3787020D01*
X2669540Y3846719D02*
X2678884Y3837375D01*
X2669540Y3846719D02*
Y3872050D01*
X1790700Y1745900D02*
Y1852500D01*
X1582420Y1745900D02*
Y1852500D01*
D40*
X340360Y3416300D02*
X436880Y3512820D01*
X340360Y2791460D02*
X417933Y2713887D01*
X340360Y2791460D02*
Y3416300D01*
X2599485Y3700000D02*
Y3785920D01*
X2598385Y3787020D02*
X2599485Y3785920D01*
X2598385Y3787020D02*
X2607637Y3796272D01*
X850820Y2280840D02*
Y2426546D01*
X825838Y2255858D02*
X850820Y2280840D01*
X770909Y2255858D02*
X825838D01*
X925820Y2454120D02*
X955820Y2484120D01*
X850820Y2426546D02*
X878393Y2454120D01*
X925820D01*
X1038987Y878967D02*
X1113702D01*
X1038860Y878840D02*
X1038987Y878967D01*
X1244473D02*
X1244600Y878840D01*
X1205702Y878967D02*
X1244473D01*
X1164120Y1029500D02*
Y1104900D01*
X2133600Y3919220D02*
X2176780Y3876040D01*
X2438400D01*
X2465660Y3903300D02*
Y3949700D01*
X2438400Y3876040D02*
X2465660Y3903300D01*
X496245Y2663859D02*
X511245Y2648859D01*
X418671Y2713887D02*
X436245Y2696313D01*
Y2695576D02*
Y2696313D01*
X511245Y2646387D02*
Y2648859D01*
X467961Y2663859D02*
X496245D01*
X417933Y2713887D02*
X418671D01*
X436245Y2695576D02*
X467961Y2663859D01*
X1164120Y1251551D02*
X1164380Y1251811D01*
X1164120Y1172300D02*
Y1251551D01*
X436880Y3512820D02*
X546063D01*
X985000Y619760D02*
Y692500D01*
X2133600Y3919220D02*
X2143071D01*
X980440Y1559560D02*
X1031904Y1611024D01*
Y1804064D01*
X511245Y2646387D02*
X518579Y2639053D01*
X1285000Y609840D02*
Y692500D01*
X1097280Y1869440D02*
Y2329180D01*
X972820Y2357120D02*
X1069340D01*
X1097280Y2329180D01*
X1031904Y1804064D02*
X1097280Y1869440D01*
X955820Y2374120D02*
X972820Y2357120D01*
X969880Y3144120D02*
X977900Y3152140D01*
X955820Y3144120D02*
X969880D01*
X2945820Y2704120D02*
X2946800Y2705100D01*
X731188Y2091233D02*
X732624Y2092669D01*
Y2182964D02*
X734060Y2184400D01*
X732624Y2092669D02*
Y2182964D01*
X2481580Y3950380D02*
X2482360Y3949600D01*
X2568340D01*
X620706Y2639053D02*
X622267Y2637492D01*
X518579Y2639053D02*
X620706D01*
X643433Y2091233D02*
X731188D01*
X627390Y2107276D02*
X643433Y2091233D01*
X627390Y2107276D02*
Y2135560D01*
X596885Y2158060D02*
X604890D01*
X627390Y2135560D01*
X1424940Y4023360D02*
Y4089258D01*
Y4023360D02*
X1461216Y3987084D01*
X1501609D01*
X1368848Y4142850D02*
X1371348D01*
X1424940Y4089258D01*
X1277943Y4148755D02*
X1283848Y4142850D01*
X1190360Y4154660D02*
X1196265Y4148755D01*
X1277943D01*
X1282735Y4242953D02*
Y4287485D01*
Y4242953D02*
X1283988Y4241701D01*
X1245560Y4324660D02*
X1282735Y4287485D01*
X1190360Y4324660D02*
X1245560D01*
X1136560Y4329660D02*
X1141560Y4324660D01*
X1136560Y4329660D02*
Y4332160D01*
X1141560Y4324660D02*
X1190360D01*
X1084060Y4269660D02*
Y4323460D01*
X1136560Y4147160D02*
Y4217160D01*
X1084060Y4269660D02*
X1136560Y4217160D01*
X1082860Y4324660D02*
X1084060Y4323460D01*
X1264109Y3926578D02*
Y3954862D01*
X1183325Y4007362D02*
X1211609D01*
X1136560Y4054127D02*
Y4147160D01*
X1211609Y4007362D02*
X1264109Y3954862D01*
X1136560Y4054127D02*
X1183325Y4007362D01*
X2619498Y3873258D02*
X2619540Y3873300D01*
X2607637Y3796272D02*
Y3832804D01*
X2619498Y3844666D02*
Y3873258D01*
X2607637Y3832804D02*
X2619498Y3844666D01*
D41*
X2691040Y4115100D02*
X2707040Y4099100D01*
Y4064148D02*
X2721721Y4049466D01*
X2707040Y4064148D02*
Y4099100D01*
X2721721Y4028218D02*
Y4049466D01*
X1721601Y1617035D02*
Y1674811D01*
X1720951Y1616385D02*
X1721601Y1617035D01*
X1675000Y1721411D02*
Y1745900D01*
Y1721411D02*
X1721601Y1674811D01*
X1343660Y835660D02*
X1344330Y834990D01*
X1793810Y831930D02*
X1797540Y828200D01*
X1344330Y834990D02*
X1347390Y831930D01*
X1793810D01*
X2012755Y759460D02*
X2161540D01*
X1579880Y1137920D02*
X1697600Y1020200D01*
X1618703Y1388755D02*
X1631203Y1401256D01*
X1579880Y1137920D02*
Y1347432D01*
X1618703Y1386256D01*
Y1388755D01*
X1697600Y1020200D02*
X1825040D01*
X1718703Y1365316D02*
Y1401256D01*
X1647992Y1294604D02*
X1718703Y1365316D01*
X985000Y528840D02*
Y619760D01*
Y528840D02*
X1003597Y510243D01*
Y454363D02*
Y510243D01*
Y454363D02*
X1008380Y449580D01*
X876925Y628005D02*
Y690575D01*
X875000Y692500D02*
X876925Y690575D01*
X889500Y607440D02*
X897500Y599440D01*
X889500Y607440D02*
Y615430D01*
X876925Y628005D02*
X889500Y615430D01*
X1825040Y947175D02*
Y1020200D01*
Y947175D02*
X2012755Y759460D01*
X1824094Y1271300D02*
X1900500Y1347706D01*
X1752540Y1271300D02*
X1824094D01*
X1900500Y1394931D02*
X1906207Y1400638D01*
X1900500Y1347706D02*
Y1394931D01*
X1798320Y3916000D02*
X1800311Y3914009D01*
X1853246D02*
X1895820Y3871435D01*
X1800311Y3914009D02*
X1853246D01*
X1285000Y609840D02*
X1285240Y609600D01*
Y556260D02*
Y609600D01*
Y556260D02*
X1384300Y457200D01*
X1895820Y3339120D02*
Y3871435D01*
X1631203Y1401256D02*
X1633703D01*
X1630972Y1508377D02*
X1632993Y1506355D01*
X1628951Y1616385D02*
X1630972Y1614363D01*
Y1508377D02*
Y1614363D01*
X1632993Y1506355D02*
X1633348Y1506000D01*
Y1401611D02*
X1633703Y1401256D01*
X1633348Y1401611D02*
Y1506000D01*
X1899920Y1624121D02*
X1902525D01*
X1907214Y1628810D01*
Y1672043D01*
X1814830Y1692910D02*
X1886347D01*
X1907214Y1672043D01*
X1899920Y1624121D02*
X1905927Y1618114D01*
X1790700Y1717040D02*
X1814830Y1692910D01*
X1790700Y1717040D02*
Y1745900D01*
X1617980Y1627355D02*
Y1673860D01*
Y1627355D02*
X1628951Y1616385D01*
X1582420Y1709420D02*
Y1745900D01*
Y1709420D02*
X1617980Y1673860D01*
D42*
X635200Y1465540D02*
Y1575540D01*
X635200Y1465540D02*
X635200Y1465540D01*
X635200Y1355540D02*
Y1465540D01*
X2771020Y3787020D02*
X2815040Y3831040D01*
Y3909100D01*
X2683385Y3787020D02*
X2771020D01*
X2641600Y3543300D02*
X2683385Y3585085D01*
Y3787020D01*
X723900Y1193800D02*
Y1691849D01*
X543200Y1678580D02*
X642620Y1778000D01*
X723900Y1193800D02*
X863497Y1054203D01*
X899119D01*
X642620Y1773129D02*
X723900Y1691849D01*
X642620Y1773129D02*
Y1778000D01*
X543200Y1575540D02*
Y1678580D01*
Y1465540D02*
Y1575540D01*
X2107610Y1614901D02*
X2215937D01*
X2215741Y1513878D02*
Y1614705D01*
X1554109Y3926578D02*
Y3990180D01*
X1585609Y4021680D02*
X1698740D01*
X1554109Y3990180D02*
X1585609Y4021680D01*
X543200Y1465540D02*
X543200Y1465540D01*
X543200Y1355540D02*
Y1465540D01*
D43*
X635200Y1355540D02*
X639200Y1351540D01*
Y1275540D02*
X649200Y1265540D01*
X639200Y1275540D02*
Y1351540D01*
X649200Y1250540D02*
Y1265540D01*
X519200Y1319800D02*
X529700Y1330300D01*
X519200Y1250540D02*
Y1319800D01*
X529700Y1330300D02*
Y1342040D01*
X543200Y1355540D01*
X539185Y932247D02*
X542362Y935424D01*
X519200Y996390D02*
Y1040540D01*
Y996390D02*
X528862Y986728D01*
Y948924D02*
Y986728D01*
Y948924D02*
X542362Y935424D01*
X1823062Y1505162D02*
X1823237Y1504988D01*
X1823062Y1505162D02*
Y1616136D01*
X1822888Y1616310D02*
X1823062Y1616136D01*
X1823237Y1504988D02*
X1823472Y1504752D01*
Y1400873D02*
X1823707Y1400638D01*
X1823472Y1400873D02*
Y1504752D01*
D44*
X2562040Y4007100D02*
Y4017960D01*
X2550000Y4030000D02*
X2562040Y4017960D01*
X2540000Y4030000D02*
X2550000D01*
X1344330Y693170D02*
Y834990D01*
Y693170D02*
X1345000Y692500D01*
X875650Y835010D02*
X876300Y835660D01*
X875650Y693150D02*
Y835010D01*
X875000Y692500D02*
X875650Y693150D01*
D45*
X1249280Y271780D02*
X1250000Y272500D01*
X970000D02*
X970721Y271780D01*
X553849Y2726387D02*
X557744Y2722492D01*
X446245Y2760559D02*
X480417Y2726387D01*
X553849D01*
X557744Y2722492D02*
X622267D01*
X446245Y2866387D02*
Y3153885D01*
Y2760559D02*
Y2866387D01*
X622267Y2722492D02*
X623283Y2721476D01*
X1908237Y1504988D02*
X1972272D01*
X2052320Y1424940D01*
X468000Y3175640D02*
Y3396620D01*
X446245Y3153885D02*
X468000Y3175640D01*
X623283Y2721476D02*
X729899D01*
X730915Y2720460D01*
X2770277Y1285000D02*
X2918509Y1433233D01*
X2505000Y1285000D02*
X2770277D01*
D47*
X119380Y3148936D02*
Y3159760D01*
X150000Y2960000D02*
Y3118316D01*
X119380Y3148936D02*
X150000Y3118316D01*
X119380Y2396241D02*
X150000Y2365621D01*
Y2200000D02*
Y2365621D01*
X119380Y2396241D02*
Y2400300D01*
X2151380Y1323340D02*
Y1399540D01*
X1982540Y1271300D02*
X2099340D01*
X2151380Y1323340D01*
Y1399540D02*
X2207108Y1455268D01*
Y1505245D02*
X2215545Y1513683D01*
X2207108Y1455268D02*
Y1505245D01*
X2215545Y1513683D02*
X2215741Y1513878D01*
X241300Y1544760D02*
X332300Y1635760D01*
X381000D01*
X241300Y1419060D02*
Y1544760D01*
X2215741Y1614705D02*
X2215937Y1614901D01*
D48*
X1993220Y1135380D02*
X2100580D01*
X2096360Y985520D02*
X2118360D01*
X2035040Y924200D02*
X2096360Y985520D01*
X1998220Y924200D02*
X2035040D01*
X1993220Y929200D02*
Y1135380D01*
Y929200D02*
X1998220Y924200D01*
X1699260Y3916000D02*
Y4021160D01*
X1698740Y4021680D02*
X1699260Y4021160D01*
D49*
X1182470Y1319515D02*
X1227466Y1274519D01*
Y1183033D02*
Y1274519D01*
X1383696Y1515455D02*
Y1543817D01*
X1258247Y1450340D02*
X1363794D01*
X1381741Y1462796D02*
X1419549Y1500604D01*
X1363794Y1450340D02*
X1376250Y1462796D01*
X1100586Y1273813D02*
X1146617Y1319843D01*
X1182047Y1358818D02*
Y1374140D01*
X1146194Y1343967D02*
Y1388991D01*
X1182047Y1374140D02*
X1258247Y1450340D01*
X1182470Y1319515D02*
Y1358394D01*
X1419549Y1500604D02*
Y1543817D01*
X1361400Y1498650D02*
X1366891D01*
X1146194Y1388991D02*
X1243396Y1486193D01*
X1182047Y1358818D02*
X1182470Y1358394D01*
X1146194Y1343967D02*
X1146617Y1343543D01*
X1376250Y1462796D02*
X1381741D01*
X1146617Y1319843D02*
Y1343543D01*
X1348943Y1486193D02*
X1361400Y1498650D01*
X1243396Y1486193D02*
X1348943D01*
X1366891Y1498650D02*
X1383696Y1515455D01*
X1374596Y1552916D02*
X1383696Y1543817D01*
X1346622Y1572649D02*
X1366356Y1552916D01*
X1428648D02*
X1436889D01*
X1419549Y1543817D02*
X1428648Y1552916D01*
X1456622Y1572649D02*
Y1575149D01*
X1366356Y1552916D02*
X1374596D01*
X1436889D02*
X1456622Y1572649D01*
X1100637Y1183033D02*
X1111370Y1172300D01*
X1100637Y1183033D02*
Y1192082D01*
X1100586Y1192133D02*
Y1273813D01*
X1111370Y1172300D02*
X1114120D01*
X1100586Y1192133D02*
X1100637Y1192082D01*
X1346622Y1572649D02*
Y1575149D01*
X1140734Y713085D02*
Y742493D01*
X1179702Y822195D02*
Y842967D01*
X1177927Y820420D02*
X1179702Y822195D01*
X1177927Y743833D02*
Y820420D01*
X1179267Y698234D02*
Y742493D01*
Y698234D02*
X1185000Y692500D01*
X1177927Y743833D02*
X1179267Y742493D01*
X1139702Y822792D02*
X1142074Y820420D01*
Y743833D02*
Y820420D01*
X1139702Y822792D02*
Y842967D01*
X1140734Y742493D02*
X1142074Y743833D01*
X1129267Y701618D02*
X1140734Y713085D01*
X1090734Y701618D02*
X1129267D01*
X1085000Y695884D02*
X1090734Y701618D01*
X1160001Y614734D02*
X1179267Y633999D01*
Y686767D01*
X1059999Y614734D02*
X1160001D01*
X1179267Y686767D02*
X1185000Y692500D01*
X1085000D02*
Y695884D01*
X1040734Y633999D02*
X1059999Y614734D01*
X1035000Y692500D02*
X1040734Y686767D01*
Y633999D02*
Y686767D01*
X1103453Y1004371D02*
X1146194Y961631D01*
Y949960D02*
Y961631D01*
X1139702Y914967D02*
Y943469D01*
X1146194Y949960D01*
X1182047Y917200D02*
Y961631D01*
X1224787Y1004371D02*
Y1094233D01*
X1103453Y1004371D02*
Y1094233D01*
X1114120Y1104900D01*
X1182047Y961631D02*
X1224787Y1004371D01*
X1214120Y1104900D02*
X1224787Y1094233D01*
X1419549Y1691482D02*
Y1750018D01*
Y1691482D02*
X1428648Y1682383D01*
X1418747Y1777047D02*
X1455820Y1814120D01*
Y1849120D01*
X1428648Y1682383D02*
X1436889D01*
X1456622Y1662649D01*
X1345820Y1814120D02*
Y1849120D01*
Y1814120D02*
X1382894Y1777046D01*
X1346622Y1662649D02*
X1366356Y1682383D01*
X1346622Y1660149D02*
Y1662649D01*
X1374596Y1682383D02*
X1383696Y1691482D01*
X1366356Y1682383D02*
X1374596D01*
X1418747Y1750820D02*
X1419549Y1750018D01*
X1383696Y1691482D02*
Y1735167D01*
X1382894Y1735970D02*
X1383696Y1735167D01*
X1456622Y1660149D02*
Y1662649D01*
X1418747Y1750820D02*
Y1777047D01*
X1382894Y1735970D02*
Y1777046D01*
D51*
X2115820Y1640840D02*
Y1849120D01*
D52*
X2130400Y609645D02*
X2551995Y1031240D01*
X1964921Y408561D02*
X2130400Y574040D01*
Y609645D01*
X2189480Y604520D02*
X2565400Y980440D01*
X2189480Y375920D02*
Y604520D01*
X2551995Y1031240D02*
X2740660D01*
X3101187Y3797307D02*
X3195320Y3703173D01*
Y2908300D02*
Y3703173D01*
X3101140Y2814120D02*
X3195320Y2908300D01*
X2945820Y2814120D02*
X3101140D01*
X2755900Y980440D02*
X3262460Y1487000D01*
X3081600Y2044120D02*
X3262460Y1863260D01*
Y1487000D02*
Y1863260D01*
X3096260Y1386840D02*
Y1910080D01*
X3072220Y1934120D02*
X3096260Y1910080D01*
X2945820Y1934120D02*
X3072220D01*
X2740660Y1031240D02*
X3096260Y1386840D01*
X2945820Y2044120D02*
X3081600D01*
X2565400Y980440D02*
X2755900D01*
X2075369Y324251D02*
Y333751D01*
X2078669Y337051D01*
X2088170D01*
X2123880Y372761D01*
X2186321D01*
X2189480Y375920D01*
X1964921Y326097D02*
Y408561D01*
X1963882Y325058D02*
X1964921Y326097D01*
D53*
X353920Y1040540D02*
X506700D01*
X1703218Y3831000D02*
X1794848D01*
D54*
X842794Y445548D02*
X897500Y500255D01*
Y599440D01*
X842794Y433641D02*
Y445548D01*
D55*
X1542000Y272500D02*
X1545827Y276327D01*
X2016788Y1851807D02*
X2096244D01*
D56*
X3125000Y4472500D02*
D03*
Y372500D02*
D03*
X325000Y4472500D02*
D03*
Y372500D02*
D03*
D57*
X1542000Y655000D02*
D03*
X678000D02*
D03*
D58*
X1542000Y272500D02*
D03*
X678000D02*
D03*
D59*
X810000Y582500D02*
D03*
D60*
D03*
X1410000D02*
D03*
D61*
X263516Y2946484D02*
D03*
X2540000Y4030000D02*
D03*
X2521990Y3734104D02*
D03*
X2466340Y3662680D02*
D03*
X2599485Y3700000D02*
D03*
X814024Y2478705D02*
D03*
X770909Y2255858D02*
D03*
X637540Y2425500D02*
D03*
X1953421Y2681198D02*
D03*
X2000001Y4600002D02*
D03*
X2100001Y4400002D02*
D03*
X1800001Y4600002D02*
D03*
X1900001Y4400002D02*
D03*
X1600001Y4600002D02*
D03*
X1700001Y4400002D02*
D03*
X1400001Y4600002D02*
D03*
X1500001Y4400002D02*
D03*
Y3600002D02*
D03*
X1400001Y200000D02*
D03*
X1200001Y4600002D02*
D03*
X1000001D02*
D03*
X800000D02*
D03*
X900000Y4400002D02*
D03*
Y3600002D02*
D03*
X600000Y4600002D02*
D03*
X700000Y4400002D02*
D03*
X600000Y4200002D02*
D03*
X300000Y3600002D02*
D03*
X1117600Y3500120D02*
D03*
X977900Y3515360D02*
D03*
X1394460Y3606800D02*
D03*
X1285240Y3655060D02*
D03*
X1150620Y3657600D02*
D03*
X1049020Y3817620D02*
D03*
X1059180Y3710940D02*
D03*
X894080Y3708400D02*
D03*
Y3807460D02*
D03*
X2159000Y3624580D02*
D03*
X2997200Y4064000D02*
D03*
X2951480Y4213860D02*
D03*
X2933700Y3746500D02*
D03*
X2565400Y4429760D02*
D03*
X2678577Y3227703D02*
D03*
X2475000Y2387500D02*
D03*
X2159000Y2879044D02*
D03*
X2104685Y1497185D02*
D03*
X1104900Y3373120D02*
D03*
X1623078Y1974126D02*
D03*
X946314Y1754634D02*
D03*
X622527Y2828988D02*
D03*
X511567Y1862634D02*
D03*
X1308505Y1360560D02*
D03*
X1600200Y911860D02*
D03*
Y972820D02*
D03*
X1164120Y1029500D02*
D03*
X600000Y600000D02*
D03*
Y500000D02*
D03*
X500000Y600000D02*
D03*
Y700000D02*
D03*
X443026Y866237D02*
D03*
X714455Y2831718D02*
D03*
X2810137Y3452437D02*
D03*
X1164380Y1251811D02*
D03*
X2161540Y759460D02*
D03*
X1647992Y1294604D02*
D03*
X3119867Y2675232D02*
D03*
X3276600Y2626360D02*
D03*
X2174383Y1975769D02*
D03*
X1950720Y2171700D02*
D03*
X1008380Y449580D02*
D03*
X1322340Y3195289D02*
D03*
X2137819Y3806370D02*
D03*
X2133600Y3919220D02*
D03*
X734060Y3223260D02*
D03*
X660400Y3530600D02*
D03*
X546100Y3512820D02*
D03*
X1742440Y3014980D02*
D03*
X469900Y2242820D02*
D03*
X1747624Y2186817D02*
D03*
X692491Y1894437D02*
D03*
X980440Y1559560D02*
D03*
X952500Y1841220D02*
D03*
X1320800Y1983740D02*
D03*
X2160820Y3046844D02*
D03*
X2173014Y3211122D02*
D03*
X2268513Y4037145D02*
D03*
X2579895Y3020805D02*
D03*
X2712693Y3466578D02*
D03*
X2641600Y3543300D02*
D03*
X2359822Y3209858D02*
D03*
X2367280Y3017520D02*
D03*
X3098800Y3949700D02*
D03*
X3098378Y4098438D02*
D03*
X3101187Y3797307D02*
D03*
X332740Y952500D02*
D03*
X353920Y1040540D02*
D03*
X119380Y2400300D02*
D03*
X942340Y1671320D02*
D03*
X383540Y1239520D02*
D03*
X381000Y1338580D02*
D03*
X811588Y2118800D02*
D03*
X2788814Y1962462D02*
D03*
X1518920Y1391920D02*
D03*
X1384300Y457200D02*
D03*
X1130357Y1794161D02*
D03*
X1948180Y3208020D02*
D03*
X2189480Y375920D02*
D03*
X1965960Y409600D02*
D03*
X1950720Y2593340D02*
D03*
X820420Y2778321D02*
D03*
X734060Y2184400D02*
D03*
X2166620Y2171700D02*
D03*
D62*
X2654300Y4231640D02*
D03*
X1343660Y835660D02*
D03*
X2897467Y3578289D02*
D03*
X2100580Y1135380D02*
D03*
X1005840Y3360420D02*
D03*
X468000Y3396620D02*
D03*
X142240Y3314700D02*
D03*
X119380Y3159760D02*
D03*
X2832100Y3644900D02*
D03*
X2894580Y3645365D02*
D03*
X2971800Y3581400D02*
D03*
Y3644900D02*
D03*
X2600960Y4323080D02*
D03*
X2606040Y4518660D02*
D03*
X2494280Y4549140D02*
D03*
X2390075Y4533780D02*
D03*
X899119Y1054203D02*
D03*
X2118360Y985520D02*
D03*
X642620Y1778000D02*
D03*
X876300Y835660D02*
D03*
D63*
X3282500Y4472500D02*
D03*
X3236370Y4583870D02*
D03*
Y4361131D02*
D03*
X3125000Y4315000D02*
D03*
Y4630000D02*
D03*
X3013631Y4583870D02*
D03*
Y4361131D02*
D03*
X2967500Y4472500D02*
D03*
X3236370Y483869D02*
D03*
X3125000Y530000D02*
D03*
X3013631Y483869D02*
D03*
X2967500Y372500D02*
D03*
X3282500D02*
D03*
X3236370Y261131D02*
D03*
X3125000Y215000D02*
D03*
X3013631Y261131D02*
D03*
X482500Y4472500D02*
D03*
X436370Y4583870D02*
D03*
Y4361131D02*
D03*
X325000Y4315000D02*
D03*
Y4630000D02*
D03*
X213631Y4583870D02*
D03*
Y4361131D02*
D03*
X167500Y4472500D02*
D03*
X325000Y530000D02*
D03*
X436370Y483869D02*
D03*
X213631D02*
D03*
X482500Y372500D02*
D03*
X436370Y261131D02*
D03*
X213631D02*
D03*
X167500Y372500D02*
D03*
X325000Y215000D02*
D03*
D64*
X1130300Y271780D02*
D03*
X3091220Y3044255D02*
D03*
X1482717Y1180228D02*
D03*
X3179360Y1747520D02*
D03*
X1767840Y642620D02*
D03*
X1087120Y536567D02*
D03*
X2370380Y2174120D02*
D03*
X2258060Y1074420D02*
D03*
X842794Y433641D02*
D03*
D65*
X1397816Y1391496D02*
D03*
X1950720Y2402840D02*
D03*
X2052320Y1424940D02*
D03*
X1061720Y1402080D02*
D03*
X2918509Y1433233D02*
D03*
D66*
X381000Y1635760D02*
D03*
D68*
X1345820Y3501618D02*
G03*
X1263498Y3583940I-82322J0D01*
G01*
X982500Y3666208D02*
G03*
X1064768Y3583940I82268J0D01*
G01*
X982213Y4121511D02*
X1000515Y4139813D01*
X1027383D02*
X1042230Y4154660D01*
X1000515Y4139813D02*
X1027383D01*
X1042230Y4154660D02*
X1082860D01*
X982213Y4121511D02*
X982500Y4121224D01*
Y4007500D02*
Y4121224D01*
X1064768Y3583940D02*
X1263498D01*
X1345820Y3339120D02*
Y3501618D01*
X982500Y3666208D02*
Y3917500D01*
X864115D02*
X982500D01*
X864115Y3917500D02*
Y3917500D01*
X647500Y3917500D02*
X864115D01*
D69*
X205000Y2050000D02*
D03*
Y2810000D02*
D03*
D70*
X150000Y2200000D02*
D03*
Y1900000D02*
D03*
Y2660000D02*
D03*
Y2960000D02*
D03*
D71*
X2055820Y2489120D02*
D03*
Y2279120D02*
D03*
Y2069120D02*
D03*
X1845820D02*
D03*
Y2279120D02*
D03*
Y2489120D02*
D03*
X1215820Y2069120D02*
D03*
X1425820D02*
D03*
X1635820D02*
D03*
X2265820D02*
D03*
X2475820D02*
D03*
X2685820D02*
D03*
Y2279120D02*
D03*
X2475820D02*
D03*
X2265820D02*
D03*
X1635820D02*
D03*
X1425820D02*
D03*
X1215820D02*
D03*
Y2489120D02*
D03*
X1425820D02*
D03*
X1635820D02*
D03*
X2265820D02*
D03*
X2475820D02*
D03*
X2685820D02*
D03*
Y2699120D02*
D03*
X2475820D02*
D03*
X2265820D02*
D03*
X2055820D02*
D03*
X1845820D02*
D03*
X1635820D02*
D03*
X1425820D02*
D03*
X1215820D02*
D03*
Y2909120D02*
D03*
X1425820Y3119120D02*
D03*
Y2909120D02*
D03*
X1635820D02*
D03*
Y3119120D02*
D03*
X1845820D02*
D03*
Y2909120D02*
D03*
X2055820D02*
D03*
Y3119120D02*
D03*
X2265820D02*
D03*
Y2909120D02*
D03*
X2475820D02*
D03*
Y3119120D02*
D03*
X2685820D02*
D03*
Y2909120D02*
D03*
X1215820Y3119120D02*
D03*
D72*
X1235820Y3339120D02*
D03*
X1345820D02*
D03*
X1455820D02*
D03*
X1565820D02*
D03*
X1675820D02*
D03*
X1785820D02*
D03*
X1895820D02*
D03*
X2005820D02*
D03*
X2115820D02*
D03*
X2225820D02*
D03*
X2335820D02*
D03*
X2445820D02*
D03*
X2555820D02*
D03*
X2665820D02*
D03*
Y1849120D02*
D03*
X2555820D02*
D03*
X2445820D02*
D03*
X2335820D02*
D03*
X2225820D02*
D03*
X2115820D02*
D03*
X2005820D02*
D03*
X1895820D02*
D03*
X1785820D02*
D03*
X1675820D02*
D03*
X1565820D02*
D03*
X1455820D02*
D03*
X1345820D02*
D03*
X1235820D02*
D03*
D73*
X2945820Y3254120D02*
D03*
Y3144120D02*
D03*
Y3034120D02*
D03*
Y2924120D02*
D03*
Y2814120D02*
D03*
Y2704120D02*
D03*
Y2594120D02*
D03*
Y2484120D02*
D03*
Y2374120D02*
D03*
Y2264120D02*
D03*
Y2154120D02*
D03*
Y2044120D02*
D03*
Y1934120D02*
D03*
X955820D02*
D03*
Y2044120D02*
D03*
Y2154120D02*
D03*
Y2264120D02*
D03*
Y2374120D02*
D03*
Y2484120D02*
D03*
Y2594120D02*
D03*
Y2704120D02*
D03*
Y2814120D02*
D03*
Y2924120D02*
D03*
Y3034120D02*
D03*
Y3144120D02*
D03*
Y3254120D02*
D03*
D74*
X2720740Y3999600D02*
D03*
Y3949600D02*
D03*
X2568340Y3999600D02*
D03*
Y3899600D02*
D03*
Y3949600D02*
D03*
X2720740Y3899600D02*
D03*
D75*
X2505000Y270000D02*
D03*
D76*
X864115Y4027500D02*
D03*
Y3917500D02*
D03*
D77*
X647500Y4070000D02*
D03*
Y3765000D02*
D03*
D78*
X1164120Y1104900D02*
D03*
X1214120Y1172300D02*
D03*
X1164120D02*
D03*
X1114120D02*
D03*
Y1104900D02*
D03*
X1214120D02*
D03*
D79*
X1420000Y692500D02*
D03*
X800000D02*
D03*
X1345000D02*
D03*
X875000D02*
D03*
D80*
X1205702Y878967D02*
D03*
X1113702D02*
D03*
X1179702Y842967D02*
D03*
X1139702D02*
D03*
Y914967D02*
D03*
X1179702D02*
D03*
D81*
X1250000Y272500D02*
D03*
X970000D02*
D03*
D82*
X1285000Y692500D02*
D03*
X935000D02*
D03*
X1235000D02*
D03*
X1185000D02*
D03*
X1135000D02*
D03*
X1085000D02*
D03*
X1035000D02*
D03*
X985000D02*
D03*
D83*
X647500Y3917500D02*
D03*
D84*
X2669540Y3873300D02*
D03*
X2619540D02*
D03*
Y4025900D02*
D03*
X2669540D02*
D03*
D85*
X511245Y2646387D02*
D03*
X381245D02*
D03*
X446245Y2866387D02*
D03*
D86*
X982500Y3917500D02*
D03*
Y4007500D02*
D03*
D87*
X1190360Y4324660D02*
D03*
X1082860D02*
D03*
Y4154660D02*
D03*
X1190360D02*
D03*
D88*
X1136560Y4332160D02*
D03*
Y4147160D02*
D03*
D89*
X2505000Y1285000D02*
D03*
D90*
X1554109Y3926578D02*
D03*
X1264109D02*
D03*
D91*
X2934300Y4001100D02*
X2997200Y4064000D01*
X2796040Y3982100D02*
X2815040Y4001100D01*
X2721721Y4000100D02*
Y4028218D01*
X2721221Y3999600D02*
X2721721Y4000100D01*
X2781981Y3972099D02*
X2791981Y3982100D01*
X2796040D01*
X2744882Y3972099D02*
X2781981D01*
X2720740Y3999600D02*
X2721221D01*
X2722883Y3950100D02*
X2744882Y3972099D01*
D92*
X2720740Y3951839D02*
Y3999600D01*
%TF.MD5,d2d3c1c72eb30d5f188224b3acd9d45b*%
M02*
