%TF.GenerationSoftware,Altium Limited,Altium Designer,23.9.2 (47)*%
G04 Layer_Physical_Order=3*
G04 Layer_Color=16440176*
%FSLAX45Y45*%
%MOMM*%
%TF.SameCoordinates,C6D65D71-24B2-464F-8DE7-77A712877E08*%
%TF.FilePolarity,Positive*%
%TF.FileFunction,Copper,L3,Inr,Signal*%
%TF.Part,Single*%
G01*
G75*
%TA.AperFunction,Conductor*%
%ADD44C,0.50000*%
%ADD48C,0.55000*%
%ADD50C,0.70000*%
%ADD52C,0.25400*%
%TA.AperFunction,ComponentPad*%
%ADD56C,4.00000*%
%ADD57O,1.15800X2.31600*%
%ADD58O,1.20000X2.40000*%
%ADD59C,0.60000*%
%ADD60C,0.63000*%
%TA.AperFunction,ViaPad*%
%ADD61C,0.55000*%
%ADD62C,0.80000*%
%ADD63C,0.50000*%
%ADD64C,0.90000*%
%ADD65C,0.65000*%
%ADD66C,0.75000*%
%TA.AperFunction,Conductor*%
%ADD67C,0.13855*%
G36*
X3195089Y4707739D02*
X3241314Y4688592D01*
X3282916Y4660795D01*
X3318295Y4625416D01*
X3346092Y4583814D01*
X3365239Y4537589D01*
X3375000Y4488517D01*
Y4463500D01*
Y4266565D01*
X3362300Y4261304D01*
X3333012Y4290592D01*
X3324610Y4296206D01*
X3314700Y4298178D01*
X3230624D01*
X3220714Y4296206D01*
X3183193Y4280665D01*
X3144650Y4272998D01*
X3105351D01*
X3066808Y4280665D01*
X3030500Y4295704D01*
X2997825Y4317536D01*
X2970037Y4345325D01*
X2948204Y4378000D01*
X2946427Y4382290D01*
X2940813Y4390692D01*
X2896098Y4435407D01*
X2896097Y4589780D01*
X2894126Y4599690D01*
X2888512Y4608092D01*
X2830093Y4666512D01*
X2830093Y4666512D01*
X2821691Y4672126D01*
X2811781Y4674098D01*
X2362200D01*
X2352289Y4672126D01*
X2343888Y4666512D01*
X2183868Y4506492D01*
X2178254Y4498091D01*
X2176282Y4488180D01*
Y4249420D01*
X2178254Y4239509D01*
X2183868Y4231108D01*
X2288008Y4126968D01*
X2296409Y4121354D01*
X2301902Y4120261D01*
Y4094319D01*
X2289202Y4085833D01*
X2279035Y4090045D01*
X2257990D01*
X2238547Y4081991D01*
X2223666Y4067110D01*
X2215613Y4047667D01*
Y4026622D01*
X2223666Y4007179D01*
X2238547Y3992299D01*
X2257990Y3984245D01*
X2279035D01*
X2289202Y3988456D01*
X2301902Y3979970D01*
Y3815372D01*
X2226618Y3740088D01*
X2213269Y3720109D01*
X2208581Y3696542D01*
Y3587000D01*
X2155162Y3533580D01*
X1363797D01*
X1340230Y3528892D01*
X1320251Y3515543D01*
X1190894Y3386186D01*
X1177545Y3366207D01*
X1172857Y3342640D01*
Y3211034D01*
X1167926Y3206103D01*
X983089D01*
X782869Y3406323D01*
X762890Y3419672D01*
X739323Y3424360D01*
X616030D01*
X592463Y3419672D01*
X572484Y3406323D01*
X543758Y3377596D01*
X532371Y3384170D01*
X533400Y3388010D01*
Y3405230D01*
X528943Y3421863D01*
X520333Y3436776D01*
X508156Y3448953D01*
X493243Y3457563D01*
X476610Y3462020D01*
X459390D01*
X442756Y3457563D01*
X427843Y3448953D01*
X415667Y3436776D01*
X407057Y3421863D01*
X402600Y3405230D01*
Y3388010D01*
X407057Y3371376D01*
X415667Y3356463D01*
X427843Y3344287D01*
X442756Y3335677D01*
X459390Y3331220D01*
X476610D01*
X480449Y3332249D01*
X487023Y3320862D01*
X415262Y3249100D01*
X184818D01*
X181415Y3261800D01*
X182397Y3262367D01*
X194573Y3274543D01*
X203183Y3289456D01*
X207640Y3306090D01*
Y3323310D01*
X203183Y3339944D01*
X194573Y3354857D01*
X182397Y3367033D01*
X167484Y3375643D01*
X150850Y3380100D01*
X133630D01*
X116996Y3375643D01*
X102083Y3367033D01*
X89907Y3354857D01*
X87700Y3351035D01*
X75000Y3354438D01*
Y3690000D01*
X527500D01*
Y4145000D01*
X75000D01*
Y4463500D01*
X75000Y4488517D01*
X84761Y4537589D01*
X103907Y4583814D01*
X131704Y4625416D01*
X167083Y4660795D01*
X208685Y4688592D01*
X254910Y4707739D01*
X303983Y4717500D01*
X329000Y4717500D01*
X3121000Y4717500D01*
X3146017D01*
X3195089Y4707739D01*
D02*
G37*
G36*
X2870200Y4589780D02*
X2870200Y4424680D01*
X2922501Y4372379D01*
X2925253Y4365733D01*
X2949921Y4328816D01*
X2981316Y4297421D01*
X3018233Y4272753D01*
X3059254Y4255762D01*
X3102801Y4247100D01*
X3147200D01*
X3190747Y4255762D01*
X3230624Y4272280D01*
X3314700D01*
X3350260Y4236720D01*
Y4132580D01*
X3235960Y4018280D01*
X3044252D01*
X3038992Y4030980D01*
X3042046Y4034035D01*
X3050100Y4053478D01*
Y4074522D01*
X3042046Y4093965D01*
X3027165Y4108846D01*
X3007722Y4116900D01*
X2986678D01*
X2967235Y4108846D01*
X2952354Y4093965D01*
X2944300Y4074522D01*
Y4053478D01*
X2952354Y4034035D01*
X2955408Y4030980D01*
X2950148Y4018280D01*
X2862580D01*
X2735580Y4145280D01*
X2306320D01*
X2202180Y4249420D01*
Y4488180D01*
X2362200Y4648200D01*
X2811780D01*
X2870200Y4589780D01*
D02*
G37*
G36*
X2623757Y3713319D02*
X2625047Y3712000D01*
X2626537Y3710837D01*
X2628227Y3709829D01*
X2630117Y3708976D01*
X2632208Y3708278D01*
X2634498Y3707735D01*
X2636988Y3707347D01*
X2639679Y3707114D01*
X2642570Y3707037D01*
X2636455Y3681637D01*
X2633549Y3681591D01*
X2625810Y3680914D01*
X2623557Y3680507D01*
X2621467Y3680010D01*
X2619540Y3679422D01*
X2617776Y3678745D01*
X2616176Y3677977D01*
X2614738Y3677118D01*
X2622667Y3714793D01*
X2623757Y3713319D01*
D02*
G37*
G36*
X2844268Y3999968D02*
X2852669Y3994354D01*
X2862580Y3992382D01*
X2950148D01*
X2960058Y3994354D01*
X2968460Y3999967D01*
X2974074Y4008369D01*
X2979335Y4021069D01*
X2981306Y4030980D01*
X2979335Y4040891D01*
X2974627Y4047936D01*
X2970198Y4058629D01*
Y4069371D01*
X2974309Y4079296D01*
X2981904Y4086891D01*
X2991829Y4091002D01*
X3002571D01*
X3012496Y4086891D01*
X3020091Y4079296D01*
X3024202Y4069371D01*
Y4058629D01*
X3019773Y4047936D01*
X3015065Y4040891D01*
X3013094Y4030980D01*
X3015065Y4021069D01*
X3020326Y4008369D01*
X3025940Y3999968D01*
X3034342Y3994354D01*
X3044252Y3992382D01*
X3050077D01*
X3054938Y3980649D01*
X3053954Y3979665D01*
X3045900Y3960222D01*
Y3939178D01*
X3053954Y3919735D01*
X3068835Y3904854D01*
X3088278Y3896800D01*
X3109322D01*
X3128765Y3904854D01*
X3143646Y3919735D01*
X3151700Y3939178D01*
Y3960222D01*
X3143646Y3979665D01*
X3142662Y3980649D01*
X3147523Y3992382D01*
X3235960D01*
X3245871Y3994354D01*
X3254272Y3999968D01*
X3362300Y4107996D01*
X3375000Y4102735D01*
Y376500D01*
Y351483D01*
X3365239Y302411D01*
X3346092Y256186D01*
X3318295Y214585D01*
X3282916Y179205D01*
X3241314Y151408D01*
X3195089Y132261D01*
X3146017Y122500D01*
X329000D01*
X303983Y122500D01*
X254911Y132261D01*
X208686Y151408D01*
X167085Y179205D01*
X131706Y214585D01*
X103908Y256186D01*
X84761Y302411D01*
X75000Y351483D01*
Y376500D01*
Y930962D01*
X86734Y935822D01*
X267438Y755118D01*
X275840Y749504D01*
X285750Y747532D01*
X499110D01*
X509021Y749504D01*
X517423Y755118D01*
X608863Y846558D01*
X614477Y854959D01*
X616448Y864870D01*
Y986790D01*
X614477Y996701D01*
X608863Y1005102D01*
X424713Y1189252D01*
X423901Y1205069D01*
X428386Y1209555D01*
X436440Y1228998D01*
Y1250042D01*
X428386Y1269485D01*
X415848Y1282023D01*
X413767Y1287016D01*
X414806Y1297574D01*
X425846Y1308615D01*
X433900Y1328058D01*
Y1349102D01*
X425846Y1368545D01*
X410965Y1383426D01*
X391522Y1391480D01*
X370478D01*
X351035Y1383426D01*
X348781Y1381173D01*
X337048Y1386033D01*
Y1574164D01*
X349748Y1580622D01*
X368488Y1572860D01*
X393512D01*
X416630Y1582436D01*
X434324Y1600130D01*
X438902Y1611182D01*
X451602Y1608656D01*
X451603Y1239540D01*
X453574Y1229629D01*
X459188Y1221227D01*
X741148Y939268D01*
X749549Y933654D01*
X759460Y931682D01*
X1315153D01*
X1333773Y913063D01*
X1329344Y899531D01*
X1318416Y896603D01*
X1303503Y887993D01*
X1291327Y875817D01*
X1282717Y860904D01*
X1278260Y844270D01*
Y827050D01*
X1282717Y810416D01*
X1291327Y795503D01*
X1303503Y783327D01*
X1318416Y774717D01*
X1335050Y770260D01*
X1352270D01*
X1368904Y774717D01*
X1383817Y783327D01*
X1395993Y795503D01*
X1404603Y810416D01*
X1407531Y821344D01*
X1421063Y825773D01*
X1452348Y794488D01*
X1460749Y788874D01*
X1470660Y786902D01*
X2065020D01*
X2074931Y788874D01*
X2083332Y794488D01*
X2184932Y896088D01*
X2190546Y904489D01*
X2192518Y914400D01*
Y1022764D01*
X2205218Y1027702D01*
X2214833Y1018086D01*
X2230887Y1008818D01*
X2248792Y1004020D01*
X2267328D01*
X2285233Y1008818D01*
X2301287Y1018086D01*
X2314394Y1031193D01*
X2323662Y1047247D01*
X2328460Y1065152D01*
Y1083688D01*
X2323662Y1101593D01*
X2314394Y1117647D01*
X2301287Y1130754D01*
X2285233Y1140022D01*
X2267328Y1144820D01*
X2248792D01*
X2230887Y1140022D01*
X2214833Y1130754D01*
X2205218Y1121138D01*
X2192518Y1126076D01*
Y1277620D01*
X2190546Y1287531D01*
X2184932Y1295932D01*
X2103325Y1377540D01*
X2108586Y1390240D01*
X2874923D01*
X2875897Y1390098D01*
X2877123Y1389838D01*
X2878200Y1389535D01*
X2879163Y1389190D01*
X2880032Y1388807D01*
X2880835Y1388382D01*
X2881603Y1387902D01*
X2882923Y1386936D01*
X2885711Y1384147D01*
X2906992Y1375333D01*
X2930026D01*
X2951307Y1384147D01*
X2967594Y1400435D01*
X2976409Y1421715D01*
Y1444750D01*
X2967594Y1466030D01*
X2951307Y1482318D01*
X2930026Y1491133D01*
X2906992D01*
X2885711Y1482318D01*
X2873331Y1469937D01*
X2872709Y1469436D01*
X2872099Y1468705D01*
X2871632Y1468238D01*
X2871400Y1468149D01*
X2870911Y1468011D01*
X2870500Y1467933D01*
X2095906D01*
X2094932Y1468075D01*
X2093706Y1468334D01*
X2092629Y1468638D01*
X2091666Y1468983D01*
X2090797Y1469366D01*
X2089994Y1469790D01*
X2089226Y1470271D01*
X2087906Y1471237D01*
X2085118Y1474025D01*
X2063837Y1482840D01*
X2040803D01*
X2019522Y1474025D01*
X2003235Y1457738D01*
X1994420Y1436457D01*
Y1413423D01*
X1998912Y1402578D01*
X1990426Y1389878D01*
X1889760D01*
X1879849Y1387906D01*
X1871448Y1382292D01*
X1724093Y1234938D01*
X1675364D01*
X1672838Y1247638D01*
X1677957Y1249758D01*
X1692838Y1264639D01*
X1700891Y1284082D01*
Y1305127D01*
X1692838Y1324570D01*
X1677957Y1339450D01*
X1658514Y1347504D01*
X1637469D01*
X1618026Y1339450D01*
X1603145Y1324570D01*
X1595092Y1305127D01*
Y1284082D01*
X1603145Y1264639D01*
X1618026Y1249758D01*
X1623145Y1247638D01*
X1620619Y1234938D01*
X1561028D01*
X1559353Y1234604D01*
X1557648Y1234716D01*
X1554440Y1233627D01*
X1551118Y1232966D01*
X1549697Y1232017D01*
X1548079Y1231468D01*
X1545533Y1229235D01*
X1542716Y1227353D01*
X1531447Y1231393D01*
X1530217Y1232289D01*
X1525944Y1236562D01*
X1509890Y1245830D01*
X1491985Y1250628D01*
X1473448D01*
X1455543Y1245830D01*
X1439490Y1236562D01*
X1435217Y1232289D01*
X1433987Y1231392D01*
X1422718Y1227353D01*
X1419901Y1229234D01*
X1417354Y1231468D01*
X1415737Y1232017D01*
X1414316Y1232966D01*
X1410994Y1233627D01*
X1407786Y1234716D01*
X1406081Y1234604D01*
X1404405Y1234938D01*
X1221523D01*
X1217280Y1241288D01*
Y1262333D01*
X1209226Y1281776D01*
X1194345Y1296657D01*
X1174902Y1304710D01*
X1153857D01*
X1134414Y1296657D01*
X1119533Y1281776D01*
X1111480Y1262333D01*
Y1241288D01*
X1107237Y1234938D01*
X968307D01*
X851398Y1351847D01*
Y1755140D01*
X849426Y1765051D01*
X843812Y1773453D01*
X765073Y1852191D01*
X765072Y1852192D01*
X756670Y1857806D01*
X748826Y1859366D01*
X744341Y1864807D01*
X740654Y1872477D01*
X745391Y1883914D01*
Y1892318D01*
X745533Y1892930D01*
X745556Y1892995D01*
X745578Y1893033D01*
X745731Y1893261D01*
X746337Y1894006D01*
X866685Y2014353D01*
X1015092D01*
X1029958Y2017310D01*
X1042560Y2025731D01*
X1592436Y2575607D01*
X1599453Y2586109D01*
X1609010Y2585169D01*
X1612153Y2583997D01*
Y2568791D01*
X1377151Y2333789D01*
X1368731Y2321186D01*
X1365773Y2306320D01*
Y2031539D01*
X1353073Y2026278D01*
X1350765Y2028586D01*
X1331322Y2036640D01*
X1310278D01*
X1290835Y2028586D01*
X1275954Y2013705D01*
X1267900Y1994262D01*
Y1973218D01*
X1275954Y1953775D01*
X1281393Y1948336D01*
X1281666Y1947882D01*
X1281777Y1947640D01*
X1281795Y1947572D01*
X1281857Y1947248D01*
X1281953Y1946284D01*
Y1822031D01*
X1170089Y1710167D01*
X979396D01*
X979198Y1710192D01*
X978508Y1710325D01*
X978440Y1710343D01*
X978198Y1710454D01*
X977744Y1710727D01*
X972305Y1716166D01*
X952862Y1724220D01*
X931818D01*
X912375Y1716166D01*
X897494Y1701285D01*
X889440Y1681842D01*
Y1660798D01*
X897494Y1641355D01*
X912375Y1626474D01*
X931818Y1618420D01*
X952862D01*
X955981Y1606687D01*
X950475Y1604406D01*
X935594Y1589525D01*
X927540Y1570082D01*
Y1549038D01*
X935594Y1529595D01*
X950475Y1514714D01*
X969918Y1506660D01*
X990962D01*
X1010405Y1514714D01*
X1025286Y1529595D01*
X1033340Y1549038D01*
Y1570082D01*
X1025286Y1589525D01*
X1010405Y1604406D01*
X990962Y1612460D01*
X969918D01*
X966799Y1624193D01*
X972305Y1626474D01*
X977744Y1631913D01*
X978198Y1632186D01*
X978440Y1632297D01*
X978508Y1632315D01*
X978832Y1632377D01*
X979796Y1632473D01*
X1186180D01*
X1201046Y1635431D01*
X1213649Y1643851D01*
X1348269Y1778471D01*
X1353073Y1785662D01*
X1365773Y1781810D01*
Y1506220D01*
X1368731Y1491354D01*
X1377151Y1478751D01*
X1394774Y1461129D01*
X1389913Y1449396D01*
X1386299D01*
X1365018Y1440581D01*
X1348731Y1424294D01*
X1339916Y1403013D01*
Y1379979D01*
X1348731Y1358698D01*
X1365018Y1342411D01*
X1386299Y1333596D01*
X1409333D01*
X1430614Y1342411D01*
X1446901Y1358698D01*
X1454289Y1376533D01*
X1466972Y1377896D01*
X1467512Y1377796D01*
X1474074Y1361955D01*
X1488955Y1347074D01*
X1508398Y1339020D01*
X1529442D01*
X1548885Y1347074D01*
X1563766Y1361955D01*
X1571820Y1381398D01*
Y1402442D01*
X1563766Y1421885D01*
X1548885Y1436766D01*
X1529442Y1444820D01*
X1521749D01*
X1521242Y1444946D01*
X1520987Y1445040D01*
X1520925Y1445076D01*
X1520654Y1445260D01*
X1519903Y1445874D01*
X1443467Y1522311D01*
Y2290229D01*
X1678469Y2525231D01*
X1686889Y2537834D01*
X1689847Y2552700D01*
Y2612809D01*
X2101431Y3024394D01*
X2113887Y3021916D01*
X2115974Y3016879D01*
X2130855Y3001998D01*
X2150297Y2993944D01*
X2171342D01*
X2190785Y3001998D01*
X2205666Y3016879D01*
X2213720Y3036322D01*
Y3057367D01*
X2205666Y3076810D01*
X2197122Y3085353D01*
X2202383Y3098053D01*
X2260600D01*
X2275466Y3101011D01*
X2288069Y3109431D01*
X2308389Y3129751D01*
X2316809Y3142354D01*
X2319767Y3157220D01*
X2323500Y3160103D01*
X2332467Y3163931D01*
X2334765Y3162979D01*
X2339182Y3160028D01*
X2344392Y3158992D01*
X2349300Y3156959D01*
X2354612D01*
X2359822Y3155922D01*
X2365032Y3156959D01*
X2370345D01*
X2375253Y3158992D01*
X2380463Y3160028D01*
X2384880Y3162979D01*
X2389788Y3165012D01*
X2393544Y3168769D01*
X2397961Y3171720D01*
X2400912Y3176137D01*
X2404669Y3179893D01*
X2406702Y3184801D01*
X2409653Y3189218D01*
X2410689Y3194428D01*
X2412722Y3199336D01*
Y3204648D01*
X2413758Y3209858D01*
Y3239181D01*
X2647093Y3472516D01*
X2659793Y3467255D01*
Y3456055D01*
X2667847Y3436612D01*
X2682728Y3421732D01*
X2698890Y3415037D01*
X2698989Y3414985D01*
X2699024Y3414975D01*
X2700267Y3414219D01*
X2700421Y3414109D01*
X2702723Y3412142D01*
X2882153Y3232711D01*
Y2891818D01*
X2537282Y2546947D01*
X2350230D01*
X2335364Y2543990D01*
X2322761Y2535569D01*
X2299479Y2512287D01*
X1729220D01*
X1714354Y2509329D01*
X1701751Y2500909D01*
X1620991Y2420149D01*
X1612571Y2407546D01*
X1609613Y2392680D01*
Y2095500D01*
X1612571Y2080634D01*
X1620991Y2068031D01*
X1737831Y1951191D01*
X1750434Y1942771D01*
X1765300Y1939813D01*
X2135527D01*
X2144418Y1930923D01*
X2163861Y1922869D01*
X2184905D01*
X2204348Y1930923D01*
X2219229Y1945804D01*
X2227283Y1965247D01*
Y1986291D01*
X2219229Y2005734D01*
X2204348Y2020615D01*
X2184905Y2028669D01*
X2163861D01*
X2144418Y2020615D01*
X2141705Y2017903D01*
X2141639Y2017871D01*
X2141529Y2017839D01*
X2140881Y2017693D01*
X2140225Y2017586D01*
X2139291Y2017507D01*
X1781391D01*
X1687307Y2111591D01*
Y2161016D01*
X1700007Y2163542D01*
X1702778Y2156852D01*
X1717659Y2141971D01*
X1737102Y2133917D01*
X1758147D01*
X1777590Y2141971D01*
X1792470Y2156852D01*
X1800524Y2176295D01*
Y2197340D01*
X1792470Y2216782D01*
X1777590Y2231663D01*
X1758147Y2239717D01*
X1737102D01*
X1717659Y2231663D01*
X1702778Y2216782D01*
X1700007Y2210092D01*
X1687307Y2212618D01*
Y2376589D01*
X1745311Y2434594D01*
X1889772D01*
X1896828Y2424034D01*
X1892820Y2414357D01*
Y2391323D01*
X1901635Y2370042D01*
X1917922Y2353755D01*
X1939203Y2344940D01*
X1962237D01*
X1983518Y2353755D01*
X1999805Y2370042D01*
X2008620Y2391323D01*
Y2414357D01*
X2004612Y2424034D01*
X2011668Y2434594D01*
X2315570D01*
X2330436Y2437551D01*
X2343038Y2445971D01*
X2366320Y2469254D01*
X2553373D01*
X2568239Y2472211D01*
X2580841Y2480632D01*
X2933920Y2833710D01*
X2945653Y2828850D01*
Y2515451D01*
X2785529Y2355327D01*
X2103510D01*
X2088644Y2352369D01*
X2076041Y2343949D01*
X1956693Y2224600D01*
X1940198D01*
X1920755Y2216546D01*
X1905874Y2201665D01*
X1897820Y2182222D01*
Y2161178D01*
X1905874Y2141735D01*
X1920755Y2126854D01*
X1940198Y2118800D01*
X1961242D01*
X1980685Y2126854D01*
X1995566Y2141735D01*
X2003620Y2161178D01*
Y2161304D01*
X2005436Y2163469D01*
X2119601Y2277633D01*
X2801620D01*
X2816486Y2280591D01*
X2829089Y2289011D01*
X3011969Y2471891D01*
X3020389Y2484494D01*
X3023347Y2499360D01*
Y2995616D01*
X3031032Y2999221D01*
X3036047Y2999869D01*
X3047994Y2987921D01*
X3064047Y2978653D01*
X3081952Y2973855D01*
X3100489D01*
X3118394Y2978653D01*
X3134447Y2987921D01*
X3147554Y3001029D01*
X3156823Y3017082D01*
X3161620Y3034987D01*
Y3053524D01*
X3156823Y3071429D01*
X3147554Y3087482D01*
X3134447Y3100589D01*
X3118394Y3109858D01*
X3100489Y3114655D01*
X3081952D01*
X3064047Y3109858D01*
X3047994Y3100589D01*
X3036047Y3088642D01*
X3031032Y3089290D01*
X3023347Y3092894D01*
Y3370847D01*
X3020389Y3385713D01*
X3011969Y3398315D01*
X2909599Y3500685D01*
X2913395Y3514850D01*
X2922710Y3517346D01*
X2937328Y3525785D01*
X2946556Y3520457D01*
X2963190Y3516000D01*
X2980410D01*
X2997044Y3520457D01*
X3011957Y3529067D01*
X3024133Y3541243D01*
X3032743Y3556156D01*
X3037200Y3572790D01*
Y3590010D01*
X3032743Y3606644D01*
X3028987Y3613150D01*
X3032743Y3619656D01*
X3037200Y3636290D01*
Y3653510D01*
X3032743Y3670144D01*
X3024133Y3685057D01*
X3011957Y3697233D01*
X2997044Y3705843D01*
X2980410Y3710300D01*
X2963190D01*
X2946556Y3705843D01*
X2933593Y3698359D01*
X2919824Y3706308D01*
X2903191Y3710765D01*
X2885970D01*
X2869337Y3706308D01*
X2862937Y3702613D01*
X2857344Y3705843D01*
X2840710Y3710300D01*
X2823490D01*
X2806856Y3705843D01*
X2791943Y3697233D01*
X2779767Y3685057D01*
X2771157Y3670144D01*
X2768398Y3659847D01*
X2754576Y3655708D01*
X2688479Y3721805D01*
X2675876Y3730226D01*
X2661010Y3733183D01*
X2641114D01*
X2629450Y3744846D01*
X2610007Y3752900D01*
X2588963D01*
X2569520Y3744846D01*
X2554639Y3729965D01*
X2546585Y3710522D01*
Y3689478D01*
X2554639Y3670035D01*
X2569520Y3655154D01*
X2588963Y3647100D01*
X2610007D01*
X2629450Y3655154D01*
X2629540Y3655244D01*
X2632354Y3655490D01*
X2644920D01*
X2788321Y3512089D01*
X2785843Y3499633D01*
X2780171Y3497284D01*
X2773672Y3490784D01*
X2758691Y3493763D01*
X2757539Y3496543D01*
X2742658Y3511424D01*
X2723216Y3519478D01*
X2703416D01*
X2700090Y3521277D01*
X2695725Y3525052D01*
X2693134Y3529481D01*
X2694500Y3532778D01*
Y3538090D01*
X2695536Y3543300D01*
X2694500Y3548510D01*
Y3553822D01*
X2692467Y3558731D01*
X2691430Y3563940D01*
X2688480Y3568357D01*
X2686446Y3573265D01*
X2682690Y3577022D01*
X2679739Y3581439D01*
X2675322Y3584390D01*
X2671565Y3588146D01*
X2666657Y3590180D01*
X2662240Y3593130D01*
X2657031Y3594167D01*
X2652122Y3596200D01*
X2646810D01*
X2641600Y3597236D01*
X2636390Y3596200D01*
X2631078D01*
X2629735Y3595644D01*
X2606049D01*
X2512699Y3688994D01*
X2511186Y3692645D01*
X2496305Y3707526D01*
X2476862Y3715580D01*
X2455818D01*
X2436375Y3707526D01*
X2421494Y3692645D01*
X2413440Y3673202D01*
Y3652158D01*
X2421494Y3632715D01*
X2436375Y3617834D01*
X2440026Y3616321D01*
X2539185Y3517162D01*
X2321684Y3299661D01*
X2309992Y3282163D01*
X2309246Y3278412D01*
X2297092Y3274725D01*
X2216949Y3354869D01*
X2204346Y3363289D01*
X2189480Y3366247D01*
X1836420D01*
X1821554Y3363289D01*
X1808951Y3354869D01*
X1684325Y3230242D01*
X1362199D01*
X1352305Y3240135D01*
X1332862Y3248189D01*
X1311818D01*
X1306583Y3246020D01*
X1296023Y3253076D01*
Y3317131D01*
X1389306Y3410414D01*
X2180670D01*
X2204237Y3415101D01*
X2224216Y3428451D01*
X2313710Y3517945D01*
X2327060Y3537924D01*
X2331748Y3561491D01*
Y3671033D01*
X2407032Y3746317D01*
X2420381Y3766296D01*
X2425069Y3789863D01*
X2425069Y3789864D01*
Y4119382D01*
X2724853D01*
X2844268Y3999968D01*
D02*
G37*
G36*
X2738964Y3457831D02*
X2738888Y3456010D01*
X2739071Y3454155D01*
X2739513Y3452264D01*
X2740212Y3450338D01*
X2741170Y3448377D01*
X2742385Y3446380D01*
X2743860Y3444349D01*
X2745592Y3442282D01*
X2747582Y3440180D01*
X2724430Y3427411D01*
X2722338Y3429445D01*
X2716430Y3434494D01*
X2714582Y3435824D01*
X2711072Y3437959D01*
X2709408Y3438761D01*
X2707806Y3439389D01*
X2706265Y3439840D01*
X2739297Y3459616D01*
X2738964Y3457831D01*
D02*
G37*
G36*
X2153375Y3191872D02*
X2152007Y3193116D01*
X2150470Y3194230D01*
X2148766Y3195212D01*
X2146893Y3196064D01*
X2144851Y3196784D01*
X2142642Y3197374D01*
X2140264Y3197832D01*
X2137719Y3198160D01*
X2135004Y3198356D01*
X2132122Y3198422D01*
Y3223822D01*
X2135004Y3223887D01*
X2140264Y3224411D01*
X2142642Y3224870D01*
X2144851Y3225459D01*
X2146893Y3226180D01*
X2148766Y3227031D01*
X2150470Y3228014D01*
X2152007Y3229127D01*
X2153375Y3230372D01*
Y3191872D01*
D02*
G37*
G36*
X761646Y3221138D02*
X761945Y3219264D01*
X762456Y3217364D01*
X763178Y3215437D01*
X764112Y3213485D01*
X765257Y3211505D01*
X766614Y3209500D01*
X768183Y3207468D01*
X769963Y3205410D01*
X771955Y3203326D01*
X753994Y3185365D01*
X751910Y3187357D01*
X747820Y3190706D01*
X745815Y3192063D01*
X743835Y3193208D01*
X741883Y3194142D01*
X739956Y3194864D01*
X738056Y3195375D01*
X736182Y3195674D01*
X734335Y3195761D01*
X761559Y3222985D01*
X761646Y3221138D01*
D02*
G37*
G36*
X1345698Y3210145D02*
X1347077Y3208875D01*
X1348644Y3207755D01*
X1350400Y3206784D01*
X1352345Y3205962D01*
X1354478Y3205290D01*
X1356799Y3204768D01*
X1359308Y3204394D01*
X1362006Y3204170D01*
X1364892Y3204095D01*
X1360769Y3178695D01*
X1357877Y3178643D01*
X1352572Y3178223D01*
X1350160Y3177856D01*
X1347909Y3177385D01*
X1345817Y3176808D01*
X1343887Y3176126D01*
X1342116Y3175340D01*
X1340506Y3174448D01*
X1339055Y3173452D01*
X1344507Y3211564D01*
X1345698Y3210145D01*
D02*
G37*
G36*
X2186188Y3275755D02*
X2185951Y3274706D01*
X2179961Y3264022D01*
X2162491D01*
X2143048Y3255968D01*
X2137609Y3250529D01*
X2137156Y3250256D01*
X2136914Y3250145D01*
X2136846Y3250127D01*
X2136521Y3250064D01*
X2135558Y3249968D01*
X2118922D01*
X2104056Y3247011D01*
X2091453Y3238590D01*
X1537499Y2684636D01*
X1529078Y2672033D01*
X1526121Y2657167D01*
Y2619166D01*
X999001Y2092046D01*
X869194D01*
X862138Y2102606D01*
X864487Y2108277D01*
Y2129322D01*
X860568Y2138785D01*
X865766Y2148511D01*
X878369Y2156931D01*
X1025689Y2304251D01*
X1034109Y2316854D01*
X1037067Y2331720D01*
Y2959100D01*
X1034109Y2973966D01*
X1025689Y2986569D01*
X938468Y3073790D01*
X944724Y3085494D01*
X957580Y3082937D01*
X1193435D01*
X1217002Y3087625D01*
X1236981Y3100974D01*
X1277986Y3141979D01*
X1283026Y3149522D01*
X1292375Y3150443D01*
X1311818Y3142389D01*
X1332862D01*
X1352305Y3150443D01*
X1354081Y3152218D01*
X1354765Y3152361D01*
X1355548Y3152480D01*
X1356412Y3152549D01*
X1700415D01*
X1715281Y3155506D01*
X1727884Y3163927D01*
X1852511Y3288553D01*
X2173390D01*
X2186188Y3275755D01*
D02*
G37*
G36*
X727115Y3287893D02*
X721664Y3275384D01*
X704095Y3268106D01*
X689214Y3253225D01*
X681160Y3233782D01*
Y3212738D01*
X689214Y3193295D01*
X704095Y3178414D01*
X723538Y3170360D01*
X731231D01*
X731738Y3170234D01*
X731993Y3170140D01*
X732055Y3170104D01*
X732326Y3169920D01*
X733077Y3169306D01*
X959373Y2943009D01*
Y2347811D01*
X839446Y2227884D01*
X829255Y2228689D01*
X821814Y2240522D01*
X823809Y2245336D01*
Y2266381D01*
X815755Y2285824D01*
X800874Y2300705D01*
X781431Y2308758D01*
X760386D01*
X740943Y2300705D01*
X726063Y2285824D01*
X718009Y2266381D01*
Y2245336D01*
X721660Y2236522D01*
X704095Y2229246D01*
X689214Y2214365D01*
X681160Y2194922D01*
Y2173878D01*
X689214Y2154435D01*
X704095Y2139554D01*
X723538Y2131500D01*
X744582D01*
X747368Y2132654D01*
X758688Y2123596D01*
Y2108277D01*
X766741Y2088835D01*
X781622Y2073954D01*
X793522Y2069025D01*
X796624Y2054167D01*
X690662Y1948205D01*
X690491Y1948072D01*
X689877Y1947652D01*
X689744Y1947575D01*
X689695Y1947566D01*
X689357Y1947436D01*
X688984Y1947336D01*
X681969D01*
X662526Y1939283D01*
X647645Y1924402D01*
X639591Y1904959D01*
Y1883914D01*
X644329Y1872478D01*
X635843Y1859777D01*
X574040Y1859778D01*
X564129Y1857806D01*
X555728Y1852192D01*
X459187Y1755652D01*
X453573Y1747250D01*
X451602Y1737340D01*
Y1662864D01*
X438902Y1660338D01*
X434324Y1671390D01*
X416630Y1689084D01*
X393512Y1698660D01*
X368488D01*
X349748Y1690898D01*
X337048Y1697356D01*
Y2508251D01*
X335077Y2518162D01*
X329463Y2526563D01*
X329462Y2526564D01*
X295172Y2560853D01*
X286771Y2566466D01*
X276860Y2568438D01*
X180963D01*
Y3125934D01*
X440770D01*
X464337Y3130621D01*
X484316Y3143971D01*
X641539Y3301194D01*
X713814D01*
X727115Y3287893D01*
D02*
G37*
G36*
X1989847Y2184856D02*
X1987824Y2182770D01*
X1982831Y2176818D01*
X1981525Y2174937D01*
X1980398Y2173108D01*
X1979451Y2171330D01*
X1978683Y2169604D01*
X1978095Y2167929D01*
X1977686Y2166306D01*
X1956653Y2198552D01*
X1958465Y2198281D01*
X1960310Y2198261D01*
X1962186Y2198492D01*
X1964094Y2198974D01*
X1966034Y2199707D01*
X1968006Y2200691D01*
X1970009Y2201927D01*
X1972044Y2203414D01*
X1974111Y2205152D01*
X1976210Y2207141D01*
X1989847Y2184856D01*
D02*
G37*
G36*
X755067Y2202406D02*
X756604Y2201292D01*
X758308Y2200310D01*
X760181Y2199458D01*
X762222Y2198738D01*
X764432Y2198148D01*
X766809Y2197690D01*
X769355Y2197362D01*
X772069Y2197166D01*
X774952Y2197100D01*
Y2171700D01*
X772069Y2171634D01*
X766809Y2171110D01*
X764432Y2170652D01*
X762222Y2170062D01*
X760181Y2169342D01*
X758308Y2168490D01*
X756604Y2167508D01*
X755067Y2166394D01*
X753699Y2165150D01*
Y2203650D01*
X755067Y2202406D01*
D02*
G37*
G36*
X2152829Y1958690D02*
X2151586Y1960072D01*
X2150161Y1961307D01*
X2148552Y1962398D01*
X2146762Y1963343D01*
X2144790Y1964143D01*
X2142635Y1964797D01*
X2140298Y1965306D01*
X2137778Y1965669D01*
X2135076Y1965887D01*
X2132192Y1965960D01*
X2135230Y1991360D01*
X2138118Y1991416D01*
X2143412Y1991865D01*
X2145818Y1992259D01*
X2148063Y1992764D01*
X2150147Y1993382D01*
X2152071Y1994112D01*
X2153833Y1994955D01*
X2155435Y1995910D01*
X2156877Y1996977D01*
X2152829Y1958690D01*
D02*
G37*
G36*
X1338806Y1962733D02*
X1337692Y1961196D01*
X1336710Y1959492D01*
X1335858Y1957619D01*
X1335138Y1955578D01*
X1334548Y1953368D01*
X1334090Y1950991D01*
X1333762Y1948445D01*
X1333566Y1945731D01*
X1333500Y1942848D01*
X1308100D01*
X1308034Y1945731D01*
X1307510Y1950991D01*
X1307052Y1953368D01*
X1306462Y1955578D01*
X1305742Y1957619D01*
X1304890Y1959492D01*
X1303908Y1961196D01*
X1302794Y1962733D01*
X1301550Y1964101D01*
X1340050D01*
X1338806Y1962733D01*
D02*
G37*
G36*
X730224Y1914869D02*
X728233Y1912784D01*
X724896Y1908691D01*
X723549Y1906683D01*
X722418Y1904701D01*
X721501Y1902744D01*
X720799Y1900814D01*
X720311Y1898910D01*
X720039Y1897031D01*
X719981Y1895178D01*
X692300Y1921936D01*
X694140Y1922053D01*
X696007Y1922378D01*
X697902Y1922912D01*
X699823Y1923655D01*
X701772Y1924605D01*
X703747Y1925764D01*
X705750Y1927132D01*
X707779Y1928708D01*
X709836Y1930493D01*
X711920Y1932486D01*
X730224Y1914869D01*
D02*
G37*
G36*
X963347Y1689326D02*
X964884Y1688212D01*
X966588Y1687230D01*
X968461Y1686378D01*
X970502Y1685658D01*
X972712Y1685068D01*
X975089Y1684610D01*
X977635Y1684282D01*
X980349Y1684086D01*
X983232Y1684020D01*
Y1658620D01*
X980349Y1658554D01*
X975089Y1658030D01*
X972712Y1657572D01*
X970502Y1656982D01*
X968461Y1656262D01*
X966588Y1655410D01*
X964884Y1654428D01*
X963347Y1653314D01*
X961979Y1652070D01*
Y1690570D01*
X963347Y1689326D01*
D02*
G37*
G36*
X2898391Y1407707D02*
X2896137Y1409356D01*
X2893781Y1410832D01*
X2891321Y1412134D01*
X2888758Y1413262D01*
X2886092Y1414217D01*
X2883323Y1414998D01*
X2880450Y1415605D01*
X2877475Y1416039D01*
X2874397Y1416299D01*
X2871216Y1416386D01*
X2867655Y1441786D01*
X2870888Y1441897D01*
X2873956Y1442228D01*
X2876861Y1442781D01*
X2879600Y1443554D01*
X2882176Y1444549D01*
X2884587Y1445764D01*
X2886833Y1447201D01*
X2888915Y1448858D01*
X2890833Y1450736D01*
X2892587Y1452836D01*
X2898391Y1407707D01*
D02*
G37*
G36*
X2074692Y1448816D02*
X2077048Y1447341D01*
X2079508Y1446039D01*
X2082071Y1444911D01*
X2084737Y1443956D01*
X2087506Y1443175D01*
X2090379Y1442567D01*
X2093354Y1442134D01*
X2096432Y1441873D01*
X2099613Y1441786D01*
X2103174Y1416386D01*
X2099941Y1416276D01*
X2096873Y1415944D01*
X2093968Y1415392D01*
X2091229Y1414618D01*
X2088653Y1413624D01*
X2086242Y1412408D01*
X2083996Y1410972D01*
X2081914Y1409315D01*
X2079996Y1407436D01*
X2078242Y1405337D01*
X2072438Y1450465D01*
X2074692Y1448816D01*
D02*
G37*
G36*
X1501070Y1427823D02*
X1505160Y1424474D01*
X1507165Y1423117D01*
X1509145Y1421972D01*
X1511097Y1421038D01*
X1513024Y1420316D01*
X1514924Y1419805D01*
X1516798Y1419506D01*
X1518645Y1419419D01*
X1491421Y1392195D01*
X1491334Y1394042D01*
X1491035Y1395916D01*
X1490524Y1397816D01*
X1489802Y1399743D01*
X1488868Y1401695D01*
X1487723Y1403675D01*
X1486366Y1405680D01*
X1484797Y1407712D01*
X1483017Y1409770D01*
X1481025Y1411854D01*
X1498986Y1429815D01*
X1501070Y1427823D01*
D02*
G37*
G36*
X746760Y1833879D02*
X825500Y1755140D01*
Y1341120D01*
X957580Y1209040D01*
X1132339D01*
X1134414Y1206964D01*
X1153857Y1198911D01*
X1174902D01*
X1194345Y1206964D01*
X1196421Y1209040D01*
X1404405D01*
X1414151Y1196340D01*
X1412317Y1189496D01*
Y1170960D01*
X1417115Y1153055D01*
X1426383Y1137001D01*
X1439490Y1123894D01*
X1455543Y1114626D01*
X1473448Y1109828D01*
X1491985D01*
X1509890Y1114626D01*
X1525944Y1123894D01*
X1539051Y1137001D01*
X1548319Y1153055D01*
X1553117Y1170960D01*
Y1189496D01*
X1551283Y1196340D01*
X1561028Y1209040D01*
X1734820D01*
X1889760Y1363980D01*
X2080260D01*
X2166620Y1277620D01*
Y914400D01*
X2065020Y812800D01*
X1470660D01*
X1325880Y957580D01*
X759460D01*
X477500Y1239540D01*
X477500Y1737340D01*
X574040Y1833880D01*
X746760Y1833879D01*
D02*
G37*
G36*
X311150Y2508251D02*
Y1218213D01*
X349827Y1170940D01*
X406400D01*
X590550Y986790D01*
Y864870D01*
X499110Y773430D01*
X285750D01*
X57150Y1002030D01*
X59726Y2513365D01*
X88899Y2542540D01*
X276860D01*
X311150Y2508251D01*
D02*
G37*
%LPC*%
G36*
X2144122Y3972120D02*
X2123078D01*
X2103635Y3964066D01*
X2088754Y3949185D01*
X2080700Y3929742D01*
Y3908698D01*
X2088754Y3889255D01*
X2103635Y3874374D01*
X2117105Y3868794D01*
Y3855048D01*
X2107854Y3851216D01*
X2092973Y3836335D01*
X2084920Y3816892D01*
Y3795847D01*
X2092973Y3776404D01*
X2107854Y3761523D01*
X2127297Y3753470D01*
X2148342D01*
X2167785Y3761523D01*
X2182666Y3776404D01*
X2190719Y3795847D01*
Y3816892D01*
X2182666Y3836335D01*
X2167785Y3851216D01*
X2154314Y3856795D01*
Y3870542D01*
X2163565Y3874374D01*
X2178446Y3889255D01*
X2186500Y3908698D01*
Y3929742D01*
X2178446Y3949185D01*
X2163565Y3964066D01*
X2144122Y3972120D01*
D02*
G37*
G36*
X670922Y3583500D02*
X649878D01*
X630435Y3575446D01*
X615554Y3560565D01*
X607500Y3541122D01*
Y3536008D01*
X594800Y3533481D01*
X590946Y3542785D01*
X576065Y3557666D01*
X556622Y3565720D01*
X535578D01*
X516135Y3557666D01*
X501254Y3542785D01*
X493200Y3523342D01*
Y3502298D01*
X501254Y3482855D01*
X516135Y3467974D01*
X535578Y3459920D01*
X556622D01*
X576065Y3467974D01*
X590946Y3482855D01*
X599000Y3502298D01*
Y3507412D01*
X611700Y3509939D01*
X615554Y3500635D01*
X630435Y3485754D01*
X649878Y3477700D01*
X670922D01*
X690365Y3485754D01*
X705246Y3500635D01*
X713300Y3520078D01*
Y3541122D01*
X705246Y3560565D01*
X690365Y3575446D01*
X670922Y3583500D01*
D02*
G37*
G36*
X1014450Y3425820D02*
X997230D01*
X980596Y3421363D01*
X965683Y3412753D01*
X953507Y3400577D01*
X944897Y3385664D01*
X940440Y3369030D01*
Y3351810D01*
X944897Y3335176D01*
X953507Y3320263D01*
X965683Y3308087D01*
X980596Y3299477D01*
X997230Y3295020D01*
X1014450D01*
X1031084Y3299477D01*
X1045997Y3308087D01*
X1058173Y3320263D01*
X1066783Y3335176D01*
X1071240Y3351810D01*
Y3369030D01*
X1066783Y3385664D01*
X1058173Y3400577D01*
X1045997Y3412753D01*
X1031084Y3421363D01*
X1014450Y3425820D01*
D02*
G37*
G36*
X2575922Y4482660D02*
X2554878D01*
X2535435Y4474606D01*
X2520554Y4459725D01*
X2512500Y4440282D01*
Y4419238D01*
X2520554Y4399795D01*
X2535435Y4384914D01*
X2554878Y4376860D01*
X2575922D01*
X2595365Y4384914D01*
X2610246Y4399795D01*
X2618300Y4419238D01*
Y4440282D01*
X2610246Y4459725D01*
X2595365Y4474606D01*
X2575922Y4482660D01*
D02*
G37*
G36*
X2962002Y4266760D02*
X2940958D01*
X2921515Y4258706D01*
X2906634Y4243825D01*
X2898580Y4224382D01*
Y4203338D01*
X2906634Y4183895D01*
X2921515Y4169014D01*
X2940958Y4160960D01*
X2962002D01*
X2981445Y4169014D01*
X2996326Y4183895D01*
X3004380Y4203338D01*
Y4224382D01*
X2996326Y4243825D01*
X2981445Y4258706D01*
X2962002Y4266760D01*
D02*
G37*
G36*
X3111709Y3850206D02*
X3090664D01*
X3071221Y3842153D01*
X3056340Y3827272D01*
X3048287Y3807829D01*
Y3786784D01*
X3056340Y3767341D01*
X3071221Y3752460D01*
X3090664Y3744407D01*
X3111709D01*
X3131152Y3752460D01*
X3146033Y3767341D01*
X3154086Y3786784D01*
Y3807829D01*
X3146033Y3827272D01*
X3131152Y3842153D01*
X3111709Y3850206D01*
D02*
G37*
G36*
X2590417Y3073705D02*
X2569372D01*
X2549929Y3065651D01*
X2535048Y3050771D01*
X2526995Y3031328D01*
Y3010283D01*
X2535048Y2990840D01*
X2549929Y2975959D01*
X2569372Y2967905D01*
X2590417D01*
X2609860Y2975959D01*
X2624741Y2990840D01*
X2632794Y3010283D01*
Y3031328D01*
X2624741Y3050771D01*
X2609860Y3065651D01*
X2590417Y3073705D01*
D02*
G37*
G36*
X2377802Y3070420D02*
X2356758D01*
X2337315Y3062366D01*
X2322434Y3047485D01*
X2314380Y3028042D01*
Y3006998D01*
X2322434Y2987555D01*
X2337315Y2972674D01*
X2356758Y2964620D01*
X2377802D01*
X2397245Y2972674D01*
X2412126Y2987555D01*
X2420180Y3006998D01*
Y3028042D01*
X2412126Y3047485D01*
X2397245Y3062366D01*
X2377802Y3070420D01*
D02*
G37*
G36*
X3130390Y2728132D02*
X3109345D01*
X3089902Y2720079D01*
X3075021Y2705198D01*
X3066967Y2685755D01*
Y2664710D01*
X3075021Y2645267D01*
X3089902Y2630386D01*
X3109345Y2622333D01*
X3130390D01*
X3149833Y2630386D01*
X3155574Y2636127D01*
X3157555Y2637411D01*
X3159476Y2639277D01*
X3160787Y2640425D01*
X3161903Y2641290D01*
X3162795Y2641894D01*
X3163438Y2642264D01*
X3163454Y2642272D01*
X3214075D01*
X3222473Y2633874D01*
X3222478Y2633858D01*
X3222671Y2633141D01*
X3222875Y2632083D01*
X3223052Y2630683D01*
X3223168Y2628945D01*
X3223206Y2626267D01*
X3223700Y2623957D01*
Y2615838D01*
X3231754Y2596395D01*
X3246635Y2581514D01*
X3266078Y2573460D01*
X3287122D01*
X3306565Y2581514D01*
X3321446Y2596395D01*
X3329500Y2615838D01*
Y2636882D01*
X3321446Y2656325D01*
X3306565Y2671206D01*
X3287122Y2679260D01*
X3279003D01*
X3276693Y2679754D01*
X3274015Y2679792D01*
X3272277Y2679908D01*
X3270877Y2680084D01*
X3269819Y2680289D01*
X3269102Y2680482D01*
X3269086Y2680488D01*
X3251034Y2698539D01*
X3240341Y2705684D01*
X3227728Y2708193D01*
X3163454D01*
X3163440Y2708200D01*
X3162795Y2708571D01*
X3161903Y2709174D01*
X3160787Y2710041D01*
X3159478Y2711186D01*
X3157555Y2713054D01*
X3155574Y2714337D01*
X3149833Y2720079D01*
X3130390Y2728132D01*
D02*
G37*
G36*
X1961242Y2646240D02*
X1940198D01*
X1920755Y2638186D01*
X1905874Y2623305D01*
X1897820Y2603862D01*
Y2582818D01*
X1905874Y2563375D01*
X1920755Y2548494D01*
X1940198Y2540440D01*
X1961242D01*
X1980685Y2548494D01*
X1995566Y2563375D01*
X2003620Y2582818D01*
Y2603862D01*
X1995566Y2623305D01*
X1980685Y2638186D01*
X1961242Y2646240D01*
D02*
G37*
G36*
X2177142Y2224600D02*
X2156098D01*
X2136655Y2216546D01*
X2121774Y2201665D01*
X2113720Y2182222D01*
Y2161178D01*
X2121774Y2141735D01*
X2136655Y2126854D01*
X2156098Y2118800D01*
X2177142D01*
X2196585Y2126854D01*
X2211466Y2141735D01*
X2219520Y2161178D01*
Y2182222D01*
X2211466Y2201665D01*
X2196585Y2216546D01*
X2177142Y2224600D01*
D02*
G37*
G36*
X2379649Y2244520D02*
X2361112D01*
X2343207Y2239722D01*
X2327153Y2230454D01*
X2314046Y2217347D01*
X2304778Y2201294D01*
X2299980Y2183389D01*
Y2164852D01*
X2304778Y2146947D01*
X2314046Y2130893D01*
X2327153Y2117786D01*
X2343207Y2108518D01*
X2361112Y2103720D01*
X2379649D01*
X2397553Y2108518D01*
X2413607Y2117786D01*
X2426714Y2130893D01*
X2435982Y2146947D01*
X2440780Y2164852D01*
Y2183389D01*
X2435982Y2201294D01*
X2426714Y2217347D01*
X2413607Y2230454D01*
X2397553Y2239722D01*
X2379649Y2244520D01*
D02*
G37*
G36*
X2799336Y2015362D02*
X2778291D01*
X2758848Y2007308D01*
X2743967Y1992428D01*
X2735914Y1972985D01*
Y1951940D01*
X2743967Y1932497D01*
X2758848Y1917616D01*
X2778291Y1909562D01*
X2799336D01*
X2818779Y1917616D01*
X2833660Y1932497D01*
X2841713Y1951940D01*
Y1972985D01*
X2833660Y1992428D01*
X2818779Y2007308D01*
X2799336Y2015362D01*
D02*
G37*
G36*
X963022Y1894120D02*
X941978D01*
X922535Y1886066D01*
X907654Y1871185D01*
X899600Y1851742D01*
Y1830697D01*
X907654Y1811254D01*
X922535Y1796374D01*
X941978Y1788320D01*
X949671D01*
X950178Y1788194D01*
X950433Y1788100D01*
X950495Y1788064D01*
X950766Y1787880D01*
X951517Y1787265D01*
X972091Y1766692D01*
X984693Y1758271D01*
X999559Y1755314D01*
X1047768D01*
X1047769Y1755314D01*
X1093301D01*
X1093499Y1755289D01*
X1094189Y1755156D01*
X1094257Y1755138D01*
X1094498Y1755027D01*
X1094953Y1754753D01*
X1100391Y1749315D01*
X1119834Y1741261D01*
X1140879D01*
X1160322Y1749315D01*
X1175203Y1764195D01*
X1183257Y1783638D01*
Y1804683D01*
X1175203Y1824126D01*
X1160322Y1839007D01*
X1140879Y1847061D01*
X1119834D01*
X1100391Y1839007D01*
X1094953Y1833568D01*
X1094499Y1833295D01*
X1094257Y1833184D01*
X1094189Y1833166D01*
X1093864Y1833103D01*
X1092901Y1833007D01*
X1047768D01*
X1047766Y1833007D01*
X1015650D01*
X1006171Y1842486D01*
X1006049Y1842644D01*
X1005656Y1843225D01*
X1005621Y1843286D01*
X1005526Y1843542D01*
X1005400Y1844049D01*
Y1851742D01*
X997346Y1871185D01*
X982465Y1886066D01*
X963022Y1894120D01*
D02*
G37*
G36*
X3188629Y1817920D02*
X3170092D01*
X3152187Y1813122D01*
X3136133Y1803854D01*
X3123026Y1790747D01*
X3113758Y1774693D01*
X3108960Y1756788D01*
Y1738252D01*
X3113758Y1720347D01*
X3123026Y1704293D01*
X3136133Y1691186D01*
X3152187Y1681918D01*
X3170092Y1677120D01*
X3188629D01*
X3206534Y1681918D01*
X3222587Y1691186D01*
X3235694Y1704293D01*
X3244963Y1720347D01*
X3249760Y1738252D01*
Y1756788D01*
X3244963Y1774693D01*
X3235694Y1790747D01*
X3222587Y1803854D01*
X3206534Y1813122D01*
X3188629Y1817920D01*
D02*
G37*
G36*
X1073237Y1459980D02*
X1050203D01*
X1028922Y1451165D01*
X1012635Y1434878D01*
X1003820Y1413597D01*
Y1390563D01*
X1012635Y1369282D01*
X1028922Y1352995D01*
X1050203Y1344180D01*
X1073237D01*
X1094518Y1352995D01*
X1110805Y1369282D01*
X1119620Y1390563D01*
Y1413597D01*
X1110805Y1434878D01*
X1094518Y1451165D01*
X1073237Y1459980D01*
D02*
G37*
G36*
X884910Y901060D02*
X867690D01*
X851056Y896603D01*
X836143Y887993D01*
X823967Y875817D01*
X815357Y860904D01*
X810900Y844270D01*
Y827050D01*
X815357Y810416D01*
X823967Y795503D01*
X836143Y783327D01*
X851056Y774717D01*
X867690Y770260D01*
X884910D01*
X901544Y774717D01*
X916457Y783327D01*
X928633Y795503D01*
X937243Y810416D01*
X941700Y827050D01*
Y844270D01*
X937243Y860904D01*
X928633Y875817D01*
X916457Y887993D01*
X901544Y896603D01*
X884910Y901060D01*
D02*
G37*
G36*
X2172062Y812360D02*
X2151018D01*
X2131575Y804306D01*
X2116694Y789425D01*
X2108640Y769982D01*
Y748938D01*
X2116694Y729495D01*
X2131575Y714614D01*
X2151018Y706560D01*
X2172062D01*
X2191505Y714614D01*
X2206386Y729495D01*
X2214440Y748938D01*
Y769982D01*
X2206386Y789425D01*
X2191505Y804306D01*
X2172062Y812360D01*
D02*
G37*
G36*
X1777108Y713020D02*
X1758572D01*
X1740667Y708222D01*
X1724613Y698954D01*
X1711506Y685847D01*
X1702238Y669793D01*
X1697440Y651888D01*
Y633352D01*
X1702238Y615447D01*
X1711506Y599393D01*
X1724613Y586286D01*
X1740667Y577018D01*
X1758572Y572220D01*
X1777108D01*
X1795013Y577018D01*
X1811067Y586286D01*
X1824174Y599393D01*
X1833442Y615447D01*
X1838240Y633352D01*
Y651888D01*
X1833442Y669793D01*
X1824174Y685847D01*
X1811067Y698954D01*
X1795013Y708222D01*
X1777108Y713020D01*
D02*
G37*
G36*
X1421318Y639400D02*
X1398682D01*
X1377769Y630738D01*
X1361763Y614731D01*
X1353100Y593818D01*
Y571182D01*
X1361763Y550269D01*
X1377769Y534263D01*
X1398682Y525600D01*
X1421318D01*
X1442231Y534263D01*
X1458238Y550269D01*
X1466900Y571182D01*
Y593818D01*
X1458238Y614731D01*
X1442231Y630738D01*
X1421318Y639400D01*
D02*
G37*
G36*
X821318D02*
X798682D01*
X777769Y630738D01*
X761763Y614731D01*
X753101Y593818D01*
Y571182D01*
X761763Y550269D01*
X777769Y534263D01*
X798682Y525600D01*
X821318D01*
X842231Y534263D01*
X858238Y550269D01*
X866900Y571182D01*
Y593818D01*
X858238Y614731D01*
X842231Y630738D01*
X821318Y639400D01*
D02*
G37*
G36*
X1096388Y606967D02*
X1077852D01*
X1059947Y602169D01*
X1043893Y592901D01*
X1030786Y579794D01*
X1021518Y563740D01*
X1016720Y545835D01*
Y527298D01*
X1020100Y514684D01*
X1012923Y503826D01*
X1010844Y502480D01*
X997858D01*
X978415Y494426D01*
X963534Y479545D01*
X955480Y460102D01*
Y439058D01*
X963534Y419615D01*
X978415Y404734D01*
X997858Y396680D01*
X1018902D01*
X1038345Y404734D01*
X1053226Y419615D01*
X1061280Y439058D01*
Y457459D01*
X1067790Y464829D01*
X1071848Y467776D01*
X1077852Y466167D01*
X1096388D01*
X1114293Y470965D01*
X1130347Y480233D01*
X1143454Y493340D01*
X1152722Y509393D01*
X1157520Y527298D01*
Y545835D01*
X1152722Y563740D01*
X1143454Y579794D01*
X1130347Y592901D01*
X1114293Y602169D01*
X1096388Y606967D01*
D02*
G37*
G36*
X1394822Y510100D02*
X1373778D01*
X1354335Y502046D01*
X1339454Y487165D01*
X1331400Y467722D01*
Y446678D01*
X1339454Y427235D01*
X1354335Y412354D01*
X1373778Y404300D01*
X1394822D01*
X1414265Y412354D01*
X1429146Y427235D01*
X1437200Y446678D01*
Y467722D01*
X1429146Y487165D01*
X1414265Y502046D01*
X1394822Y510100D01*
D02*
G37*
G36*
X852062Y504041D02*
X833525D01*
X815620Y499244D01*
X799567Y489975D01*
X786460Y476868D01*
X777191Y460815D01*
X772394Y442910D01*
Y424373D01*
X777191Y406468D01*
X786460Y390415D01*
X799567Y377307D01*
X815620Y368039D01*
X833525Y363241D01*
X852062D01*
X869967Y368039D01*
X886020Y377307D01*
X899127Y390415D01*
X908396Y406468D01*
X913193Y424373D01*
Y442910D01*
X908396Y460815D01*
X899127Y476868D01*
X886020Y489975D01*
X869967Y499244D01*
X852062Y504041D01*
D02*
G37*
G36*
X1976482Y462500D02*
X1955438D01*
X1935995Y454446D01*
X1921114Y439566D01*
X1913060Y420123D01*
Y399078D01*
X1921114Y379635D01*
X1935995Y364754D01*
X1955438Y356700D01*
X1976482D01*
X1995925Y364754D01*
X2010806Y379635D01*
X2018860Y399078D01*
Y420123D01*
X2010806Y439566D01*
X1995925Y454446D01*
X1976482Y462500D01*
D02*
G37*
G36*
X2200002Y428820D02*
X2178958D01*
X2159515Y420766D01*
X2144634Y405885D01*
X2136580Y386442D01*
Y365398D01*
X2144634Y345955D01*
X2159515Y331074D01*
X2178958Y323020D01*
X2200002D01*
X2219445Y331074D01*
X2234326Y345955D01*
X2242380Y365398D01*
Y386442D01*
X2234326Y405885D01*
X2219445Y420766D01*
X2200002Y428820D01*
D02*
G37*
%LPD*%
G36*
X3141915Y2692141D02*
X3144310Y2690046D01*
X3146692Y2688198D01*
X3149060Y2686596D01*
X3151414Y2685241D01*
X3153754Y2684132D01*
X3156082Y2683269D01*
X3158395Y2682653D01*
X3160694Y2682283D01*
X3162980Y2682160D01*
Y2668305D01*
X3160694Y2668182D01*
X3158395Y2667812D01*
X3156082Y2667196D01*
X3153754Y2666333D01*
X3151414Y2665224D01*
X3149060Y2663869D01*
X3146692Y2662267D01*
X3144310Y2660419D01*
X3141915Y2658324D01*
X3139506Y2655982D01*
Y2694482D01*
X3141915Y2692141D01*
D02*
G37*
G36*
X3252716Y2660215D02*
X3254604Y2658850D01*
X3256675Y2657650D01*
X3258931Y2656614D01*
X3261370Y2655744D01*
X3263993Y2655037D01*
X3266800Y2654496D01*
X3269791Y2654119D01*
X3272966Y2653906D01*
X3276325Y2653859D01*
X3249101Y2626635D01*
X3249054Y2629994D01*
X3248841Y2633169D01*
X3248464Y2636160D01*
X3247923Y2638967D01*
X3247216Y2641590D01*
X3246346Y2644029D01*
X3245310Y2646285D01*
X3244110Y2648356D01*
X3242745Y2650244D01*
X3241216Y2651947D01*
X3251013Y2661744D01*
X3252716Y2660215D01*
D02*
G37*
G36*
X980086Y1839097D02*
X980385Y1837224D01*
X980896Y1835323D01*
X981618Y1833397D01*
X982552Y1831444D01*
X983697Y1829465D01*
X985054Y1827460D01*
X986623Y1825428D01*
X988403Y1823370D01*
X990395Y1821285D01*
X972434Y1803325D01*
X970350Y1805317D01*
X966260Y1808665D01*
X964255Y1810023D01*
X962275Y1811168D01*
X960323Y1812102D01*
X958396Y1812824D01*
X956496Y1813335D01*
X954622Y1813634D01*
X952775Y1813721D01*
X979999Y1840945D01*
X980086Y1839097D01*
D02*
G37*
G36*
X1110718Y1774911D02*
X1109350Y1776155D01*
X1107813Y1777269D01*
X1106109Y1778251D01*
X1104236Y1779103D01*
X1102195Y1779823D01*
X1099985Y1780413D01*
X1097608Y1780871D01*
X1095062Y1781199D01*
X1092348Y1781395D01*
X1089465Y1781461D01*
Y1806861D01*
X1092348Y1806926D01*
X1097608Y1807450D01*
X1099985Y1807909D01*
X1102195Y1808498D01*
X1104236Y1809219D01*
X1106109Y1810070D01*
X1107813Y1811053D01*
X1109350Y1812166D01*
X1110718Y1813411D01*
Y1774911D01*
D02*
G37*
%LPC*%
G36*
X1958702Y3260920D02*
X1937658D01*
X1918215Y3252866D01*
X1903334Y3237985D01*
X1895280Y3218542D01*
Y3197498D01*
X1903334Y3178055D01*
X1918215Y3163174D01*
X1937658Y3155120D01*
X1958702D01*
X1978145Y3163174D01*
X1993026Y3178055D01*
X2001080Y3197498D01*
Y3218542D01*
X1993026Y3237985D01*
X1978145Y3252866D01*
X1958702Y3260920D01*
D02*
G37*
G36*
X1752962Y3067880D02*
X1731918D01*
X1712475Y3059826D01*
X1697594Y3044945D01*
X1689540Y3025502D01*
Y3004458D01*
X1697594Y2985015D01*
X1712475Y2970134D01*
X1731918Y2962080D01*
X1752962D01*
X1772405Y2970134D01*
X1787286Y2985015D01*
X1795340Y3004458D01*
Y3025502D01*
X1787286Y3044945D01*
X1772405Y3059826D01*
X1752962Y3067880D01*
D02*
G37*
G36*
X274039Y2999384D02*
X252994D01*
X233551Y2991330D01*
X218670Y2976449D01*
X210616Y2957006D01*
Y2935961D01*
X218670Y2916518D01*
X224109Y2911080D01*
X224382Y2910626D01*
X224493Y2910384D01*
X224511Y2910316D01*
X224574Y2909991D01*
X224670Y2909028D01*
Y2776944D01*
X227627Y2762078D01*
X236048Y2749475D01*
X295474Y2690048D01*
X308077Y2681628D01*
X322943Y2678671D01*
X759616D01*
X774482Y2681628D01*
X787085Y2690048D01*
X821686Y2724649D01*
X821844Y2724772D01*
X822425Y2725164D01*
X822486Y2725200D01*
X822743Y2725295D01*
X823249Y2725421D01*
X830942D01*
X850385Y2733474D01*
X865266Y2748355D01*
X873320Y2767798D01*
Y2788843D01*
X865266Y2808286D01*
X850385Y2823167D01*
X830942Y2831220D01*
X809898D01*
X790455Y2823167D01*
X775574Y2808286D01*
X764421Y2813329D01*
X767355Y2821196D01*
X767354Y2824996D01*
Y2842241D01*
X759301Y2861684D01*
X744420Y2876565D01*
X724977Y2884618D01*
X703932D01*
X684489Y2876565D01*
X669608Y2861684D01*
X661555Y2842241D01*
Y2821196D01*
X669608Y2801753D01*
X684489Y2786872D01*
X703932Y2778819D01*
X724977D01*
X744420Y2786872D01*
X759300Y2801753D01*
X770454Y2796710D01*
X767520Y2788843D01*
X767520Y2781149D01*
X767394Y2780642D01*
X767300Y2780387D01*
X767264Y2780325D01*
X767080Y2780054D01*
X766466Y2779303D01*
X743526Y2756364D01*
X339033D01*
X302363Y2793034D01*
Y2909428D01*
X302388Y2909626D01*
X302521Y2910316D01*
X302539Y2910384D01*
X302650Y2910625D01*
X302923Y2911080D01*
X308362Y2916518D01*
X316416Y2935961D01*
Y2957006D01*
X308362Y2976449D01*
X293482Y2991330D01*
X274039Y2999384D01*
D02*
G37*
G36*
X824547Y2531605D02*
X803502D01*
X784059Y2523551D01*
X769178Y2508670D01*
X761124Y2489227D01*
Y2468182D01*
X769178Y2448739D01*
X784059Y2433858D01*
X803502Y2425805D01*
X824547D01*
X843990Y2433858D01*
X858871Y2448739D01*
X866924Y2468182D01*
Y2489227D01*
X858871Y2508670D01*
X843990Y2523551D01*
X824547Y2531605D01*
D02*
G37*
G36*
X648062Y2478400D02*
X627018D01*
X607575Y2470346D01*
X592694Y2455465D01*
X584640Y2436023D01*
Y2414978D01*
X592694Y2395535D01*
X607575Y2380654D01*
X627018Y2372600D01*
X648062D01*
X667505Y2380654D01*
X682386Y2395535D01*
X690440Y2414978D01*
Y2436023D01*
X682386Y2455465D01*
X667505Y2470346D01*
X648062Y2478400D01*
D02*
G37*
G36*
X480422Y2295720D02*
X459378D01*
X439935Y2287666D01*
X425054Y2272785D01*
X417000Y2253342D01*
Y2232298D01*
X425054Y2212855D01*
X439935Y2197974D01*
X459378Y2189920D01*
X480422D01*
X499865Y2197974D01*
X514746Y2212855D01*
X522800Y2232298D01*
Y2253342D01*
X514746Y2272785D01*
X499865Y2287666D01*
X480422Y2295720D01*
D02*
G37*
%LPD*%
G36*
X281522Y2925477D02*
X280408Y2923940D01*
X279426Y2922236D01*
X278574Y2920363D01*
X277854Y2918322D01*
X277264Y2916112D01*
X276806Y2913735D01*
X276478Y2911189D01*
X276282Y2908474D01*
X276216Y2905592D01*
X250816D01*
X250751Y2908474D01*
X250227Y2913735D01*
X249768Y2916112D01*
X249179Y2918322D01*
X248458Y2920363D01*
X247607Y2922236D01*
X246624Y2923940D01*
X245511Y2925477D01*
X244266Y2926845D01*
X282766D01*
X281522Y2925477D01*
D02*
G37*
G36*
X820145Y2750822D02*
X818298Y2750735D01*
X816424Y2750435D01*
X814524Y2749925D01*
X812597Y2749203D01*
X810645Y2748269D01*
X808665Y2747123D01*
X806660Y2745766D01*
X804628Y2744198D01*
X802570Y2742417D01*
X800486Y2740426D01*
X782525Y2758386D01*
X784517Y2760470D01*
X787866Y2764560D01*
X789223Y2766566D01*
X790368Y2768545D01*
X791302Y2770498D01*
X792024Y2772424D01*
X792535Y2774324D01*
X792834Y2776198D01*
X792921Y2778045D01*
X820145Y2750822D01*
D02*
G37*
%LPC*%
G36*
X1174643Y1082400D02*
X1153598D01*
X1134155Y1074346D01*
X1119274Y1059465D01*
X1111220Y1040023D01*
Y1018978D01*
X1119274Y999535D01*
X1134155Y984654D01*
X1153598Y976600D01*
X1174643D01*
X1194085Y984654D01*
X1208966Y999535D01*
X1217020Y1018978D01*
Y1040023D01*
X1208966Y1059465D01*
X1194085Y1074346D01*
X1174643Y1082400D01*
D02*
G37*
G36*
X1610722Y1025720D02*
X1589678D01*
X1570235Y1017666D01*
X1555354Y1002785D01*
X1547300Y983342D01*
Y962298D01*
X1555354Y942855D01*
X1555868Y942340D01*
X1555354Y941825D01*
X1547300Y922382D01*
Y901338D01*
X1555354Y881895D01*
X1570235Y867014D01*
X1589678Y858960D01*
X1610722D01*
X1630165Y867014D01*
X1645046Y881895D01*
X1653100Y901338D01*
Y922382D01*
X1645046Y941825D01*
X1644532Y942340D01*
X1645046Y942855D01*
X1653100Y962298D01*
Y983342D01*
X1645046Y1002785D01*
X1630165Y1017666D01*
X1610722Y1025720D01*
D02*
G37*
G36*
X453548Y919136D02*
X432503D01*
X413060Y911083D01*
X398180Y896202D01*
X390126Y876759D01*
Y855714D01*
X398180Y836271D01*
X413060Y821390D01*
X432503Y813337D01*
X453548D01*
X472991Y821390D01*
X487872Y836271D01*
X495926Y855714D01*
Y876759D01*
X487872Y896202D01*
X472991Y911083D01*
X453548Y919136D01*
D02*
G37*
%LPD*%
D44*
X2640643Y3544257D02*
X2641600Y3543300D01*
X2584763Y3544257D02*
X2640643D01*
X2466340Y3662680D02*
X2584763Y3544257D01*
D48*
X2359822Y3261522D02*
X2641600Y3543300D01*
X2359822Y3209858D02*
Y3261522D01*
D50*
X1193435Y3144520D02*
X1234440Y3185525D01*
X616030Y3362777D02*
X739323D01*
X957580Y3144520D01*
X1234440Y3185525D02*
Y3342640D01*
X957580Y3144520D02*
X1193435D01*
X1234440Y3342640D02*
X1363797Y3471997D01*
X2180670D01*
X2390075Y4531073D02*
Y4533780D01*
X119380Y3159760D02*
X122086D01*
X2363485Y4504484D02*
X2390075Y4531073D01*
X2180670Y3471997D02*
X2270164Y3561491D01*
Y3696542D02*
X2363485Y3789863D01*
X149843Y3187517D02*
X440770D01*
X2363485Y3789863D02*
Y4504484D01*
X122086Y3159760D02*
X149843Y3187517D01*
X2270164Y3561491D02*
Y3696542D01*
X440770Y3187517D02*
X616030Y3362777D01*
X119380Y2400300D02*
Y3159760D01*
D52*
X263516Y2776944D02*
X322943Y2717517D01*
X263516Y2776944D02*
Y2946484D01*
X322943Y2717517D02*
X759616D01*
X2605148Y3694337D02*
X2661010D01*
X2984500Y3370847D01*
X2599485Y3700000D02*
X2605148Y3694337D01*
X2553373Y2508100D02*
X2921000Y2875727D01*
X1729220Y2473440D02*
X2315570D01*
X2350230Y2508100D01*
X2553373D01*
X1648460Y2392680D02*
X1729220Y2473440D01*
X2921000Y2875727D02*
Y3248802D01*
X2718357Y3451445D02*
X2921000Y3248802D01*
X2718357Y3451445D02*
Y3460914D01*
X2712693Y3466578D02*
X2718357Y3460914D01*
X2984500Y2499360D02*
Y3370847D01*
X2801620Y2316480D02*
X2984500Y2499360D01*
X2103510Y2316480D02*
X2801620D01*
X1765300Y1978660D02*
X2171492D01*
X2174383Y1975769D01*
X2052320Y1424940D02*
X2056466Y1429086D01*
X2914363D01*
X1950720Y2171700D02*
X1958730D01*
X2103510Y2316480D01*
X1326234Y3191395D02*
X1700415D01*
X1322340Y3195289D02*
X1326234Y3191395D01*
X1700415D02*
X1836420Y3327400D01*
X2189480D01*
X734060Y3223260D02*
X998220Y2959100D01*
Y2331720D02*
Y2959100D01*
X1648460Y2095500D02*
Y2392680D01*
Y2095500D02*
X1765300Y1978660D01*
X692491Y1895097D02*
X850594Y2053200D01*
X692491Y1894437D02*
Y1895097D01*
X942340Y1671320D02*
X1186180D01*
X1320800Y1805940D01*
X952500Y1841220D02*
X999559Y1794160D01*
X1047768D01*
Y1794161D02*
X1130357D01*
X1320800Y1805940D02*
Y1983740D01*
X1651000Y2628900D02*
X2095220Y3073120D01*
X2133647Y3112444D02*
X2134544D01*
X2095220Y3074017D02*
X2133647Y3112444D01*
X2095220Y3073120D02*
Y3074017D01*
X2134544Y3112444D02*
X2159000Y3136900D01*
X1651000Y2552700D02*
Y2628900D01*
X2159000Y3136900D02*
X2260600D01*
X1404620Y1506220D02*
Y2306320D01*
X1651000Y2552700D01*
X1564967Y2657167D02*
X2118922Y3211122D01*
X850594Y2053200D02*
X1015092D01*
X1564967Y2603075D01*
X2118922Y3211122D02*
X2173014D01*
X1564967Y2603075D02*
Y2657167D01*
X2260600Y3136900D02*
X2280920Y3157220D01*
Y3235960D01*
X2189480Y3327400D02*
X2280920Y3235960D01*
X759616Y2717517D02*
X820420Y2778321D01*
X850900Y2184400D02*
X998220Y2331720D01*
X734060Y2184400D02*
X850900D01*
X1404620Y1506220D02*
X1518920Y1391920D01*
X2914363Y1429086D02*
X2918509Y1433233D01*
D56*
X3125000Y4472500D02*
D03*
Y372500D02*
D03*
X325000Y4472500D02*
D03*
Y372500D02*
D03*
D57*
X1542000Y655000D02*
D03*
X678000D02*
D03*
D58*
X1542000Y272500D02*
D03*
X678000D02*
D03*
D59*
X810000Y582500D02*
D03*
D60*
D03*
X1410000D02*
D03*
D61*
X263516Y2946484D02*
D03*
X2540000Y4030000D02*
D03*
X2521990Y3734104D02*
D03*
X2466340Y3662680D02*
D03*
X2599485Y3700000D02*
D03*
X814024Y2478705D02*
D03*
X770909Y2255858D02*
D03*
X637540Y2425500D02*
D03*
X1953421Y2681198D02*
D03*
X2000001Y4600002D02*
D03*
X2100001Y4400002D02*
D03*
X1800001Y4600002D02*
D03*
X1900001Y4400002D02*
D03*
X1600001Y4600002D02*
D03*
X1700001Y4400002D02*
D03*
X1400001Y4600002D02*
D03*
X1500001Y4400002D02*
D03*
Y3600002D02*
D03*
X1400001Y200000D02*
D03*
X1200001Y4600002D02*
D03*
X1000001D02*
D03*
X800000D02*
D03*
X900000Y4400002D02*
D03*
Y3600002D02*
D03*
X600000Y4600002D02*
D03*
X700000Y4400002D02*
D03*
X600000Y4200002D02*
D03*
X300000Y3600002D02*
D03*
X1117600Y3500120D02*
D03*
X977900Y3515360D02*
D03*
X1394460Y3606800D02*
D03*
X1285240Y3655060D02*
D03*
X1150620Y3657600D02*
D03*
X1049020Y3817620D02*
D03*
X1059180Y3710940D02*
D03*
X894080Y3708400D02*
D03*
Y3807460D02*
D03*
X2159000Y3624580D02*
D03*
X2997200Y4064000D02*
D03*
X2951480Y4213860D02*
D03*
X2933700Y3746500D02*
D03*
X2565400Y4429760D02*
D03*
X2678577Y3227703D02*
D03*
X2475000Y2387500D02*
D03*
X2159000Y2879044D02*
D03*
X2104685Y1497185D02*
D03*
X1104900Y3373120D02*
D03*
X1623078Y1974126D02*
D03*
X946314Y1754634D02*
D03*
X622527Y2828988D02*
D03*
X511567Y1862634D02*
D03*
X1308505Y1360560D02*
D03*
X1600200Y911860D02*
D03*
Y972820D02*
D03*
X1164120Y1029500D02*
D03*
X600000Y600000D02*
D03*
Y500000D02*
D03*
X500000Y600000D02*
D03*
Y700000D02*
D03*
X443026Y866237D02*
D03*
X714455Y2831718D02*
D03*
X2810137Y3452437D02*
D03*
X1164380Y1251811D02*
D03*
X2161540Y759460D02*
D03*
X1647992Y1294604D02*
D03*
X3119867Y2675232D02*
D03*
X3276600Y2626360D02*
D03*
X2174383Y1975769D02*
D03*
X1950720Y2171700D02*
D03*
X1008380Y449580D02*
D03*
X1322340Y3195289D02*
D03*
X2137819Y3806370D02*
D03*
X2133600Y3919220D02*
D03*
X734060Y3223260D02*
D03*
X660400Y3530600D02*
D03*
X546100Y3512820D02*
D03*
X1742440Y3014980D02*
D03*
X469900Y2242820D02*
D03*
X1747624Y2186817D02*
D03*
X692491Y1894437D02*
D03*
X980440Y1559560D02*
D03*
X952500Y1841220D02*
D03*
X1320800Y1983740D02*
D03*
X2160820Y3046844D02*
D03*
X2173014Y3211122D02*
D03*
X2268513Y4037145D02*
D03*
X2579895Y3020805D02*
D03*
X2712693Y3466578D02*
D03*
X2641600Y3543300D02*
D03*
X2359822Y3209858D02*
D03*
X2367280Y3017520D02*
D03*
X3098800Y3949700D02*
D03*
X3098378Y4098438D02*
D03*
X3101187Y3797307D02*
D03*
X332740Y952500D02*
D03*
X353920Y1040540D02*
D03*
X119380Y2400300D02*
D03*
X942340Y1671320D02*
D03*
X383540Y1239520D02*
D03*
X381000Y1338580D02*
D03*
X811588Y2118800D02*
D03*
X2788814Y1962462D02*
D03*
X1518920Y1391920D02*
D03*
X1384300Y457200D02*
D03*
X1130357Y1794161D02*
D03*
X1948180Y3208020D02*
D03*
X2189480Y375920D02*
D03*
X1965960Y409600D02*
D03*
X1950720Y2593340D02*
D03*
X820420Y2778321D02*
D03*
X734060Y2184400D02*
D03*
X2166620Y2171700D02*
D03*
D62*
X2654300Y4231640D02*
D03*
X1343660Y835660D02*
D03*
X2897467Y3578289D02*
D03*
X2100580Y1135380D02*
D03*
X1005840Y3360420D02*
D03*
X468000Y3396620D02*
D03*
X142240Y3314700D02*
D03*
X119380Y3159760D02*
D03*
X2832100Y3644900D02*
D03*
X2894580Y3645365D02*
D03*
X2971800Y3581400D02*
D03*
Y3644900D02*
D03*
X2600960Y4323080D02*
D03*
X2606040Y4518660D02*
D03*
X2494280Y4549140D02*
D03*
X2390075Y4533780D02*
D03*
X899119Y1054203D02*
D03*
X2118360Y985520D02*
D03*
X642620Y1778000D02*
D03*
X876300Y835660D02*
D03*
D63*
X3282500Y4472500D02*
D03*
X3236370Y4583870D02*
D03*
Y4361131D02*
D03*
X3125000Y4315000D02*
D03*
Y4630000D02*
D03*
X3013631Y4583870D02*
D03*
Y4361131D02*
D03*
X2967500Y4472500D02*
D03*
X3236370Y483869D02*
D03*
X3125000Y530000D02*
D03*
X3013631Y483869D02*
D03*
X2967500Y372500D02*
D03*
X3282500D02*
D03*
X3236370Y261131D02*
D03*
X3125000Y215000D02*
D03*
X3013631Y261131D02*
D03*
X482500Y4472500D02*
D03*
X436370Y4583870D02*
D03*
Y4361131D02*
D03*
X325000Y4315000D02*
D03*
Y4630000D02*
D03*
X213631Y4583870D02*
D03*
Y4361131D02*
D03*
X167500Y4472500D02*
D03*
X325000Y530000D02*
D03*
X436370Y483869D02*
D03*
X213631D02*
D03*
X482500Y372500D02*
D03*
X436370Y261131D02*
D03*
X213631D02*
D03*
X167500Y372500D02*
D03*
X325000Y215000D02*
D03*
D64*
X1130300Y271780D02*
D03*
X3091220Y3044255D02*
D03*
X1482717Y1180228D02*
D03*
X3179360Y1747520D02*
D03*
X1767840Y642620D02*
D03*
X1087120Y536567D02*
D03*
X2370380Y2174120D02*
D03*
X2258060Y1074420D02*
D03*
X842794Y433641D02*
D03*
D65*
X1397816Y1391496D02*
D03*
X1950720Y2402840D02*
D03*
X2052320Y1424940D02*
D03*
X1061720Y1402080D02*
D03*
X2918509Y1433233D02*
D03*
D66*
X381000Y1635760D02*
D03*
D67*
X3227728Y2675232D02*
X3276600Y2626360D01*
X3119867Y2675232D02*
X3227728D01*
%TF.MD5,bb8176a9f60b93248edb42f994163814*%
M02*
