%TF.GenerationSoftware,Altium Limited,Altium Designer,23.9.2 (47)*%
G04 Layer_Physical_Order=4*
G04 Layer_Color=6736896*
%FSLAX45Y45*%
%MOMM*%
%TF.SameCoordinates,C6D65D71-24B2-464F-8DE7-77A712877E08*%
%TF.FilePolarity,Positive*%
%TF.FileFunction,Copper,L4,Inr,Signal*%
%TF.Part,Single*%
G01*
G75*
%TA.AperFunction,Conductor*%
%ADD42C,0.62000*%
%ADD44C,0.50000*%
%ADD45C,0.45000*%
%ADD50C,0.70000*%
%ADD52C,0.25400*%
%ADD53C,0.60000*%
%TA.AperFunction,ComponentPad*%
%ADD56C,4.00000*%
%ADD57O,1.15800X2.31600*%
%ADD58O,1.20000X2.40000*%
%ADD59C,0.60000*%
%ADD60C,0.63000*%
%TA.AperFunction,ViaPad*%
%ADD61C,0.55000*%
%ADD62C,0.80000*%
%ADD63C,0.50000*%
%ADD64C,0.90000*%
%ADD65C,0.65000*%
%ADD66C,0.75000*%
G36*
X3195089Y4707739D02*
X3241314Y4688592D01*
X3282916Y4660795D01*
X3318295Y4625416D01*
X3346092Y4583814D01*
X3365239Y4537589D01*
X3375000Y4488517D01*
Y4463500D01*
Y4135557D01*
X3362300Y4130296D01*
X3216681Y4275916D01*
X3208279Y4281530D01*
X3198368Y4283501D01*
X3195192D01*
X3185282Y4281530D01*
X3183194Y4280665D01*
X3144650Y4272998D01*
X3105351D01*
X3066807Y4280665D01*
X3064719Y4281530D01*
X3054808Y4283501D01*
X2999142D01*
X2989231Y4281530D01*
X2980829Y4275916D01*
X2975215Y4267514D01*
X2975215Y4267513D01*
X2970356Y4255781D01*
X2970355Y4255781D01*
X2968384Y4245871D01*
X2970355Y4235960D01*
X2973507Y4231242D01*
X2978482Y4219231D01*
Y4208489D01*
X2974371Y4198564D01*
X2966776Y4190969D01*
X2956851Y4186858D01*
X2946109D01*
X2936184Y4190969D01*
X2928589Y4198564D01*
X2924478Y4208489D01*
Y4219231D01*
X2929453Y4231243D01*
X2932605Y4235960D01*
X2934576Y4245870D01*
X2932605Y4255781D01*
X2927745Y4267513D01*
X2927745Y4267514D01*
X2922131Y4275916D01*
X2913729Y4281530D01*
X2903818Y4283501D01*
X2748368D01*
X2738458Y4281530D01*
X2730056Y4275916D01*
X2721075Y4266935D01*
X2708483Y4268592D01*
X2706633Y4271797D01*
X2694457Y4283973D01*
X2679544Y4292583D01*
X2673267Y4294265D01*
X2662986Y4297496D01*
X2664875Y4308926D01*
X2666360Y4314470D01*
Y4331690D01*
X2661903Y4348324D01*
X2653293Y4363237D01*
X2641117Y4375413D01*
X2626204Y4384023D01*
X2609570Y4388480D01*
X2592350D01*
X2575716Y4384023D01*
X2560803Y4375413D01*
X2548627Y4363237D01*
X2540017Y4348324D01*
X2535560Y4331690D01*
Y4314470D01*
X2540017Y4297836D01*
X2548627Y4282923D01*
X2560803Y4270747D01*
X2575716Y4262137D01*
X2581993Y4260455D01*
X2592274Y4257224D01*
X2590385Y4245794D01*
X2588900Y4240250D01*
Y4223030D01*
X2593357Y4206396D01*
X2601967Y4191483D01*
X2614143Y4179307D01*
X2617348Y4177457D01*
X2619005Y4164865D01*
X2580056Y4125916D01*
X2574442Y4117514D01*
X2572471Y4107603D01*
Y3857604D01*
X2574442Y3847693D01*
X2580056Y3839291D01*
X2766700Y3652647D01*
Y3636290D01*
X2771157Y3619656D01*
X2779767Y3604743D01*
X2791943Y3592567D01*
X2806856Y3583957D01*
X2823490Y3579500D01*
X2832067D01*
Y3569679D01*
X2836524Y3553045D01*
X2845134Y3538132D01*
X2857310Y3525956D01*
X2872223Y3517346D01*
X2872471Y3517280D01*
Y3473371D01*
X2859771Y3470844D01*
X2854983Y3482403D01*
X2840102Y3497284D01*
X2820659Y3505337D01*
X2799614D01*
X2780171Y3497284D01*
X2773672Y3490784D01*
X2758691Y3493763D01*
X2757539Y3496543D01*
X2742658Y3511424D01*
X2723216Y3519478D01*
X2702171D01*
X2693134Y3529481D01*
X2694500Y3532778D01*
Y3553822D01*
X2686446Y3573265D01*
X2671565Y3588146D01*
X2652122Y3596200D01*
X2631078D01*
X2611635Y3588146D01*
X2596754Y3573265D01*
X2588700Y3553822D01*
Y3532778D01*
X2596754Y3513335D01*
X2611635Y3498454D01*
X2631078Y3490400D01*
X2652122D01*
X2661159Y3480397D01*
X2659793Y3477100D01*
Y3456055D01*
X2667847Y3436612D01*
X2682728Y3421732D01*
X2702171Y3413678D01*
X2723216D01*
X2742658Y3421732D01*
X2749158Y3428231D01*
X2764139Y3425252D01*
X2765291Y3422472D01*
X2770730Y3417033D01*
X2771003Y3416579D01*
X2771114Y3416338D01*
X2771132Y3416269D01*
X2771194Y3415945D01*
X2771290Y3414982D01*
Y3399587D01*
X2025858D01*
X2020997Y3411320D01*
X2100549Y3490871D01*
X2108969Y3503474D01*
X2111926Y3518340D01*
Y3717530D01*
X2146600Y3752203D01*
X2148175Y3753470D01*
X2148342D01*
X2167785Y3761523D01*
X2182666Y3776404D01*
X2190719Y3795847D01*
Y3816892D01*
X2182666Y3836335D01*
X2167785Y3851216D01*
X2154314Y3856795D01*
Y3870542D01*
X2163565Y3874374D01*
X2178446Y3889255D01*
X2186500Y3908698D01*
Y3929742D01*
X2178446Y3949185D01*
X2163565Y3964066D01*
X2144122Y3972120D01*
X2123078D01*
X2103635Y3964066D01*
X2088754Y3949185D01*
X2080700Y3929742D01*
Y3908698D01*
X2088754Y3889255D01*
X2103635Y3874374D01*
X2117105Y3868794D01*
Y3855048D01*
X2107854Y3851216D01*
X2092973Y3836335D01*
X2084920Y3816892D01*
Y3800397D01*
X2045611Y3761089D01*
X2037190Y3748486D01*
X2034233Y3733620D01*
Y3534431D01*
X1662849Y3163047D01*
X1379990D01*
X1371504Y3175747D01*
X1375240Y3184766D01*
Y3205811D01*
X1367186Y3225254D01*
X1352305Y3240135D01*
X1332862Y3248189D01*
X1311818D01*
X1292375Y3240135D01*
X1277494Y3225254D01*
X1269440Y3205811D01*
Y3184766D01*
X1273176Y3175747D01*
X1264690Y3163047D01*
X988911D01*
X952029Y3199929D01*
X939426Y3208349D01*
X924560Y3211307D01*
X900011D01*
X699247Y3412071D01*
Y3493544D01*
X699272Y3493742D01*
X699405Y3494432D01*
X699423Y3494500D01*
X699534Y3494742D01*
X699807Y3495196D01*
X705246Y3500635D01*
X713300Y3520078D01*
Y3541122D01*
X705246Y3560565D01*
X690365Y3575446D01*
X670922Y3583500D01*
X649878D01*
X630435Y3575446D01*
X615554Y3560565D01*
X607500Y3541122D01*
Y3536008D01*
X594800Y3533481D01*
X590946Y3542785D01*
X576065Y3557666D01*
X556622Y3565720D01*
X535578D01*
X516135Y3557666D01*
X501254Y3542785D01*
X493200Y3523342D01*
Y3502298D01*
X501254Y3482855D01*
X506693Y3477416D01*
X506966Y3476962D01*
X507077Y3476720D01*
X507095Y3476652D01*
X507157Y3476328D01*
X507253Y3475364D01*
Y3462174D01*
X496255Y3455824D01*
X493243Y3457563D01*
X476610Y3462020D01*
X459390D01*
X442756Y3457563D01*
X427843Y3448953D01*
X415667Y3436776D01*
X407057Y3421863D01*
X402768Y3405858D01*
X346139Y3349229D01*
X333894Y3330904D01*
X329594Y3309288D01*
X329595Y3309286D01*
Y2192021D01*
X329594Y2192020D01*
X333894Y2170404D01*
X346139Y2152079D01*
X542955Y1955263D01*
Y1869442D01*
X542954Y1869440D01*
X547254Y1847824D01*
X559499Y1829499D01*
X582308Y1806690D01*
Y1804336D01*
X581677Y1803244D01*
X577220Y1786610D01*
Y1769390D01*
X581677Y1752756D01*
X590287Y1737843D01*
X602463Y1725667D01*
X617376Y1717057D01*
X634010Y1712600D01*
X651230D01*
X667864Y1717057D01*
X682777Y1725667D01*
X694953Y1737843D01*
X703563Y1752756D01*
X708020Y1769390D01*
Y1786610D01*
X703563Y1803244D01*
X695279Y1817593D01*
Y1830086D01*
X695279Y1830087D01*
X694954Y1831719D01*
X703011Y1841537D01*
X703014D01*
X722457Y1849590D01*
X737337Y1864471D01*
X745391Y1883914D01*
Y1885120D01*
X758091Y1891908D01*
X761253Y1889795D01*
Y1659471D01*
X654469Y1552687D01*
X398094D01*
X393234Y1564420D01*
X407446Y1578632D01*
X416630Y1582436D01*
X434324Y1600130D01*
X443900Y1623248D01*
Y1648272D01*
X442583Y1651451D01*
Y1933554D01*
X437895Y1957121D01*
X424546Y1977100D01*
X407164Y1988715D01*
X298805Y2097074D01*
Y2595880D01*
X294428Y2617886D01*
X281962Y2636542D01*
X222605Y2695899D01*
Y2895990D01*
X235305Y2900911D01*
X252994Y2893584D01*
X274039D01*
X293482Y2901638D01*
X308362Y2916518D01*
X316416Y2935961D01*
Y2957006D01*
X308362Y2976449D01*
X293482Y2991330D01*
X286008Y2994426D01*
X282321Y3006579D01*
X286808Y3013294D01*
X291185Y3035300D01*
Y3223260D01*
X286808Y3245266D01*
X274342Y3263922D01*
X204963Y3333301D01*
X203183Y3339944D01*
X194573Y3354857D01*
X182397Y3367033D01*
X167484Y3375643D01*
X150850Y3380100D01*
X133630D01*
X116996Y3375643D01*
X102083Y3367033D01*
X89907Y3354857D01*
X87700Y3351035D01*
X75000Y3354438D01*
Y3690000D01*
X527500D01*
Y4145000D01*
X75000D01*
Y4463500D01*
X75000Y4488517D01*
X84761Y4537589D01*
X103907Y4583814D01*
X131704Y4625416D01*
X167083Y4660795D01*
X208685Y4688592D01*
X254910Y4707739D01*
X303983Y4717500D01*
X329000Y4717500D01*
X3121000Y4717500D01*
X3146017D01*
X3195089Y4707739D01*
D02*
G37*
G36*
X3348368Y4107604D02*
Y736600D01*
X3055620D01*
X2767336Y448315D01*
Y358029D01*
X2657691Y279482D01*
X1628137Y282942D01*
Y332500D01*
X1625202Y354794D01*
X1616597Y375569D01*
X1602908Y393408D01*
X1585069Y407097D01*
X1564294Y415702D01*
X1542000Y418637D01*
X1519706Y415702D01*
X1498932Y407097D01*
X1481092Y393408D01*
X1467404Y375569D01*
X1458798Y354794D01*
X1455863Y332500D01*
Y292516D01*
X1446868Y283551D01*
X1199807Y284381D01*
X1195902Y298953D01*
X1186634Y315007D01*
X1173527Y328114D01*
X1157473Y337382D01*
X1139568Y342180D01*
X1121032D01*
X1103127Y337382D01*
X1087073Y328114D01*
X1073966Y315007D01*
X1064698Y298953D01*
X1060918Y284848D01*
X888051Y285429D01*
X819675Y353804D01*
X826249Y365191D01*
X833525Y363241D01*
X852062D01*
X869967Y368039D01*
X886020Y377307D01*
X899127Y390415D01*
X908396Y406468D01*
X913193Y424373D01*
Y442910D01*
X908396Y460815D01*
X899127Y476868D01*
X886020Y489975D01*
X869967Y499244D01*
X852062Y504041D01*
X833525D01*
X815620Y499244D01*
X799567Y489975D01*
X795020Y485428D01*
X782320Y490689D01*
Y520948D01*
X792880Y528004D01*
X798682Y525600D01*
X821318D01*
X842231Y534263D01*
X858238Y550269D01*
X866900Y571182D01*
Y581660D01*
X1353100D01*
Y571182D01*
X1361763Y550269D01*
X1377769Y534263D01*
X1398682Y525600D01*
X1421318D01*
X1442231Y534263D01*
X1458238Y550269D01*
X1458326Y550482D01*
X1472318Y551076D01*
X1482590Y537690D01*
X1499991Y524338D01*
X1520255Y515944D01*
X1542000Y513082D01*
X1563746Y515944D01*
X1584010Y524338D01*
X1601411Y537690D01*
X1614763Y555091D01*
X1623156Y575355D01*
X1626019Y597100D01*
Y712900D01*
X1625235Y718855D01*
X1640840Y735599D01*
X2114165D01*
X2116694Y729495D01*
X2131575Y714614D01*
X2151018Y706560D01*
X2172062D01*
X2191505Y714614D01*
X2206386Y729495D01*
X2208915Y735599D01*
X2767336D01*
X2898368Y866632D01*
Y1369570D01*
X2906992Y1375333D01*
X2930026D01*
X2951307Y1384147D01*
X2967594Y1400435D01*
X2976409Y1421715D01*
Y1444750D01*
X2967594Y1466030D01*
X2951307Y1482318D01*
X2930026Y1491133D01*
X2906992D01*
X2898368Y1496895D01*
Y3557604D01*
X2598368Y3857604D01*
Y4107603D01*
X2657005Y4166240D01*
X2662910D01*
X2679544Y4170697D01*
X2694457Y4179307D01*
X2706633Y4191483D01*
X2715243Y4206396D01*
X2719700Y4223030D01*
Y4228935D01*
X2748368Y4257604D01*
X2903818D01*
X2908679Y4245870D01*
X2906634Y4243825D01*
X2898580Y4224382D01*
Y4203338D01*
X2906634Y4183895D01*
X2921515Y4169014D01*
X2940958Y4160960D01*
X2962002D01*
X2981445Y4169014D01*
X2996326Y4183895D01*
X3004380Y4203338D01*
Y4224382D01*
X2996326Y4243825D01*
X2994281Y4245870D01*
X2999142Y4257604D01*
X3054808D01*
X3059254Y4255762D01*
X3102801Y4247100D01*
X3147200D01*
X3190747Y4255762D01*
X3195192Y4257604D01*
X3198368D01*
X3348368Y4107604D01*
D02*
G37*
G36*
X2143214Y3779404D02*
X2141591Y3778995D01*
X2139916Y3778406D01*
X2138190Y3777638D01*
X2136412Y3776691D01*
X2134582Y3775565D01*
X2132702Y3774259D01*
X2128785Y3771110D01*
X2126750Y3769266D01*
X2124663Y3767243D01*
X2102379Y3780879D01*
X2104368Y3782978D01*
X2106106Y3785045D01*
X2107592Y3787081D01*
X2108828Y3789084D01*
X2109812Y3791055D01*
X2110546Y3792995D01*
X2111028Y3794904D01*
X2111259Y3796780D01*
X2111238Y3798624D01*
X2110967Y3800437D01*
X2143214Y3779404D01*
D02*
G37*
G36*
X678406Y3509593D02*
X677292Y3508056D01*
X676310Y3506352D01*
X675458Y3504479D01*
X674738Y3502438D01*
X674148Y3500228D01*
X673690Y3497851D01*
X673362Y3495305D01*
X673166Y3492591D01*
X673100Y3489708D01*
X647700D01*
X647634Y3492591D01*
X647110Y3497851D01*
X646652Y3500228D01*
X646062Y3502438D01*
X645342Y3504479D01*
X644490Y3506352D01*
X643508Y3508056D01*
X642394Y3509593D01*
X641150Y3510961D01*
X679650D01*
X678406Y3509593D01*
D02*
G37*
G36*
X564106Y3491813D02*
X562992Y3490276D01*
X562010Y3488572D01*
X561158Y3486699D01*
X560438Y3484658D01*
X559848Y3482448D01*
X559390Y3480071D01*
X559062Y3477525D01*
X558866Y3474811D01*
X558800Y3471928D01*
X533400D01*
X533334Y3474811D01*
X532810Y3480071D01*
X532352Y3482448D01*
X531762Y3484658D01*
X531042Y3486699D01*
X530190Y3488572D01*
X529208Y3490276D01*
X528094Y3491813D01*
X526850Y3493181D01*
X565350D01*
X564106Y3491813D01*
D02*
G37*
G36*
X2828142Y3431430D02*
X2827029Y3429894D01*
X2826046Y3428189D01*
X2825195Y3426316D01*
X2824474Y3424275D01*
X2823885Y3422066D01*
X2823426Y3419688D01*
X2823099Y3417142D01*
X2822902Y3414428D01*
X2822837Y3411546D01*
X2797437D01*
X2797371Y3414428D01*
X2796847Y3419688D01*
X2796389Y3422066D01*
X2795799Y3424275D01*
X2795079Y3426316D01*
X2794227Y3428189D01*
X2793245Y3429894D01*
X2792131Y3431430D01*
X2790887Y3432799D01*
X2829387D01*
X2828142Y3431430D01*
D02*
G37*
G36*
X1975766Y3205898D02*
X1976065Y3204024D01*
X1976576Y3202124D01*
X1977298Y3200197D01*
X1978232Y3198245D01*
X1979377Y3196265D01*
X1980734Y3194260D01*
X1982303Y3192228D01*
X1984083Y3190170D01*
X1986075Y3188086D01*
X1968114Y3170125D01*
X1966030Y3172117D01*
X1961940Y3175466D01*
X1959935Y3176823D01*
X1957955Y3177968D01*
X1956003Y3178902D01*
X1954076Y3179624D01*
X1952176Y3180135D01*
X1950302Y3180434D01*
X1948455Y3180521D01*
X1975679Y3207745D01*
X1975766Y3205898D01*
D02*
G37*
G36*
X176175Y3106105D02*
Y3059119D01*
X124438Y3007382D01*
X111972Y2988726D01*
X107595Y2966720D01*
Y2672080D01*
X111972Y2650074D01*
X124438Y2631418D01*
X183795Y2572061D01*
Y2416209D01*
X171095Y2413682D01*
X164226Y2430265D01*
X149345Y2445146D01*
X129902Y2453200D01*
X108858D01*
X89415Y2445146D01*
X86734Y2442465D01*
X75000Y2447326D01*
Y3095200D01*
X87700Y3102533D01*
X94136Y3098817D01*
X110770Y3094360D01*
X127990D01*
X144624Y3098817D01*
X159537Y3107427D01*
X163475Y3111366D01*
X176175Y3106105D01*
D02*
G37*
G36*
X2160545Y3019346D02*
X2158697Y3019258D01*
X2156824Y3018959D01*
X2154924Y3018449D01*
X2152997Y3017726D01*
X2151044Y3016793D01*
X2149065Y3015647D01*
X2147060Y3014290D01*
X2145028Y3012721D01*
X2142970Y3010941D01*
X2140885Y3008949D01*
X2122925Y3026910D01*
X2124917Y3028994D01*
X2128265Y3033084D01*
X2129623Y3035090D01*
X2130768Y3037069D01*
X2131702Y3039022D01*
X2132424Y3040948D01*
X2132935Y3042848D01*
X2133234Y3044722D01*
X2133321Y3046569D01*
X2160545Y3019346D01*
D02*
G37*
G36*
X2394866Y3015398D02*
X2395165Y3013524D01*
X2395676Y3011624D01*
X2396398Y3009697D01*
X2397332Y3007745D01*
X2398477Y3005765D01*
X2399834Y3003760D01*
X2401403Y3001728D01*
X2403183Y2999670D01*
X2405175Y2997586D01*
X2387214Y2979625D01*
X2385130Y2981617D01*
X2381040Y2984966D01*
X2379035Y2986323D01*
X2377055Y2987468D01*
X2375103Y2988402D01*
X2373176Y2989124D01*
X2371276Y2989635D01*
X2369402Y2989934D01*
X2367555Y2990021D01*
X2394779Y3017245D01*
X2394866Y3015398D01*
D02*
G37*
G36*
X1898151Y3190566D02*
X1903334Y3178055D01*
X1918215Y3163174D01*
X1937658Y3155120D01*
X1945351D01*
X1945858Y3154994D01*
X1946113Y3154900D01*
X1946175Y3154864D01*
X1946446Y3154680D01*
X1947197Y3154066D01*
X2010287Y3090976D01*
X2022890Y3082555D01*
X2037756Y3079598D01*
X2103382D01*
X2111868Y3066898D01*
X2107920Y3057367D01*
Y3049673D01*
X2107794Y3049166D01*
X2107700Y3048911D01*
X2107664Y3048849D01*
X2107480Y3048578D01*
X2106865Y3047827D01*
X1932759Y2873721D01*
X1924339Y2861118D01*
X1921381Y2846252D01*
Y2822139D01*
X1749209Y2649967D01*
X1226820D01*
X1211954Y2647009D01*
X1199351Y2638589D01*
X969429Y2408667D01*
X730188D01*
X715322Y2405709D01*
X702719Y2397289D01*
X640991Y2335561D01*
X632570Y2322958D01*
X629613Y2308092D01*
Y2158544D01*
X626542Y2156050D01*
X617582Y2152615D01*
X584947Y2185251D01*
Y2385321D01*
X597647Y2390582D01*
X607575Y2380654D01*
X627018Y2372600D01*
X648062D01*
X667505Y2380654D01*
X682386Y2395535D01*
X690440Y2414978D01*
Y2436023D01*
X682386Y2455465D01*
X667505Y2470346D01*
X648062Y2478400D01*
X627018D01*
X607575Y2470346D01*
X598918Y2479461D01*
X663791Y2544333D01*
X815340D01*
X830206Y2547291D01*
X842809Y2555711D01*
X938111Y2651013D01*
X1109785D01*
X1124651Y2653971D01*
X1137254Y2662391D01*
X1450996Y2976133D01*
X1706475D01*
X1712475Y2970134D01*
X1731918Y2962080D01*
X1752962D01*
X1772405Y2970134D01*
X1787286Y2985015D01*
X1795340Y3004458D01*
Y3025502D01*
X1787286Y3044945D01*
X1772405Y3059826D01*
X1766734Y3062175D01*
X1764256Y3074632D01*
X1883547Y3193922D01*
X1898151Y3190566D01*
D02*
G37*
G36*
X716529Y2804297D02*
X715690Y2804128D01*
X714699Y2803736D01*
X713556Y2803122D01*
X712261Y2802285D01*
X710814Y2801226D01*
X707464Y2798440D01*
X703505Y2794764D01*
X701298Y2792592D01*
X680318Y2807532D01*
X682198Y2809480D01*
X685251Y2813079D01*
X686424Y2814731D01*
X687362Y2816283D01*
X688065Y2817737D01*
X688533Y2819092D01*
X688765Y2820348D01*
X688762Y2821505D01*
X688523Y2822564D01*
X716529Y2804297D01*
D02*
G37*
G36*
X507253Y3331065D02*
Y3307080D01*
X510211Y3292214D01*
X518631Y3279611D01*
X765331Y3032911D01*
X777934Y3024491D01*
X792800Y3021533D01*
X1369928D01*
X1374788Y3009800D01*
X1093694Y2728707D01*
X922020D01*
X907154Y2725749D01*
X894551Y2717329D01*
X799249Y2622027D01*
X647700D01*
X632834Y2619069D01*
X620231Y2610649D01*
X521447Y2511864D01*
X510340Y2515345D01*
X508747Y2516555D01*
Y2547097D01*
X716767Y2755117D01*
X725188Y2767720D01*
X727612Y2779910D01*
X744420Y2786872D01*
X759300Y2801753D01*
X770454Y2796710D01*
X767520Y2788843D01*
X767520Y2785043D01*
Y2767798D01*
X775574Y2748355D01*
X790455Y2733474D01*
X809898Y2725421D01*
X830942D01*
X850385Y2733474D01*
X865266Y2748355D01*
X873320Y2767798D01*
Y2788843D01*
X865266Y2808286D01*
X850385Y2823167D01*
X830942Y2831220D01*
X809898D01*
X790455Y2823167D01*
X775574Y2808286D01*
X764421Y2813329D01*
X767355Y2821196D01*
X767354Y2824996D01*
Y2842241D01*
X759301Y2861684D01*
X744420Y2876565D01*
X724977Y2884618D01*
X703932D01*
X684489Y2876565D01*
X669608Y2861684D01*
X661555Y2842241D01*
Y2825610D01*
X660008Y2823294D01*
X659223Y2822555D01*
X658625Y2821225D01*
X653409Y2813418D01*
X650483Y2798708D01*
X454299Y2602524D01*
X442565Y2607384D01*
Y3285891D01*
X492025Y3335350D01*
X493243Y3335677D01*
X496255Y3337415D01*
X507253Y3331065D01*
D02*
G37*
G36*
X482666Y2280829D02*
X483190Y2275569D01*
X483648Y2273192D01*
X484238Y2270982D01*
X484958Y2268941D01*
X485810Y2267068D01*
X486792Y2265364D01*
X487906Y2263827D01*
X489150Y2262459D01*
X450650D01*
X451894Y2263827D01*
X453008Y2265364D01*
X453990Y2267068D01*
X454842Y2268941D01*
X455562Y2270982D01*
X456152Y2273192D01*
X456610Y2275569D01*
X456938Y2278115D01*
X457134Y2280829D01*
X457200Y2283712D01*
X482600D01*
X482666Y2280829D01*
D02*
G37*
G36*
X755067Y2202406D02*
X756604Y2201292D01*
X758308Y2200310D01*
X760181Y2199458D01*
X762222Y2198738D01*
X764432Y2198148D01*
X766809Y2197690D01*
X769355Y2197362D01*
X772069Y2197166D01*
X774952Y2197100D01*
Y2171700D01*
X772069Y2171634D01*
X766809Y2171110D01*
X764432Y2170652D01*
X762222Y2170062D01*
X760181Y2169342D01*
X758308Y2168490D01*
X756604Y2167508D01*
X755067Y2166394D01*
X753699Y2165150D01*
Y2203650D01*
X755067Y2202406D01*
D02*
G37*
G36*
X2172014Y2144734D02*
X2170391Y2144325D01*
X2168716Y2143737D01*
X2166990Y2142969D01*
X2165212Y2142022D01*
X2163383Y2140895D01*
X2161502Y2139589D01*
X2157586Y2136440D01*
X2155550Y2134596D01*
X2153464Y2132573D01*
X2131179Y2146210D01*
X2133168Y2148309D01*
X2134906Y2150376D01*
X2136393Y2152411D01*
X2137629Y2154414D01*
X2138613Y2156386D01*
X2139346Y2158326D01*
X2139828Y2160234D01*
X2140059Y2162110D01*
X2140039Y2163955D01*
X2139768Y2165767D01*
X2172014Y2144734D01*
D02*
G37*
G36*
X2356758Y2964620D02*
X2364451D01*
X2364958Y2964494D01*
X2365213Y2964400D01*
X2365275Y2964364D01*
X2365546Y2964180D01*
X2366297Y2963566D01*
X2506754Y2823109D01*
Y1880971D01*
X2287689Y1661907D01*
X1410937D01*
X1406077Y1673640D01*
X1581091Y1848653D01*
X2178886D01*
X2193752Y1851610D01*
X2206355Y1860031D01*
X2314748Y1968425D01*
X2323169Y1981028D01*
X2326126Y1995893D01*
Y2103714D01*
X2338826Y2111047D01*
X2343207Y2108518D01*
X2361112Y2103720D01*
X2379649D01*
X2397553Y2108518D01*
X2413607Y2117786D01*
X2426714Y2130893D01*
X2435982Y2146947D01*
X2440780Y2164852D01*
Y2183389D01*
X2435982Y2201294D01*
X2426714Y2217347D01*
X2413607Y2230454D01*
X2397553Y2239722D01*
X2379649Y2244520D01*
X2361112D01*
X2343207Y2239722D01*
X2338826Y2237194D01*
X2326126Y2244526D01*
Y2967268D01*
X2338826Y2972047D01*
X2356758Y2964620D01*
D02*
G37*
G36*
X791949Y2099550D02*
X790581Y2100794D01*
X789044Y2101908D01*
X787340Y2102890D01*
X785467Y2103742D01*
X783425Y2104462D01*
X781216Y2105052D01*
X778838Y2105510D01*
X776293Y2105838D01*
X773578Y2106034D01*
X770696Y2106100D01*
Y2131500D01*
X773578Y2131565D01*
X778838Y2132089D01*
X781216Y2132548D01*
X783425Y2133137D01*
X785467Y2133858D01*
X787340Y2134709D01*
X789044Y2135692D01*
X790581Y2136805D01*
X791949Y2138050D01*
Y2099550D01*
D02*
G37*
G36*
X2222457Y3023043D02*
X2223507Y3017766D01*
X2231927Y3005163D01*
X2248433Y2988657D01*
Y2011984D01*
X2234035Y1997585D01*
X2221578Y2000063D01*
X2219229Y2005734D01*
X2204348Y2020615D01*
X2184905Y2028669D01*
X2163861D01*
X2144418Y2020615D01*
X2129537Y2005734D01*
X2121483Y1986291D01*
Y1965247D01*
X2129537Y1945804D01*
X2136294Y1939046D01*
X2131033Y1926346D01*
X1565000D01*
X1550134Y1923389D01*
X1537531Y1914968D01*
X1350509Y1727947D01*
X1109980D01*
X1095114Y1724989D01*
X1082511Y1716569D01*
X982081Y1616138D01*
X979020Y1616555D01*
X975661Y1629830D01*
X987186Y1641355D01*
X995240Y1660798D01*
Y1681842D01*
X987186Y1701285D01*
X972305Y1716166D01*
X952862Y1724220D01*
X931818D01*
X912375Y1716166D01*
X897494Y1701285D01*
X889440Y1681842D01*
Y1660798D01*
X897494Y1641355D01*
X912375Y1626474D01*
X931818Y1618420D01*
X952862D01*
X955981Y1606687D01*
X950475Y1604406D01*
X935594Y1589525D01*
X927540Y1570082D01*
Y1549038D01*
X934445Y1532367D01*
X928928Y1519667D01*
X787400D01*
X772534Y1516709D01*
X759931Y1508289D01*
X629069Y1377427D01*
X418056D01*
X417858Y1377452D01*
X417168Y1377585D01*
X417100Y1377603D01*
X416858Y1377714D01*
X416404Y1377987D01*
X410965Y1383426D01*
X391522Y1391480D01*
X370478D01*
X351035Y1383426D01*
X350740Y1383131D01*
X339006Y1387992D01*
Y1429609D01*
X384391Y1474993D01*
X670560D01*
X685426Y1477951D01*
X698029Y1486371D01*
X827569Y1615911D01*
X835989Y1628514D01*
X838947Y1643380D01*
Y1915160D01*
X835989Y1930026D01*
X827569Y1942629D01*
X702275Y2067922D01*
X705710Y2076882D01*
X708205Y2079953D01*
X774532D01*
X774730Y2079928D01*
X775420Y2079795D01*
X775488Y2079777D01*
X775729Y2079666D01*
X776183Y2079393D01*
X781622Y2073954D01*
X801065Y2065900D01*
X822110D01*
X841553Y2073954D01*
X856434Y2088835D01*
X864487Y2108277D01*
Y2129322D01*
X862138Y2134994D01*
X869194Y2145553D01*
X1361076D01*
X1456378Y2050251D01*
X1468981Y2041831D01*
X1483847Y2038873D01*
X2080650D01*
X2095516Y2041831D01*
X2108118Y2050251D01*
X2175400Y2117533D01*
X2176976Y2118800D01*
X2177142D01*
X2196585Y2126854D01*
X2211466Y2141735D01*
X2219520Y2161178D01*
Y2182222D01*
X2211466Y2201665D01*
X2196585Y2216546D01*
X2177142Y2224600D01*
X2156098D01*
X2136655Y2216546D01*
X2121774Y2201665D01*
X2113720Y2182222D01*
Y2165727D01*
X2064559Y2116567D01*
X1986992D01*
X1986135Y2117964D01*
X1983098Y2129267D01*
X1995566Y2141735D01*
X2003620Y2161178D01*
Y2182222D01*
X1995566Y2201665D01*
X1980685Y2216546D01*
X1961242Y2224600D01*
X1940198D01*
X1920755Y2216546D01*
X1905874Y2201665D01*
X1897820Y2182222D01*
Y2161178D01*
X1905874Y2141735D01*
X1918342Y2129267D01*
X1915305Y2117964D01*
X1914448Y2116567D01*
X1499938D01*
X1404635Y2211869D01*
X1392033Y2220289D01*
X1377167Y2223247D01*
X828406D01*
X819919Y2235947D01*
X823809Y2245336D01*
Y2266381D01*
X815755Y2285824D01*
X800874Y2300705D01*
X781431Y2308758D01*
X760386D01*
X740943Y2300705D01*
X726063Y2285824D01*
X720006Y2271203D01*
X707306Y2273730D01*
Y2292002D01*
X746278Y2330973D01*
X985520D01*
X1000386Y2333931D01*
X1012989Y2342351D01*
X1242911Y2572273D01*
X1765300D01*
X1780166Y2575231D01*
X1792769Y2583651D01*
X1987697Y2778579D01*
X1996117Y2791182D01*
X1999074Y2806048D01*
Y2830162D01*
X2162086Y2993173D01*
X2162244Y2993295D01*
X2162825Y2993688D01*
X2162886Y2993724D01*
X2163142Y2993819D01*
X2163649Y2993944D01*
X2171342D01*
X2190785Y3001998D01*
X2205666Y3016879D01*
X2208015Y3022550D01*
X2220472Y3025028D01*
X2222457Y3023043D01*
D02*
G37*
G36*
X1018335Y1579494D02*
X1016343Y1577410D01*
X1012994Y1573320D01*
X1011637Y1571315D01*
X1010492Y1569335D01*
X1009558Y1567383D01*
X1008836Y1565456D01*
X1008325Y1563556D01*
X1008026Y1561682D01*
X1007939Y1559835D01*
X980715Y1587059D01*
X982562Y1587146D01*
X984436Y1587445D01*
X986336Y1587956D01*
X988263Y1588678D01*
X990215Y1589612D01*
X992195Y1590757D01*
X994200Y1592114D01*
X996232Y1593683D01*
X998290Y1595463D01*
X1000374Y1597455D01*
X1018335Y1579494D01*
D02*
G37*
G36*
X1348350Y1359619D02*
X1348731Y1358698D01*
X1365018Y1342411D01*
X1373065Y1339078D01*
X1370539Y1326378D01*
X920978D01*
X914758Y1339078D01*
X919025Y1344575D01*
X1049249D01*
X1050203Y1344180D01*
X1073237D01*
X1094518Y1352995D01*
X1110805Y1369282D01*
X1114071Y1377166D01*
X1147520Y1410615D01*
X1297353D01*
X1348350Y1359619D01*
D02*
G37*
G36*
X402007Y1356586D02*
X403544Y1355472D01*
X405248Y1354490D01*
X407121Y1353638D01*
X409162Y1352918D01*
X411372Y1352328D01*
X413749Y1351870D01*
X416295Y1351542D01*
X419009Y1351346D01*
X421892Y1351280D01*
Y1325880D01*
X419009Y1325814D01*
X413749Y1325290D01*
X411372Y1324832D01*
X409162Y1324242D01*
X407121Y1323522D01*
X405248Y1322670D01*
X403544Y1321688D01*
X402007Y1320574D01*
X400639Y1319330D01*
Y1357830D01*
X402007Y1356586D01*
D02*
G37*
G36*
X360149Y1272972D02*
X362216Y1271234D01*
X364251Y1269747D01*
X366254Y1268511D01*
X368226Y1267527D01*
X370166Y1266794D01*
X372074Y1266312D01*
X373950Y1266081D01*
X375795Y1266101D01*
X377607Y1266372D01*
X356574Y1234126D01*
X356165Y1235749D01*
X355577Y1237424D01*
X354809Y1239150D01*
X353862Y1240928D01*
X352735Y1242757D01*
X351429Y1244638D01*
X348280Y1248554D01*
X346436Y1250590D01*
X344413Y1252676D01*
X358050Y1274961D01*
X360149Y1272972D01*
D02*
G37*
G36*
X838376Y1430240D02*
X598481Y1190345D01*
X427137D01*
X421876Y1203045D01*
X428386Y1209555D01*
X436440Y1228998D01*
Y1250042D01*
X428386Y1269485D01*
X415848Y1282023D01*
X415025Y1283998D01*
X414681Y1288597D01*
X424090Y1299733D01*
X645160D01*
X660026Y1302691D01*
X672629Y1311111D01*
X803491Y1441973D01*
X833516D01*
X838376Y1430240D01*
D02*
G37*
G36*
X1925320Y1226820D02*
Y1003300D01*
X1775460Y853440D01*
X1694180D01*
X1632159Y854093D01*
X1629697Y866819D01*
X1630165Y867014D01*
X1645046Y881895D01*
X1653100Y901338D01*
Y922382D01*
X1645046Y941825D01*
X1644532Y942340D01*
X1645046Y942855D01*
X1653100Y962298D01*
Y983342D01*
X1645046Y1002785D01*
X1630165Y1017666D01*
X1610722Y1025720D01*
X1589678D01*
X1570235Y1017666D01*
X1555354Y1002785D01*
X1547300Y983342D01*
Y962298D01*
X1555354Y942855D01*
X1555868Y942340D01*
X1555354Y941825D01*
X1547300Y922382D01*
Y901338D01*
X1555354Y881895D01*
X1569798Y867450D01*
X1569685Y865179D01*
X1566575Y854783D01*
X1452880Y855980D01*
Y812800D01*
X1379220Y739140D01*
X878840D01*
X833120Y784860D01*
Y1012316D01*
X845820Y1015719D01*
X846786Y1014046D01*
X858962Y1001870D01*
X873875Y993260D01*
X890509Y988803D01*
X907729D01*
X924362Y993260D01*
X939275Y1001870D01*
X951451Y1014046D01*
X960062Y1028960D01*
X964519Y1045593D01*
Y1062813D01*
X960062Y1079447D01*
X951451Y1094360D01*
X939275Y1106536D01*
X924362Y1115146D01*
X907729Y1119603D01*
X890509D01*
X873875Y1115146D01*
X858962Y1106536D01*
X846786Y1094360D01*
X845820Y1092687D01*
X833120Y1096090D01*
Y1239520D01*
X894080Y1300480D01*
X1465580D01*
X1503680Y1338580D01*
X1813560D01*
X1925320Y1226820D01*
D02*
G37*
G36*
X2872471Y3431504D02*
Y1496895D01*
X2872968Y1494393D01*
Y1491843D01*
X2873944Y1489486D01*
X2874442Y1486984D01*
X2875859Y1484863D01*
X2876835Y1482507D01*
X2878639Y1480703D01*
X2880056Y1478583D01*
X2880228Y1476834D01*
X2869424Y1466030D01*
X2860609Y1444750D01*
Y1421715D01*
X2869424Y1400435D01*
X2873518Y1396341D01*
X2876835Y1383958D01*
X2875859Y1381602D01*
X2874442Y1379481D01*
X2873944Y1376979D01*
X2872968Y1374623D01*
Y1372072D01*
X2872471Y1369570D01*
Y877359D01*
X2756608Y761497D01*
X2214440D01*
Y769982D01*
X2206386Y789425D01*
X2191505Y804306D01*
X2172062Y812360D01*
X2151018D01*
X2131575Y804306D01*
X2116694Y789425D01*
X2108640Y769982D01*
Y761497D01*
X1640840D01*
X1640386Y761406D01*
X1639929Y761481D01*
X1635446Y760424D01*
X1630929Y759526D01*
X1630544Y759268D01*
X1630094Y759162D01*
X1626356Y756470D01*
X1622528Y753912D01*
X1622271Y753527D01*
X1621895Y753256D01*
X1606290Y736512D01*
X1605631Y735447D01*
X1604689Y734621D01*
X1602993Y731182D01*
X1600975Y727918D01*
X1600774Y726681D01*
X1600220Y725558D01*
X1599969Y721731D01*
X1599353Y717944D01*
X1599641Y716725D01*
X1599559Y715475D01*
X1600122Y711202D01*
Y598798D01*
X1597925Y582116D01*
X1592141Y568152D01*
X1582940Y556160D01*
X1570949Y546959D01*
X1556986Y541175D01*
X1542000Y539203D01*
X1527015Y541175D01*
X1513052Y546959D01*
X1501060Y556160D01*
X1492864Y566842D01*
X1491169Y568329D01*
X1489837Y570150D01*
X1487406Y571629D01*
X1485267Y573504D01*
X1483132Y574229D01*
X1481204Y575402D01*
X1478393Y575838D01*
X1475699Y576752D01*
X1466900Y586459D01*
Y593818D01*
X1458238Y614731D01*
X1442231Y630738D01*
X1421318Y639400D01*
X1398682D01*
X1377769Y630738D01*
X1361763Y614731D01*
X1358358Y606512D01*
X1353100Y607558D01*
X866900D01*
X861642Y606512D01*
X858238Y614731D01*
X842231Y630738D01*
X821318Y639400D01*
X798682D01*
X777769Y630738D01*
X761763Y614731D01*
X753101Y593818D01*
Y571182D01*
X761763Y550269D01*
X764008Y539260D01*
X762591Y537140D01*
X760787Y535336D01*
X759811Y532980D01*
X758394Y530859D01*
X757896Y528357D01*
X756920Y526000D01*
Y523450D01*
X756422Y520948D01*
Y490689D01*
X758394Y480778D01*
X764007Y472377D01*
X772409Y466763D01*
X775624Y465431D01*
X777191Y460814D01*
X772394Y442910D01*
Y424373D01*
X777191Y406468D01*
X786460Y390415D01*
X799567Y377307D01*
X801626Y376119D01*
X797667Y367480D01*
X797247Y366753D01*
X797000Y366024D01*
X796362Y364633D01*
X795749Y363715D01*
X795088Y360392D01*
X793999Y357184D01*
X794111Y355480D01*
X793778Y353804D01*
X794439Y350482D01*
X794660Y347101D01*
X795416Y345569D01*
X795749Y343894D01*
X797631Y341078D01*
X799129Y338039D01*
X800414Y336912D01*
X801363Y335492D01*
X869738Y267117D01*
X873925Y264319D01*
X878060Y261536D01*
X878103Y261528D01*
X878140Y261503D01*
X883081Y260520D01*
X887963Y259532D01*
X1060831Y258951D01*
X1062550Y259287D01*
X1064298Y259172D01*
X1067465Y260247D01*
X1070748Y260888D01*
X1072208Y261857D01*
X1073867Y262420D01*
X1076382Y264626D01*
X1079169Y266474D01*
X1080147Y267927D01*
X1081464Y269083D01*
X1082944Y272084D01*
X1084811Y274857D01*
X1085158Y276574D01*
X1085933Y278145D01*
X1088830Y288957D01*
X1094689Y299105D01*
X1102975Y307391D01*
X1113123Y313250D01*
X1124441Y316282D01*
X1136159D01*
X1147477Y313250D01*
X1157625Y307391D01*
X1165911Y299105D01*
X1171770Y288957D01*
X1174792Y277679D01*
X1175528Y276185D01*
X1175848Y274551D01*
X1177743Y271694D01*
X1179261Y268616D01*
X1180513Y267518D01*
X1181433Y266131D01*
X1184278Y264216D01*
X1186858Y261954D01*
X1188435Y261418D01*
X1189816Y260489D01*
X1193177Y259808D01*
X1196426Y258705D01*
X1198089Y258814D01*
X1199720Y258484D01*
X1446781Y257654D01*
X1446803Y257658D01*
X1446825Y257654D01*
X1451758Y258626D01*
X1456698Y259592D01*
X1456717Y259604D01*
X1456739Y259608D01*
X1460912Y262387D01*
X1465119Y265177D01*
X1465131Y265196D01*
X1465150Y265208D01*
X1474145Y274173D01*
X1474157Y274191D01*
X1474176Y274204D01*
X1476990Y278416D01*
X1479773Y282565D01*
X1479777Y282587D01*
X1479790Y282606D01*
X1480769Y287531D01*
X1481761Y292473D01*
X1481757Y292494D01*
X1481761Y292516D01*
Y330803D01*
X1484030Y348033D01*
X1490025Y362508D01*
X1499563Y374938D01*
X1511993Y384476D01*
X1526467Y390471D01*
X1542000Y392516D01*
X1557534Y390471D01*
X1572008Y384475D01*
X1584438Y374938D01*
X1593975Y362508D01*
X1599971Y348034D01*
X1602239Y330803D01*
Y282942D01*
X1603210Y278060D01*
X1604177Y273112D01*
X1604202Y273075D01*
X1604211Y273031D01*
X1606991Y268871D01*
X1609763Y264691D01*
X1609800Y264667D01*
X1609825Y264630D01*
X1614011Y261832D01*
X1618146Y259049D01*
X1618189Y259041D01*
X1618226Y259016D01*
X1623168Y258033D01*
X1628050Y257045D01*
X2657604Y253585D01*
X2660558Y254162D01*
X2663568Y254260D01*
X2665470Y255122D01*
X2667521Y255523D01*
X2670030Y257187D01*
X2672772Y258429D01*
X2782417Y336976D01*
X2783875Y338532D01*
X2785648Y339716D01*
X2787297Y342184D01*
X2789326Y344350D01*
X2790077Y346345D01*
X2791262Y348118D01*
X2791841Y351029D01*
X2792887Y353807D01*
X2792817Y355938D01*
X2793233Y358029D01*
Y437588D01*
X3066347Y710702D01*
X3348368D01*
X3358279Y712674D01*
X3362300Y715361D01*
X3375000Y709620D01*
Y376500D01*
Y351483D01*
X3365239Y302411D01*
X3346092Y256186D01*
X3318295Y214585D01*
X3282916Y179205D01*
X3241314Y151408D01*
X3195089Y132261D01*
X3146017Y122500D01*
X329000D01*
X303983Y122500D01*
X254911Y132261D01*
X208686Y151408D01*
X167085Y179205D01*
X131706Y214585D01*
X103908Y256186D01*
X84761Y302411D01*
X75000Y351483D01*
Y376500D01*
Y2353274D01*
X86734Y2358135D01*
X89415Y2355454D01*
X108858Y2347400D01*
X129902D01*
X149345Y2355454D01*
X164226Y2370335D01*
X171095Y2386918D01*
X183795Y2384391D01*
Y2073254D01*
X188172Y2051248D01*
X200638Y2032592D01*
X319417Y1913814D01*
Y1664787D01*
X258995Y1604365D01*
X182880D01*
X160874Y1599988D01*
X142218Y1587522D01*
X119358Y1564662D01*
X106892Y1546006D01*
X102515Y1524000D01*
Y1252220D01*
X106892Y1230214D01*
X119358Y1211558D01*
X238738Y1092178D01*
X257394Y1079712D01*
X279400Y1075335D01*
X297328D01*
X305814Y1062635D01*
X301020Y1051062D01*
Y1030017D01*
X307968Y1013244D01*
X306384Y998841D01*
X302775Y997346D01*
X287894Y982465D01*
X279840Y963022D01*
Y941978D01*
X287894Y922535D01*
X302775Y907654D01*
X322218Y899600D01*
X343262D01*
X362705Y907654D01*
X377586Y922535D01*
X385640Y941978D01*
Y963022D01*
X378692Y979796D01*
X380276Y994199D01*
X383885Y995694D01*
X398766Y1010575D01*
X406820Y1030017D01*
Y1051062D01*
X402026Y1062635D01*
X410512Y1075335D01*
X622300D01*
X644306Y1079712D01*
X662962Y1092178D01*
X795489Y1224705D01*
X807222Y1219845D01*
Y1096090D01*
X807556Y1094415D01*
X807444Y1092710D01*
X808533Y1089502D01*
X809194Y1086180D01*
X810143Y1084760D01*
X810692Y1083142D01*
X812926Y1080594D01*
X814808Y1077778D01*
X816228Y1076829D01*
X817354Y1075544D01*
X820393Y1074046D01*
X823209Y1072164D01*
X834219Y1064682D01*
X833719Y1062813D01*
Y1045593D01*
X834219Y1043724D01*
X823209Y1036242D01*
X820393Y1034360D01*
X817354Y1032862D01*
X816228Y1031577D01*
X814808Y1030628D01*
X812926Y1027812D01*
X810692Y1025265D01*
X810143Y1023647D01*
X809194Y1022227D01*
X808533Y1018904D01*
X807444Y1015696D01*
X807556Y1013991D01*
X807222Y1012316D01*
Y784860D01*
X809194Y774949D01*
X814808Y766548D01*
X860528Y720828D01*
X868929Y715214D01*
X878840Y713242D01*
X1379220D01*
X1389131Y715214D01*
X1397532Y720828D01*
X1471192Y794488D01*
X1476806Y802889D01*
X1478778Y812800D01*
Y820780D01*
X1487805Y829713D01*
X1566302Y828887D01*
X1567747Y829159D01*
X1569211Y829020D01*
X1572676Y830085D01*
X1576233Y830754D01*
X1577463Y831557D01*
X1578870Y831990D01*
X1581662Y834299D01*
X1584694Y836279D01*
X1585523Y837493D01*
X1586656Y838430D01*
X1588352Y841632D01*
X1590396Y844621D01*
X1590698Y846060D01*
X1591386Y847360D01*
X1593063Y852966D01*
X1606125Y852315D01*
X1606732Y849174D01*
X1607670Y846876D01*
X1608129Y844435D01*
X1609561Y842242D01*
X1610550Y839818D01*
X1612297Y838053D01*
X1613654Y835974D01*
X1615816Y834497D01*
X1617658Y832636D01*
X1619946Y831673D01*
X1621997Y830272D01*
X1624559Y829734D01*
X1626973Y828720D01*
X1629456Y828707D01*
X1631886Y828197D01*
X1693907Y827544D01*
X1694044Y827570D01*
X1694180Y827542D01*
X1775460D01*
X1785371Y829514D01*
X1793772Y835128D01*
X1943632Y984988D01*
X1949246Y993389D01*
X1951218Y1003300D01*
Y1226820D01*
X1949246Y1236731D01*
X1943632Y1245132D01*
X1831872Y1356892D01*
X1823471Y1362506D01*
X1813560Y1364478D01*
X1576241D01*
X1569185Y1375037D01*
X1571820Y1381398D01*
Y1402442D01*
X1563766Y1421885D01*
X1548885Y1436766D01*
X1529442Y1444820D01*
X1508398D01*
X1488955Y1436766D01*
X1474074Y1421885D01*
X1467449Y1405893D01*
X1454287Y1406464D01*
X1446901Y1424294D01*
X1430614Y1440581D01*
X1429627Y1440990D01*
X1361834Y1508782D01*
X1343179Y1521248D01*
X1321172Y1525625D01*
X1123701D01*
X1113991Y1523694D01*
X1107735Y1535398D01*
X1156551Y1584213D01*
X2303780D01*
X2318646Y1587171D01*
X2331249Y1595591D01*
X2573069Y1837412D01*
X2581490Y1850014D01*
X2584447Y1864880D01*
Y2839200D01*
X2581490Y2854066D01*
X2573069Y2866668D01*
X2420951Y3018786D01*
X2420829Y3018944D01*
X2420436Y3019525D01*
X2420401Y3019586D01*
X2420306Y3019843D01*
X2420180Y3020349D01*
Y3028042D01*
X2412126Y3047485D01*
X2397245Y3062366D01*
X2377802Y3070420D01*
X2356758D01*
X2337315Y3062366D01*
X2322434Y3047485D01*
X2320971Y3043954D01*
X2305990Y3040974D01*
X2296335Y3050629D01*
X2295285Y3055907D01*
X2286865Y3068509D01*
X2209461Y3145913D01*
X2200868Y3151655D01*
X2201024Y3165073D01*
X2201205Y3165541D01*
X2202979Y3166276D01*
X2217860Y3181156D01*
X2225914Y3200599D01*
Y3221644D01*
X2217860Y3241087D01*
X2202979Y3255968D01*
X2183536Y3264022D01*
X2162491D01*
X2143048Y3255968D01*
X2128167Y3241087D01*
X2120114Y3221644D01*
Y3200599D01*
X2128167Y3181156D01*
X2139333Y3169991D01*
X2134079Y3157291D01*
X2053847D01*
X2001851Y3209286D01*
X2001729Y3209444D01*
X2001336Y3210025D01*
X2001301Y3210086D01*
X2001206Y3210343D01*
X2001080Y3210849D01*
Y3218542D01*
X1993026Y3237985D01*
X1978145Y3252866D01*
X1965634Y3258049D01*
X1962278Y3272653D01*
X2011518Y3321894D01*
X2789240D01*
X2804106Y3324851D01*
X2816709Y3333271D01*
X2837605Y3354168D01*
X2846026Y3366771D01*
X2848983Y3381637D01*
Y3415382D01*
X2849009Y3415579D01*
X2849142Y3416269D01*
X2849160Y3416337D01*
X2849271Y3416579D01*
X2849544Y3417033D01*
X2854983Y3422472D01*
X2859771Y3434030D01*
X2872471Y3431504D01*
D02*
G37*
%LPC*%
G36*
X2502890Y4614540D02*
X2485670D01*
X2469036Y4610083D01*
X2454123Y4601473D01*
X2441947Y4589297D01*
X2440921Y4587520D01*
X2430232Y4586112D01*
X2415319Y4594723D01*
X2398685Y4599180D01*
X2381465D01*
X2364832Y4594723D01*
X2349919Y4586112D01*
X2337742Y4573936D01*
X2329132Y4559023D01*
X2324675Y4542390D01*
Y4525170D01*
X2329132Y4508536D01*
X2337742Y4493623D01*
X2349919Y4481447D01*
X2364832Y4472837D01*
X2381465Y4468380D01*
X2398685D01*
X2415319Y4472837D01*
X2430232Y4481447D01*
X2442408Y4493623D01*
X2443434Y4495400D01*
X2454124Y4496807D01*
X2469036Y4488197D01*
X2485670Y4483740D01*
X2502890D01*
X2519524Y4488197D01*
X2531495Y4495109D01*
X2540155Y4494031D01*
X2546528Y4490938D01*
X2553707Y4478503D01*
X2565883Y4466327D01*
X2580796Y4457717D01*
X2597430Y4453260D01*
X2614650D01*
X2631284Y4457717D01*
X2646197Y4466327D01*
X2658373Y4478503D01*
X2666983Y4493416D01*
X2671440Y4510050D01*
Y4527270D01*
X2666983Y4543904D01*
X2658373Y4558817D01*
X2646197Y4570993D01*
X2631284Y4579603D01*
X2614650Y4584060D01*
X2597430D01*
X2580796Y4579603D01*
X2568825Y4572691D01*
X2560165Y4573769D01*
X2553792Y4576862D01*
X2546613Y4589297D01*
X2534437Y4601473D01*
X2519524Y4610083D01*
X2502890Y4614540D01*
D02*
G37*
G36*
X2610007Y3752900D02*
X2588963D01*
X2569520Y3744846D01*
X2554639Y3729965D01*
X2546585Y3710522D01*
Y3689478D01*
X2554639Y3670035D01*
X2569520Y3655154D01*
X2588963Y3647100D01*
X2610007D01*
X2629450Y3655154D01*
X2644331Y3670035D01*
X2652385Y3689478D01*
Y3710522D01*
X2644331Y3729965D01*
X2629450Y3744846D01*
X2610007Y3752900D01*
D02*
G37*
G36*
X2279035Y4090045D02*
X2257990D01*
X2238547Y4081991D01*
X2223666Y4067110D01*
X2215613Y4047667D01*
Y4026622D01*
X2217125Y4022971D01*
Y3860507D01*
X2221037Y3840842D01*
X2232176Y3824171D01*
X2419981Y3636366D01*
X2421494Y3632715D01*
X2436375Y3617834D01*
X2455818Y3609780D01*
X2476862D01*
X2496305Y3617834D01*
X2511186Y3632715D01*
X2519240Y3652158D01*
Y3673202D01*
X2511186Y3692645D01*
X2496305Y3707526D01*
X2492654Y3709039D01*
X2319900Y3881793D01*
Y4022971D01*
X2321412Y4026622D01*
Y4047667D01*
X2313359Y4067110D01*
X2298478Y4081991D01*
X2279035Y4090045D01*
D02*
G37*
G36*
X1014450Y3425820D02*
X997230D01*
X980596Y3421363D01*
X965683Y3412753D01*
X953507Y3400577D01*
X944897Y3385664D01*
X940440Y3369030D01*
Y3351810D01*
X944897Y3335176D01*
X953507Y3320263D01*
X965683Y3308087D01*
X980596Y3299477D01*
X997230Y3295020D01*
X1014450D01*
X1031084Y3299477D01*
X1045997Y3308087D01*
X1058173Y3320263D01*
X1066783Y3335176D01*
X1071240Y3351810D01*
Y3369030D01*
X1066783Y3385664D01*
X1058173Y3400577D01*
X1045997Y3412753D01*
X1031084Y3421363D01*
X1014450Y3425820D01*
D02*
G37*
G36*
X3108900Y4151338D02*
X3087855D01*
X3068412Y4143284D01*
X3053532Y4128403D01*
X3045478Y4108960D01*
Y4108494D01*
X3032778Y4103234D01*
X3027165Y4108846D01*
X3007722Y4116900D01*
X2986678D01*
X2967235Y4108846D01*
X2952354Y4093965D01*
X2944300Y4074522D01*
Y4053478D01*
X2952354Y4034035D01*
X2967235Y4019154D01*
X2986678Y4011100D01*
X3007722D01*
X3027165Y4019154D01*
X3042046Y4034035D01*
X3050100Y4053478D01*
Y4053944D01*
X3062800Y4059204D01*
X3068412Y4053592D01*
X3087855Y4045538D01*
X3108900D01*
X3128343Y4053592D01*
X3143224Y4068472D01*
X3151278Y4087915D01*
Y4108960D01*
X3143224Y4128403D01*
X3128343Y4143284D01*
X3108900Y4151338D01*
D02*
G37*
G36*
X3111709Y3850206D02*
X3090664D01*
X3071221Y3842153D01*
X3056340Y3827272D01*
X3048287Y3807829D01*
Y3786784D01*
X3056340Y3767341D01*
X3071221Y3752460D01*
X3090664Y3744407D01*
X3111709D01*
X3131152Y3752460D01*
X3146033Y3767341D01*
X3154086Y3786784D01*
Y3807829D01*
X3146033Y3827272D01*
X3131152Y3842153D01*
X3111709Y3850206D01*
D02*
G37*
G36*
X2944222Y3799400D02*
X2923178D01*
X2903735Y3791346D01*
X2888854Y3776465D01*
X2880800Y3757022D01*
Y3735978D01*
X2888854Y3716535D01*
X2903735Y3701654D01*
X2923178Y3693600D01*
X2944222D01*
X2963665Y3701654D01*
X2978546Y3716535D01*
X2986600Y3735978D01*
Y3757022D01*
X2978546Y3776465D01*
X2963665Y3791346D01*
X2944222Y3799400D01*
D02*
G37*
G36*
X3130390Y2728132D02*
X3109345D01*
X3089902Y2720079D01*
X3075021Y2705198D01*
X3066967Y2685755D01*
Y2664710D01*
X3075021Y2645267D01*
X3089902Y2630386D01*
X3109345Y2622333D01*
X3130390D01*
X3149833Y2630386D01*
X3164714Y2645267D01*
X3172767Y2664710D01*
Y2685755D01*
X3164714Y2705198D01*
X3149833Y2720079D01*
X3130390Y2728132D01*
D02*
G37*
G36*
X3287122Y2679260D02*
X3266078D01*
X3246635Y2671206D01*
X3231754Y2656325D01*
X3223700Y2636882D01*
Y2615838D01*
X3231754Y2596395D01*
X3246635Y2581514D01*
X3266078Y2573460D01*
X3287122D01*
X3306565Y2581514D01*
X3321446Y2596395D01*
X3329500Y2615838D01*
Y2636882D01*
X3321446Y2656325D01*
X3306565Y2671206D01*
X3287122Y2679260D01*
D02*
G37*
G36*
X1394822Y510100D02*
X1373778D01*
X1354335Y502046D01*
X1339454Y487165D01*
X1331400Y467722D01*
Y446678D01*
X1339454Y427235D01*
X1354335Y412354D01*
X1373778Y404300D01*
X1394822D01*
X1414265Y412354D01*
X1429146Y427235D01*
X1437200Y446678D01*
Y467722D01*
X1429146Y487165D01*
X1414265Y502046D01*
X1394822Y510100D01*
D02*
G37*
G36*
X1018902Y502480D02*
X997858D01*
X978415Y494426D01*
X963534Y479545D01*
X955480Y460102D01*
Y439058D01*
X963534Y419615D01*
X978415Y404734D01*
X997858Y396680D01*
X1018902D01*
X1038345Y404734D01*
X1053226Y419615D01*
X1061280Y439058D01*
Y460102D01*
X1053226Y479545D01*
X1038345Y494426D01*
X1018902Y502480D01*
D02*
G37*
G36*
X1976482Y462500D02*
X1955438D01*
X1935995Y454446D01*
X1921114Y439566D01*
X1913060Y420123D01*
Y399078D01*
X1921114Y379635D01*
X1935995Y364754D01*
X1955438Y356700D01*
X1976482D01*
X1995925Y364754D01*
X2010806Y379635D01*
X2018860Y399078D01*
Y420123D01*
X2010806Y439566D01*
X1995925Y454446D01*
X1976482Y462500D01*
D02*
G37*
G36*
X2200002Y428820D02*
X2178958D01*
X2159515Y420766D01*
X2144634Y405885D01*
X2136580Y386442D01*
Y365398D01*
X2144634Y345955D01*
X2159515Y331074D01*
X2178958Y323020D01*
X2200002D01*
X2219445Y331074D01*
X2234326Y345955D01*
X2242380Y365398D01*
Y386442D01*
X2234326Y405885D01*
X2219445Y420766D01*
X2200002Y428820D01*
D02*
G37*
G36*
X824547Y2531605D02*
X803502D01*
X784059Y2523551D01*
X769178Y2508670D01*
X761124Y2489227D01*
Y2468182D01*
X769178Y2448739D01*
X784059Y2433858D01*
X803502Y2425805D01*
X824547D01*
X843990Y2433858D01*
X858871Y2448739D01*
X866924Y2468182D01*
Y2489227D01*
X858871Y2508670D01*
X843990Y2523551D01*
X824547Y2531605D01*
D02*
G37*
G36*
X1961242Y2646240D02*
X1940198D01*
X1920755Y2638186D01*
X1905874Y2623305D01*
X1897820Y2603862D01*
Y2582818D01*
X1905874Y2563375D01*
X1920755Y2548494D01*
X1940198Y2540440D01*
X1961242D01*
X1980685Y2548494D01*
X1995566Y2563375D01*
X2003620Y2582818D01*
Y2603862D01*
X1995566Y2623305D01*
X1980685Y2638186D01*
X1961242Y2646240D01*
D02*
G37*
G36*
X1962237Y2460740D02*
X1939203D01*
X1917922Y2451925D01*
X1901635Y2435638D01*
X1892820Y2414357D01*
Y2391323D01*
X1901635Y2370042D01*
X1917922Y2353755D01*
X1939203Y2344940D01*
X1962237D01*
X1983518Y2353755D01*
X1999805Y2370042D01*
X2008620Y2391323D01*
Y2414357D01*
X1999805Y2435638D01*
X1983518Y2451925D01*
X1962237Y2460740D01*
D02*
G37*
G36*
X1758147Y2239717D02*
X1737102D01*
X1717659Y2231663D01*
X1702778Y2216782D01*
X1694724Y2197340D01*
Y2176295D01*
X1702778Y2156852D01*
X1717659Y2141971D01*
X1737102Y2133917D01*
X1758147D01*
X1777590Y2141971D01*
X1792470Y2156852D01*
X1800524Y2176295D01*
Y2197340D01*
X1792470Y2216782D01*
X1777590Y2231663D01*
X1758147Y2239717D01*
D02*
G37*
G36*
X1331322Y2036640D02*
X1310278D01*
X1290835Y2028586D01*
X1275954Y2013705D01*
X1267900Y1994262D01*
Y1973218D01*
X1275954Y1953775D01*
X1290835Y1938894D01*
X1310278Y1930840D01*
X1331322D01*
X1350765Y1938894D01*
X1365646Y1953775D01*
X1373700Y1973218D01*
Y1994262D01*
X1365646Y2013705D01*
X1350765Y2028586D01*
X1331322Y2036640D01*
D02*
G37*
G36*
X963022Y1894120D02*
X941978D01*
X922535Y1886066D01*
X907654Y1871185D01*
X899600Y1851742D01*
Y1830697D01*
X907654Y1811254D01*
X922535Y1796374D01*
X941978Y1788320D01*
X963022D01*
X982465Y1796374D01*
X997346Y1811254D01*
X1005400Y1830697D01*
Y1851742D01*
X997346Y1871185D01*
X982465Y1886066D01*
X963022Y1894120D01*
D02*
G37*
G36*
X1140879Y1847061D02*
X1119834D01*
X1100391Y1839007D01*
X1085511Y1824126D01*
X1077457Y1804683D01*
Y1783638D01*
X1085511Y1764195D01*
X1100391Y1749315D01*
X1119834Y1741261D01*
X1140879D01*
X1160322Y1749315D01*
X1175203Y1764195D01*
X1183257Y1783638D01*
Y1804683D01*
X1175203Y1824126D01*
X1160322Y1839007D01*
X1140879Y1847061D01*
D02*
G37*
G36*
X1491985Y1250628D02*
X1473448D01*
X1455543Y1245830D01*
X1439490Y1236562D01*
X1426383Y1223455D01*
X1417115Y1207401D01*
X1412317Y1189496D01*
Y1170960D01*
X1417115Y1153055D01*
X1426383Y1137001D01*
X1439490Y1123894D01*
X1455543Y1114626D01*
X1473448Y1109828D01*
X1491985D01*
X1509890Y1114626D01*
X1525944Y1123894D01*
X1539051Y1137001D01*
X1548319Y1153055D01*
X1553117Y1170960D01*
Y1189496D01*
X1548319Y1207401D01*
X1539051Y1223455D01*
X1525944Y1236562D01*
X1509890Y1245830D01*
X1491985Y1250628D01*
D02*
G37*
G36*
X1174643Y1082400D02*
X1153598D01*
X1134155Y1074346D01*
X1119274Y1059465D01*
X1111220Y1040023D01*
Y1018978D01*
X1119274Y999535D01*
X1134155Y984654D01*
X1153598Y976600D01*
X1174643D01*
X1194085Y984654D01*
X1208966Y999535D01*
X1217020Y1018978D01*
Y1040023D01*
X1208966Y1059465D01*
X1194085Y1074346D01*
X1174643Y1082400D01*
D02*
G37*
G36*
X2370345Y3262758D02*
X2349300D01*
X2329857Y3254705D01*
X2314976Y3239824D01*
X2306922Y3220381D01*
Y3199336D01*
X2314976Y3179893D01*
X2329857Y3165012D01*
X2349300Y3156959D01*
X2370345D01*
X2389788Y3165012D01*
X2404669Y3179893D01*
X2412722Y3199336D01*
Y3220381D01*
X2404669Y3239824D01*
X2389788Y3254705D01*
X2370345Y3262758D01*
D02*
G37*
G36*
X2590417Y3073705D02*
X2569372D01*
X2549929Y3065651D01*
X2535048Y3050771D01*
X2526995Y3031328D01*
Y3010283D01*
X2535048Y2990840D01*
X2549929Y2975959D01*
X2569372Y2967905D01*
X2577066D01*
X2577573Y2967779D01*
X2577828Y2967685D01*
X2577890Y2967649D01*
X2578161Y2967465D01*
X2578912Y2966851D01*
X2749967Y2795796D01*
Y1999518D01*
X2749942Y1999320D01*
X2749809Y1998630D01*
X2749791Y1998562D01*
X2749680Y1998321D01*
X2749406Y1997866D01*
X2743967Y1992428D01*
X2735914Y1972985D01*
Y1951940D01*
X2743967Y1932497D01*
X2758848Y1917616D01*
X2778291Y1909562D01*
X2799336D01*
X2818779Y1917616D01*
X2833660Y1932497D01*
X2841713Y1951940D01*
Y1972985D01*
X2833660Y1992428D01*
X2828221Y1997866D01*
X2827948Y1998320D01*
X2827837Y1998562D01*
X2827819Y1998630D01*
X2827756Y1998955D01*
X2827660Y1999918D01*
Y2811886D01*
X2824703Y2826752D01*
X2816282Y2839355D01*
X2633566Y3022071D01*
X2633444Y3022229D01*
X2633051Y3022810D01*
X2633015Y3022872D01*
X2632920Y3023128D01*
X2632794Y3023634D01*
Y3031328D01*
X2624741Y3050771D01*
X2609860Y3065651D01*
X2590417Y3073705D01*
D02*
G37*
G36*
X2063837Y1482840D02*
X2040803D01*
X2019522Y1474025D01*
X2003235Y1457738D01*
X1994420Y1436457D01*
Y1413423D01*
X2003235Y1392142D01*
X2019522Y1375855D01*
X2040803Y1367040D01*
X2063837D01*
X2085118Y1375855D01*
X2101405Y1392142D01*
X2110220Y1413423D01*
Y1436457D01*
X2101405Y1457738D01*
X2085118Y1474025D01*
X2063837Y1482840D01*
D02*
G37*
G36*
X2109190Y1200780D02*
X2091970D01*
X2075336Y1196323D01*
X2060423Y1187713D01*
X2048247Y1175537D01*
X2039637Y1160624D01*
X2035180Y1143990D01*
Y1126770D01*
X2039637Y1110136D01*
X2048247Y1095223D01*
X2060423Y1083047D01*
X2075336Y1074437D01*
X2091970Y1069980D01*
X2109190D01*
X2125824Y1074437D01*
X2140737Y1083047D01*
X2152913Y1095223D01*
X2161523Y1110136D01*
X2165980Y1126770D01*
Y1143990D01*
X2161523Y1160624D01*
X2152913Y1175537D01*
X2140737Y1187713D01*
X2125824Y1196323D01*
X2109190Y1200780D01*
D02*
G37*
G36*
X2267328Y1144820D02*
X2248792D01*
X2230887Y1140022D01*
X2214833Y1130754D01*
X2201726Y1117647D01*
X2192458Y1101593D01*
X2187660Y1083688D01*
Y1065152D01*
X2192458Y1047247D01*
X2201726Y1031193D01*
X2214833Y1018086D01*
X2230887Y1008818D01*
X2248792Y1004020D01*
X2267328D01*
X2285233Y1008818D01*
X2301287Y1018086D01*
X2314394Y1031193D01*
X2323662Y1047247D01*
X2328460Y1065152D01*
Y1083688D01*
X2323662Y1101593D01*
X2314394Y1117647D01*
X2301287Y1130754D01*
X2285233Y1140022D01*
X2267328Y1144820D01*
D02*
G37*
G36*
X2126970Y1050920D02*
X2109750D01*
X2093116Y1046463D01*
X2078203Y1037853D01*
X2066027Y1025677D01*
X2057417Y1010764D01*
X2052960Y994130D01*
Y976910D01*
X2057417Y960276D01*
X2066027Y945363D01*
X2078203Y933187D01*
X2093116Y924577D01*
X2109750Y920120D01*
X2126970D01*
X2143604Y924577D01*
X2158517Y933187D01*
X2170693Y945363D01*
X2179303Y960276D01*
X2183760Y976910D01*
Y994130D01*
X2179303Y1010764D01*
X2170693Y1025677D01*
X2158517Y1037853D01*
X2143604Y1046463D01*
X2126970Y1050920D01*
D02*
G37*
%LPD*%
G36*
X2607480Y3018683D02*
X2607780Y3016809D01*
X2608290Y3014909D01*
X2609013Y3012983D01*
X2609946Y3011030D01*
X2611092Y3009051D01*
X2612449Y3007045D01*
X2614017Y3005013D01*
X2615798Y3002955D01*
X2617790Y3000871D01*
X2599829Y2982910D01*
X2597745Y2984902D01*
X2593655Y2988251D01*
X2591649Y2989608D01*
X2589670Y2990753D01*
X2587717Y2991687D01*
X2585791Y2992410D01*
X2583891Y2992920D01*
X2582017Y2993219D01*
X2580170Y2993307D01*
X2607393Y3020530D01*
X2607480Y3018683D01*
D02*
G37*
G36*
X2801579Y2000471D02*
X2802103Y1995211D01*
X2802562Y1992834D01*
X2803151Y1990624D01*
X2803871Y1988583D01*
X2804723Y1986710D01*
X2805706Y1985006D01*
X2806819Y1983469D01*
X2808063Y1982101D01*
X2769564D01*
X2770808Y1983469D01*
X2771922Y1985006D01*
X2772904Y1986710D01*
X2773756Y1988583D01*
X2774476Y1990624D01*
X2775066Y1992834D01*
X2775524Y1995211D01*
X2775852Y1997757D01*
X2776048Y2000471D01*
X2776114Y2003354D01*
X2801514D01*
X2801579Y2000471D01*
D02*
G37*
D42*
X1397797Y1391496D02*
X1397816D01*
X1321172Y1468120D02*
X1397797Y1391496D01*
X377482Y1635760D02*
X381000D01*
X182880Y1546860D02*
X288582D01*
X160020Y1524000D02*
X182880Y1546860D01*
X160020Y1252220D02*
Y1524000D01*
Y1252220D02*
X279400Y1132840D01*
X233680Y3035300D02*
Y3223260D01*
X142240Y3314700D02*
X233680Y3223260D01*
X165100Y2672080D02*
Y2966720D01*
X233680Y3035300D01*
X165100Y2672080D02*
X241300Y2595880D01*
Y2073254D02*
Y2595880D01*
Y2073254D02*
X381000Y1933554D01*
X891540Y1402080D02*
X1061720D01*
X622300Y1132840D02*
X891540Y1402080D01*
X279400Y1132840D02*
X622300D01*
X1061720Y1406139D02*
X1123701Y1468120D01*
X1321172D01*
X1061720Y1402080D02*
Y1406139D01*
D44*
X2268513Y3860507D02*
X2466340Y3662680D01*
X2268513Y3860507D02*
Y4037145D01*
D45*
X1949495Y2592115D02*
X1950720Y2593340D01*
D50*
X288582Y1546860D02*
X377482Y1635760D01*
X381000D02*
Y1933554D01*
D52*
X2073080Y3518340D02*
Y3733620D01*
X1678940Y3124200D02*
X2073080Y3518340D01*
Y3733620D02*
X2137819Y3798360D01*
X2545600Y1864880D02*
Y2839200D01*
X2367280Y3017520D02*
X2545600Y2839200D01*
X2303780Y1623060D02*
X2545600Y1864880D01*
X689298Y2798552D02*
X714455Y2823709D01*
X469900Y2563188D02*
X689298Y2782586D01*
Y2798552D01*
X469900Y2242820D02*
Y2563188D01*
X714455Y2823709D02*
Y2831718D01*
X1565000Y1887500D02*
X2178886D01*
X1109980Y1689100D02*
X1366600D01*
X2178886Y1887500D02*
X2287280Y1995893D01*
X1366600Y1689100D02*
X1565000Y1887500D01*
X2789240Y3360740D02*
X2810137Y3381637D01*
Y3452437D01*
X1995428Y3360740D02*
X2789240D01*
X2287280Y1995893D02*
Y3004748D01*
X2259396Y3032631D02*
X2287280Y3004748D01*
X2137819Y3798360D02*
Y3806370D01*
X660400Y3395980D02*
X883920Y3172460D01*
X660400Y3395980D02*
Y3530600D01*
X546100Y3307080D02*
Y3512820D01*
Y3307080D02*
X792800Y3060380D01*
X1695067D02*
X1995428Y3360740D01*
X1434905Y3014980D02*
X1742440D01*
X792800Y3060380D02*
X1695067D01*
X972820Y3124200D02*
X1678940D01*
X730188Y2369820D02*
X985520D01*
X1226820Y2611120D02*
X1765300D01*
X985520Y2369820D02*
X1226820Y2611120D01*
X668460Y2308092D02*
X730188Y2369820D01*
X668460Y2157228D02*
Y2308092D01*
X546100Y2169160D02*
Y2481580D01*
X647700Y2583180D01*
X546100Y2169160D02*
X800100Y1915160D01*
X300160Y1314890D02*
Y1445700D01*
Y1314890D02*
X375530Y1239520D01*
X998220Y1480820D02*
X1140460Y1623060D01*
X787400Y1480820D02*
X998220D01*
X1140460Y1623060D02*
X2303780D01*
X980440Y1559560D02*
X1109980Y1689100D01*
X645160Y1338580D02*
X787400Y1480820D01*
X381000Y1338580D02*
X645160D01*
X1483847Y2077720D02*
X2080650D01*
X2166620Y2163690D01*
X1377167Y2184400D02*
X1483847Y2077720D01*
X2166620Y2163690D02*
Y2171700D01*
X1960228Y2846252D02*
X2160820Y3046844D01*
X1960228Y2806048D02*
Y2846252D01*
X1765300Y2611120D02*
X1960228Y2806048D01*
X2037756Y3118444D02*
X2181992D01*
X2259396Y3041041D01*
Y3032631D02*
Y3041041D01*
X2579895Y3020805D02*
X2788814Y2811886D01*
Y1962462D02*
Y2811886D01*
X670560Y1513840D02*
X800100Y1643380D01*
Y1915160D01*
X375530Y1239520D02*
X383540D01*
X924560Y3172460D02*
X972820Y3124200D01*
X883920Y3172460D02*
X924560D01*
X647700Y2583180D02*
X815340D01*
X922020Y2689860D02*
X1109785D01*
X815340Y2583180D02*
X922020Y2689860D01*
X1109785D02*
X1434905Y3014980D01*
X368300Y1513840D02*
X670560D01*
X300160Y1445700D02*
X368300Y1513840D01*
X668460Y2157228D02*
X706888Y2118800D01*
X811588D01*
X734060Y2184400D02*
X1377167D01*
X1948180Y3208020D02*
X2037756Y3118444D01*
D53*
X599440Y1869440D02*
X638793Y1830087D01*
X599440Y1869440D02*
Y1978660D01*
X386080Y2192020D02*
X599440Y1978660D01*
X386080Y2192020D02*
Y3309288D01*
X468000Y3391208D01*
Y3396620D01*
X638793Y1781827D02*
Y1830087D01*
Y1781827D02*
X642620Y1778000D01*
D56*
X3125000Y4472500D02*
D03*
Y372500D02*
D03*
X325000Y4472500D02*
D03*
Y372500D02*
D03*
D57*
X1542000Y655000D02*
D03*
X678000D02*
D03*
D58*
X1542000Y272500D02*
D03*
X678000D02*
D03*
D59*
X810000Y582500D02*
D03*
D60*
D03*
X1410000D02*
D03*
D61*
X263516Y2946484D02*
D03*
X2540000Y4030000D02*
D03*
X2521990Y3734104D02*
D03*
X2466340Y3662680D02*
D03*
X2599485Y3700000D02*
D03*
X814024Y2478705D02*
D03*
X770909Y2255858D02*
D03*
X637540Y2425500D02*
D03*
X1953421Y2681198D02*
D03*
X2000001Y4600002D02*
D03*
X2100001Y4400002D02*
D03*
X1800001Y4600002D02*
D03*
X1900001Y4400002D02*
D03*
X1600001Y4600002D02*
D03*
X1700001Y4400002D02*
D03*
X1400001Y4600002D02*
D03*
X1500001Y4400002D02*
D03*
Y3600002D02*
D03*
X1400001Y200000D02*
D03*
X1200001Y4600002D02*
D03*
X1000001D02*
D03*
X800000D02*
D03*
X900000Y4400002D02*
D03*
Y3600002D02*
D03*
X600000Y4600002D02*
D03*
X700000Y4400002D02*
D03*
X600000Y4200002D02*
D03*
X300000Y3600002D02*
D03*
X1117600Y3500120D02*
D03*
X977900Y3515360D02*
D03*
X1394460Y3606800D02*
D03*
X1285240Y3655060D02*
D03*
X1150620Y3657600D02*
D03*
X1049020Y3817620D02*
D03*
X1059180Y3710940D02*
D03*
X894080Y3708400D02*
D03*
Y3807460D02*
D03*
X2159000Y3624580D02*
D03*
X2997200Y4064000D02*
D03*
X2951480Y4213860D02*
D03*
X2933700Y3746500D02*
D03*
X2565400Y4429760D02*
D03*
X2678577Y3227703D02*
D03*
X2475000Y2387500D02*
D03*
X2159000Y2879044D02*
D03*
X2104685Y1497185D02*
D03*
X1104900Y3373120D02*
D03*
X1623078Y1974126D02*
D03*
X946314Y1754634D02*
D03*
X622527Y2828988D02*
D03*
X511567Y1862634D02*
D03*
X1308505Y1360560D02*
D03*
X1600200Y911860D02*
D03*
Y972820D02*
D03*
X1164120Y1029500D02*
D03*
X600000Y600000D02*
D03*
Y500000D02*
D03*
X500000Y600000D02*
D03*
Y700000D02*
D03*
X443026Y866237D02*
D03*
X714455Y2831718D02*
D03*
X2810137Y3452437D02*
D03*
X1164380Y1251811D02*
D03*
X2161540Y759460D02*
D03*
X1647992Y1294604D02*
D03*
X3119867Y2675232D02*
D03*
X3276600Y2626360D02*
D03*
X2174383Y1975769D02*
D03*
X1950720Y2171700D02*
D03*
X1008380Y449580D02*
D03*
X1322340Y3195289D02*
D03*
X2137819Y3806370D02*
D03*
X2133600Y3919220D02*
D03*
X734060Y3223260D02*
D03*
X660400Y3530600D02*
D03*
X546100Y3512820D02*
D03*
X1742440Y3014980D02*
D03*
X469900Y2242820D02*
D03*
X1747624Y2186817D02*
D03*
X692491Y1894437D02*
D03*
X980440Y1559560D02*
D03*
X952500Y1841220D02*
D03*
X1320800Y1983740D02*
D03*
X2160820Y3046844D02*
D03*
X2173014Y3211122D02*
D03*
X2268513Y4037145D02*
D03*
X2579895Y3020805D02*
D03*
X2712693Y3466578D02*
D03*
X2641600Y3543300D02*
D03*
X2359822Y3209858D02*
D03*
X2367280Y3017520D02*
D03*
X3098800Y3949700D02*
D03*
X3098378Y4098438D02*
D03*
X3101187Y3797307D02*
D03*
X332740Y952500D02*
D03*
X353920Y1040540D02*
D03*
X119380Y2400300D02*
D03*
X942340Y1671320D02*
D03*
X383540Y1239520D02*
D03*
X381000Y1338580D02*
D03*
X811588Y2118800D02*
D03*
X2788814Y1962462D02*
D03*
X1518920Y1391920D02*
D03*
X1384300Y457200D02*
D03*
X1130357Y1794161D02*
D03*
X1948180Y3208020D02*
D03*
X2189480Y375920D02*
D03*
X1965960Y409600D02*
D03*
X1950720Y2593340D02*
D03*
X820420Y2778321D02*
D03*
X734060Y2184400D02*
D03*
X2166620Y2171700D02*
D03*
D62*
X2654300Y4231640D02*
D03*
X1343660Y835660D02*
D03*
X2897467Y3578289D02*
D03*
X2100580Y1135380D02*
D03*
X1005840Y3360420D02*
D03*
X468000Y3396620D02*
D03*
X142240Y3314700D02*
D03*
X119380Y3159760D02*
D03*
X2832100Y3644900D02*
D03*
X2894580Y3645365D02*
D03*
X2971800Y3581400D02*
D03*
Y3644900D02*
D03*
X2600960Y4323080D02*
D03*
X2606040Y4518660D02*
D03*
X2494280Y4549140D02*
D03*
X2390075Y4533780D02*
D03*
X899119Y1054203D02*
D03*
X2118360Y985520D02*
D03*
X642620Y1778000D02*
D03*
X876300Y835660D02*
D03*
D63*
X3282500Y4472500D02*
D03*
X3236370Y4583870D02*
D03*
Y4361131D02*
D03*
X3125000Y4315000D02*
D03*
Y4630000D02*
D03*
X3013631Y4583870D02*
D03*
Y4361131D02*
D03*
X2967500Y4472500D02*
D03*
X3236370Y483869D02*
D03*
X3125000Y530000D02*
D03*
X3013631Y483869D02*
D03*
X2967500Y372500D02*
D03*
X3282500D02*
D03*
X3236370Y261131D02*
D03*
X3125000Y215000D02*
D03*
X3013631Y261131D02*
D03*
X482500Y4472500D02*
D03*
X436370Y4583870D02*
D03*
Y4361131D02*
D03*
X325000Y4315000D02*
D03*
Y4630000D02*
D03*
X213631Y4583870D02*
D03*
Y4361131D02*
D03*
X167500Y4472500D02*
D03*
X325000Y530000D02*
D03*
X436370Y483869D02*
D03*
X213631D02*
D03*
X482500Y372500D02*
D03*
X436370Y261131D02*
D03*
X213631D02*
D03*
X167500Y372500D02*
D03*
X325000Y215000D02*
D03*
D64*
X1130300Y271780D02*
D03*
X3091220Y3044255D02*
D03*
X1482717Y1180228D02*
D03*
X3179360Y1747520D02*
D03*
X1767840Y642620D02*
D03*
X1087120Y536567D02*
D03*
X2370380Y2174120D02*
D03*
X2258060Y1074420D02*
D03*
X842794Y433641D02*
D03*
D65*
X1397816Y1391496D02*
D03*
X1950720Y2402840D02*
D03*
X2052320Y1424940D02*
D03*
X1061720Y1402080D02*
D03*
X2918509Y1433233D02*
D03*
D66*
X381000Y1635760D02*
D03*
%TF.MD5,20ecfed808dfa57597a40607db7cb86e*%
M02*
